G04 DesignSpark PCB Gerber Version 13.0 Build *
%FSLAX35Y35*%
%MOMM*%
%ADD10C,0.12700*%
%ADD103C,2.54000*%
X0Y0D02*
D02*
D10*
X1039240Y1997050D02*
Y2092300D01*
X1086870D01*
X1102740Y2084370D01*
X1110680Y2076430D01*
X1118620Y2060550D01*
Y2028800D01*
X1110680Y2012930D01*
X1102740Y2004990D01*
X1086870Y1997050D01*
X1039240D01*
Y2251050D02*
Y2346300D01*
X1086870D01*
X1102740Y2338370D01*
X1110680Y2330430D01*
X1118620Y2314550D01*
Y2282800D01*
X1110680Y2266930D01*
X1102740Y2258990D01*
X1086870Y2251050D01*
X1039240D01*
Y2505050D02*
Y2600300D01*
X1086870D01*
X1102740Y2592370D01*
X1110680Y2584430D01*
X1118620Y2568550D01*
Y2536800D01*
X1110680Y2520930D01*
X1102740Y2512990D01*
X1086870Y2505050D01*
X1039240D01*
Y2759050D02*
Y2854300D01*
X1086870D01*
X1102740Y2846370D01*
X1110680Y2838430D01*
X1118620Y2822550D01*
Y2790800D01*
X1110680Y2774930D01*
X1102740Y2766990D01*
X1086870Y2759050D01*
X1039240D01*
Y3013050D02*
Y3108300D01*
X1086870D01*
X1102740Y3100370D01*
X1110680Y3092430D01*
X1118620Y3076550D01*
Y3044800D01*
X1110680Y3028930D01*
X1102740Y3020990D01*
X1086870Y3013050D01*
X1039240D01*
Y3267050D02*
Y3362300D01*
X1086870D01*
X1102740Y3354370D01*
X1110680Y3346430D01*
X1118620Y3330550D01*
Y3298800D01*
X1110680Y3282930D01*
X1102740Y3274990D01*
X1086870Y3267050D01*
X1039240D01*
Y3521050D02*
Y3616300D01*
X1086870D01*
X1102740Y3608370D01*
X1110680Y3600430D01*
X1118620Y3584550D01*
Y3552800D01*
X1110680Y3536930D01*
X1102740Y3528990D01*
X1086870Y3521050D01*
X1039240D01*
Y3775050D02*
Y3870300D01*
X1086870D01*
X1102740Y3862370D01*
X1110680Y3854430D01*
X1118620Y3838550D01*
Y3806800D01*
X1110680Y3790930D01*
X1102740Y3782990D01*
X1086870Y3775050D01*
X1039240D01*
Y4029050D02*
Y4124300D01*
X1086870D01*
X1102740Y4116370D01*
X1110680Y4108430D01*
X1118620Y4092550D01*
Y4060800D01*
X1110680Y4044930D01*
X1102740Y4036990D01*
X1086870Y4029050D01*
X1039240D01*
Y4283050D02*
Y4378300D01*
X1086870D01*
X1102740Y4370370D01*
X1110680Y4362430D01*
X1118620Y4346550D01*
Y4314800D01*
X1110680Y4298930D01*
X1102740Y4290990D01*
X1086870Y4283050D01*
X1039240D01*
Y4537050D02*
Y4632300D01*
X1086870D01*
X1102740Y4624370D01*
X1110680Y4616430D01*
X1118620Y4600550D01*
Y4568800D01*
X1110680Y4552930D01*
X1102740Y4544990D01*
X1086870Y4537050D01*
X1039240D01*
Y4791050D02*
Y4886300D01*
X1086870D01*
X1102740Y4878370D01*
X1110680Y4870430D01*
X1118620Y4854550D01*
Y4822800D01*
X1110680Y4806930D01*
X1102740Y4798990D01*
X1086870Y4791050D01*
X1039240D01*
Y5045050D02*
Y5140300D01*
X1086870D01*
X1102740Y5132370D01*
X1110680Y5124430D01*
X1118620Y5108550D01*
Y5076800D01*
X1110680Y5060930D01*
X1102740Y5052990D01*
X1086870Y5045050D01*
X1039240D01*
Y5299050D02*
Y5394300D01*
X1086870D01*
X1102740Y5386370D01*
X1110680Y5378430D01*
X1118620Y5362550D01*
Y5330800D01*
X1110680Y5314930D01*
X1102740Y5306990D01*
X1086870Y5299050D01*
X1039240D01*
Y5553050D02*
Y5648300D01*
X1086870D01*
X1102740Y5640370D01*
X1110680Y5632430D01*
X1118620Y5616550D01*
Y5584800D01*
X1110680Y5568930D01*
X1102740Y5560990D01*
X1086870Y5553050D01*
X1039240D01*
Y5807050D02*
Y5902300D01*
X1086870D01*
X1102740Y5894370D01*
X1110680Y5886430D01*
X1118620Y5870550D01*
Y5838800D01*
X1110680Y5822930D01*
X1102740Y5814990D01*
X1086870Y5807050D01*
X1039240D01*
Y6061050D02*
Y6156300D01*
X1086870D01*
X1102740Y6148370D01*
X1110680Y6140430D01*
X1118620Y6124550D01*
Y6092800D01*
X1110680Y6076930D01*
X1102740Y6068990D01*
X1086870Y6061050D01*
X1039240D01*
X1092240Y1306050D02*
Y1401300D01*
X1171620D01*
X1155740Y1353680D02*
X1092240D01*
X1269800Y2018680D02*
X1285680Y2010740D01*
X1293620Y1994870D01*
X1285680Y1978990D01*
X1269800Y1971050D01*
X1214240D01*
Y2066300D01*
X1269800D01*
X1285680Y2058370D01*
X1293620Y2042490D01*
X1285680Y2026620D01*
X1269800Y2018680D01*
X1214240D01*
X1319800Y2343680D02*
X1335680Y2335740D01*
X1343620Y2319870D01*
X1335680Y2303990D01*
X1319800Y2296050D01*
X1264240D01*
Y2391300D01*
X1319800D01*
X1335680Y2383370D01*
X1343620Y2367490D01*
X1335680Y2351620D01*
X1319800Y2343680D01*
X1264240D01*
X1394800Y4373680D02*
X1410680Y4365740D01*
X1418620Y4349870D01*
X1410680Y4333990D01*
X1394800Y4326050D01*
X1339240D01*
Y4421300D01*
X1394800D01*
X1410680Y4413370D01*
X1418620Y4397490D01*
X1410680Y4381620D01*
X1394800Y4373680D01*
X1339240D01*
X1344240Y1686050D02*
Y1781300D01*
X1423620D01*
X1407740Y1733680D02*
X1344240D01*
Y1686050D02*
X1423620D01*
X1499800Y5854680D02*
X1515680Y5846740D01*
X1523620Y5830870D01*
X1515680Y5814990D01*
X1499800Y5807050D01*
X1444240D01*
Y5902300D01*
X1499800D01*
X1515680Y5894370D01*
X1523620Y5878490D01*
X1515680Y5862620D01*
X1499800Y5854680D01*
X1444240D01*
X1589800Y3333680D02*
X1605680Y3325740D01*
X1613620Y3309870D01*
X1605680Y3293990D01*
X1589800Y3286050D01*
X1534240D01*
Y3381300D01*
X1589800D01*
X1605680Y3373370D01*
X1613620Y3357490D01*
X1605680Y3341620D01*
X1589800Y3333680D01*
X1534240D01*
X1629800Y3548680D02*
X1645680Y3540740D01*
X1653620Y3524870D01*
X1645680Y3508990D01*
X1629800Y3501050D01*
X1574240D01*
Y3596300D01*
X1629800D01*
X1645680Y3588370D01*
X1653620Y3572490D01*
X1645680Y3556620D01*
X1629800Y3548680D01*
X1574240D01*
X1604240Y3716050D02*
X1643930Y3811300D01*
X1683620Y3716050D01*
X1620120Y3755740D02*
X1667740D01*
X1719800Y5598680D02*
X1735680Y5590740D01*
X1743620Y5574870D01*
X1735680Y5558990D01*
X1719800Y5551050D01*
X1664240D01*
Y5646300D01*
X1719800D01*
X1735680Y5638370D01*
X1743620Y5622490D01*
X1735680Y5606620D01*
X1719800Y5598680D01*
X1664240D01*
X1669240Y6756050D02*
X1708930Y6851300D01*
X1748620Y6756050D01*
X1685120Y6795740D02*
X1732740D01*
X1704240Y1686050D02*
Y1781300D01*
X1783620D01*
X1767740Y1733680D02*
X1704240D01*
Y1686050D02*
X1783620D01*
X1798620Y2296930D02*
X1790680Y2288990D01*
X1774800Y2281050D01*
X1750990D01*
X1735120Y2288990D01*
X1727180Y2296930D01*
X1719240Y2312800D01*
Y2344550D01*
X1727180Y2360430D01*
X1735120Y2368370D01*
X1750990Y2376300D01*
X1774800D01*
X1790680Y2368370D01*
X1798620Y2360430D01*
Y2496930D02*
X1790680Y2488990D01*
X1774800Y2481050D01*
X1750990D01*
X1735120Y2488990D01*
X1727180Y2496930D01*
X1719240Y2512800D01*
Y2544550D01*
X1727180Y2560430D01*
X1735120Y2568370D01*
X1750990Y2576300D01*
X1774800D01*
X1790680Y2568370D01*
X1798620Y2560430D01*
Y2696930D02*
X1790680Y2688990D01*
X1774800Y2681050D01*
X1750990D01*
X1735120Y2688990D01*
X1727180Y2696930D01*
X1719240Y2712800D01*
Y2744550D01*
X1727180Y2760430D01*
X1735120Y2768370D01*
X1750990Y2776300D01*
X1774800D01*
X1790680Y2768370D01*
X1798620Y2760430D01*
Y2896930D02*
X1790680Y2888990D01*
X1774800Y2881050D01*
X1750990D01*
X1735120Y2888990D01*
X1727180Y2896930D01*
X1719240Y2912800D01*
Y2944550D01*
X1727180Y2960430D01*
X1735120Y2968370D01*
X1750990Y2976300D01*
X1774800D01*
X1790680Y2968370D01*
X1798620Y2960430D01*
X1794800Y4373680D02*
X1810680Y4365740D01*
X1818620Y4349870D01*
X1810680Y4333990D01*
X1794800Y4326050D01*
X1739240D01*
Y4421300D01*
X1794800D01*
X1810680Y4413370D01*
X1818620Y4397490D01*
X1810680Y4381620D01*
X1794800Y4373680D01*
X1739240D01*
X1809800Y3573680D02*
X1825680Y3565740D01*
X1833620Y3549870D01*
X1825680Y3533990D01*
X1809800Y3526050D01*
X1754240D01*
Y3621300D01*
X1809800D01*
X1825680Y3613370D01*
X1833620Y3597490D01*
X1825680Y3581620D01*
X1809800Y3573680D01*
X1754240D01*
X1924800Y5918680D02*
X1940680Y5910740D01*
X1948620Y5894870D01*
X1940680Y5878990D01*
X1924800Y5871050D01*
X1869240D01*
Y5966300D01*
X1924800D01*
X1940680Y5958370D01*
X1948620Y5942490D01*
X1940680Y5926620D01*
X1924800Y5918680D01*
X1869240D01*
X1949240Y1942050D02*
X1988930Y2037300D01*
X2028620Y1942050D01*
X1965120Y1981740D02*
X2012740D01*
X1956240Y1306050D02*
Y1401300D01*
X2035620D01*
X2019740Y1353680D02*
X1956240D01*
X2029800Y6083680D02*
X2045680Y6075740D01*
X2053620Y6059870D01*
X2045680Y6043990D01*
X2029800Y6036050D01*
X1974240D01*
Y6131300D01*
X2029800D01*
X2045680Y6123370D01*
X2053620Y6107490D01*
X2045680Y6091620D01*
X2029800Y6083680D01*
X1974240D01*
X2099800Y3433680D02*
X2115680Y3425740D01*
X2123620Y3409870D01*
X2115680Y3393990D01*
X2099800Y3386050D01*
X2044240D01*
Y3481300D01*
X2099800D01*
X2115680Y3473370D01*
X2123620Y3457490D01*
X2115680Y3441620D01*
X2099800Y3433680D01*
X2044240D01*
X2114800Y5463680D02*
X2130680Y5455740D01*
X2138620Y5439870D01*
X2130680Y5423990D01*
X2114800Y5416050D01*
X2059240D01*
Y5511300D01*
X2114800D01*
X2130680Y5503370D01*
X2138620Y5487490D01*
X2130680Y5471620D01*
X2114800Y5463680D01*
X2059240D01*
X2124800Y6343680D02*
X2140680Y6335740D01*
X2148620Y6319870D01*
X2140680Y6303990D01*
X2124800Y6296050D01*
X2069240D01*
Y6391300D01*
X2124800D01*
X2140680Y6383370D01*
X2148620Y6367490D01*
X2140680Y6351620D01*
X2124800Y6343680D01*
X2069240D01*
X2139800Y7748680D02*
X2155680Y7740740D01*
X2163620Y7724870D01*
X2155680Y7708990D01*
X2139800Y7701050D01*
X2084240D01*
Y7796300D01*
X2139800D01*
X2155680Y7788370D01*
X2163620Y7772490D01*
X2155680Y7756620D01*
X2139800Y7748680D01*
X2084240D01*
X2144800Y2133680D02*
X2160680Y2125740D01*
X2168620Y2109870D01*
X2160680Y2093990D01*
X2144800Y2086050D01*
X2089240D01*
Y2181300D01*
X2144800D01*
X2160680Y2173370D01*
X2168620Y2157490D01*
X2160680Y2141620D01*
X2144800Y2133680D01*
X2089240D01*
X2159800Y1793680D02*
X2175680Y1785740D01*
X2183620Y1769870D01*
X2175680Y1753990D01*
X2159800Y1746050D01*
X2104240D01*
Y1841300D01*
X2159800D01*
X2175680Y1833370D01*
X2183620Y1817490D01*
X2175680Y1801620D01*
X2159800Y1793680D01*
X2104240D01*
X2114240Y3731050D02*
X2153930Y3826300D01*
X2193620Y3731050D01*
X2130120Y3770740D02*
X2177740D01*
X2234800Y5343680D02*
X2250680Y5335740D01*
X2258620Y5319870D01*
X2250680Y5303990D01*
X2234800Y5296050D01*
X2179240D01*
Y5391300D01*
X2234800D01*
X2250680Y5383370D01*
X2258620Y5367490D01*
X2250680Y5351620D01*
X2234800Y5343680D01*
X2179240D01*
X2254800Y2768680D02*
X2270680Y2760740D01*
X2278620Y2744870D01*
X2270680Y2728990D01*
X2254800Y2721050D01*
X2199240D01*
Y2816300D01*
X2254800D01*
X2270680Y2808370D01*
X2278620Y2792490D01*
X2270680Y2776620D01*
X2254800Y2768680D01*
X2199240D01*
X2279800Y3338680D02*
X2295680Y3330740D01*
X2303620Y3314870D01*
X2295680Y3298990D01*
X2279800Y3291050D01*
X2224240D01*
Y3386300D01*
X2279800D01*
X2295680Y3378370D01*
X2303620Y3362490D01*
X2295680Y3346620D01*
X2279800Y3338680D01*
X2224240D01*
X2394800Y5698680D02*
X2410680Y5690740D01*
X2418620Y5674870D01*
X2410680Y5658990D01*
X2394800Y5651050D01*
X2339240D01*
Y5746300D01*
X2394800D01*
X2410680Y5738370D01*
X2418620Y5722490D01*
X2410680Y5706620D01*
X2394800Y5698680D01*
X2339240D01*
X2419800Y2103680D02*
X2435680Y2095740D01*
X2443620Y2079870D01*
X2435680Y2063990D01*
X2419800Y2056050D01*
X2364240D01*
Y2151300D01*
X2419800D01*
X2435680Y2143370D01*
X2443620Y2127490D01*
X2435680Y2111620D01*
X2419800Y2103680D01*
X2364240D01*
X2419800Y4328680D02*
X2435680Y4320740D01*
X2443620Y4304870D01*
X2435680Y4288990D01*
X2419800Y4281050D01*
X2364240D01*
Y4376300D01*
X2419800D01*
X2435680Y4368370D01*
X2443620Y4352490D01*
X2435680Y4336620D01*
X2419800Y4328680D01*
X2364240D01*
X2434800Y6083680D02*
X2450680Y6075740D01*
X2458620Y6059870D01*
X2450680Y6043990D01*
X2434800Y6036050D01*
X2379240D01*
Y6131300D01*
X2434800D01*
X2450680Y6123370D01*
X2458620Y6107490D01*
X2450680Y6091620D01*
X2434800Y6083680D01*
X2379240D01*
X2539800Y6873680D02*
X2555680Y6865740D01*
X2563620Y6849870D01*
X2555680Y6833990D01*
X2539800Y6826050D01*
X2484240D01*
Y6921300D01*
X2539800D01*
X2555680Y6913370D01*
X2563620Y6897490D01*
X2555680Y6881620D01*
X2539800Y6873680D01*
X2484240D01*
X2564800Y8188680D02*
X2580680Y8180740D01*
X2588620Y8164870D01*
X2580680Y8148990D01*
X2564800Y8141050D01*
X2509240D01*
Y8236300D01*
X2564800D01*
X2580680Y8228370D01*
X2588620Y8212490D01*
X2580680Y8196620D01*
X2564800Y8188680D01*
X2509240D01*
X2574150Y1453830D02*
X2597970D01*
Y1445890D01*
X2590030Y1430020D01*
X2582090Y1422080D01*
X2566220Y1414140D01*
X2550340D01*
X2534470Y1422080D01*
X2526530Y1430020D01*
X2518590Y1445890D01*
Y1477640D01*
X2526530Y1493520D01*
X2534470Y1501460D01*
X2550340Y1509390D01*
X2566220D01*
X2582090Y1501460D01*
X2590030Y1493520D01*
X2597970Y1477640D01*
X2574150Y1580830D02*
X2597970D01*
Y1572890D01*
X2590030Y1557020D01*
X2582090Y1549080D01*
X2566220Y1541140D01*
X2550340D01*
X2534470Y1549080D01*
X2526530Y1557020D01*
X2518590Y1572890D01*
Y1604640D01*
X2526530Y1620520D01*
X2534470Y1628460D01*
X2550340Y1636390D01*
X2566220D01*
X2582090Y1628460D01*
X2590030Y1620520D01*
X2597970Y1604640D01*
X2574150Y1707830D02*
X2597970D01*
Y1699890D01*
X2590030Y1684020D01*
X2582090Y1676080D01*
X2566220Y1668140D01*
X2550340D01*
X2534470Y1676080D01*
X2526530Y1684020D01*
X2518590Y1699890D01*
Y1731640D01*
X2526530Y1747520D01*
X2534470Y1755460D01*
X2550340Y1763390D01*
X2566220D01*
X2582090Y1755460D01*
X2590030Y1747520D01*
X2597970Y1731640D01*
X2574150Y1834830D02*
X2597970D01*
Y1826890D01*
X2590030Y1811020D01*
X2582090Y1803080D01*
X2566220Y1795140D01*
X2550340D01*
X2534470Y1803080D01*
X2526530Y1811020D01*
X2518590Y1826890D01*
Y1858640D01*
X2526530Y1874520D01*
X2534470Y1882460D01*
X2550340Y1890390D01*
X2566220D01*
X2582090Y1882460D01*
X2590030Y1874520D01*
X2597970Y1858640D01*
X2574150Y1961830D02*
X2597970D01*
Y1953890D01*
X2590030Y1938020D01*
X2582090Y1930080D01*
X2566220Y1922140D01*
X2550340D01*
X2534470Y1930080D01*
X2526530Y1938020D01*
X2518590Y1953890D01*
Y1985640D01*
X2526530Y2001520D01*
X2534470Y2009460D01*
X2550340Y2017390D01*
X2566220D01*
X2582090Y2009460D01*
X2590030Y2001520D01*
X2597970Y1985640D01*
X2574150Y2088830D02*
X2597970D01*
Y2080890D01*
X2590030Y2065020D01*
X2582090Y2057080D01*
X2566220Y2049140D01*
X2550340D01*
X2534470Y2057080D01*
X2526530Y2065020D01*
X2518590Y2080890D01*
Y2112640D01*
X2526530Y2128520D01*
X2534470Y2136460D01*
X2550340Y2144390D01*
X2566220D01*
X2582090Y2136460D01*
X2590030Y2128520D01*
X2597970Y2112640D01*
X2574150Y2215830D02*
X2597970D01*
Y2207890D01*
X2590030Y2192020D01*
X2582090Y2184080D01*
X2566220Y2176140D01*
X2550340D01*
X2534470Y2184080D01*
X2526530Y2192020D01*
X2518590Y2207890D01*
Y2239640D01*
X2526530Y2255520D01*
X2534470Y2263460D01*
X2550340Y2271390D01*
X2566220D01*
X2582090Y2263460D01*
X2590030Y2255520D01*
X2597970Y2239640D01*
X2574150Y2342830D02*
X2597970D01*
Y2334890D01*
X2590030Y2319020D01*
X2582090Y2311080D01*
X2566220Y2303140D01*
X2550340D01*
X2534470Y2311080D01*
X2526530Y2319020D01*
X2518590Y2334890D01*
Y2366640D01*
X2526530Y2382520D01*
X2534470Y2390460D01*
X2550340Y2398390D01*
X2566220D01*
X2582090Y2390460D01*
X2590030Y2382520D01*
X2597970Y2366640D01*
X2574150Y2469830D02*
X2597970D01*
Y2461890D01*
X2590030Y2446020D01*
X2582090Y2438080D01*
X2566220Y2430140D01*
X2550340D01*
X2534470Y2438080D01*
X2526530Y2446020D01*
X2518590Y2461890D01*
Y2493640D01*
X2526530Y2509520D01*
X2534470Y2517460D01*
X2550340Y2525390D01*
X2566220D01*
X2582090Y2517460D01*
X2590030Y2509520D01*
X2597970Y2493640D01*
X2574150Y2596830D02*
X2597970D01*
Y2588890D01*
X2590030Y2573020D01*
X2582090Y2565080D01*
X2566220Y2557140D01*
X2550340D01*
X2534470Y2565080D01*
X2526530Y2573020D01*
X2518590Y2588890D01*
Y2620640D01*
X2526530Y2636520D01*
X2534470Y2644460D01*
X2550340Y2652390D01*
X2566220D01*
X2582090Y2644460D01*
X2590030Y2636520D01*
X2597970Y2620640D01*
X2574150Y2723830D02*
X2597970D01*
Y2715890D01*
X2590030Y2700020D01*
X2582090Y2692080D01*
X2566220Y2684140D01*
X2550340D01*
X2534470Y2692080D01*
X2526530Y2700020D01*
X2518590Y2715890D01*
Y2747640D01*
X2526530Y2763520D01*
X2534470Y2771460D01*
X2550340Y2779390D01*
X2566220D01*
X2582090Y2771460D01*
X2590030Y2763520D01*
X2597970Y2747640D01*
X2574150Y2850830D02*
X2597970D01*
Y2842890D01*
X2590030Y2827020D01*
X2582090Y2819080D01*
X2566220Y2811140D01*
X2550340D01*
X2534470Y2819080D01*
X2526530Y2827020D01*
X2518590Y2842890D01*
Y2874640D01*
X2526530Y2890520D01*
X2534470Y2898460D01*
X2550340Y2906390D01*
X2566220D01*
X2582090Y2898460D01*
X2590030Y2890520D01*
X2597970Y2874640D01*
X2574150Y2977830D02*
X2597970D01*
Y2969890D01*
X2590030Y2954020D01*
X2582090Y2946080D01*
X2566220Y2938140D01*
X2550340D01*
X2534470Y2946080D01*
X2526530Y2954020D01*
X2518590Y2969890D01*
Y3001640D01*
X2526530Y3017520D01*
X2534470Y3025460D01*
X2550340Y3033390D01*
X2566220D01*
X2582090Y3025460D01*
X2590030Y3017520D01*
X2597970Y3001640D01*
X2574150Y3104830D02*
X2597970D01*
Y3096890D01*
X2590030Y3081020D01*
X2582090Y3073080D01*
X2566220Y3065140D01*
X2550340D01*
X2534470Y3073080D01*
X2526530Y3081020D01*
X2518590Y3096890D01*
Y3128640D01*
X2526530Y3144520D01*
X2534470Y3152460D01*
X2550340Y3160390D01*
X2566220D01*
X2582090Y3152460D01*
X2590030Y3144520D01*
X2597970Y3128640D01*
X2574150Y3231830D02*
X2597970D01*
Y3223890D01*
X2590030Y3208020D01*
X2582090Y3200080D01*
X2566220Y3192140D01*
X2550340D01*
X2534470Y3200080D01*
X2526530Y3208020D01*
X2518590Y3223890D01*
Y3255640D01*
X2526530Y3271520D01*
X2534470Y3279460D01*
X2550340Y3287390D01*
X2566220D01*
X2582090Y3279460D01*
X2590030Y3271520D01*
X2597970Y3255640D01*
X2574150Y3358830D02*
X2597970D01*
Y3350890D01*
X2590030Y3335020D01*
X2582090Y3327080D01*
X2566220Y3319140D01*
X2550340D01*
X2534470Y3327080D01*
X2526530Y3335020D01*
X2518590Y3350890D01*
Y3382640D01*
X2526530Y3398520D01*
X2534470Y3406460D01*
X2550340Y3414390D01*
X2566220D01*
X2582090Y3406460D01*
X2590030Y3398520D01*
X2597970Y3382640D01*
X2574150Y3485830D02*
X2597970D01*
Y3477890D01*
X2590030Y3462020D01*
X2582090Y3454080D01*
X2566220Y3446140D01*
X2550340D01*
X2534470Y3454080D01*
X2526530Y3462020D01*
X2518590Y3477890D01*
Y3509640D01*
X2526530Y3525520D01*
X2534470Y3533460D01*
X2550340Y3541390D01*
X2566220D01*
X2582090Y3533460D01*
X2590030Y3525520D01*
X2597970Y3509640D01*
X2599800Y4278680D02*
X2615680Y4270740D01*
X2623620Y4254870D01*
X2615680Y4238990D01*
X2599800Y4231050D01*
X2544240D01*
Y4326300D01*
X2599800D01*
X2615680Y4318370D01*
X2623620Y4302490D01*
X2615680Y4286620D01*
X2599800Y4278680D01*
X2544240D01*
X2614240Y7606050D02*
X2653930Y7701300D01*
X2693620Y7606050D01*
X2630120Y7645740D02*
X2677740D01*
X2701150Y1453830D02*
X2724970D01*
Y1445890D01*
X2717030Y1430020D01*
X2709090Y1422080D01*
X2693220Y1414140D01*
X2677340D01*
X2661470Y1422080D01*
X2653530Y1430020D01*
X2645590Y1445890D01*
Y1477640D01*
X2653530Y1493520D01*
X2661470Y1501460D01*
X2677340Y1509390D01*
X2693220D01*
X2709090Y1501460D01*
X2717030Y1493520D01*
X2724970Y1477640D01*
X2701150Y1580830D02*
X2724970D01*
Y1572890D01*
X2717030Y1557020D01*
X2709090Y1549080D01*
X2693220Y1541140D01*
X2677340D01*
X2661470Y1549080D01*
X2653530Y1557020D01*
X2645590Y1572890D01*
Y1604640D01*
X2653530Y1620520D01*
X2661470Y1628460D01*
X2677340Y1636390D01*
X2693220D01*
X2709090Y1628460D01*
X2717030Y1620520D01*
X2724970Y1604640D01*
X2701150Y1707830D02*
X2724970D01*
Y1699890D01*
X2717030Y1684020D01*
X2709090Y1676080D01*
X2693220Y1668140D01*
X2677340D01*
X2661470Y1676080D01*
X2653530Y1684020D01*
X2645590Y1699890D01*
Y1731640D01*
X2653530Y1747520D01*
X2661470Y1755460D01*
X2677340Y1763390D01*
X2693220D01*
X2709090Y1755460D01*
X2717030Y1747520D01*
X2724970Y1731640D01*
X2701150Y1834830D02*
X2724970D01*
Y1826890D01*
X2717030Y1811020D01*
X2709090Y1803080D01*
X2693220Y1795140D01*
X2677340D01*
X2661470Y1803080D01*
X2653530Y1811020D01*
X2645590Y1826890D01*
Y1858640D01*
X2653530Y1874520D01*
X2661470Y1882460D01*
X2677340Y1890390D01*
X2693220D01*
X2709090Y1882460D01*
X2717030Y1874520D01*
X2724970Y1858640D01*
X2701150Y1961830D02*
X2724970D01*
Y1953890D01*
X2717030Y1938020D01*
X2709090Y1930080D01*
X2693220Y1922140D01*
X2677340D01*
X2661470Y1930080D01*
X2653530Y1938020D01*
X2645590Y1953890D01*
Y1985640D01*
X2653530Y2001520D01*
X2661470Y2009460D01*
X2677340Y2017390D01*
X2693220D01*
X2709090Y2009460D01*
X2717030Y2001520D01*
X2724970Y1985640D01*
X2701150Y2088830D02*
X2724970D01*
Y2080890D01*
X2717030Y2065020D01*
X2709090Y2057080D01*
X2693220Y2049140D01*
X2677340D01*
X2661470Y2057080D01*
X2653530Y2065020D01*
X2645590Y2080890D01*
Y2112640D01*
X2653530Y2128520D01*
X2661470Y2136460D01*
X2677340Y2144390D01*
X2693220D01*
X2709090Y2136460D01*
X2717030Y2128520D01*
X2724970Y2112640D01*
X2701150Y2215830D02*
X2724970D01*
Y2207890D01*
X2717030Y2192020D01*
X2709090Y2184080D01*
X2693220Y2176140D01*
X2677340D01*
X2661470Y2184080D01*
X2653530Y2192020D01*
X2645590Y2207890D01*
Y2239640D01*
X2653530Y2255520D01*
X2661470Y2263460D01*
X2677340Y2271390D01*
X2693220D01*
X2709090Y2263460D01*
X2717030Y2255520D01*
X2724970Y2239640D01*
X2701150Y2342830D02*
X2724970D01*
Y2334890D01*
X2717030Y2319020D01*
X2709090Y2311080D01*
X2693220Y2303140D01*
X2677340D01*
X2661470Y2311080D01*
X2653530Y2319020D01*
X2645590Y2334890D01*
Y2366640D01*
X2653530Y2382520D01*
X2661470Y2390460D01*
X2677340Y2398390D01*
X2693220D01*
X2709090Y2390460D01*
X2717030Y2382520D01*
X2724970Y2366640D01*
X2701150Y2469830D02*
X2724970D01*
Y2461890D01*
X2717030Y2446020D01*
X2709090Y2438080D01*
X2693220Y2430140D01*
X2677340D01*
X2661470Y2438080D01*
X2653530Y2446020D01*
X2645590Y2461890D01*
Y2493640D01*
X2653530Y2509520D01*
X2661470Y2517460D01*
X2677340Y2525390D01*
X2693220D01*
X2709090Y2517460D01*
X2717030Y2509520D01*
X2724970Y2493640D01*
X2701150Y2596830D02*
X2724970D01*
Y2588890D01*
X2717030Y2573020D01*
X2709090Y2565080D01*
X2693220Y2557140D01*
X2677340D01*
X2661470Y2565080D01*
X2653530Y2573020D01*
X2645590Y2588890D01*
Y2620640D01*
X2653530Y2636520D01*
X2661470Y2644460D01*
X2677340Y2652390D01*
X2693220D01*
X2709090Y2644460D01*
X2717030Y2636520D01*
X2724970Y2620640D01*
X2701150Y2723830D02*
X2724970D01*
Y2715890D01*
X2717030Y2700020D01*
X2709090Y2692080D01*
X2693220Y2684140D01*
X2677340D01*
X2661470Y2692080D01*
X2653530Y2700020D01*
X2645590Y2715890D01*
Y2747640D01*
X2653530Y2763520D01*
X2661470Y2771460D01*
X2677340Y2779390D01*
X2693220D01*
X2709090Y2771460D01*
X2717030Y2763520D01*
X2724970Y2747640D01*
X2701150Y2850830D02*
X2724970D01*
Y2842890D01*
X2717030Y2827020D01*
X2709090Y2819080D01*
X2693220Y2811140D01*
X2677340D01*
X2661470Y2819080D01*
X2653530Y2827020D01*
X2645590Y2842890D01*
Y2874640D01*
X2653530Y2890520D01*
X2661470Y2898460D01*
X2677340Y2906390D01*
X2693220D01*
X2709090Y2898460D01*
X2717030Y2890520D01*
X2724970Y2874640D01*
X2701150Y2977830D02*
X2724970D01*
Y2969890D01*
X2717030Y2954020D01*
X2709090Y2946080D01*
X2693220Y2938140D01*
X2677340D01*
X2661470Y2946080D01*
X2653530Y2954020D01*
X2645590Y2969890D01*
Y3001640D01*
X2653530Y3017520D01*
X2661470Y3025460D01*
X2677340Y3033390D01*
X2693220D01*
X2709090Y3025460D01*
X2717030Y3017520D01*
X2724970Y3001640D01*
X2701150Y3104830D02*
X2724970D01*
Y3096890D01*
X2717030Y3081020D01*
X2709090Y3073080D01*
X2693220Y3065140D01*
X2677340D01*
X2661470Y3073080D01*
X2653530Y3081020D01*
X2645590Y3096890D01*
Y3128640D01*
X2653530Y3144520D01*
X2661470Y3152460D01*
X2677340Y3160390D01*
X2693220D01*
X2709090Y3152460D01*
X2717030Y3144520D01*
X2724970Y3128640D01*
X2701150Y3231830D02*
X2724970D01*
Y3223890D01*
X2717030Y3208020D01*
X2709090Y3200080D01*
X2693220Y3192140D01*
X2677340D01*
X2661470Y3200080D01*
X2653530Y3208020D01*
X2645590Y3223890D01*
Y3255640D01*
X2653530Y3271520D01*
X2661470Y3279460D01*
X2677340Y3287390D01*
X2693220D01*
X2709090Y3279460D01*
X2717030Y3271520D01*
X2724970Y3255640D01*
X2701150Y3358830D02*
X2724970D01*
Y3350890D01*
X2717030Y3335020D01*
X2709090Y3327080D01*
X2693220Y3319140D01*
X2677340D01*
X2661470Y3327080D01*
X2653530Y3335020D01*
X2645590Y3350890D01*
Y3382640D01*
X2653530Y3398520D01*
X2661470Y3406460D01*
X2677340Y3414390D01*
X2693220D01*
X2709090Y3406460D01*
X2717030Y3398520D01*
X2724970Y3382640D01*
X2701150Y3485830D02*
X2724970D01*
Y3477890D01*
X2717030Y3462020D01*
X2709090Y3454080D01*
X2693220Y3446140D01*
X2677340D01*
X2661470Y3454080D01*
X2653530Y3462020D01*
X2645590Y3477890D01*
Y3509640D01*
X2653530Y3525520D01*
X2661470Y3533460D01*
X2677340Y3541390D01*
X2693220D01*
X2709090Y3533460D01*
X2717030Y3525520D01*
X2724970Y3509640D01*
X2788620Y4041930D02*
X2780680Y4033990D01*
X2764800Y4026050D01*
X2740990D01*
X2725120Y4033990D01*
X2717180Y4041930D01*
X2709240Y4057800D01*
Y4089550D01*
X2717180Y4105430D01*
X2725120Y4113370D01*
X2740990Y4121300D01*
X2764800D01*
X2780680Y4113370D01*
X2788620Y4105430D01*
Y4806930D02*
X2780680Y4798990D01*
X2764800Y4791050D01*
X2740990D01*
X2725120Y4798990D01*
X2717180Y4806930D01*
X2709240Y4822800D01*
Y4854550D01*
X2717180Y4870430D01*
X2725120Y4878370D01*
X2740990Y4886300D01*
X2764800D01*
X2780680Y4878370D01*
X2788620Y4870430D01*
Y5571930D02*
X2780680Y5563990D01*
X2764800Y5556050D01*
X2740990D01*
X2725120Y5563990D01*
X2717180Y5571930D01*
X2709240Y5587800D01*
Y5619550D01*
X2717180Y5635430D01*
X2725120Y5643370D01*
X2740990Y5651300D01*
X2764800D01*
X2780680Y5643370D01*
X2788620Y5635430D01*
Y7191930D02*
X2780680Y7183990D01*
X2764800Y7176050D01*
X2740990D01*
X2725120Y7183990D01*
X2717180Y7191930D01*
X2709240Y7207800D01*
Y7239550D01*
X2717180Y7255430D01*
X2725120Y7263370D01*
X2740990Y7271300D01*
X2764800D01*
X2780680Y7263370D01*
X2788620Y7255430D01*
X2793620Y6371930D02*
X2785680Y6363990D01*
X2769800Y6356050D01*
X2745990D01*
X2730120Y6363990D01*
X2722180Y6371930D01*
X2714240Y6387800D01*
Y6419550D01*
X2722180Y6435430D01*
X2730120Y6443370D01*
X2745990Y6451300D01*
X2769800D01*
X2785680Y6443370D01*
X2793620Y6435430D01*
X2934800Y7688680D02*
X2950680Y7680740D01*
X2958620Y7664870D01*
X2950680Y7648990D01*
X2934800Y7641050D01*
X2879240D01*
Y7736300D01*
X2934800D01*
X2950680Y7728370D01*
X2958620Y7712490D01*
X2950680Y7696620D01*
X2934800Y7688680D01*
X2879240D01*
X2988620Y4041930D02*
X2980680Y4033990D01*
X2964800Y4026050D01*
X2940990D01*
X2925120Y4033990D01*
X2917180Y4041930D01*
X2909240Y4057800D01*
Y4089550D01*
X2917180Y4105430D01*
X2925120Y4113370D01*
X2940990Y4121300D01*
X2964800D01*
X2980680Y4113370D01*
X2988620Y4105430D01*
Y4806930D02*
X2980680Y4798990D01*
X2964800Y4791050D01*
X2940990D01*
X2925120Y4798990D01*
X2917180Y4806930D01*
X2909240Y4822800D01*
Y4854550D01*
X2917180Y4870430D01*
X2925120Y4878370D01*
X2940990Y4886300D01*
X2964800D01*
X2980680Y4878370D01*
X2988620Y4870430D01*
Y5571930D02*
X2980680Y5563990D01*
X2964800Y5556050D01*
X2940990D01*
X2925120Y5563990D01*
X2917180Y5571930D01*
X2909240Y5587800D01*
Y5619550D01*
X2917180Y5635430D01*
X2925120Y5643370D01*
X2940990Y5651300D01*
X2964800D01*
X2980680Y5643370D01*
X2988620Y5635430D01*
Y7191930D02*
X2980680Y7183990D01*
X2964800Y7176050D01*
X2940990D01*
X2925120Y7183990D01*
X2917180Y7191930D01*
X2909240Y7207800D01*
Y7239550D01*
X2917180Y7255430D01*
X2925120Y7263370D01*
X2940990Y7271300D01*
X2964800D01*
X2980680Y7263370D01*
X2988620Y7255430D01*
X2993620Y6371930D02*
X2985680Y6363990D01*
X2969800Y6356050D01*
X2945990D01*
X2930120Y6363990D01*
X2922180Y6371930D01*
X2914240Y6387800D01*
Y6419550D01*
X2922180Y6435430D01*
X2930120Y6443370D01*
X2945990Y6451300D01*
X2969800D01*
X2985680Y6443370D01*
X2993620Y6435430D01*
X3124800Y5093680D02*
X3140680Y5085740D01*
X3148620Y5069870D01*
X3140680Y5053990D01*
X3124800Y5046050D01*
X3069240D01*
Y5141300D01*
X3124800D01*
X3140680Y5133370D01*
X3148620Y5117490D01*
X3140680Y5101620D01*
X3124800Y5093680D01*
X3069240D01*
X3188620Y4041930D02*
X3180680Y4033990D01*
X3164800Y4026050D01*
X3140990D01*
X3125120Y4033990D01*
X3117180Y4041930D01*
X3109240Y4057800D01*
Y4089550D01*
X3117180Y4105430D01*
X3125120Y4113370D01*
X3140990Y4121300D01*
X3164800D01*
X3180680Y4113370D01*
X3188620Y4105430D01*
Y4806930D02*
X3180680Y4798990D01*
X3164800Y4791050D01*
X3140990D01*
X3125120Y4798990D01*
X3117180Y4806930D01*
X3109240Y4822800D01*
Y4854550D01*
X3117180Y4870430D01*
X3125120Y4878370D01*
X3140990Y4886300D01*
X3164800D01*
X3180680Y4878370D01*
X3188620Y4870430D01*
Y5571930D02*
X3180680Y5563990D01*
X3164800Y5556050D01*
X3140990D01*
X3125120Y5563990D01*
X3117180Y5571930D01*
X3109240Y5587800D01*
Y5619550D01*
X3117180Y5635430D01*
X3125120Y5643370D01*
X3140990Y5651300D01*
X3164800D01*
X3180680Y5643370D01*
X3188620Y5635430D01*
Y7191930D02*
X3180680Y7183990D01*
X3164800Y7176050D01*
X3140990D01*
X3125120Y7183990D01*
X3117180Y7191930D01*
X3109240Y7207800D01*
Y7239550D01*
X3117180Y7255430D01*
X3125120Y7263370D01*
X3140990Y7271300D01*
X3164800D01*
X3180680Y7263370D01*
X3188620Y7255430D01*
X3193620Y6371930D02*
X3185680Y6363990D01*
X3169800Y6356050D01*
X3145990D01*
X3130120Y6363990D01*
X3122180Y6371930D01*
X3114240Y6387800D01*
Y6419550D01*
X3122180Y6435430D01*
X3130120Y6443370D01*
X3145990Y6451300D01*
X3169800D01*
X3185680Y6443370D01*
X3193620Y6435430D01*
X3304240Y7926050D02*
Y8021300D01*
Y7973680D02*
X3383620D01*
Y7926050D02*
Y8021300D01*
X3388620Y4041930D02*
X3380680Y4033990D01*
X3364800Y4026050D01*
X3340990D01*
X3325120Y4033990D01*
X3317180Y4041930D01*
X3309240Y4057800D01*
Y4089550D01*
X3317180Y4105430D01*
X3325120Y4113370D01*
X3340990Y4121300D01*
X3364800D01*
X3380680Y4113370D01*
X3388620Y4105430D01*
Y4806930D02*
X3380680Y4798990D01*
X3364800Y4791050D01*
X3340990D01*
X3325120Y4798990D01*
X3317180Y4806930D01*
X3309240Y4822800D01*
Y4854550D01*
X3317180Y4870430D01*
X3325120Y4878370D01*
X3340990Y4886300D01*
X3364800D01*
X3380680Y4878370D01*
X3388620Y4870430D01*
Y5571930D02*
X3380680Y5563990D01*
X3364800Y5556050D01*
X3340990D01*
X3325120Y5563990D01*
X3317180Y5571930D01*
X3309240Y5587800D01*
Y5619550D01*
X3317180Y5635430D01*
X3325120Y5643370D01*
X3340990Y5651300D01*
X3364800D01*
X3380680Y5643370D01*
X3388620Y5635430D01*
Y7191930D02*
X3380680Y7183990D01*
X3364800Y7176050D01*
X3340990D01*
X3325120Y7183990D01*
X3317180Y7191930D01*
X3309240Y7207800D01*
Y7239550D01*
X3317180Y7255430D01*
X3325120Y7263370D01*
X3340990Y7271300D01*
X3364800D01*
X3380680Y7263370D01*
X3388620Y7255430D01*
X3393620Y6371930D02*
X3385680Y6363990D01*
X3369800Y6356050D01*
X3345990D01*
X3330120Y6363990D01*
X3322180Y6371930D01*
X3314240Y6387800D01*
Y6419550D01*
X3322180Y6435430D01*
X3330120Y6443370D01*
X3345990Y6451300D01*
X3369800D01*
X3385680Y6443370D01*
X3393620Y6435430D01*
X3414800Y2863680D02*
X3430680Y2855740D01*
X3438620Y2839870D01*
X3430680Y2823990D01*
X3414800Y2816050D01*
X3359240D01*
Y2911300D01*
X3414800D01*
X3430680Y2903370D01*
X3438620Y2887490D01*
X3430680Y2871620D01*
X3414800Y2863680D01*
X3359240D01*
X3564800Y2898680D02*
X3580680Y2890740D01*
X3588620Y2874870D01*
X3580680Y2858990D01*
X3564800Y2851050D01*
X3509240D01*
Y2946300D01*
X3564800D01*
X3580680Y2938370D01*
X3588620Y2922490D01*
X3580680Y2906620D01*
X3564800Y2898680D01*
X3509240D01*
X3764800Y3563680D02*
X3780680Y3555740D01*
X3788620Y3539870D01*
X3780680Y3523990D01*
X3764800Y3516050D01*
X3709240D01*
Y3611300D01*
X3764800D01*
X3780680Y3603370D01*
X3788620Y3587490D01*
X3780680Y3571620D01*
X3764800Y3563680D01*
X3709240D01*
X3854620Y7206930D02*
X3846680Y7198990D01*
X3830800Y7191050D01*
X3806990D01*
X3791120Y7198990D01*
X3783180Y7206930D01*
X3775240Y7222800D01*
Y7254550D01*
X3783180Y7270430D01*
X3791120Y7278370D01*
X3806990Y7286300D01*
X3830800D01*
X3846680Y7278370D01*
X3854620Y7270430D01*
X3854800Y2608680D02*
X3870680Y2600740D01*
X3878620Y2584870D01*
X3870680Y2568990D01*
X3854800Y2561050D01*
X3799240D01*
Y2656300D01*
X3854800D01*
X3870680Y2648370D01*
X3878620Y2632490D01*
X3870680Y2616620D01*
X3854800Y2608680D01*
X3799240D01*
X3959800Y2798680D02*
X3975680Y2790740D01*
X3983620Y2774870D01*
X3975680Y2758990D01*
X3959800Y2751050D01*
X3904240D01*
Y2846300D01*
X3959800D01*
X3975680Y2838370D01*
X3983620Y2822490D01*
X3975680Y2806620D01*
X3959800Y2798680D01*
X3904240D01*
X4108620Y7206930D02*
X4100680Y7198990D01*
X4084800Y7191050D01*
X4060990D01*
X4045120Y7198990D01*
X4037180Y7206930D01*
X4029240Y7222800D01*
Y7254550D01*
X4037180Y7270430D01*
X4045120Y7278370D01*
X4060990Y7286300D01*
X4084800D01*
X4100680Y7278370D01*
X4108620Y7270430D01*
X4098150Y1453830D02*
X4121970D01*
Y1445890D01*
X4114030Y1430020D01*
X4106090Y1422080D01*
X4090220Y1414140D01*
X4074340D01*
X4058470Y1422080D01*
X4050530Y1430020D01*
X4042590Y1445890D01*
Y1477640D01*
X4050530Y1493520D01*
X4058470Y1501460D01*
X4074340Y1509390D01*
X4090220D01*
X4106090Y1501460D01*
X4114030Y1493520D01*
X4121970Y1477640D01*
X4098150Y1580830D02*
X4121970D01*
Y1572890D01*
X4114030Y1557020D01*
X4106090Y1549080D01*
X4090220Y1541140D01*
X4074340D01*
X4058470Y1549080D01*
X4050530Y1557020D01*
X4042590Y1572890D01*
Y1604640D01*
X4050530Y1620520D01*
X4058470Y1628460D01*
X4074340Y1636390D01*
X4090220D01*
X4106090Y1628460D01*
X4114030Y1620520D01*
X4121970Y1604640D01*
X4098150Y1707830D02*
X4121970D01*
Y1699890D01*
X4114030Y1684020D01*
X4106090Y1676080D01*
X4090220Y1668140D01*
X4074340D01*
X4058470Y1676080D01*
X4050530Y1684020D01*
X4042590Y1699890D01*
Y1731640D01*
X4050530Y1747520D01*
X4058470Y1755460D01*
X4074340Y1763390D01*
X4090220D01*
X4106090Y1755460D01*
X4114030Y1747520D01*
X4121970Y1731640D01*
X4098150Y1834830D02*
X4121970D01*
Y1826890D01*
X4114030Y1811020D01*
X4106090Y1803080D01*
X4090220Y1795140D01*
X4074340D01*
X4058470Y1803080D01*
X4050530Y1811020D01*
X4042590Y1826890D01*
Y1858640D01*
X4050530Y1874520D01*
X4058470Y1882460D01*
X4074340Y1890390D01*
X4090220D01*
X4106090Y1882460D01*
X4114030Y1874520D01*
X4121970Y1858640D01*
X4098150Y1961830D02*
X4121970D01*
Y1953890D01*
X4114030Y1938020D01*
X4106090Y1930080D01*
X4090220Y1922140D01*
X4074340D01*
X4058470Y1930080D01*
X4050530Y1938020D01*
X4042590Y1953890D01*
Y1985640D01*
X4050530Y2001520D01*
X4058470Y2009460D01*
X4074340Y2017390D01*
X4090220D01*
X4106090Y2009460D01*
X4114030Y2001520D01*
X4121970Y1985640D01*
X4098150Y2088830D02*
X4121970D01*
Y2080890D01*
X4114030Y2065020D01*
X4106090Y2057080D01*
X4090220Y2049140D01*
X4074340D01*
X4058470Y2057080D01*
X4050530Y2065020D01*
X4042590Y2080890D01*
Y2112640D01*
X4050530Y2128520D01*
X4058470Y2136460D01*
X4074340Y2144390D01*
X4090220D01*
X4106090Y2136460D01*
X4114030Y2128520D01*
X4121970Y2112640D01*
X4098150Y2215830D02*
X4121970D01*
Y2207890D01*
X4114030Y2192020D01*
X4106090Y2184080D01*
X4090220Y2176140D01*
X4074340D01*
X4058470Y2184080D01*
X4050530Y2192020D01*
X4042590Y2207890D01*
Y2239640D01*
X4050530Y2255520D01*
X4058470Y2263460D01*
X4074340Y2271390D01*
X4090220D01*
X4106090Y2263460D01*
X4114030Y2255520D01*
X4121970Y2239640D01*
X4098150Y2342830D02*
X4121970D01*
Y2334890D01*
X4114030Y2319020D01*
X4106090Y2311080D01*
X4090220Y2303140D01*
X4074340D01*
X4058470Y2311080D01*
X4050530Y2319020D01*
X4042590Y2334890D01*
Y2366640D01*
X4050530Y2382520D01*
X4058470Y2390460D01*
X4074340Y2398390D01*
X4090220D01*
X4106090Y2390460D01*
X4114030Y2382520D01*
X4121970Y2366640D01*
X4098150Y2469830D02*
X4121970D01*
Y2461890D01*
X4114030Y2446020D01*
X4106090Y2438080D01*
X4090220Y2430140D01*
X4074340D01*
X4058470Y2438080D01*
X4050530Y2446020D01*
X4042590Y2461890D01*
Y2493640D01*
X4050530Y2509520D01*
X4058470Y2517460D01*
X4074340Y2525390D01*
X4090220D01*
X4106090Y2517460D01*
X4114030Y2509520D01*
X4121970Y2493640D01*
X4098150Y2596830D02*
X4121970D01*
Y2588890D01*
X4114030Y2573020D01*
X4106090Y2565080D01*
X4090220Y2557140D01*
X4074340D01*
X4058470Y2565080D01*
X4050530Y2573020D01*
X4042590Y2588890D01*
Y2620640D01*
X4050530Y2636520D01*
X4058470Y2644460D01*
X4074340Y2652390D01*
X4090220D01*
X4106090Y2644460D01*
X4114030Y2636520D01*
X4121970Y2620640D01*
X4098150Y2723830D02*
X4121970D01*
Y2715890D01*
X4114030Y2700020D01*
X4106090Y2692080D01*
X4090220Y2684140D01*
X4074340D01*
X4058470Y2692080D01*
X4050530Y2700020D01*
X4042590Y2715890D01*
Y2747640D01*
X4050530Y2763520D01*
X4058470Y2771460D01*
X4074340Y2779390D01*
X4090220D01*
X4106090Y2771460D01*
X4114030Y2763520D01*
X4121970Y2747640D01*
X4225150Y1453830D02*
X4248970D01*
Y1445890D01*
X4241030Y1430020D01*
X4233090Y1422080D01*
X4217220Y1414140D01*
X4201340D01*
X4185470Y1422080D01*
X4177530Y1430020D01*
X4169590Y1445890D01*
Y1477640D01*
X4177530Y1493520D01*
X4185470Y1501460D01*
X4201340Y1509390D01*
X4217220D01*
X4233090Y1501460D01*
X4241030Y1493520D01*
X4248970Y1477640D01*
X4225150Y1580830D02*
X4248970D01*
Y1572890D01*
X4241030Y1557020D01*
X4233090Y1549080D01*
X4217220Y1541140D01*
X4201340D01*
X4185470Y1549080D01*
X4177530Y1557020D01*
X4169590Y1572890D01*
Y1604640D01*
X4177530Y1620520D01*
X4185470Y1628460D01*
X4201340Y1636390D01*
X4217220D01*
X4233090Y1628460D01*
X4241030Y1620520D01*
X4248970Y1604640D01*
X4225150Y1707830D02*
X4248970D01*
Y1699890D01*
X4241030Y1684020D01*
X4233090Y1676080D01*
X4217220Y1668140D01*
X4201340D01*
X4185470Y1676080D01*
X4177530Y1684020D01*
X4169590Y1699890D01*
Y1731640D01*
X4177530Y1747520D01*
X4185470Y1755460D01*
X4201340Y1763390D01*
X4217220D01*
X4233090Y1755460D01*
X4241030Y1747520D01*
X4248970Y1731640D01*
X4225150Y1834830D02*
X4248970D01*
Y1826890D01*
X4241030Y1811020D01*
X4233090Y1803080D01*
X4217220Y1795140D01*
X4201340D01*
X4185470Y1803080D01*
X4177530Y1811020D01*
X4169590Y1826890D01*
Y1858640D01*
X4177530Y1874520D01*
X4185470Y1882460D01*
X4201340Y1890390D01*
X4217220D01*
X4233090Y1882460D01*
X4241030Y1874520D01*
X4248970Y1858640D01*
X4225150Y1961830D02*
X4248970D01*
Y1953890D01*
X4241030Y1938020D01*
X4233090Y1930080D01*
X4217220Y1922140D01*
X4201340D01*
X4185470Y1930080D01*
X4177530Y1938020D01*
X4169590Y1953890D01*
Y1985640D01*
X4177530Y2001520D01*
X4185470Y2009460D01*
X4201340Y2017390D01*
X4217220D01*
X4233090Y2009460D01*
X4241030Y2001520D01*
X4248970Y1985640D01*
X4225150Y2088830D02*
X4248970D01*
Y2080890D01*
X4241030Y2065020D01*
X4233090Y2057080D01*
X4217220Y2049140D01*
X4201340D01*
X4185470Y2057080D01*
X4177530Y2065020D01*
X4169590Y2080890D01*
Y2112640D01*
X4177530Y2128520D01*
X4185470Y2136460D01*
X4201340Y2144390D01*
X4217220D01*
X4233090Y2136460D01*
X4241030Y2128520D01*
X4248970Y2112640D01*
X4225150Y2215830D02*
X4248970D01*
Y2207890D01*
X4241030Y2192020D01*
X4233090Y2184080D01*
X4217220Y2176140D01*
X4201340D01*
X4185470Y2184080D01*
X4177530Y2192020D01*
X4169590Y2207890D01*
Y2239640D01*
X4177530Y2255520D01*
X4185470Y2263460D01*
X4201340Y2271390D01*
X4217220D01*
X4233090Y2263460D01*
X4241030Y2255520D01*
X4248970Y2239640D01*
X4225150Y2342830D02*
X4248970D01*
Y2334890D01*
X4241030Y2319020D01*
X4233090Y2311080D01*
X4217220Y2303140D01*
X4201340D01*
X4185470Y2311080D01*
X4177530Y2319020D01*
X4169590Y2334890D01*
Y2366640D01*
X4177530Y2382520D01*
X4185470Y2390460D01*
X4201340Y2398390D01*
X4217220D01*
X4233090Y2390460D01*
X4241030Y2382520D01*
X4248970Y2366640D01*
X4225150Y2469830D02*
X4248970D01*
Y2461890D01*
X4241030Y2446020D01*
X4233090Y2438080D01*
X4217220Y2430140D01*
X4201340D01*
X4185470Y2438080D01*
X4177530Y2446020D01*
X4169590Y2461890D01*
Y2493640D01*
X4177530Y2509520D01*
X4185470Y2517460D01*
X4201340Y2525390D01*
X4217220D01*
X4233090Y2517460D01*
X4241030Y2509520D01*
X4248970Y2493640D01*
X4225150Y2596830D02*
X4248970D01*
Y2588890D01*
X4241030Y2573020D01*
X4233090Y2565080D01*
X4217220Y2557140D01*
X4201340D01*
X4185470Y2565080D01*
X4177530Y2573020D01*
X4169590Y2588890D01*
Y2620640D01*
X4177530Y2636520D01*
X4185470Y2644460D01*
X4201340Y2652390D01*
X4217220D01*
X4233090Y2644460D01*
X4241030Y2636520D01*
X4248970Y2620640D01*
X4225150Y2723830D02*
X4248970D01*
Y2715890D01*
X4241030Y2700020D01*
X4233090Y2692080D01*
X4217220Y2684140D01*
X4201340D01*
X4185470Y2692080D01*
X4177530Y2700020D01*
X4169590Y2715890D01*
Y2747640D01*
X4177530Y2763520D01*
X4185470Y2771460D01*
X4201340Y2779390D01*
X4217220D01*
X4233090Y2771460D01*
X4241030Y2763520D01*
X4248970Y2747640D01*
X4249240Y4336050D02*
Y4431300D01*
Y4383680D02*
X4328620D01*
Y4336050D02*
Y4431300D01*
X4329800Y3568680D02*
X4345680Y3560740D01*
X4353620Y3544870D01*
X4345680Y3528990D01*
X4329800Y3521050D01*
X4274240D01*
Y3616300D01*
X4329800D01*
X4345680Y3608370D01*
X4353620Y3592490D01*
X4345680Y3576620D01*
X4329800Y3568680D01*
X4274240D01*
X4354620Y7206930D02*
X4346680Y7198990D01*
X4330800Y7191050D01*
X4306990D01*
X4291120Y7198990D01*
X4283180Y7206930D01*
X4275240Y7222800D01*
Y7254550D01*
X4283180Y7270430D01*
X4291120Y7278370D01*
X4306990Y7286300D01*
X4330800D01*
X4346680Y7278370D01*
X4354620Y7270430D01*
X4608620Y7206930D02*
X4600680Y7198990D01*
X4584800Y7191050D01*
X4560990D01*
X4545120Y7198990D01*
X4537180Y7206930D01*
X4529240Y7222800D01*
Y7254550D01*
X4537180Y7270430D01*
X4545120Y7278370D01*
X4560990Y7286300D01*
X4584800D01*
X4600680Y7278370D01*
X4608620Y7270430D01*
X4584240Y5045050D02*
Y5140300D01*
X4631870D01*
X4647740Y5132370D01*
X4655680Y5124430D01*
X4663620Y5108550D01*
Y5076800D01*
X4655680Y5060930D01*
X4647740Y5052990D01*
X4631870Y5045050D01*
X4584240D01*
Y5299050D02*
Y5394300D01*
X4631870D01*
X4647740Y5386370D01*
X4655680Y5378430D01*
X4663620Y5362550D01*
Y5330800D01*
X4655680Y5314930D01*
X4647740Y5306990D01*
X4631870Y5299050D01*
X4584240D01*
X4589240Y1489050D02*
Y1584300D01*
X4636870D01*
X4652740Y1576370D01*
X4660680Y1568430D01*
X4668620Y1552550D01*
Y1520800D01*
X4660680Y1504930D01*
X4652740Y1496990D01*
X4636870Y1489050D01*
X4589240D01*
Y1743050D02*
Y1838300D01*
X4636870D01*
X4652740Y1830370D01*
X4660680Y1822430D01*
X4668620Y1806550D01*
Y1774800D01*
X4660680Y1758930D01*
X4652740Y1750990D01*
X4636870Y1743050D01*
X4589240D01*
Y1997050D02*
Y2092300D01*
X4636870D01*
X4652740Y2084370D01*
X4660680Y2076430D01*
X4668620Y2060550D01*
Y2028800D01*
X4660680Y2012930D01*
X4652740Y2004990D01*
X4636870Y1997050D01*
X4589240D01*
Y2251050D02*
Y2346300D01*
X4636870D01*
X4652740Y2338370D01*
X4660680Y2330430D01*
X4668620Y2314550D01*
Y2282800D01*
X4660680Y2266930D01*
X4652740Y2258990D01*
X4636870Y2251050D01*
X4589240D01*
Y2505050D02*
Y2600300D01*
X4636870D01*
X4652740Y2592370D01*
X4660680Y2584430D01*
X4668620Y2568550D01*
Y2536800D01*
X4660680Y2520930D01*
X4652740Y2512990D01*
X4636870Y2505050D01*
X4589240D01*
Y2759050D02*
Y2854300D01*
X4636870D01*
X4652740Y2846370D01*
X4660680Y2838430D01*
X4668620Y2822550D01*
Y2790800D01*
X4660680Y2774930D01*
X4652740Y2766990D01*
X4636870Y2759050D01*
X4589240D01*
Y3013050D02*
Y3108300D01*
X4636870D01*
X4652740Y3100370D01*
X4660680Y3092430D01*
X4668620Y3076550D01*
Y3044800D01*
X4660680Y3028930D01*
X4652740Y3020990D01*
X4636870Y3013050D01*
X4589240D01*
Y3267050D02*
Y3362300D01*
X4636870D01*
X4652740Y3354370D01*
X4660680Y3346430D01*
X4668620Y3330550D01*
Y3298800D01*
X4660680Y3282930D01*
X4652740Y3274990D01*
X4636870Y3267050D01*
X4589240D01*
Y3521050D02*
Y3616300D01*
X4636870D01*
X4652740Y3608370D01*
X4660680Y3600430D01*
X4668620Y3584550D01*
Y3552800D01*
X4660680Y3536930D01*
X4652740Y3528990D01*
X4636870Y3521050D01*
X4589240D01*
Y3775050D02*
Y3870300D01*
X4636870D01*
X4652740Y3862370D01*
X4660680Y3854430D01*
X4668620Y3838550D01*
Y3806800D01*
X4660680Y3790930D01*
X4652740Y3782990D01*
X4636870Y3775050D01*
X4589240D01*
Y4029050D02*
Y4124300D01*
X4636870D01*
X4652740Y4116370D01*
X4660680Y4108430D01*
X4668620Y4092550D01*
Y4060800D01*
X4660680Y4044930D01*
X4652740Y4036990D01*
X4636870Y4029050D01*
X4589240D01*
D02*
D103*
X785240Y1846240D03*
Y2100240D03*
Y2354240D03*
Y2608240D03*
Y2862240D03*
Y3116240D03*
Y3370240D03*
Y3624240D03*
Y3878240D03*
Y4132240D03*
Y4386240D03*
Y4640240D03*
Y4894240D03*
Y5148240D03*
Y5402240D03*
Y5656240D03*
Y5910240D03*
X838240Y1155240D03*
X960240Y1820240D03*
X1010240Y2145240D03*
X1085240Y4175240D03*
X1090240Y1535240D03*
X1190240Y5656240D03*
X1280240Y3135240D03*
X1320240Y3350240D03*
X1350240Y3565240D03*
X1410240Y5400240D03*
X1415240Y6605240D03*
X1450240Y1535240D03*
X1465240Y2130240D03*
Y2330240D03*
Y2530240D03*
Y2730240D03*
X1485240Y4175240D03*
X1500240Y3375240D03*
X1615240Y5720240D03*
X1695240Y1791240D03*
X1702240Y1155240D03*
X1720240Y5885240D03*
X1790240Y3235240D03*
X1805240Y5265240D03*
X1815240Y6145240D03*
X1830240Y7550240D03*
X1835240Y1935240D03*
X1850240Y1595240D03*
X1860240Y3580240D03*
X1925240Y5145240D03*
X1945240Y2570240D03*
X1970240Y3140240D03*
X2085240Y5500240D03*
X2110240Y1905240D03*
Y4130240D03*
X2125240Y5885240D03*
X2230240Y6675240D03*
X2255240Y7990240D03*
X2264590Y1263330D03*
Y1390330D03*
Y1517330D03*
Y1644330D03*
Y1771330D03*
Y1898330D03*
Y2025330D03*
Y2152330D03*
Y2279330D03*
Y2406330D03*
Y2533330D03*
Y2660330D03*
Y2787330D03*
Y2914330D03*
Y3041330D03*
Y3168330D03*
Y3295330D03*
X2290240Y4080240D03*
X2360240Y7455240D03*
X2391590Y1263330D03*
Y1390330D03*
Y1517330D03*
Y1644330D03*
Y1771330D03*
Y1898330D03*
Y2025330D03*
Y2152330D03*
Y2279330D03*
Y2406330D03*
Y2533330D03*
Y2660330D03*
Y2787330D03*
Y2914330D03*
Y3041330D03*
Y3168330D03*
Y3295330D03*
X2455240Y3875240D03*
Y4640240D03*
Y5405240D03*
Y7025240D03*
X2460240Y6205240D03*
X2625240Y7490240D03*
X2655240Y3875240D03*
Y4640240D03*
Y5405240D03*
Y7025240D03*
X2660240Y6205240D03*
X2815240Y4895240D03*
X2855240Y3875240D03*
Y4640240D03*
Y5405240D03*
Y7025240D03*
X2860240Y6205240D03*
X3050240Y7775240D03*
X3055240Y3875240D03*
Y4640240D03*
Y5405240D03*
Y7025240D03*
X3060240Y6205240D03*
X3105240Y2665240D03*
X3255240Y2700240D03*
X3455240Y3365240D03*
X3521240Y7040240D03*
X3545240Y2410240D03*
X3650240Y2600240D03*
X3775240Y7040240D03*
X3788590Y1263330D03*
Y1390330D03*
Y1517330D03*
Y1644330D03*
Y1771330D03*
Y1898330D03*
Y2025330D03*
Y2152330D03*
Y2279330D03*
Y2406330D03*
Y2533330D03*
X3915590Y1263330D03*
Y1390330D03*
Y1517330D03*
Y1644330D03*
Y1771330D03*
Y1898330D03*
Y2025330D03*
Y2152330D03*
Y2279330D03*
Y2406330D03*
Y2533330D03*
X3995240Y4185240D03*
X4020240Y3370240D03*
X4021240Y7040240D03*
X4275240D03*
X4330240Y4894240D03*
Y5148240D03*
X4335240Y1338240D03*
Y1592240D03*
Y1846240D03*
Y2100240D03*
Y2354240D03*
Y2608240D03*
Y2862240D03*
Y3116240D03*
Y3370240D03*
Y3624240D03*
Y3878240D03*
X0Y0D02*
M02*
