G04 DesignSpark PCB Gerber Version 13.0 Build *
%FSLAX35Y35*%
%MOMM*%
%ADD10C,0.12700*%
X0Y0D02*
D02*
D10*
X575240Y6275240D02*
Y7755240D01*
X820240Y8000240D01*
X2120240D01*
Y6275240D01*
X575240D01*
X720240Y885240D02*
X1820240D01*
Y1655240D01*
X720240D01*
Y885240D01*
X914620Y2430240D02*
X931490D01*
Y2424620D01*
X925870Y2413370D01*
X920240Y2407740D01*
X908990Y2402120D01*
X897740D01*
X886490Y2407740D01*
X880870Y2413370D01*
X875240Y2424620D01*
Y2447120D01*
X880870Y2458370D01*
X886490Y2463990D01*
X897740Y2469620D01*
X908990D01*
X920240Y2463990D01*
X925870Y2458370D01*
X931490Y2447120D01*
X976490Y2402120D02*
X998990D01*
X987740D02*
Y2469620D01*
X976490Y2458370D01*
X1060870Y2407740D02*
X1072120Y2402120D01*
X1083370D01*
X1094620Y2407740D01*
X1100240Y2418990D01*
X1094620Y2430240D01*
X1083370Y2435870D01*
X1072120D01*
X1083370D02*
X1094620Y2441490D01*
X1100240Y2452740D01*
X1094620Y2463990D01*
X1083370Y2469620D01*
X1072120D01*
X1060870Y2463990D01*
X919620Y1890240D02*
X936490D01*
Y1884620D01*
X930870Y1873370D01*
X925240Y1867740D01*
X913990Y1862120D01*
X902740D01*
X891490Y1867740D01*
X885870Y1873370D01*
X880240Y1884620D01*
Y1907120D01*
X885870Y1918370D01*
X891490Y1923990D01*
X902740Y1929620D01*
X913990D01*
X925240Y1923990D01*
X930870Y1918370D01*
X936490Y1907120D01*
X981490Y1862120D02*
X1003990D01*
X992740D02*
Y1929620D01*
X981490Y1918370D01*
X1060240Y1867740D02*
X1071490Y1862120D01*
X1088370D01*
X1099620Y1867740D01*
X1105240Y1878990D01*
Y1884620D01*
X1099620Y1895870D01*
X1088370Y1901490D01*
X1060240D01*
Y1929620D01*
X1105240D01*
X919620Y2065240D02*
X936490D01*
Y2059620D01*
X930870Y2048370D01*
X925240Y2042740D01*
X913990Y2037120D01*
X902740D01*
X891490Y2042740D01*
X885870Y2048370D01*
X880240Y2059620D01*
Y2082120D01*
X885870Y2093370D01*
X891490Y2098990D01*
X902740Y2104620D01*
X913990D01*
X925240Y2098990D01*
X930870Y2093370D01*
X936490Y2082120D01*
X981490Y2037120D02*
X1003990D01*
X992740D02*
Y2104620D01*
X981490Y2093370D01*
X1088370Y2037120D02*
Y2104620D01*
X1060240Y2059620D01*
X1105240D01*
X919620Y5715240D02*
X936490D01*
Y5709620D01*
X930870Y5698370D01*
X925240Y5692740D01*
X913990Y5687120D01*
X902740D01*
X891490Y5692740D01*
X885870Y5698370D01*
X880240Y5709620D01*
Y5732120D01*
X885870Y5743370D01*
X891490Y5748990D01*
X902740Y5754620D01*
X913990D01*
X925240Y5748990D01*
X930870Y5743370D01*
X936490Y5732120D01*
X1015240Y5687120D02*
X970240D01*
X1009620Y5726490D01*
X1015240Y5737740D01*
X1009620Y5748990D01*
X998370Y5754620D01*
X981490D01*
X970240Y5748990D01*
X929620Y3100240D02*
X946490D01*
Y3094620D01*
X940870Y3083370D01*
X935240Y3077740D01*
X923990Y3072120D01*
X912740D01*
X901490Y3077740D01*
X895870Y3083370D01*
X890240Y3094620D01*
Y3117120D01*
X895870Y3128370D01*
X901490Y3133990D01*
X912740Y3139620D01*
X923990D01*
X935240Y3133990D01*
X940870Y3128370D01*
X946490Y3117120D01*
X991490Y3072120D02*
X1013990D01*
X1002740D02*
Y3139620D01*
X991490Y3128370D01*
X1081490Y3072120D02*
X1103990D01*
X1092740D02*
Y3139620D01*
X1081490Y3128370D01*
X890240Y5567120D02*
Y5634620D01*
X918370Y5600870D01*
X946490Y5634620D01*
Y5567120D01*
X980240Y5589620D02*
Y5612120D01*
X985870Y5623370D01*
X991490Y5628990D01*
X1002740Y5634620D01*
X1013990D01*
X1025240Y5628990D01*
X1030870Y5623370D01*
X1036490Y5612120D01*
Y5589620D01*
X1030870Y5578370D01*
X1025240Y5572740D01*
X1013990Y5567120D01*
X1002740D01*
X991490Y5572740D01*
X985870Y5578370D01*
X980240Y5589620D01*
X1070240Y5583990D02*
X1075870Y5572740D01*
X1087120Y5567120D01*
X1109620D01*
X1120870Y5572740D01*
X1126490Y5583990D01*
X1120870Y5595240D01*
X1109620Y5600870D01*
X1087120D01*
X1075870Y5606490D01*
X1070240Y5617740D01*
X1075870Y5628990D01*
X1087120Y5634620D01*
X1109620D01*
X1120870Y5628990D01*
X1126490Y5617740D01*
X1177120Y5567120D02*
X1199620D01*
X1188370D02*
Y5634620D01*
X1177120D02*
X1199620D01*
X939620Y5950240D02*
X956490D01*
Y5944620D01*
X950870Y5933370D01*
X945240Y5927740D01*
X933990Y5922120D01*
X922740D01*
X911490Y5927740D01*
X905870Y5933370D01*
X900240Y5944620D01*
Y5967120D01*
X905870Y5978370D01*
X911490Y5983990D01*
X922740Y5989620D01*
X933990D01*
X945240Y5983990D01*
X950870Y5978370D01*
X956490Y5967120D01*
X1001490Y5922120D02*
X1023990D01*
X1012740D02*
Y5989620D01*
X1001490Y5978370D01*
X944620Y2610240D02*
X961490D01*
Y2604620D01*
X955870Y2593370D01*
X950240Y2587740D01*
X938990Y2582120D01*
X927740D01*
X916490Y2587740D01*
X910870Y2593370D01*
X905240Y2604620D01*
Y2627120D01*
X910870Y2638370D01*
X916490Y2643990D01*
X927740Y2649620D01*
X938990D01*
X950240Y2643990D01*
X955870Y2638370D01*
X961490Y2627120D01*
X1006490Y2582120D02*
X1028990D01*
X1017740D02*
Y2649620D01*
X1006490Y2638370D01*
X1130240Y2582120D02*
X1085240D01*
X1124620Y2621490D01*
X1130240Y2632740D01*
X1124620Y2643990D01*
X1113370Y2649620D01*
X1096490D01*
X1085240Y2643990D01*
X944620Y3610240D02*
X961490D01*
Y3604620D01*
X955870Y3593370D01*
X950240Y3587740D01*
X938990Y3582120D01*
X927740D01*
X916490Y3587740D01*
X910870Y3593370D01*
X905240Y3604620D01*
Y3627120D01*
X910870Y3638370D01*
X916490Y3643990D01*
X927740Y3649620D01*
X938990D01*
X950240Y3643990D01*
X955870Y3638370D01*
X961490Y3627120D01*
X1006490Y3582120D02*
X1028990D01*
X1017740D02*
Y3649620D01*
X1006490Y3638370D01*
X1090870Y3587740D02*
X1102120Y3582120D01*
X1113370D01*
X1124620Y3587740D01*
X1130240Y3598990D01*
Y3632740D01*
X1124620Y3643990D01*
X1113370Y3649620D01*
X1102120D01*
X1090870Y3643990D01*
X1085240Y3632740D01*
Y3598990D01*
X1090870Y3587740D01*
X1124620Y3643990D01*
X944620Y3875240D02*
X961490D01*
Y3869620D01*
X955870Y3858370D01*
X950240Y3852740D01*
X938990Y3847120D01*
X927740D01*
X916490Y3852740D01*
X910870Y3858370D01*
X905240Y3869620D01*
Y3892120D01*
X910870Y3903370D01*
X916490Y3908990D01*
X927740Y3914620D01*
X938990D01*
X950240Y3908990D01*
X955870Y3903370D01*
X961490Y3892120D01*
X1012120Y3847120D02*
X1023370Y3852740D01*
X1034620Y3863990D01*
X1040240Y3880870D01*
Y3897740D01*
X1034620Y3908990D01*
X1023370Y3914620D01*
X1012120D01*
X1000870Y3908990D01*
X995240Y3897740D01*
X1000870Y3886490D01*
X1012120Y3880870D01*
X1023370D01*
X1034620Y3886490D01*
X1040240Y3897740D01*
X944620Y4195240D02*
X961490D01*
Y4189620D01*
X955870Y4178370D01*
X950240Y4172740D01*
X938990Y4167120D01*
X927740D01*
X916490Y4172740D01*
X910870Y4178370D01*
X905240Y4189620D01*
Y4212120D01*
X910870Y4223370D01*
X916490Y4228990D01*
X927740Y4234620D01*
X938990D01*
X950240Y4228990D01*
X955870Y4223370D01*
X961490Y4212120D01*
X1012120Y4200870D02*
X1023370D01*
X1034620Y4206490D01*
X1040240Y4217740D01*
X1034620Y4228990D01*
X1023370Y4234620D01*
X1012120D01*
X1000870Y4228990D01*
X995240Y4217740D01*
X1000870Y4206490D01*
X1012120Y4200870D01*
X1000870Y4195240D01*
X995240Y4183990D01*
X1000870Y4172740D01*
X1012120Y4167120D01*
X1023370D01*
X1034620Y4172740D01*
X1040240Y4183990D01*
X1034620Y4195240D01*
X1023370Y4200870D01*
X944620Y4390240D02*
X961490D01*
Y4384620D01*
X955870Y4373370D01*
X950240Y4367740D01*
X938990Y4362120D01*
X927740D01*
X916490Y4367740D01*
X910870Y4373370D01*
X905240Y4384620D01*
Y4407120D01*
X910870Y4418370D01*
X916490Y4423990D01*
X927740Y4429620D01*
X938990D01*
X950240Y4423990D01*
X955870Y4418370D01*
X961490Y4407120D01*
X995240Y4362120D02*
X1040240Y4429620D01*
X995240D01*
X944620Y5445240D02*
X961490D01*
Y5439620D01*
X955870Y5428370D01*
X950240Y5422740D01*
X938990Y5417120D01*
X927740D01*
X916490Y5422740D01*
X910870Y5428370D01*
X905240Y5439620D01*
Y5462120D01*
X910870Y5473370D01*
X916490Y5478990D01*
X927740Y5484620D01*
X938990D01*
X950240Y5478990D01*
X955870Y5473370D01*
X961490Y5462120D01*
X1000870Y5422740D02*
X1012120Y5417120D01*
X1023370D01*
X1034620Y5422740D01*
X1040240Y5433990D01*
X1034620Y5445240D01*
X1023370Y5450870D01*
X1012120D01*
X1023370D02*
X1034620Y5456490D01*
X1040240Y5467740D01*
X1034620Y5478990D01*
X1023370Y5484620D01*
X1012120D01*
X1000870Y5478990D01*
X949620Y3365240D02*
X966490D01*
Y3359620D01*
X960870Y3348370D01*
X955240Y3342740D01*
X943990Y3337120D01*
X932740D01*
X921490Y3342740D01*
X915870Y3348370D01*
X910240Y3359620D01*
Y3382120D01*
X915870Y3393370D01*
X921490Y3398990D01*
X932740Y3404620D01*
X943990D01*
X955240Y3398990D01*
X960870Y3393370D01*
X966490Y3382120D01*
X1000240Y3337120D02*
Y3404620D01*
X1056490Y3337120D01*
Y3404620D01*
X1090240Y3337120D02*
Y3404620D01*
X1123990D01*
X1135240Y3398990D01*
X1140870Y3393370D01*
X1146490Y3382120D01*
Y3359620D01*
X1140870Y3348370D01*
X1135240Y3342740D01*
X1123990Y3337120D01*
X1090240D01*
X954620Y5200240D02*
X971490D01*
Y5194620D01*
X965870Y5183370D01*
X960240Y5177740D01*
X948990Y5172120D01*
X937740D01*
X926490Y5177740D01*
X920870Y5183370D01*
X915240Y5194620D01*
Y5217120D01*
X920870Y5228370D01*
X926490Y5233990D01*
X937740Y5239620D01*
X948990D01*
X960240Y5233990D01*
X965870Y5228370D01*
X971490Y5217120D01*
X1033370Y5172120D02*
Y5239620D01*
X1005240Y5194620D01*
X1050240D01*
X920240Y2842740D02*
X931490Y2837120D01*
X948370D01*
X959620Y2842740D01*
X965240Y2853990D01*
Y2859620D01*
X959620Y2870870D01*
X948370Y2876490D01*
X920240D01*
Y2904620D01*
X965240D01*
X1010240D02*
X1038370Y2837120D01*
X1066490Y2904620D01*
X959620Y4890240D02*
X976490D01*
Y4884620D01*
X970870Y4873370D01*
X965240Y4867740D01*
X953990Y4862120D01*
X942740D01*
X931490Y4867740D01*
X925870Y4873370D01*
X920240Y4884620D01*
Y4907120D01*
X925870Y4918370D01*
X931490Y4923990D01*
X942740Y4929620D01*
X953990D01*
X965240Y4923990D01*
X970870Y4918370D01*
X976490Y4907120D01*
X1010240Y4867740D02*
X1021490Y4862120D01*
X1038370D01*
X1049620Y4867740D01*
X1055240Y4878990D01*
Y4884620D01*
X1049620Y4895870D01*
X1038370Y4901490D01*
X1010240D01*
Y4929620D01*
X1055240D01*
X964620Y4700240D02*
X981490D01*
Y4694620D01*
X975870Y4683370D01*
X970240Y4677740D01*
X958990Y4672120D01*
X947740D01*
X936490Y4677740D01*
X930870Y4683370D01*
X925240Y4694620D01*
Y4717120D01*
X930870Y4728370D01*
X936490Y4733990D01*
X947740Y4739620D01*
X958990D01*
X970240Y4733990D01*
X975870Y4728370D01*
X981490Y4717120D01*
X1015240Y4688990D02*
X1020870Y4700240D01*
X1032120Y4705870D01*
X1043370D01*
X1054620Y4700240D01*
X1060240Y4688990D01*
X1054620Y4677740D01*
X1043370Y4672120D01*
X1032120D01*
X1020870Y4677740D01*
X1015240Y4688990D01*
Y4705870D01*
X1020870Y4722740D01*
X1032120Y4733990D01*
X1043370Y4739620D01*
X935240Y2318990D02*
X940870Y2307740D01*
X952120Y2302120D01*
X974620D01*
X985870Y2307740D01*
X991490Y2318990D01*
X985870Y2330240D01*
X974620Y2335870D01*
X952120D01*
X940870Y2341490D01*
X935240Y2352740D01*
X940870Y2363990D01*
X952120Y2369620D01*
X974620D01*
X985870Y2363990D01*
X991490Y2352740D01*
X1025240Y2302120D02*
Y2369620D01*
X1058990D01*
X1070240Y2363990D01*
X1075870Y2358370D01*
X1081490Y2347120D01*
Y2324620D01*
X1075870Y2313370D01*
X1070240Y2307740D01*
X1058990Y2302120D01*
X1025240D01*
X1115240D02*
X1143370Y2369620D01*
X1171490Y2302120D01*
X1126490Y2330240D02*
X1160240D01*
X968370Y5302120D02*
Y5369620D01*
X940240D02*
X996490D01*
X1030240Y5302120D02*
X1075240Y5347120D01*
Y5302120D02*
X1030240Y5347120D01*
X1120240Y5302120D02*
Y5369620D01*
X1153990D01*
X1165240Y5363990D01*
X1170870Y5358370D01*
X1176490Y5347120D01*
Y5324620D01*
X1170870Y5313370D01*
X1165240Y5307740D01*
X1153990Y5302120D01*
X1120240D01*
X1221490D02*
X1243990D01*
X1232740D02*
Y5369620D01*
X1221490Y5358370D01*
X1001490Y4073370D02*
X995870Y4067740D01*
X984620Y4062120D01*
X967740D01*
X956490Y4067740D01*
X950870Y4073370D01*
X945240Y4084620D01*
Y4107120D01*
X950870Y4118370D01*
X956490Y4123990D01*
X967740Y4129620D01*
X984620D01*
X995870Y4123990D01*
X1001490Y4118370D01*
X1035240Y4078990D02*
X1040870Y4067740D01*
X1052120Y4062120D01*
X1074620D01*
X1085870Y4067740D01*
X1091490Y4078990D01*
X1085870Y4090240D01*
X1074620Y4095870D01*
X1052120D01*
X1040870Y4101490D01*
X1035240Y4112740D01*
X1040870Y4123990D01*
X1052120Y4129620D01*
X1074620D01*
X1085870Y4123990D01*
X1091490Y4112740D01*
X950240Y5812120D02*
Y5879620D01*
X989620D01*
X1000870Y5873990D01*
X1006490Y5862740D01*
X1000870Y5851490D01*
X989620Y5845870D01*
X950240D01*
X989620D02*
X1006490Y5812120D01*
X1040240D02*
X1085240Y5857120D01*
Y5812120D02*
X1040240Y5857120D01*
X1130240Y5812120D02*
Y5879620D01*
X1163990D01*
X1175240Y5873990D01*
X1180870Y5868370D01*
X1186490Y5857120D01*
Y5834620D01*
X1180870Y5823370D01*
X1175240Y5817740D01*
X1163990Y5812120D01*
X1130240D01*
X1231490D02*
X1253990D01*
X1242740D02*
Y5879620D01*
X1231490Y5868370D01*
X960240Y5067120D02*
Y5134620D01*
X988370Y5100870D01*
X1016490Y5134620D01*
Y5067120D01*
X1067120D02*
X1089620D01*
X1078370D02*
Y5134620D01*
X1067120D02*
X1089620D01*
X1140240Y5083990D02*
X1145870Y5072740D01*
X1157120Y5067120D01*
X1179620D01*
X1190870Y5072740D01*
X1196490Y5083990D01*
X1190870Y5095240D01*
X1179620Y5100870D01*
X1157120D01*
X1145870Y5106490D01*
X1140240Y5117740D01*
X1145870Y5128990D01*
X1157120Y5134620D01*
X1179620D01*
X1190870Y5128990D01*
X1196490Y5117740D01*
X1230240Y5089620D02*
Y5112120D01*
X1235870Y5123370D01*
X1241490Y5128990D01*
X1252740Y5134620D01*
X1263990D01*
X1275240Y5128990D01*
X1280870Y5123370D01*
X1286490Y5112120D01*
Y5089620D01*
X1280870Y5078370D01*
X1275240Y5072740D01*
X1263990Y5067120D01*
X1252740D01*
X1241490Y5072740D01*
X1235870Y5078370D01*
X1230240Y5089620D01*
X965240Y1064300D02*
Y992870D01*
X973180Y976990D01*
X989050Y969050D01*
X1020800D01*
X1036680Y976990D01*
X1044620Y992870D01*
Y1064300D01*
X1092240Y992870D02*
X1100180Y976990D01*
X1116050Y969050D01*
X1147800D01*
X1163680Y976990D01*
X1171620Y992870D01*
X1163680Y1008740D01*
X1147800Y1016680D01*
X1116050D01*
X1100180Y1024620D01*
X1092240Y1040490D01*
X1100180Y1056370D01*
X1116050Y1064300D01*
X1147800D01*
X1163680Y1056370D01*
X1171620Y1040490D01*
X1274800Y1016680D02*
X1290680Y1008740D01*
X1298620Y992870D01*
X1290680Y976990D01*
X1274800Y969050D01*
X1219240D01*
Y1064300D01*
X1274800D01*
X1290680Y1056370D01*
X1298620Y1040490D01*
X1290680Y1024620D01*
X1274800Y1016680D01*
X1219240D01*
X1346240Y1000800D02*
X1409740D01*
X1552620Y984930D02*
X1544680Y976990D01*
X1528800Y969050D01*
X1504990D01*
X1489120Y976990D01*
X1481180Y984930D01*
X1473240Y1000800D01*
Y1032550D01*
X1481180Y1048430D01*
X1489120Y1056370D01*
X1504990Y1064300D01*
X1528800D01*
X1544680Y1056370D01*
X1552620Y1048430D01*
X1021490Y4593370D02*
X1015870Y4587740D01*
X1004620Y4582120D01*
X987740D01*
X976490Y4587740D01*
X970870Y4593370D01*
X965240Y4604620D01*
Y4627120D01*
X970870Y4638370D01*
X976490Y4643990D01*
X987740Y4649620D01*
X1004620D01*
X1015870Y4643990D01*
X1021490Y4638370D01*
X1055240Y4598990D02*
X1060870Y4587740D01*
X1072120Y4582120D01*
X1094620D01*
X1105870Y4587740D01*
X1111490Y4598990D01*
X1105870Y4610240D01*
X1094620Y4615870D01*
X1072120D01*
X1060870Y4621490D01*
X1055240Y4632740D01*
X1060870Y4643990D01*
X1072120Y4649620D01*
X1094620D01*
X1105870Y4643990D01*
X1111490Y4632740D01*
X1145240Y4582120D02*
Y4649620D01*
Y4615870D02*
X1162120D01*
X1201490Y4649620D01*
X1162120Y4615870D02*
X1201490Y4582120D01*
X980240Y1778990D02*
X985870Y1767740D01*
X997120Y1762120D01*
X1019620D01*
X1030870Y1767740D01*
X1036490Y1778990D01*
X1030870Y1790240D01*
X1019620Y1795870D01*
X997120D01*
X985870Y1801490D01*
X980240Y1812740D01*
X985870Y1823990D01*
X997120Y1829620D01*
X1019620D01*
X1030870Y1823990D01*
X1036490Y1812740D01*
X1126490Y1773370D02*
X1120870Y1767740D01*
X1109620Y1762120D01*
X1092740D01*
X1081490Y1767740D01*
X1075870Y1773370D01*
X1070240Y1784620D01*
Y1807120D01*
X1075870Y1818370D01*
X1081490Y1823990D01*
X1092740Y1829620D01*
X1109620D01*
X1120870Y1823990D01*
X1126490Y1818370D01*
X1160240Y1829620D02*
Y1762120D01*
X1216490D01*
X1015240Y6890240D02*
Y7060240D01*
X1900240D01*
Y6890240D01*
X1015240D01*
X1635240Y2960240D02*
X1275240D01*
Y1900240D01*
X1735240D01*
Y2860240D01*
X1635240Y2960240D01*
X1804050Y2781430D02*
Y2749680D01*
Y2765550D02*
X1899300D01*
Y2781430D02*
Y2749680D01*
X1804050Y2678240D02*
X1899300D01*
X1851680Y2638550D01*
X1899300Y2598860D01*
X1804050D01*
X1899300Y2551240D02*
X1827870D01*
X1811990Y2543300D01*
X1804050Y2527430D01*
Y2495680D01*
X1811990Y2479800D01*
X1827870Y2471860D01*
X1899300D01*
X1804050Y2273430D02*
Y2241680D01*
Y2257550D02*
X1899300D01*
Y2273430D02*
Y2241680D01*
X1804050Y2106740D02*
Y2170240D01*
X1859620Y2114680D01*
X1875490Y2106740D01*
X1891370Y2114680D01*
X1899300Y2130550D01*
Y2154360D01*
X1891370Y2170240D01*
X1819930Y1963860D02*
X1811990Y1971800D01*
X1804050Y1987680D01*
Y2011490D01*
X1811990Y2027360D01*
X1819930Y2035300D01*
X1835800Y2043240D01*
X1867550D01*
X1883430Y2035300D01*
X1891370Y2027360D01*
X1899300Y2011490D01*
Y1987680D01*
X1891370Y1971800D01*
X1883430Y1963860D01*
X1910240Y7000240D02*
Y7775240D01*
X1980240D01*
Y7000240D01*
X1910240D01*
X2015240Y6445240D02*
Y6745240D01*
X2150240D01*
Y6445240D01*
X2015240D01*
Y6880240D02*
Y7215240D01*
X2150240D01*
Y6880240D01*
X2015240D01*
X2200240Y6580800D02*
Y6612550D01*
X2208180Y6628430D01*
X2216120Y6636370D01*
X2231990Y6644300D01*
X2247870D01*
X2263740Y6636370D01*
X2271680Y6628430D01*
X2279620Y6612550D01*
Y6580800D01*
X2271680Y6564930D01*
X2263740Y6556990D01*
X2247870Y6549050D01*
X2231990D01*
X2216120Y6556990D01*
X2208180Y6564930D01*
X2200240Y6580800D01*
X2327240Y6612550D02*
Y6525240D01*
Y6572870D02*
X2335180Y6556990D01*
X2351050Y6549050D01*
X2366930D01*
X2382800Y6556990D01*
X2390740Y6572870D01*
Y6588740D01*
X2382800Y6604620D01*
X2366930Y6612550D01*
X2351050D01*
X2335180Y6604620D01*
X2327240Y6588740D01*
Y6572870D01*
X2517740Y6556990D02*
X2509800Y6549050D01*
X2493930D01*
X2478050D01*
X2462180Y6556990D01*
X2454240Y6572870D01*
Y6596680D01*
X2462180Y6604620D01*
X2478050Y6612550D01*
X2493930D01*
X2509800Y6604620D01*
X2517740Y6596680D01*
Y6588740D01*
X2509800Y6580800D01*
X2493930Y6572870D01*
X2478050D01*
X2462180Y6580800D01*
X2454240Y6588740D01*
X2581240Y6549050D02*
Y6612550D01*
Y6588740D02*
X2589180Y6604620D01*
X2605050Y6612550D01*
X2620930D01*
X2636800Y6604620D01*
X2644740Y6588740D01*
Y6549050D01*
X2708240Y6644300D02*
Y6549050D01*
X2787620D01*
X2835240Y6572870D02*
X2843180Y6556990D01*
X2859050Y6549050D01*
X2874930D01*
X2890800Y6556990D01*
X2898740Y6572870D01*
Y6588740D01*
X2890800Y6604620D01*
X2874930Y6612550D01*
X2859050D01*
X2843180Y6604620D01*
X2835240Y6588740D01*
Y6572870D01*
X3025740Y6588740D02*
X3017800Y6604620D01*
X3001930Y6612550D01*
X2986050D01*
X2970180Y6604620D01*
X2962240Y6588740D01*
Y6580800D01*
X2970180Y6564930D01*
X2986050Y6556990D01*
X3001930D01*
X3017800Y6564930D01*
X3025740Y6580800D01*
Y6612550D02*
Y6549050D01*
X3017800Y6533180D01*
X3001930Y6525240D01*
X2978120D01*
X2962240Y6533180D01*
X3216240Y6644300D02*
X3255930Y6549050D01*
X3295620Y6644300D01*
X3359120Y6549050D02*
X3390870D01*
X3374990D02*
Y6644300D01*
X3359120Y6628430D01*
X3470240Y6556990D02*
X3486120Y6549050D01*
X3509930D01*
X3525800Y6556990D01*
X3533740Y6572870D01*
Y6580800D01*
X3525800Y6596680D01*
X3509930Y6604620D01*
X3470240D01*
Y6644300D01*
X3533740D01*
X2225240Y4045240D02*
Y3685240D01*
X3285240D01*
Y4145240D01*
X2325240D01*
X2225240Y4045240D01*
Y4810240D02*
Y4450240D01*
X3285240D01*
Y4910240D01*
X2325240D01*
X2225240Y4810240D01*
Y5575240D02*
Y5215240D01*
X3285240D01*
Y5675240D01*
X2325240D01*
X2225240Y5575240D01*
Y7195240D02*
Y6835240D01*
X3285240D01*
Y7295240D01*
X2325240D01*
X2225240Y7195240D01*
X2230240Y6375240D02*
Y6015240D01*
X3290240D01*
Y6475240D01*
X2330240D01*
X2230240Y6375240D01*
X2290240Y4189050D02*
Y4284300D01*
X2369620D01*
X2353740Y4236680D02*
X2290240D01*
Y4189050D02*
X2369620D01*
X2417240D02*
Y4284300D01*
X2496620Y4189050D01*
Y4284300D01*
X2544240D02*
X2583930Y4189050D01*
X2623620Y4284300D01*
X2679180Y4196990D02*
X2695050Y4189050D01*
X2710930D01*
X2726800Y4196990D01*
X2734740Y4212870D01*
X2726800Y4228740D01*
X2710930Y4236680D01*
X2695050D01*
X2710930D02*
X2726800Y4244620D01*
X2734740Y4260490D01*
X2726800Y4276370D01*
X2710930Y4284300D01*
X2695050D01*
X2679180Y4276370D01*
X2949050Y4189050D02*
X2980800D01*
X2964930D02*
Y4284300D01*
X2949050D02*
X2980800D01*
X3115740Y4189050D02*
X3052240D01*
X3107800Y4244620D01*
X3115740Y4260490D01*
X3107800Y4276370D01*
X3091930Y4284300D01*
X3068120D01*
X3052240Y4276370D01*
X3258620Y4204930D02*
X3250680Y4196990D01*
X3234800Y4189050D01*
X3210990D01*
X3195120Y4196990D01*
X3187180Y4204930D01*
X3179240Y4220800D01*
Y4252550D01*
X3187180Y4268430D01*
X3195120Y4276370D01*
X3210990Y4284300D01*
X3234800D01*
X3250680Y4276370D01*
X3258620Y4268430D01*
X2345800Y5748740D02*
X2369620D01*
Y5740800D01*
X2361680Y5724930D01*
X2353740Y5716990D01*
X2337870Y5709050D01*
X2321990D01*
X2306120Y5716990D01*
X2298180Y5724930D01*
X2290240Y5740800D01*
Y5772550D01*
X2298180Y5788430D01*
X2306120Y5796370D01*
X2321990Y5804300D01*
X2337870D01*
X2353740Y5796370D01*
X2361680Y5788430D01*
X2369620Y5772550D01*
X2417240Y5709050D02*
Y5804300D01*
X2472800D01*
X2488680Y5796370D01*
X2496620Y5780490D01*
X2488680Y5764620D01*
X2472800Y5756680D01*
X2417240D01*
X2544240Y5732870D02*
X2552180Y5716990D01*
X2568050Y5709050D01*
X2599800D01*
X2615680Y5716990D01*
X2623620Y5732870D01*
X2615680Y5748740D01*
X2599800Y5756680D01*
X2568050D01*
X2552180Y5764620D01*
X2544240Y5780490D01*
X2552180Y5796370D01*
X2568050Y5804300D01*
X2599800D01*
X2615680Y5796370D01*
X2623620Y5780490D01*
X2798240Y5804300D02*
X2837930Y5709050D01*
X2877620Y5804300D01*
X2941120Y5709050D02*
X2972870D01*
X2956990D02*
Y5804300D01*
X2941120Y5788430D01*
X3060180Y5709050D02*
X3068120Y5716990D01*
X3060180Y5724930D01*
X3052240Y5716990D01*
X3060180Y5709050D01*
X3195120D02*
X3226870D01*
X3210990D02*
Y5804300D01*
X3195120Y5788430D01*
X2350240Y7934050D02*
Y8029300D01*
X2405800D01*
X2421680Y8021370D01*
X2429620Y8005490D01*
X2421680Y7989620D01*
X2405800Y7981680D01*
X2350240D01*
X2405800D02*
X2429620Y7934050D01*
X2540740D02*
X2477240D01*
X2532800Y7989620D01*
X2540740Y8005490D01*
X2532800Y8021370D01*
X2516930Y8029300D01*
X2493120D01*
X2477240Y8021370D01*
X2460240Y1049050D02*
Y1144300D01*
X2499930Y1096680D01*
X2539620Y1144300D01*
Y1049050D01*
X2587240Y1056990D02*
X2603120Y1049050D01*
X2626930D01*
X2642800Y1056990D01*
X2650740Y1072870D01*
Y1080800D01*
X2642800Y1096680D01*
X2626930Y1104620D01*
X2587240D01*
Y1144300D01*
X2650740D01*
X2841240Y1072870D02*
X2849180Y1056990D01*
X2865050Y1049050D01*
X2896800D01*
X2912680Y1056990D01*
X2920620Y1072870D01*
X2912680Y1088740D01*
X2896800Y1096680D01*
X2865050D01*
X2849180Y1104620D01*
X2841240Y1120490D01*
X2849180Y1136370D01*
X2865050Y1144300D01*
X2896800D01*
X2912680Y1136370D01*
X2920620Y1120490D01*
X2981470Y1112550D02*
X3018510D01*
X2999990Y1128430D02*
Y1056990D01*
X3007930Y1049050D01*
X3015870D01*
X3023800Y1056990D01*
X3095240Y1104620D02*
X3111120Y1112550D01*
X3134930D01*
X3150800Y1104620D01*
X3158740Y1088740D01*
Y1064930D01*
X3150800Y1056990D01*
X3134930Y1049050D01*
X3119050D01*
X3103180Y1056990D01*
X3095240Y1064930D01*
Y1072870D01*
X3103180Y1080800D01*
X3119050Y1088740D01*
X3134930D01*
X3150800Y1080800D01*
X3158740Y1072870D01*
Y1064930D02*
Y1049050D01*
X3222240D02*
Y1112550D01*
Y1104620D02*
X3230180Y1112550D01*
X3246050D01*
X3253990Y1104620D01*
Y1080800D01*
Y1104620D02*
X3261930Y1112550D01*
X3277800D01*
X3285740Y1104620D01*
Y1049050D01*
X3349240Y1112550D02*
Y1025240D01*
Y1072870D02*
X3357180Y1056990D01*
X3373050Y1049050D01*
X3388930D01*
X3404800Y1056990D01*
X3412740Y1072870D01*
Y1088740D01*
X3404800Y1104620D01*
X3388930Y1112550D01*
X3373050D01*
X3357180Y1104620D01*
X3349240Y1088740D01*
Y1072870D01*
X3603240D02*
X3611180Y1056990D01*
X3627050Y1049050D01*
X3658800D01*
X3674680Y1056990D01*
X3682620Y1072870D01*
X3674680Y1088740D01*
X3658800Y1096680D01*
X3627050D01*
X3611180Y1104620D01*
X3603240Y1120490D01*
X3611180Y1136370D01*
X3627050Y1144300D01*
X3658800D01*
X3674680Y1136370D01*
X3682620Y1120490D01*
X3738180Y1056990D02*
X3754050Y1049050D01*
X3769930D01*
X3785800Y1056990D01*
X3793740Y1072870D01*
X3785800Y1088740D01*
X3769930Y1096680D01*
X3754050D01*
X3769930D02*
X3785800Y1104620D01*
X3793740Y1120490D01*
X3785800Y1136370D01*
X3769930Y1144300D01*
X3754050D01*
X3738180Y1136370D01*
X3857240Y1049050D02*
X3896930Y1144300D01*
X3936620Y1049050D01*
X3873120Y1088740D02*
X3920740D01*
X2465240Y7519050D02*
Y7614300D01*
X2520800D01*
X2536680Y7606370D01*
X2544620Y7590490D01*
X2536680Y7574620D01*
X2520800Y7566680D01*
X2465240D01*
X2520800D02*
X2544620Y7519050D01*
X2608120D02*
X2639870D01*
X2623990D02*
Y7614300D01*
X2608120Y7598430D01*
X2475240Y5044300D02*
Y4949050D01*
X2554620D01*
X2626050D02*
X2657800D01*
X2641930D02*
Y5044300D01*
X2626050D02*
X2657800D01*
X2784800Y4988740D02*
X2808620D01*
Y4980800D01*
X2800680Y4964930D01*
X2792740Y4956990D01*
X2776870Y4949050D01*
X2760990D01*
X2745120Y4956990D01*
X2737180Y4964930D01*
X2729240Y4980800D01*
Y5012550D01*
X2737180Y5028430D01*
X2745120Y5036370D01*
X2760990Y5044300D01*
X2776870D01*
X2792740Y5036370D01*
X2800680Y5028430D01*
X2808620Y5012550D01*
X2856240Y4949050D02*
Y5044300D01*
Y4996680D02*
X2935620D01*
Y4949050D02*
Y5044300D01*
X3022930Y4949050D02*
Y5044300D01*
X2983240D02*
X3062620D01*
X2480240Y7419300D02*
Y7347870D01*
X2488180Y7331990D01*
X2504050Y7324050D01*
X2535800D01*
X2551680Y7331990D01*
X2559620Y7347870D01*
Y7419300D01*
X2607240Y7324050D02*
Y7387550D01*
Y7363740D02*
X2615180Y7379620D01*
X2631050Y7387550D01*
X2646930D01*
X2662800Y7379620D01*
X2670740Y7363740D01*
Y7324050D01*
X2765990D02*
Y7387550D01*
Y7411370D02*
X2874470Y7387550D02*
X2911510D01*
X2892990Y7403430D02*
Y7331990D01*
X2900930Y7324050D01*
X2908870D01*
X2916800Y7331990D01*
X3067620Y7339930D02*
X3059680Y7331990D01*
X3043800Y7324050D01*
X3019990D01*
X3004120Y7331990D01*
X2996180Y7339930D01*
X2988240Y7355800D01*
Y7387550D01*
X2996180Y7403430D01*
X3004120Y7411370D01*
X3019990Y7419300D01*
X3043800D01*
X3059680Y7411370D01*
X3067620Y7403430D01*
X3115240Y7324050D02*
X3154930Y7419300D01*
X3194620Y7324050D01*
X3131120Y7363740D02*
X3178740D01*
X3242240Y7324050D02*
Y7419300D01*
X3281930Y7371680D01*
X3321620Y7419300D01*
Y7324050D01*
X3369240Y7347870D02*
X3377180Y7331990D01*
X3393050Y7324050D01*
X3424800D01*
X3440680Y7331990D01*
X3448620Y7347870D01*
X3440680Y7363740D01*
X3424800Y7371680D01*
X3393050D01*
X3377180Y7379620D01*
X3369240Y7395490D01*
X3377180Y7411370D01*
X3393050Y7419300D01*
X3424800D01*
X3440680Y7411370D01*
X3448620Y7395490D01*
X3504180Y7331990D02*
X3520050Y7324050D01*
X3535930D01*
X3551800Y7331990D01*
X3559740Y7347870D01*
X3551800Y7363740D01*
X3535930Y7371680D01*
X3520050D01*
X3535930D02*
X3551800Y7379620D01*
X3559740Y7395490D01*
X3551800Y7411370D01*
X3535930Y7419300D01*
X3520050D01*
X3504180Y7411370D01*
X2576040Y7731040D02*
X2309340D01*
Y7629440D01*
X2576040D01*
Y7731040D01*
Y7896040D02*
X2309340D01*
Y7794440D01*
X2576040D01*
Y7896040D01*
X2619590Y3290390D02*
Y3218960D01*
X2627530Y3203080D01*
X2643400Y3195140D01*
X2675150D01*
X2691030Y3203080D01*
X2698970Y3218960D01*
Y3290390D01*
X2762470Y3195140D02*
X2794220D01*
X2778340D02*
Y3290390D01*
X2762470Y3274520D01*
X2900240Y8080240D02*
X2745240Y7925240D01*
Y7625240D01*
X2900240Y7470240D01*
X3200240D01*
X3355240Y7625240D01*
Y7925240D01*
X3200240Y8080240D01*
X2900240D01*
X3555550Y4719620D02*
X3563490Y4711680D01*
X3571430Y4695800D01*
Y4671990D01*
X3563490Y4656120D01*
X3555550Y4648180D01*
X3539680Y4640240D01*
X3507930D01*
X3492050Y4648180D01*
X3484110Y4656120D01*
X3476180Y4671990D01*
Y4695800D01*
X3484110Y4711680D01*
X3492050Y4719620D01*
X3515860Y4767240D02*
X3507930Y4783120D01*
Y4806930D01*
X3515860Y4822800D01*
X3531740Y4830740D01*
X3555550D01*
X3563490Y4822800D01*
X3571430Y4806930D01*
Y4791050D01*
X3563490Y4775180D01*
X3555550Y4767240D01*
X3547610D01*
X3539680Y4775180D01*
X3531740Y4791050D01*
Y4806930D01*
X3539680Y4822800D01*
X3547610Y4830740D01*
X3555550D02*
X3571430D01*
Y4894240D02*
X3507930D01*
X3531740D02*
X3515860Y4902180D01*
X3507930Y4918050D01*
Y4933930D01*
X3515860Y4949800D01*
X3531740Y4957740D01*
X3571430D01*
X3547610Y5021240D02*
X3563490Y5029180D01*
X3571430Y5045050D01*
Y5076800D01*
X3563490Y5092680D01*
X3547610Y5100620D01*
X3531740Y5092680D01*
X3523800Y5076800D01*
Y5045050D01*
X3515860Y5029180D01*
X3499990Y5021240D01*
X3484110Y5029180D01*
X3476180Y5045050D01*
Y5076800D01*
X3484110Y5092680D01*
X3499990Y5100620D01*
X3515860Y5148240D02*
X3507930Y5164120D01*
Y5187930D01*
X3515860Y5203800D01*
X3531740Y5211740D01*
X3555550D01*
X3563490Y5203800D01*
X3571430Y5187930D01*
Y5172050D01*
X3563490Y5156180D01*
X3555550Y5148240D01*
X3547610D01*
X3539680Y5156180D01*
X3531740Y5172050D01*
Y5187930D01*
X3539680Y5203800D01*
X3547610Y5211740D01*
X3555550D02*
X3571430D01*
X3507930Y5288470D02*
Y5325510D01*
X3492050Y5306990D02*
X3563490D01*
X3571430Y5314930D01*
Y5322870D01*
X3563490Y5330800D01*
X3571430Y5592740D02*
Y5529240D01*
X3515860Y5584800D01*
X3499990Y5592740D01*
X3484110Y5584800D01*
X3476180Y5568930D01*
Y5545120D01*
X3484110Y5529240D01*
X3563490Y5664180D02*
X3571430Y5680050D01*
Y5695930D01*
X3563490Y5711800D01*
X3547610Y5719740D01*
X3499990D01*
X3484110Y5711800D01*
X3476180Y5695930D01*
Y5680050D01*
X3484110Y5664180D01*
X3499990Y5656240D01*
X3547610D01*
X3563490Y5664180D01*
X3484110Y5711800D01*
X3571430Y5846740D02*
Y5783240D01*
X3515860Y5838800D01*
X3499990Y5846740D01*
X3484110Y5838800D01*
X3476180Y5822930D01*
Y5799120D01*
X3484110Y5783240D01*
X3547610Y5910240D02*
X3531740Y5918180D01*
X3523800Y5934050D01*
Y5949930D01*
X3531740Y5965800D01*
X3547610Y5973740D01*
X3563490Y5965800D01*
X3571430Y5949930D01*
Y5934050D01*
X3563490Y5918180D01*
X3547610Y5910240D01*
X3523800D01*
X3499990Y5918180D01*
X3484110Y5934050D01*
X3476180Y5949930D01*
X3570240Y7859620D02*
Y7876490D01*
X3575860D01*
X3587110Y7870870D01*
X3592740Y7865240D01*
X3598360Y7853990D01*
Y7842740D01*
X3592740Y7831490D01*
X3587110Y7825870D01*
X3575860Y7820240D01*
X3553360D01*
X3542110Y7825870D01*
X3536490Y7831490D01*
X3530860Y7842740D01*
Y7853990D01*
X3536490Y7865240D01*
X3542110Y7870870D01*
X3553360Y7876490D01*
X3598360Y7910240D02*
X3530860D01*
X3598360Y7966490D01*
X3530860D01*
X3598360Y8000240D02*
X3530860D01*
Y8033990D01*
X3536490Y8045240D01*
X3542110Y8050870D01*
X3553360Y8056490D01*
X3575860D01*
X3587110Y8050870D01*
X3592740Y8045240D01*
X3598360Y8033990D01*
Y8000240D01*
X3655590Y2013330D02*
G75*
G03*
Y1853330I0J-80000D01*
G01*
G75*
G03*
Y2013330I0J80000D01*
G01*
X3770240Y6847610D02*
X3762300Y6863490D01*
X3746430Y6871430D01*
X3714680D01*
X3698800Y6863490D01*
X3690860Y6847610D01*
X3698800Y6831740D01*
X3714680Y6823800D01*
X3746430D01*
X3762300Y6815860D01*
X3770240Y6799990D01*
X3762300Y6784110D01*
X3746430Y6776180D01*
X3714680D01*
X3698800Y6784110D01*
X3690860Y6799990D01*
X3643240Y6807930D02*
Y6847610D01*
X3635300Y6863490D01*
X3619430Y6871430D01*
X3603550D01*
X3587680Y6863490D01*
X3579740Y6847610D01*
Y6807930D02*
Y6871430D01*
X3516240Y6847610D02*
X3508300Y6863490D01*
X3492430Y6871430D01*
X3476550D01*
X3460680Y6863490D01*
X3452740Y6847610D01*
Y6831740D01*
X3460680Y6815860D01*
X3476550Y6807930D01*
X3492430D01*
X3508300Y6815860D01*
X3516240Y6831740D01*
Y6871430D02*
Y6776180D01*
X3756430Y4684930D02*
X3661180D01*
Y4645240D02*
Y4724620D01*
X3756430Y4772240D02*
X3661180D01*
Y4851620D01*
X3708800Y4835740D02*
Y4772240D01*
X3756430D02*
Y4851620D01*
X3732610Y4899240D02*
X3748490Y4907180D01*
X3756430Y4923050D01*
Y4954800D01*
X3748490Y4970680D01*
X3732610Y4978620D01*
X3716740Y4970680D01*
X3708800Y4954800D01*
Y4923050D01*
X3700860Y4907180D01*
X3684990Y4899240D01*
X3669110Y4907180D01*
X3661180Y4923050D01*
Y4954800D01*
X3669110Y4970680D01*
X3684990Y4978620D01*
X3756430Y5065930D02*
X3661180D01*
Y5026240D02*
Y5105620D01*
X3708800Y5335800D02*
X3716740Y5351680D01*
X3732610Y5359620D01*
X3748490Y5351680D01*
X3756430Y5335800D01*
Y5280240D01*
X3661180D01*
Y5335800D01*
X3669110Y5351680D01*
X3684990Y5359620D01*
X3700860Y5351680D01*
X3708800Y5335800D01*
Y5280240D01*
X3732610Y5407240D02*
X3748490Y5415180D01*
X3756430Y5431050D01*
Y5446930D01*
X3748490Y5462800D01*
X3732610Y5470740D01*
X3716740D01*
X3700860Y5462800D01*
X3692930Y5446930D01*
Y5431050D01*
X3700860Y5415180D01*
X3716740Y5407240D01*
X3732610D01*
X3700860Y5534240D02*
X3692930Y5550120D01*
Y5573930D01*
X3700860Y5589800D01*
X3716740Y5597740D01*
X3740550D01*
X3748490Y5589800D01*
X3756430Y5573930D01*
Y5558050D01*
X3748490Y5542180D01*
X3740550Y5534240D01*
X3732610D01*
X3724680Y5542180D01*
X3716740Y5558050D01*
Y5573930D01*
X3724680Y5589800D01*
X3732610Y5597740D01*
X3740550D02*
X3756430D01*
Y5661240D02*
X3692930D01*
X3716740D02*
X3700860Y5669180D01*
X3692930Y5685050D01*
Y5700930D01*
X3700860Y5716800D01*
X3716740Y5851740D02*
X3700860Y5843800D01*
X3692930Y5827930D01*
Y5812050D01*
X3700860Y5796180D01*
X3716740Y5788240D01*
X3732610D01*
X3748490Y5796180D01*
X3756430Y5812050D01*
Y5827930D01*
X3748490Y5843800D01*
X3732610Y5851740D01*
X3756430D02*
X3661180D01*
X3790240Y6194930D02*
X3798180Y6186990D01*
X3814050Y6179050D01*
X3829930Y6186990D01*
X3837870Y6194930D01*
Y6274300D01*
X3853740D01*
X3837870D02*
X3806120D01*
X3933120Y6179050D02*
X3964870D01*
X3948990D02*
Y6274300D01*
X3933120Y6258430D01*
X3806990Y6913240D02*
X3425990D01*
Y7167240D01*
X3870490D01*
Y6976740D01*
X3806990Y6913240D01*
X3845240Y4490240D02*
X3690240Y4335240D01*
Y4035240D01*
X3845240Y3880240D01*
X4145240D01*
X4300240Y4035240D01*
Y4335240D01*
X4145240Y4490240D01*
X3845240D01*
X3810860Y7805240D02*
Y7850240D01*
X3833360Y7827740D02*
X3788360D01*
X3827740Y7895240D02*
X3833360Y7906490D01*
Y7923370D01*
X3827740Y7934620D01*
X3816490Y7940240D01*
X3810860D01*
X3799610Y7934620D01*
X3793990Y7923370D01*
Y7895240D01*
X3765860D01*
Y7940240D01*
Y7985240D02*
X3833360Y8013370D01*
X3765860Y8041490D01*
X3879590Y3321330D02*
Y2771330D01*
X2579590D01*
Y3321330D01*
X3879590D01*
X3941430Y4728740D02*
Y4665240D01*
X3885860Y4720800D01*
X3869990Y4728740D01*
X3854110Y4720800D01*
X3846180Y4704930D01*
Y4681120D01*
X3854110Y4665240D01*
X3933490Y4800180D02*
X3941430Y4816050D01*
Y4831930D01*
X3933490Y4847800D01*
X3917610Y4855740D01*
X3869990D01*
X3854110Y4847800D01*
X3846180Y4831930D01*
Y4816050D01*
X3854110Y4800180D01*
X3869990Y4792240D01*
X3917610D01*
X3933490Y4800180D01*
X3854110Y4847800D01*
X3941430Y4982740D02*
Y4919240D01*
X3885860Y4974800D01*
X3869990Y4982740D01*
X3854110Y4974800D01*
X3846180Y4958930D01*
Y4935120D01*
X3854110Y4919240D01*
X3917610Y5046240D02*
X3901740Y5054180D01*
X3893800Y5070050D01*
Y5085930D01*
X3901740Y5101800D01*
X3917610Y5109740D01*
X3933490Y5101800D01*
X3941430Y5085930D01*
Y5070050D01*
X3933490Y5054180D01*
X3917610Y5046240D01*
X3893800D01*
X3869990Y5054180D01*
X3854110Y5070050D01*
X3846180Y5085930D01*
X3941430Y5173240D02*
X3846180Y5252620D01*
X3933490Y5308180D02*
X3941430Y5324050D01*
Y5339930D01*
X3933490Y5355800D01*
X3917610Y5363740D01*
X3869990D01*
X3854110Y5355800D01*
X3846180Y5339930D01*
Y5324050D01*
X3854110Y5308180D01*
X3869990Y5300240D01*
X3917610D01*
X3933490Y5308180D01*
X3854110Y5355800D01*
X3933490Y5427240D02*
X3941430Y5443120D01*
Y5466930D01*
X3933490Y5482800D01*
X3917610Y5490740D01*
X3909680D01*
X3893800Y5482800D01*
X3885860Y5466930D01*
Y5427240D01*
X3846180D01*
Y5490740D01*
X3941430Y5554240D02*
X3846180Y5633620D01*
X3933490Y5689180D02*
X3941430Y5705050D01*
Y5720930D01*
X3933490Y5736800D01*
X3917610Y5744740D01*
X3869990D01*
X3854110Y5736800D01*
X3846180Y5720930D01*
Y5705050D01*
X3854110Y5689180D01*
X3869990Y5681240D01*
X3917610D01*
X3933490Y5689180D01*
X3854110Y5736800D01*
X3893800Y5832050D02*
Y5847930D01*
X3885860Y5863800D01*
X3869990Y5871740D01*
X3854110Y5863800D01*
X3846180Y5847930D01*
Y5832050D01*
X3854110Y5816180D01*
X3869990Y5808240D01*
X3885860Y5816180D01*
X3893800Y5832050D01*
X3901740Y5816180D01*
X3917610Y5808240D01*
X3933490Y5816180D01*
X3941430Y5832050D01*
Y5847930D01*
X3933490Y5863800D01*
X3917610Y5871740D01*
X3901740Y5863800D01*
X3893800Y5847930D01*
X3970660Y6455280D02*
X3805660D01*
Y6335280D01*
X3970660D01*
Y6455280D01*
X4045240Y7859620D02*
Y7876490D01*
X4050860D01*
X4062110Y7870870D01*
X4067740Y7865240D01*
X4073360Y7853990D01*
Y7842740D01*
X4067740Y7831490D01*
X4062110Y7825870D01*
X4050860Y7820240D01*
X4028360D01*
X4017110Y7825870D01*
X4011490Y7831490D01*
X4005860Y7842740D01*
Y7853990D01*
X4011490Y7865240D01*
X4017110Y7870870D01*
X4028360Y7876490D01*
X4073360Y7910240D02*
X4005860D01*
X4073360Y7966490D01*
X4005860D01*
X4073360Y8000240D02*
X4005860D01*
Y8033990D01*
X4011490Y8045240D01*
X4017110Y8050870D01*
X4028360Y8056490D01*
X4050860D01*
X4062110Y8050870D01*
X4067740Y8045240D01*
X4073360Y8033990D01*
Y8000240D01*
X4110090Y3483830D02*
Y1007330D01*
X2205090D01*
Y3356830D01*
X2332090Y3483830D01*
X4110090D01*
X4172740Y4725870D02*
X4178360Y4737120D01*
Y4748370D01*
X4172740Y4759620D01*
X4161490Y4765240D01*
X4150240Y4759620D01*
X4144610Y4748370D01*
Y4737120D01*
Y4748370D02*
X4138990Y4759620D01*
X4127740Y4765240D01*
X4116490Y4759620D01*
X4110860Y4748370D01*
Y4737120D01*
X4116490Y4725870D01*
X4110860Y4810240D02*
X4178360Y4838370D01*
X4110860Y4866490D01*
X4172740Y4905870D02*
X4178360Y4917120D01*
Y4928370D01*
X4172740Y4939620D01*
X4161490Y4945240D01*
X4150240Y4939620D01*
X4144610Y4928370D01*
Y4917120D01*
Y4928370D02*
X4138990Y4939620D01*
X4127740Y4945240D01*
X4116490Y4939620D01*
X4110860Y4928370D01*
Y4917120D01*
X4116490Y4905870D01*
X4150240Y5174620D02*
Y5191490D01*
X4155860D01*
X4167110Y5185870D01*
X4172740Y5180240D01*
X4178360Y5168990D01*
Y5157740D01*
X4172740Y5146490D01*
X4167110Y5140870D01*
X4155860Y5135240D01*
X4133360D01*
X4122110Y5140870D01*
X4116490Y5146490D01*
X4110860Y5157740D01*
Y5168990D01*
X4116490Y5180240D01*
X4122110Y5185870D01*
X4133360Y5191490D01*
X4178360Y5225240D02*
X4110860D01*
X4178360Y5281490D01*
X4110860D01*
X4178360Y5315240D02*
X4110860D01*
Y5348990D01*
X4116490Y5360240D01*
X4122110Y5365870D01*
X4133360Y5371490D01*
X4155860D01*
X4167110Y5365870D01*
X4172740Y5360240D01*
X4178360Y5348990D01*
Y5315240D01*
X4210240Y1219620D02*
Y1236490D01*
X4215860D01*
X4227110Y1230870D01*
X4232740Y1225240D01*
X4238360Y1213990D01*
Y1202740D01*
X4232740Y1191490D01*
X4227110Y1185870D01*
X4215860Y1180240D01*
X4193360D01*
X4182110Y1185870D01*
X4176490Y1191490D01*
X4170860Y1202740D01*
Y1213990D01*
X4176490Y1225240D01*
X4182110Y1230870D01*
X4193360Y1236490D01*
X4238360Y1270240D02*
X4170860D01*
X4238360Y1326490D01*
X4170860D01*
X4238360Y1360240D02*
X4170860D01*
Y1393990D01*
X4176490Y1405240D01*
X4182110Y1410870D01*
X4193360Y1416490D01*
X4215860D01*
X4227110Y1410870D01*
X4232740Y1405240D01*
X4238360Y1393990D01*
Y1360240D01*
X4210240Y1524620D02*
Y1541490D01*
X4215860D01*
X4227110Y1535870D01*
X4232740Y1530240D01*
X4238360Y1518990D01*
Y1507740D01*
X4232740Y1496490D01*
X4227110Y1490870D01*
X4215860Y1485240D01*
X4193360D01*
X4182110Y1490870D01*
X4176490Y1496490D01*
X4170860Y1507740D01*
Y1518990D01*
X4176490Y1530240D01*
X4182110Y1535870D01*
X4193360Y1541490D01*
X4232740Y1580870D02*
X4238360Y1592120D01*
Y1603370D01*
X4232740Y1614620D01*
X4221490Y1620240D01*
X4210240Y1614620D01*
X4204610Y1603370D01*
Y1592120D01*
Y1603370D02*
X4198990Y1614620D01*
X4187740Y1620240D01*
X4176490Y1614620D01*
X4170860Y1603370D01*
Y1592120D01*
X4176490Y1580870D01*
X4238360Y1682120D02*
X4232740Y1693370D01*
X4221490Y1704620D01*
X4204610Y1710240D01*
X4187740D01*
X4176490Y1704620D01*
X4170860Y1693370D01*
Y1682120D01*
X4176490Y1670870D01*
X4187740Y1665240D01*
X4198990Y1670870D01*
X4204610Y1682120D01*
Y1693370D01*
X4198990Y1704620D01*
X4187740Y1710240D01*
X4238360Y2275240D02*
X4170860D01*
Y2331490D01*
X4204610Y2320240D02*
Y2275240D01*
X4238360D02*
Y2331490D01*
Y2365240D02*
X4170860D01*
X4238360Y2421490D01*
X4170860D01*
X4210240Y2534620D02*
Y2551490D01*
X4215860D01*
X4227110Y2545870D01*
X4232740Y2540240D01*
X4238360Y2528990D01*
Y2517740D01*
X4232740Y2506490D01*
X4227110Y2500870D01*
X4215860Y2495240D01*
X4193360D01*
X4182110Y2500870D01*
X4176490Y2506490D01*
X4170860Y2517740D01*
Y2528990D01*
X4176490Y2540240D01*
X4182110Y2545870D01*
X4193360Y2551490D01*
X4238360Y2613370D02*
X4170860D01*
X4215860Y2585240D01*
Y2630240D01*
X4238360Y2686490D02*
Y2708990D01*
Y2697740D02*
X4170860D01*
X4182110Y2686490D01*
X4210240Y2789620D02*
Y2806490D01*
X4215860D01*
X4227110Y2800870D01*
X4232740Y2795240D01*
X4238360Y2783990D01*
Y2772740D01*
X4232740Y2761490D01*
X4227110Y2755870D01*
X4215860Y2750240D01*
X4193360D01*
X4182110Y2755870D01*
X4176490Y2761490D01*
X4170860Y2772740D01*
Y2783990D01*
X4176490Y2795240D01*
X4182110Y2800870D01*
X4193360Y2806490D01*
X4238360Y2868370D02*
X4170860D01*
X4215860Y2840240D01*
Y2885240D01*
X4238360Y2958370D02*
X4170860D01*
X4215860Y2930240D01*
Y2975240D01*
X4210240Y3304620D02*
Y3321490D01*
X4215860D01*
X4227110Y3315870D01*
X4232740Y3310240D01*
X4238360Y3298990D01*
Y3287740D01*
X4232740Y3276490D01*
X4227110Y3270870D01*
X4215860Y3265240D01*
X4193360D01*
X4182110Y3270870D01*
X4176490Y3276490D01*
X4170860Y3287740D01*
Y3298990D01*
X4176490Y3310240D01*
X4182110Y3315870D01*
X4193360Y3321490D01*
X4238360Y3383370D02*
X4170860D01*
X4215860Y3355240D01*
Y3400240D01*
X4232740Y3450870D02*
X4238360Y3462120D01*
Y3473370D01*
X4232740Y3484620D01*
X4221490Y3490240D01*
X4210240Y3484620D01*
X4204610Y3473370D01*
Y3462120D01*
Y3473370D02*
X4198990Y3484620D01*
X4187740Y3490240D01*
X4176490Y3484620D01*
X4170860Y3473370D01*
Y3462120D01*
X4176490Y3450870D01*
X4210240Y3584620D02*
Y3601490D01*
X4215860D01*
X4227110Y3595870D01*
X4232740Y3590240D01*
X4238360Y3578990D01*
Y3567740D01*
X4232740Y3556490D01*
X4227110Y3550870D01*
X4215860Y3545240D01*
X4193360D01*
X4182110Y3550870D01*
X4176490Y3556490D01*
X4170860Y3567740D01*
Y3578990D01*
X4176490Y3590240D01*
X4182110Y3595870D01*
X4193360Y3601490D01*
X4238360Y3663370D02*
X4170860D01*
X4215860Y3635240D01*
Y3680240D01*
X4221490Y3725240D02*
X4210240Y3730870D01*
X4204610Y3742120D01*
Y3753370D01*
X4210240Y3764620D01*
X4221490Y3770240D01*
X4232740Y3764620D01*
X4238360Y3753370D01*
Y3742120D01*
X4232740Y3730870D01*
X4221490Y3725240D01*
X4204610D01*
X4187740Y3730870D01*
X4176490Y3742120D01*
X4170860Y3753370D01*
X4215240Y1809620D02*
Y1826490D01*
X4220860D01*
X4232110Y1820870D01*
X4237740Y1815240D01*
X4243360Y1803990D01*
Y1792740D01*
X4237740Y1781490D01*
X4232110Y1775870D01*
X4220860Y1770240D01*
X4198360D01*
X4187110Y1775870D01*
X4181490Y1781490D01*
X4175860Y1792740D01*
Y1803990D01*
X4181490Y1815240D01*
X4187110Y1820870D01*
X4198360Y1826490D01*
X4237740Y1865870D02*
X4243360Y1877120D01*
Y1888370D01*
X4237740Y1899620D01*
X4226490Y1905240D01*
X4192740D01*
X4181490Y1899620D01*
X4175860Y1888370D01*
Y1877120D01*
X4181490Y1865870D01*
X4192740Y1860240D01*
X4226490D01*
X4237740Y1865870D01*
X4181490Y1899620D01*
X4215240Y2019620D02*
Y2036490D01*
X4220860D01*
X4232110Y2030870D01*
X4237740Y2025240D01*
X4243360Y2013990D01*
Y2002740D01*
X4237740Y1991490D01*
X4232110Y1985870D01*
X4220860Y1980240D01*
X4198360D01*
X4187110Y1985870D01*
X4181490Y1991490D01*
X4175860Y2002740D01*
Y2013990D01*
X4181490Y2025240D01*
X4187110Y2030870D01*
X4198360Y2036490D01*
X4243360Y2098370D02*
X4175860D01*
X4220860Y2070240D01*
Y2115240D01*
X4237740Y2165870D02*
X4243360Y2177120D01*
Y2188370D01*
X4237740Y2199620D01*
X4226490Y2205240D01*
X4192740D01*
X4181490Y2199620D01*
X4175860Y2188370D01*
Y2177120D01*
X4181490Y2165870D01*
X4192740Y2160240D01*
X4226490D01*
X4237740Y2165870D01*
X4181490Y2199620D01*
X4215240Y3039620D02*
Y3056490D01*
X4220860D01*
X4232110Y3050870D01*
X4237740Y3045240D01*
X4243360Y3033990D01*
Y3022740D01*
X4237740Y3011490D01*
X4232110Y3005870D01*
X4220860Y3000240D01*
X4198360D01*
X4187110Y3005870D01*
X4181490Y3011490D01*
X4175860Y3022740D01*
Y3033990D01*
X4181490Y3045240D01*
X4187110Y3050870D01*
X4198360Y3056490D01*
X4243360Y3118370D02*
X4175860D01*
X4220860Y3090240D01*
Y3135240D01*
X4243360Y3225240D02*
Y3180240D01*
X4203990Y3219620D01*
X4192740Y3225240D01*
X4181490Y3219620D01*
X4175860Y3208370D01*
Y3191490D01*
X4181490Y3180240D01*
X4306990Y6913240D02*
X3925990D01*
Y7167240D01*
X4370490D01*
Y6976740D01*
X4306990Y6913240D01*
X4285860Y7810240D02*
Y7855240D01*
X4308360Y7832740D02*
X4263360D01*
X4302740Y7900240D02*
X4308360Y7911490D01*
Y7928370D01*
X4302740Y7939620D01*
X4291490Y7945240D01*
X4285860D01*
X4274610Y7939620D01*
X4268990Y7928370D01*
Y7900240D01*
X4240860D01*
Y7945240D01*
Y7990240D02*
X4308360Y8018370D01*
X4240860Y8046490D01*
X4355240Y6856430D02*
Y6761180D01*
X4315550Y6808800D01*
X4275860Y6761180D01*
Y6856430D01*
X4228240Y6800860D02*
X4212360Y6792930D01*
X4188550D01*
X4172680Y6800860D01*
X4164740Y6816740D01*
Y6840550D01*
X4172680Y6848490D01*
X4188550Y6856430D01*
X4204430D01*
X4220300Y6848490D01*
X4228240Y6840550D01*
Y6832610D01*
X4220300Y6824680D01*
X4204430Y6816740D01*
X4188550D01*
X4172680Y6824680D01*
X4164740Y6832610D01*
Y6840550D02*
Y6856430D01*
X4069490D02*
Y6792930D01*
Y6769110D02*
X3974240Y6856430D02*
Y6792930D01*
Y6816740D02*
X3966300Y6800860D01*
X3950430Y6792930D01*
X3934550D01*
X3918680Y6800860D01*
X3910740Y6816740D01*
Y6856430D01*
X4422740Y3970870D02*
X4428360Y3982120D01*
Y3993370D01*
X4422740Y4004620D01*
X4411490Y4010240D01*
X4400240Y4004620D01*
X4394610Y3993370D01*
Y3982120D01*
Y3993370D02*
X4388990Y4004620D01*
X4377740Y4010240D01*
X4366490Y4004620D01*
X4360860Y3993370D01*
Y3982120D01*
X4366490Y3970870D01*
X4360860Y4055240D02*
X4428360Y4083370D01*
X4360860Y4111490D01*
X4422740Y4150870D02*
X4428360Y4162120D01*
Y4173370D01*
X4422740Y4184620D01*
X4411490Y4190240D01*
X4400240Y4184620D01*
X4394610Y4173370D01*
Y4162120D01*
Y4173370D02*
X4388990Y4184620D01*
X4377740Y4190240D01*
X4366490Y4184620D01*
X4360860Y4173370D01*
Y4162120D01*
X4366490Y4150870D01*
X4457240Y5179990D02*
Y4798990D01*
X4203240D01*
Y5243490D01*
X4393740D01*
X4457240Y5179990D01*
X0Y0D02*
M02*
