  0
SECTION
  2
HEADER
  9
$ACADVER
  1
AC1009
  9
$INSBASE
 10
0
 20
0
 30
0
  9
$EXTMIN
 10
0
 20
0
  9
$EXTMAX
 10
210
 20
148.5
  9
$LIMMIN
 10
0
 20
0
  9
$LIMMAX
 10
210
 20
148.5
  9
$LTSCALE
 40
0.5
  0
ENDSEC
  0
SECTION
  2
TABLES
  0
TABLE
  2
LTYPE
 70
     9
  0
LTYPE
  2
CONTINUOUS
 70
    64
  3
実線
 72
    65
 73
     0
 40
0.0
  0
LTYPE
  2
DASHED1
 70
    64
  3
--  --  --  --  --  --  --  --  
 72
    65
 73
     2
 40
2.5
 49
1.25
 49
-1.25
  0
LTYPE
  2
DASHED2
 70
    64
  3
----    ----    ----    ----    
 72
    65
 73
     2
 40
5.0
 49
2.5
 49
-2.5
  0
LTYPE
  2
DASHED3
 70
    64
  3
------  ------  ------  ------  
 72
    65
 73
     2
 40
5.0
 49
3.75
 49
-1.25
  0
LTYPE
  2
CENTER1
 70
    64
  3
----- - ----- - ----- - ----- - 
 72
    65
 73
     4
 40
10.0
 49
6.25
 49
-1.25
 49
1.25
 49
-1.25
  0
LTYPE
  2
CENTER2
 70
    64
  3
----------  --  ----------  --  
 72
    65
 73
     4
 40
20.0
 49
12.5
 49
-2.5
 49
2.5
 49
-2.5
  0
LTYPE
  2
PHANTOM1
 70
    64
  3
--- - - --- - - --- - - --- - - 
 72
    65
 73
     6
 40
10.0
 49
3.25
 49
-1.25
 49
1.25
 49
-1.25
 49
1.25
 49
-1.25
  0
LTYPE
  2
PHANTOM2
 70
    64
  3
--------  -  -  --------  -  -  
 72
    65
 73
     6
 40
20.0
 49
10.0
 49
-2.5
 49
1.25
 49
-2.5
 49
1.25
 49
-2.5
  0
LTYPE
  2
DOT
 70
    64
  3
-   -   -   -   -   -   -   -   
 72
    65
 73
     2
 40
2.5
 49
0.625
 49
-1.875
  0
LTYPE
  2
DUMMY
 70
    64
  3
ダミー
 72
    65
 73
     0
 40
0.0
  0
LTYPE
  2
RAND1
 70
    64
  3
ランダム線1
 72
    65
 73
     4
 40
10.0
 49
1.0
 49
-2.0
 49
3.0
 49
-4.0
  0
LTYPE
  2
RAND2
 70
    64
  3
ランダム線2
 72
    65
 73
     4
 40
14.0
 49
2.0
 49
-3.0
 49
4.0
 49
-5.0
  0
LTYPE
  2
RAND3
 70
    64
  3
ランダム線3
 72
    65
 73
     4
 40
18.0
 49
3.0
 49
-4.0
 49
5.0
 49
-6.0
  0
LTYPE
  2
RAND4
 70
    64
  3
ランダム線4
 72
    65
 73
     4
 40
22.0
 49
4.0
 49
-5.0
 49
6.0
 49
-7.0
  0
LTYPE
  2
RAND5
 70
    64
  3
ランダム線5
 72
    65
 73
     4
 40
26.0
 49
5.0
 49
-6.0
 49
7.0
 49
-8.0
  0
LTYPE
  2
LONG1
 70
    64
  3
----------  --  ----------  --  
 72
    65
 73
     4
 40
40.0
 49
32.5
 49
-2.5
 49
2.5
 49
-2.5
  0
LTYPE
  2
LONG2
 70
    64
  3
--------  -  -  --------  -  -  
 72
    65
 73
     6
 40
40.0
 49
30.0
 49
-2.5
 49
1.25
 49
-2.5
 49
1.25
 49
-2.5
  0
LTYPE
  2
LONG3
 70
    64
  3
+++++++++++++++..+++++++++++++++
 72
    65
 73
     2
 40
40.0
 49
37.5
 49
-2.5
  0
LTYPE
  2
LONG4
 70
    64
  3
+++++++++++++++..+++++++++++++++
 72
    65
 73
     2
 40
80.0
 49
75.0
 49
-5.0
  0
LTYPE
  2
LONG5
 70
    64
  3
----------  --  ----------  --  
 72
    65
 73
     4
 40
60.0
 49
37.5
 49
-7.5
 49
7.5
 49
-7.5
  0
LTYPE
  2
dashed
 70
   64
  3
-------   -------------   ------
 72
   65
 73
    2
 40
7.5
 49
6
 49
-1.5
  0
LTYPE
  2
dashed_spaced
 70
   64
  3
----        --------        ----
 72
   65
 73
    2
 40
12
 49
6
 49
-6
  0
LTYPE
  2
long_dashed_dotted
 70
   64
  3
------------- --- --------------
 72
   65
 73
    4
 40
15.25
 49
12
 49
-1.5
 49
0.25
 49
-1.5
  0
LTYPE
  2
long_dashed_double-dotted
 70
   64
  3
----------- --- --- ------------
 72
   65
 73
    6
 40
17
 49
12
 49
-1.5
 49
0.25
 49
-1.5
 49
0.25
 49
-1.5
  0
LTYPE
  2
long_dashed_triplicate-dotted
 70
   64
  3
--------- --- --- --- ----------
 72
   65
 73
    8
 40
18.75
 49
12
 49
-1.5
 49
0.25
 49
-1.5
 49
0.25
 49
-1.5
 49
0.25
 49
-1.5
  0
LTYPE
  2
dotted
 70
   64
  3
   -       -       -       -    
 72
   65
 73
    2
 40
1.75
 49
0.25
 49
-1.5
  0
LTYPE
  2
chain
 70
   64
  3
-------------- -- --------------
 72
   65
 73
    4
 40
18.5
 49
12
 49
-1.5
 49
3.5
 49
-1.5
  0
LTYPE
  2
chain_double_dash
 70
   64
  3
------------ -- -- -------------
 72
   65
 73
    6
 40
23.5
 49
12
 49
-1.5
 49
3.5
 49
-1.5
 49
3.5
 49
-1.5
  0
LTYPE
  2
dashed_dotted
 70
   64
  3
-----------     -     ----------
 72
   65
 73
    4
 40
9.25
 49
6
 49
-1.5
 49
0.25
 49
-1.5
  0
LTYPE
  2
double-dashed_dotted
 70
   64
  3
------   -----------   -   -----
 72
   65
 73
    6
 40
16.75
 49
6
 49
-1.5
 49
6
 49
-1.5
 49
0.25
 49
-1.5
  0
LTYPE
  2
dashed_double-dotted
 70
   64
  3
---------    -    -    ---------
 72
   65
 73
    6
 40
11
 49
6
 49
-1.5
 49
0.25
 49
-1.5
 49
0.25
 49
-1.5
  0
LTYPE
  2
double-dashed_double-dotted
 70
   64
  3
-----   ---------   -   -   ----
 72
   65
 73
    8
 40
18.5
 49
6
 49
-1.5
 49
6
 49
-1.5
 49
0.25
 49
-1.5
 49
0.25
 49
-1.5
  0
LTYPE
  2
dashed_triplicate-dotted
 70
   64
  3
-------    -    -    -    ------
 72
   65
 73
    8
 40
12.75
 49
6
 49
-1.5
 49
0.25
 49
-1.5
 49
0.25
 49
-1.5
 49
0.25
 49
-1.5
  0
LTYPE
  2
double-dashed_triplicate-dotted
 70
   64
  3
-----  ---------  -  -  -  -----
 72
   65
 73
   10
 40
20.25
 49
6
 49
-1.5
 49
6
 49
-1.5
 49
0.25
 49
-1.5
 49
0.25
 49
-1.5
 49
0.25
 49
-1.5
  0
LTYPE
  2
undefined
 70
   64
  3
--------------------------------
 72
   65
 73
    0
 40
0
  0
LTYPE
  2
_
 70
   64
  3
                                
 72
   65
 73
    0
 40
0
  0
LTYPE
  2
__18
 70
   64
  3
                                
 72
   65
 73
    0
 40
0
  0
LTYPE
  2
__19
 70
   64
  3
                                
 72
   65
 73
    0
 40
0
  0
LTYPE
  2
__20
 70
   64
  3
                                
 72
   65
 73
    0
 40
0
  0
LTYPE
  2
__21
 70
   64
  3
                                
 72
   65
 73
    0
 40
0
  0
LTYPE
  2
__22
 70
   64
  3
                                
 72
   65
 73
    0
 40
0
  0
LTYPE
  2
__23
 70
   64
  3
                                
 72
   65
 73
    0
 40
0
  0
LTYPE
  2
__24
 70
   64
  3
                                
 72
   65
 73
    0
 40
0
  0
LTYPE
  2
__25
 70
   64
  3
                                
 72
   65
 73
    0
 40
0
  0
LTYPE
  2
__26
 70
   64
  3
                                
 72
   65
 73
    0
 40
0
  0
LTYPE
  2
__27
 70
   64
  3
                                
 72
   65
 73
    0
 40
0
  0
LTYPE
  2
__28
 70
   64
  3
                                
 72
   65
 73
    0
 40
0
  0
LTYPE
  2
__29
 70
   64
  3
                                
 72
   65
 73
    0
 40
0
  0
LTYPE
  2
__30
 70
   64
  3
                                
 72
   65
 73
    0
 40
0
  0
LTYPE
  2
__31
 70
   64
  3
                                
 72
   65
 73
    0
 40
0
  0
LTYPE
  2
__32
 70
   64
  3
                                
 72
   65
 73
    0
 40
0
  0
ENDTAB
  0
TABLE
  2
STYLE
  5
3
100
AcDbSymbolTable
 70
     1
  0
STYLE
  5
10
100
AcDbSymbolTableRecord
100
AcDbTextStyleTableRecord
  2
STANDARD
 70
     0
 40
0.0
 41
1.0
 50
0.0
 71
     0
 42
0.2
  3
txt
  4
bigfont.shx
  0
STYLE
  5
26
100
AcDbSymbolTableRecord
100
AcDbTextStyleTableRecord
  2
TATEGAKI
 70
    68
 40
0.0
 41
1.0
 50
0.0
 71
     0
 42
1.0
  3
txt
  4
bigfont.shx
  0
ENDTAB
  0
TABLE
  2
LAYER
 70
    4
  0
LAYER
  2
_0-0_0
 70
   64
 62
    7
  6
CONTINUOUS
  0
LAYER
  2
_0-1__BOARD
 70
   64
 62
    7
  6
CONTINUOUS
  0
LAYER
  2
_0-2__DRILL
 70
   64
 62
    7
  6
CONTINUOUS
  0
LAYER
  2
ADD_LINE
 70
   64
 62
    7
  6
CONTINUOUS
  0
ENDTAB
  0
ENDSEC
  0
SECTION
  2
BLOCKS
  0
BLOCK
  2
-000-_HOLE
 70
   64
 10
0
 20
0
 30
0
  0
CIRCLE
  8
_0-0_0
  6
CONTINUOUS
 62
    7
 10
0
 20
0
 40
2
  0
ENDBLK
  0
ENDSEC
  0
SECTION
  2
ENTITIES
  0
LINE
  8
_0-1__BOARD
  6
CONTINUOUS
 62
    3
 10
85.424999999999954
 20
39.024999999999977
 11
125.42499999999995
 21
39.024999999999977
  0
LINE
  8
_0-1__BOARD
  6
CONTINUOUS
 62
    3
 10
125.42499999999995
 20
39.024999999999977
 11
125.42499999999995
 21
112.02499999999997
  0
LINE
  8
_0-1__BOARD
  6
CONTINUOUS
 62
    3
 10
125.42499999999995
 20
112.02499999999997
 11
85.424999999999954
 21
112.02499999999997
  0
LINE
  8
_0-1__BOARD
  6
CONTINUOUS
 62
    3
 10
85.424999999999954
 20
112.02499999999997
 11
85.424999999999954
 21
39.024999999999977
  0
INSERT
  2
-000-_HOLE
  8
_0-2__DRILL
 10
87.924999999999954
 20
49.034999999999968
 41
0.25
 42
0.25
 50
0
  0
INSERT
  2
-000-_HOLE
  8
_0-2__DRILL
 10
87.924999999999954
 20
51.574999999999988
 41
0.25
 42
0.25
 50
0
  0
INSERT
  2
-000-_HOLE
  8
_0-2__DRILL
 10
87.924999999999954
 20
54.114999999999952
 41
0.25
 42
0.25
 50
0
  0
INSERT
  2
-000-_HOLE
  8
_0-2__DRILL
 10
87.924999999999954
 20
56.654999999999972
 41
0.25
 42
0.25
 50
0
  0
INSERT
  2
-000-_HOLE
  8
_0-2__DRILL
 10
87.924999999999954
 20
59.194999999999936
 41
0.25
 42
0.25
 50
0
  0
INSERT
  2
-000-_HOLE
  8
_0-2__DRILL
 10
87.924999999999954
 20
61.735000000000013
 41
0.25
 42
0.25
 50
0
  0
INSERT
  2
-000-_HOLE
  8
_0-2__DRILL
 10
87.924999999999954
 20
64.274999999999977
 41
0.25
 42
0.25
 50
0
  0
INSERT
  2
-000-_HOLE
  8
_0-2__DRILL
 10
87.924999999999954
 20
66.81499999999994
 41
0.25
 42
0.25
 50
0
  0
INSERT
  2
-000-_HOLE
  8
_0-2__DRILL
 10
87.924999999999954
 20
69.355000000000018
 41
0.25
 42
0.25
 50
0
  0
INSERT
  2
-000-_HOLE
  8
_0-2__DRILL
 10
87.924999999999954
 20
71.894999999999981
 41
0.25
 42
0.25
 50
0
  0
INSERT
  2
-000-_HOLE
  8
_0-2__DRILL
 10
87.924999999999954
 20
74.434999999999945
 41
0.25
 42
0.25
 50
0
  0
INSERT
  2
-000-_HOLE
  8
_0-2__DRILL
 10
87.924999999999954
 20
76.975000000000022
 41
0.25
 42
0.25
 50
0
  0
INSERT
  2
-000-_HOLE
  8
_0-2__DRILL
 10
87.924999999999954
 20
79.514999999999986
 41
0.25
 42
0.25
 50
0
  0
INSERT
  2
-000-_HOLE
  8
_0-2__DRILL
 10
87.924999999999954
 20
82.054999999999949
 41
0.25
 42
0.25
 50
0
  0
INSERT
  2
-000-_HOLE
  8
_0-2__DRILL
 10
87.924999999999954
 20
84.595000000000027
 41
0.25
 42
0.25
 50
0
  0
INSERT
  2
-000-_HOLE
  8
_0-2__DRILL
 10
87.924999999999954
 20
87.13499999999999
 41
0.25
 42
0.25
 50
0
  0
INSERT
  2
-000-_HOLE
  8
_0-2__DRILL
 10
87.924999999999954
 20
89.674999999999954
 41
0.25
 42
0.25
 50
0
  0
INSERT
  2
-000-_HOLE
  8
_0-2__DRILL
 10
123.37499999999994
 20
79.514999999999986
 41
0.25
 42
0.25
 50
0
  0
INSERT
  2
-000-_HOLE
  8
_0-2__DRILL
 10
123.37499999999994
 20
82.054999999999949
 41
0.25
 42
0.25
 50
0
  0
INSERT
  2
-000-_HOLE
  8
_0-2__DRILL
 10
110.57499999999993
 20
108.32499999999993
 41
0.7874999999999999
 42
0.7874999999999999
 50
0
  0
INSERT
  2
-000-_HOLE
  8
_0-2__DRILL
 10
120.02499999999997
 20
72.424999999999954
 41
0.7874999999999999
 42
0.7874999999999999
 50
0
  0
INSERT
  2
-000-_HOLE
  8
_0-2__DRILL
 10
119.22799999999995
 20
44.475999999999999
 41
0.1499999999999999
 42
0.1499999999999999
 50
0
  0
INSERT
  2
-000-_HOLE
  8
_0-2__DRILL
 10
117.95899999999994
 20
44.475999999999999
 41
0.1499999999999999
 42
0.1499999999999999
 50
0
  0
INSERT
  2
-000-_HOLE
  8
_0-2__DRILL
 10
119.22799999999995
 20
43.20599999999996
 41
0.1499999999999999
 42
0.1499999999999999
 50
0
  0
INSERT
  2
-000-_HOLE
  8
_0-2__DRILL
 10
117.95899999999994
 20
43.20599999999996
 41
0.1499999999999999
 42
0.1499999999999999
 50
0
  0
INSERT
  2
-000-_HOLE
  8
_0-2__DRILL
 10
119.22799999999995
 20
45.74599999999998
 41
0.1499999999999999
 42
0.1499999999999999
 50
0
  0
INSERT
  2
-000-_HOLE
  8
_0-2__DRILL
 10
117.95899999999994
 20
45.74599999999998
 41
0.1499999999999999
 42
0.1499999999999999
 50
0
  0
INSERT
  2
-000-_HOLE
  8
_0-2__DRILL
 10
119.22799999999995
 20
48.286000000000001
 41
0.1499999999999999
 42
0.1499999999999999
 50
0
  0
INSERT
  2
-000-_HOLE
  8
_0-2__DRILL
 10
117.95899999999994
 20
48.286000000000001
 41
0.1499999999999999
 42
0.1499999999999999
 50
0
  0
INSERT
  2
-000-_HOLE
  8
_0-2__DRILL
 10
119.22799999999995
 20
47.015999999999962
 41
0.1499999999999999
 42
0.1499999999999999
 50
0
  0
INSERT
  2
-000-_HOLE
  8
_0-2__DRILL
 10
117.95899999999994
 20
47.015999999999962
 41
0.1499999999999999
 42
0.1499999999999999
 50
0
  0
INSERT
  2
-000-_HOLE
  8
_0-2__DRILL
 10
119.22799999999995
 20
50.825999999999964
 41
0.1499999999999999
 42
0.1499999999999999
 50
0
  0
INSERT
  2
-000-_HOLE
  8
_0-2__DRILL
 10
117.95899999999994
 20
50.825999999999964
 41
0.1499999999999999
 42
0.1499999999999999
 50
0
  0
INSERT
  2
-000-_HOLE
  8
_0-2__DRILL
 10
119.22799999999995
 20
49.555999999999983
 41
0.1499999999999999
 42
0.1499999999999999
 50
0
  0
INSERT
  2
-000-_HOLE
  8
_0-2__DRILL
 10
117.95899999999994
 20
49.555999999999983
 41
0.1499999999999999
 42
0.1499999999999999
 50
0
  0
INSERT
  2
-000-_HOLE
  8
_0-2__DRILL
 10
119.22799999999995
 20
53.365999999999985
 41
0.1499999999999999
 42
0.1499999999999999
 50
0
  0
INSERT
  2
-000-_HOLE
  8
_0-2__DRILL
 10
117.95899999999994
 20
53.365999999999985
 41
0.1499999999999999
 42
0.1499999999999999
 50
0
  0
INSERT
  2
-000-_HOLE
  8
_0-2__DRILL
 10
119.22799999999995
 20
52.096000000000003
 41
0.1499999999999999
 42
0.1499999999999999
 50
0
  0
INSERT
  2
-000-_HOLE
  8
_0-2__DRILL
 10
117.95899999999994
 20
52.096000000000003
 41
0.1499999999999999
 42
0.1499999999999999
 50
0
  0
INSERT
  2
-000-_HOLE
  8
_0-2__DRILL
 10
119.22799999999995
 20
55.905999999999949
 41
0.1499999999999999
 42
0.1499999999999999
 50
0
  0
INSERT
  2
-000-_HOLE
  8
_0-2__DRILL
 10
117.95899999999994
 20
55.905999999999949
 41
0.1499999999999999
 42
0.1499999999999999
 50
0
  0
INSERT
  2
-000-_HOLE
  8
_0-2__DRILL
 10
119.22799999999995
 20
54.635999999999967
 41
0.1499999999999999
 42
0.1499999999999999
 50
0
  0
INSERT
  2
-000-_HOLE
  8
_0-2__DRILL
 10
117.95899999999994
 20
54.635999999999967
 41
0.1499999999999999
 42
0.1499999999999999
 50
0
  0
INSERT
  2
-000-_HOLE
  8
_0-2__DRILL
 10
103.98799999999994
 20
43.20599999999996
 41
0.1499999999999999
 42
0.1499999999999999
 50
0
  0
INSERT
  2
-000-_HOLE
  8
_0-2__DRILL
 10
102.71799999999996
 20
43.20599999999996
 41
0.1499999999999999
 42
0.1499999999999999
 50
0
  0
INSERT
  2
-000-_HOLE
  8
_0-2__DRILL
 10
103.98799999999994
 20
44.475999999999999
 41
0.1499999999999999
 42
0.1499999999999999
 50
0
  0
INSERT
  2
-000-_HOLE
  8
_0-2__DRILL
 10
102.71799999999996
 20
45.74599999999998
 41
0.1499999999999999
 42
0.1499999999999999
 50
0
  0
INSERT
  2
-000-_HOLE
  8
_0-2__DRILL
 10
102.71799999999996
 20
44.475999999999999
 41
0.1499999999999999
 42
0.1499999999999999
 50
0
  0
INSERT
  2
-000-_HOLE
  8
_0-2__DRILL
 10
103.98799999999994
 20
45.74599999999998
 41
0.1499999999999999
 42
0.1499999999999999
 50
0
  0
INSERT
  2
-000-_HOLE
  8
_0-2__DRILL
 10
103.98799999999994
 20
47.015999999999962
 41
0.1499999999999999
 42
0.1499999999999999
 50
0
  0
INSERT
  2
-000-_HOLE
  8
_0-2__DRILL
 10
102.71799999999996
 20
48.286000000000001
 41
0.1499999999999999
 42
0.1499999999999999
 50
0
  0
INSERT
  2
-000-_HOLE
  8
_0-2__DRILL
 10
102.71799999999996
 20
47.015999999999962
 41
0.1499999999999999
 42
0.1499999999999999
 50
0
  0
INSERT
  2
-000-_HOLE
  8
_0-2__DRILL
 10
103.98799999999994
 20
48.286000000000001
 41
0.1499999999999999
 42
0.1499999999999999
 50
0
  0
INSERT
  2
-000-_HOLE
  8
_0-2__DRILL
 10
103.98799999999994
 20
49.555999999999983
 41
0.1499999999999999
 42
0.1499999999999999
 50
0
  0
INSERT
  2
-000-_HOLE
  8
_0-2__DRILL
 10
102.71799999999996
 20
50.825999999999964
 41
0.1499999999999999
 42
0.1499999999999999
 50
0
  0
INSERT
  2
-000-_HOLE
  8
_0-2__DRILL
 10
102.71799999999996
 20
49.555999999999983
 41
0.1499999999999999
 42
0.1499999999999999
 50
0
  0
INSERT
  2
-000-_HOLE
  8
_0-2__DRILL
 10
103.98799999999994
 20
50.825999999999964
 41
0.1499999999999999
 42
0.1499999999999999
 50
0
  0
INSERT
  2
-000-_HOLE
  8
_0-2__DRILL
 10
103.98799999999994
 20
52.096000000000003
 41
0.1499999999999999
 42
0.1499999999999999
 50
0
  0
INSERT
  2
-000-_HOLE
  8
_0-2__DRILL
 10
102.71799999999996
 20
53.365999999999985
 41
0.1499999999999999
 42
0.1499999999999999
 50
0
  0
INSERT
  2
-000-_HOLE
  8
_0-2__DRILL
 10
102.71799999999996
 20
52.096000000000003
 41
0.1499999999999999
 42
0.1499999999999999
 50
0
  0
INSERT
  2
-000-_HOLE
  8
_0-2__DRILL
 10
103.98799999999994
 20
53.365999999999985
 41
0.1499999999999999
 42
0.1499999999999999
 50
0
  0
INSERT
  2
-000-_HOLE
  8
_0-2__DRILL
 10
103.98799999999994
 20
54.635999999999967
 41
0.1499999999999999
 42
0.1499999999999999
 50
0
  0
INSERT
  2
-000-_HOLE
  8
_0-2__DRILL
 10
102.71799999999996
 20
55.905999999999949
 41
0.1499999999999999
 42
0.1499999999999999
 50
0
  0
INSERT
  2
-000-_HOLE
  8
_0-2__DRILL
 10
102.71799999999996
 20
54.635999999999967
 41
0.1499999999999999
 42
0.1499999999999999
 50
0
  0
INSERT
  2
-000-_HOLE
  8
_0-2__DRILL
 10
103.98799999999994
 20
55.905999999999949
 41
0.1499999999999999
 42
0.1499999999999999
 50
0
  0
INSERT
  2
-000-_HOLE
  8
_0-2__DRILL
 10
103.98799999999994
 20
57.17599999999993
 41
0.1499999999999999
 42
0.1499999999999999
 50
0
  0
INSERT
  2
-000-_HOLE
  8
_0-2__DRILL
 10
102.71799999999996
 20
58.446000000000026
 41
0.1499999999999999
 42
0.1499999999999999
 50
0
  0
INSERT
  2
-000-_HOLE
  8
_0-2__DRILL
 10
102.71799999999996
 20
57.17599999999993
 41
0.1499999999999999
 42
0.1499999999999999
 50
0
  0
INSERT
  2
-000-_HOLE
  8
_0-2__DRILL
 10
103.98799999999994
 20
58.446000000000026
 41
0.1499999999999999
 42
0.1499999999999999
 50
0
  0
INSERT
  2
-000-_HOLE
  8
_0-2__DRILL
 10
103.98799999999994
 20
59.716000000000008
 41
0.1499999999999999
 42
0.1499999999999999
 50
0
  0
INSERT
  2
-000-_HOLE
  8
_0-2__DRILL
 10
102.71799999999996
 20
60.985999999999989
 41
0.1499999999999999
 42
0.1499999999999999
 50
0
  0
INSERT
  2
-000-_HOLE
  8
_0-2__DRILL
 10
102.71799999999996
 20
59.716000000000008
 41
0.1499999999999999
 42
0.1499999999999999
 50
0
  0
INSERT
  2
-000-_HOLE
  8
_0-2__DRILL
 10
103.98799999999994
 20
60.985999999999989
 41
0.1499999999999999
 42
0.1499999999999999
 50
0
  0
INSERT
  2
-000-_HOLE
  8
_0-2__DRILL
 10
103.98799999999994
 20
63.525999999999953
 41
0.1499999999999999
 42
0.1499999999999999
 50
0
  0
INSERT
  2
-000-_HOLE
  8
_0-2__DRILL
 10
103.98799999999994
 20
62.255999999999971
 41
0.1499999999999999
 42
0.1499999999999999
 50
0
  0
INSERT
  2
-000-_HOLE
  8
_0-2__DRILL
 10
102.71799999999996
 20
63.525999999999953
 41
0.1499999999999999
 42
0.1499999999999999
 50
0
  0
INSERT
  2
-000-_HOLE
  8
_0-2__DRILL
 10
102.71799999999996
 20
62.255999999999971
 41
0.1499999999999999
 42
0.1499999999999999
 50
0
  0
INSERT
  2
-000-_HOLE
  8
_0-2__DRILL
 10
110.67499999999995
 20
92.625
 41
0.225
 42
0.225
 50
0
  0
INSERT
  2
-000-_HOLE
  8
_0-2__DRILL
 10
108.67499999999995
 20
92.625
 41
0.225
 42
0.225
 50
0
  0
INSERT
  2
-000-_HOLE
  8
_0-2__DRILL
 10
106.67499999999995
 20
92.625
 41
0.225
 42
0.225
 50
0
  0
INSERT
  2
-000-_HOLE
  8
_0-2__DRILL
 10
104.67499999999995
 20
92.625
 41
0.225
 42
0.225
 50
0
  0
INSERT
  2
-000-_HOLE
  8
_0-2__DRILL
 10
110.62499999999994
 20
100.82499999999993
 41
0.225
 42
0.225
 50
0
  0
INSERT
  2
-000-_HOLE
  8
_0-2__DRILL
 10
108.62499999999994
 20
100.82499999999993
 41
0.225
 42
0.225
 50
0
  0
INSERT
  2
-000-_HOLE
  8
_0-2__DRILL
 10
106.62499999999994
 20
100.82499999999993
 41
0.225
 42
0.225
 50
0
  0
INSERT
  2
-000-_HOLE
  8
_0-2__DRILL
 10
104.62499999999994
 20
100.82499999999993
 41
0.225
 42
0.225
 50
0
  0
INSERT
  2
-000-_HOLE
  8
_0-2__DRILL
 10
97.09499999999997
 20
42.125
 41
0.325
 42
0.325
 50
0
  0
INSERT
  2
-000-_HOLE
  8
_0-2__DRILL
 10
88.454999999999927
 20
42.125
 41
0.325
 42
0.325
 50
0
  0
INSERT
  2
-000-_HOLE
  8
_0-2__DRILL
 10
94.574999999999931
 20
45.924999999999954
 41
0.28
 42
0.28
 50
0
  0
INSERT
  2
-000-_HOLE
  8
_0-2__DRILL
 10
90.974999999999965
 20
45.924999999999954
 41
0.28
 42
0.28
 50
0
  0
INSERT
  2
-000-_HOLE
  8
_0-2__DRILL
 10
94.724999999999965
 20
51.875
 41
0.225
 42
0.225
 50
0
  0
INSERT
  2
-000-_HOLE
  8
_0-2__DRILL
 10
94.724999999999965
 20
53.875
 41
0.225
 42
0.225
 50
0
  0
INSERT
  2
-000-_HOLE
  8
_0-2__DRILL
 10
94.724999999999965
 20
55.875
 41
0.225
 42
0.225
 50
0
  0
INSERT
  2
-000-_HOLE
  8
_0-2__DRILL
 10
94.724999999999965
 20
57.875
 41
0.225
 42
0.225
 50
0
  0
INSERT
  2
-000-_HOLE
  8
_0-2__DRILL
 10
115.28499999999996
 20
100.97500000000002
 41
0.225
 42
0.225
 50
0
  0
INSERT
  2
-000-_HOLE
  8
_0-2__DRILL
 10
117.82499999999993
 20
100.97500000000002
 41
0.225
 42
0.225
 50
0
  0
INSERT
  2
-000-_HOLE
  8
_0-2__DRILL
 10
120.28499999999996
 20
100.97500000000002
 41
0.225
 42
0.225
 50
0
  0
INSERT
  2
-000-_HOLE
  8
_0-2__DRILL
 10
122.82499999999993
 20
100.97500000000002
 41
0.225
 42
0.225
 50
0
  0
INSERT
  2
-000-_HOLE
  8
_0-2__DRILL
 10
123.42499999999995
 20
43.954999999999984
 41
0.25
 42
0.25
 50
0
  0
INSERT
  2
-000-_HOLE
  8
_0-2__DRILL
 10
123.42499999999995
 20
46.495000000000004
 41
0.25
 42
0.25
 50
0
  0
INSERT
  2
-000-_HOLE
  8
_0-2__DRILL
 10
123.42499999999995
 20
49.034999999999968
 41
0.25
 42
0.25
 50
0
  0
INSERT
  2
-000-_HOLE
  8
_0-2__DRILL
 10
123.42499999999995
 20
51.574999999999988
 41
0.25
 42
0.25
 50
0
  0
INSERT
  2
-000-_HOLE
  8
_0-2__DRILL
 10
123.42499999999995
 20
54.114999999999952
 41
0.25
 42
0.25
 50
0
  0
INSERT
  2
-000-_HOLE
  8
_0-2__DRILL
 10
123.42499999999995
 20
56.654999999999972
 41
0.25
 42
0.25
 50
0
  0
INSERT
  2
-000-_HOLE
  8
_0-2__DRILL
 10
123.42499999999995
 20
59.194999999999936
 41
0.25
 42
0.25
 50
0
  0
INSERT
  2
-000-_HOLE
  8
_0-2__DRILL
 10
123.42499999999995
 20
61.735000000000013
 41
0.25
 42
0.25
 50
0
  0
INSERT
  2
-000-_HOLE
  8
_0-2__DRILL
 10
123.42499999999995
 20
64.274999999999977
 41
0.25
 42
0.25
 50
0
  0
INSERT
  2
-000-_HOLE
  8
_0-2__DRILL
 10
123.42499999999995
 20
66.81499999999994
 41
0.25
 42
0.25
 50
0
  0
INSERT
  2
-000-_HOLE
  8
_0-2__DRILL
 10
123.42499999999995
 20
69.355000000000018
 41
0.25
 42
0.25
 50
0
  0
INSERT
  2
-000-_HOLE
  8
_0-2__DRILL
 10
110.62499999999994
 20
69.324999999999931
 41
0.225
 42
0.225
 50
0
  0
INSERT
  2
-000-_HOLE
  8
_0-2__DRILL
 10
108.62499999999994
 20
69.324999999999931
 41
0.225
 42
0.225
 50
0
  0
INSERT
  2
-000-_HOLE
  8
_0-2__DRILL
 10
106.62499999999994
 20
69.324999999999931
 41
0.225
 42
0.225
 50
0
  0
INSERT
  2
-000-_HOLE
  8
_0-2__DRILL
 10
104.62499999999994
 20
69.324999999999931
 41
0.225
 42
0.225
 50
0
  0
INSERT
  2
-000-_HOLE
  8
_0-2__DRILL
 10
110.62499999999994
 20
76.975000000000022
 41
0.225
 42
0.225
 50
0
  0
INSERT
  2
-000-_HOLE
  8
_0-2__DRILL
 10
108.62499999999994
 20
76.975000000000022
 41
0.225
 42
0.225
 50
0
  0
INSERT
  2
-000-_HOLE
  8
_0-2__DRILL
 10
106.62499999999994
 20
76.975000000000022
 41
0.225
 42
0.225
 50
0
  0
INSERT
  2
-000-_HOLE
  8
_0-2__DRILL
 10
104.62499999999994
 20
76.975000000000022
 41
0.225
 42
0.225
 50
0
  0
INSERT
  2
-000-_HOLE
  8
_0-2__DRILL
 10
110.62499999999994
 20
84.625
 41
0.225
 42
0.225
 50
0
  0
INSERT
  2
-000-_HOLE
  8
_0-2__DRILL
 10
108.62499999999994
 20
84.625
 41
0.225
 42
0.225
 50
0
  0
INSERT
  2
-000-_HOLE
  8
_0-2__DRILL
 10
106.62499999999994
 20
84.625
 41
0.225
 42
0.225
 50
0
  0
INSERT
  2
-000-_HOLE
  8
_0-2__DRILL
 10
104.62499999999994
 20
84.625
 41
0.225
 42
0.225
 50
0
  0
LINE
  8
_0-0_0
  6
CONTINUOUS
 62
    4
 10
85.424999999999954
 20
114.76646341463414
 11
125.42499999999995
 21
114.76646341463414
  0
POINT
  8
_0-0_0
 62
    4
 10
85.424999999999954
 20
114.76646341463414
  0
POINT
  8
_0-0_0
 62
    4
 10
125.42499999999995
 20
114.76646341463414
  0
LINE
  8
_0-0_0
  6
CONTINUOUS
 62
    4
 10
85.424999999999954
 20
114.76646341463414
 11
85.424999999999954
 21
112.80365853658537
  0
LINE
  8
_0-0_0
  6
CONTINUOUS
 62
    4
 10
125.42499999999995
 20
114.76646341463414
 11
125.42499999999995
 21
112.80365853658537
  0
TEXT
  8
_0-0_0
 62
    7
 10
104.61249999999995
 20
115.01646341463414
 40
1.5
 41
1
 50
0
  1
40
  0
LINE
  8
_0-0_0
  6
CONTINUOUS
 62
    4
 10
81.621951219512197
 20
112.02499999999997
 11
81.621951219512183
 21
39.024999999999977
  0
POINT
  8
_0-0_0
 62
    4
 10
81.621951219512197
 20
112.02499999999997
  0
POINT
  8
_0-0_0
 62
    4
 10
81.621951219512183
 20
39.024999999999977
  0
LINE
  8
_0-0_0
  6
CONTINUOUS
 62
    4
 10
81.621951219512197
 20
112.02499999999997
 11
84.327439024390244
 21
112.02499999999997
  0
LINE
  8
_0-0_0
  6
CONTINUOUS
 62
    4
 10
81.621951219512183
 20
39.024999999999977
 11
84.32743902439023
 21
39.024999999999977
  0
TEXT
  8
_0-0_0
 62
    7
 10
81.371951219512197
 20
74.712499999999977
 40
1.5
 41
1
 50
90
  1
73
  0
ENDSEC
  0
EOF
