G04 DesignSpark PCB Gerber Version 13.0 Build *
%FSLAX35Y35*%
%MOMM*%
%ADD10C,0.12700*%
X0Y0D02*
D02*
D10*
X370240Y5765240D02*
Y7245240D01*
X615240Y7490240D01*
X1915240D01*
Y5765240D01*
X370240D01*
X515240Y375240D02*
X1615240D01*
Y1145240D01*
X515240D01*
Y375240D01*
X760240Y554300D02*
Y482870D01*
X768180Y466990D01*
X784050Y459050D01*
X815800D01*
X831680Y466990D01*
X839620Y482870D01*
Y554300D01*
X887240Y482870D02*
X895180Y466990D01*
X911050Y459050D01*
X942800D01*
X958680Y466990D01*
X966620Y482870D01*
X958680Y498740D01*
X942800Y506680D01*
X911050D01*
X895180Y514620D01*
X887240Y530490D01*
X895180Y546370D01*
X911050Y554300D01*
X942800D01*
X958680Y546370D01*
X966620Y530490D01*
X1069800Y506680D02*
X1085680Y498740D01*
X1093620Y482870D01*
X1085680Y466990D01*
X1069800Y459050D01*
X1014240D01*
Y554300D01*
X1069800D01*
X1085680Y546370D01*
X1093620Y530490D01*
X1085680Y514620D01*
X1069800Y506680D01*
X1014240D01*
X1141240Y490800D02*
X1204740D01*
X1347620Y474930D02*
X1339680Y466990D01*
X1323800Y459050D01*
X1299990D01*
X1284120Y466990D01*
X1276180Y474930D01*
X1268240Y490800D01*
Y522550D01*
X1276180Y538430D01*
X1284120Y546370D01*
X1299990Y554300D01*
X1323800D01*
X1339680Y546370D01*
X1347620Y538430D01*
X810240Y6380240D02*
Y6550240D01*
X1695240D01*
Y6380240D01*
X810240D01*
X827240Y5611990D02*
Y1643240D01*
X573240D01*
Y5675490D01*
X763740D01*
X827240Y5611990D01*
X895800Y1753740D02*
X919620D01*
Y1745800D01*
X911680Y1729930D01*
X903740Y1721990D01*
X887870Y1714050D01*
X871990D01*
X856120Y1721990D01*
X848180Y1729930D01*
X840240Y1745800D01*
Y1777550D01*
X848180Y1793430D01*
X856120Y1801370D01*
X871990Y1809300D01*
X887870D01*
X903740Y1801370D01*
X911680Y1793430D01*
X919620Y1777550D01*
X967240Y1714050D02*
Y1809300D01*
X1046620Y1714050D01*
Y1809300D01*
X1094240Y1714050D02*
Y1809300D01*
X1141870D01*
X1157740Y1801370D01*
X1165680Y1793430D01*
X1173620Y1777550D01*
Y1745800D01*
X1165680Y1729930D01*
X1157740Y1721990D01*
X1141870Y1714050D01*
X1094240D01*
X900800Y2018740D02*
X924620D01*
Y2010800D01*
X916680Y1994930D01*
X908740Y1986990D01*
X892870Y1979050D01*
X876990D01*
X861120Y1986990D01*
X853180Y1994930D01*
X845240Y2010800D01*
Y2042550D01*
X853180Y2058430D01*
X861120Y2066370D01*
X876990Y2074300D01*
X892870D01*
X908740Y2066370D01*
X916680Y2058430D01*
X924620Y2042550D01*
X980180Y1986990D02*
X996050Y1979050D01*
X1011930D01*
X1027800Y1986990D01*
X1035740Y2002870D01*
Y2050490D01*
X1027800Y2066370D01*
X1011930Y2074300D01*
X996050D01*
X980180Y2066370D01*
X972240Y2050490D01*
Y2002870D01*
X980180Y1986990D01*
X1027800Y2066370D01*
X845240Y2229050D02*
Y2324300D01*
X924620D01*
X908740Y2276680D02*
X845240D01*
Y2229050D02*
X924620D01*
X972240D02*
Y2324300D01*
X1051620Y2229050D01*
Y2324300D01*
X925800Y2743740D02*
X949620D01*
Y2735800D01*
X941680Y2719930D01*
X933740Y2711990D01*
X917870Y2704050D01*
X901990D01*
X886120Y2711990D01*
X878180Y2719930D01*
X870240Y2735800D01*
Y2767550D01*
X878180Y2783430D01*
X886120Y2791370D01*
X901990Y2799300D01*
X917870D01*
X933740Y2791370D01*
X941680Y2783430D01*
X949620Y2767550D01*
X1036930Y2704050D02*
Y2799300D01*
X997240Y2735800D01*
X1060740D01*
X1132180Y2711990D02*
X1148050Y2704050D01*
X1163930D01*
X1179800Y2711990D01*
X1187740Y2727870D01*
X1179800Y2743740D01*
X1163930Y2751680D01*
X1148050D01*
X1163930D02*
X1179800Y2759620D01*
X1187740Y2775490D01*
X1179800Y2791370D01*
X1163930Y2799300D01*
X1148050D01*
X1132180Y2791370D01*
X1251240Y2704050D02*
X1330620Y2799300D01*
X1417930Y2704050D02*
Y2799300D01*
X1378240D02*
X1457620D01*
X1505240Y2704050D02*
X1568740Y2767550D01*
Y2704050D02*
X1505240Y2767550D01*
X1632240Y2704050D02*
Y2799300D01*
X1679870D01*
X1695740Y2791370D01*
X1703680Y2783430D01*
X1711620Y2767550D01*
Y2735800D01*
X1703680Y2719930D01*
X1695740Y2711990D01*
X1679870Y2704050D01*
X1632240D01*
X1822740D02*
X1759240D01*
X1814800Y2759620D01*
X1822740Y2775490D01*
X1814800Y2791370D01*
X1798930Y2799300D01*
X1775120D01*
X1759240Y2791370D01*
X925800Y5068740D02*
X949620D01*
Y5060800D01*
X941680Y5044930D01*
X933740Y5036990D01*
X917870Y5029050D01*
X901990D01*
X886120Y5036990D01*
X878180Y5044930D01*
X870240Y5060800D01*
Y5092550D01*
X878180Y5108430D01*
X886120Y5116370D01*
X901990Y5124300D01*
X917870D01*
X933740Y5116370D01*
X941680Y5108430D01*
X949620Y5092550D01*
X997240Y5036990D02*
X1013120Y5029050D01*
X1036930D01*
X1052800Y5036990D01*
X1060740Y5052870D01*
Y5060800D01*
X1052800Y5076680D01*
X1036930Y5084620D01*
X997240D01*
Y5124300D01*
X1060740D01*
X1124240Y5029050D02*
X1203620Y5124300D01*
X1251240Y5029050D02*
X1290930Y5124300D01*
X1330620Y5029050D01*
X1267120Y5068740D02*
X1314740D01*
X1378240Y5029050D02*
Y5124300D01*
X1425870D01*
X1441740Y5116370D01*
X1449680Y5108430D01*
X1457620Y5092550D01*
Y5060800D01*
X1449680Y5044930D01*
X1441740Y5036990D01*
X1425870Y5029050D01*
X1378240D01*
X1521120D02*
X1552870D01*
X1536990D02*
Y5124300D01*
X1521120Y5108430D01*
X1632240Y5060800D02*
X1695740D01*
X1798930Y5029050D02*
Y5124300D01*
X1759240Y5060800D01*
X1822740D01*
X925800Y5333740D02*
X949620D01*
Y5325800D01*
X941680Y5309930D01*
X933740Y5301990D01*
X917870Y5294050D01*
X901990D01*
X886120Y5301990D01*
X878180Y5309930D01*
X870240Y5325800D01*
Y5357550D01*
X878180Y5373430D01*
X886120Y5381370D01*
X901990Y5389300D01*
X917870D01*
X933740Y5381370D01*
X941680Y5373430D01*
X949620Y5357550D01*
X1005180Y5301990D02*
X1021050Y5294050D01*
X1036930D01*
X1052800Y5301990D01*
X1060740Y5317870D01*
X1052800Y5333740D01*
X1036930Y5341680D01*
X1021050D01*
X1036930D02*
X1052800Y5349620D01*
X1060740Y5365490D01*
X1052800Y5381370D01*
X1036930Y5389300D01*
X1021050D01*
X1005180Y5381370D01*
X1124240Y5294050D02*
X1203620Y5389300D01*
X1290930Y5294050D02*
Y5389300D01*
X1251240D02*
X1330620D01*
X1378240Y5294050D02*
X1441740Y5357550D01*
Y5294050D02*
X1378240Y5357550D01*
X1505240Y5294050D02*
Y5389300D01*
X1552870D01*
X1568740Y5381370D01*
X1576680Y5373430D01*
X1584620Y5357550D01*
Y5325800D01*
X1576680Y5309930D01*
X1568740Y5301990D01*
X1552870Y5294050D01*
X1505240D01*
X1648120D02*
X1679870D01*
X1663990D02*
Y5389300D01*
X1648120Y5373430D01*
X930800Y2523740D02*
X954620D01*
Y2515800D01*
X946680Y2499930D01*
X938740Y2491990D01*
X922870Y2484050D01*
X906990D01*
X891120Y2491990D01*
X883180Y2499930D01*
X875240Y2515800D01*
Y2547550D01*
X883180Y2563430D01*
X891120Y2571370D01*
X906990Y2579300D01*
X922870D01*
X938740Y2571370D01*
X946680Y2563430D01*
X954620Y2547550D01*
X1041930Y2484050D02*
Y2579300D01*
X1002240Y2515800D01*
X1065740D01*
X1168930Y2484050D02*
Y2579300D01*
X1129240Y2515800D01*
X1192740D01*
X1256240Y2484050D02*
X1335620Y2579300D01*
X1383240Y2484050D02*
Y2579300D01*
X1438800D01*
X1454680Y2571370D01*
X1462620Y2555490D01*
X1454680Y2539620D01*
X1438800Y2531680D01*
X1383240D01*
X1438800D02*
X1462620Y2484050D01*
X1510240D02*
X1573740Y2547550D01*
Y2484050D02*
X1510240Y2547550D01*
X1637240Y2484050D02*
Y2579300D01*
X1684870D01*
X1700740Y2571370D01*
X1708680Y2563430D01*
X1716620Y2547550D01*
Y2515800D01*
X1708680Y2499930D01*
X1700740Y2491990D01*
X1684870Y2484050D01*
X1637240D01*
X1827740D02*
X1764240D01*
X1819800Y2539620D01*
X1827740Y2555490D01*
X1819800Y2571370D01*
X1803930Y2579300D01*
X1780120D01*
X1764240Y2571370D01*
X930800Y4823740D02*
X954620D01*
Y4815800D01*
X946680Y4799930D01*
X938740Y4791990D01*
X922870Y4784050D01*
X906990D01*
X891120Y4791990D01*
X883180Y4799930D01*
X875240Y4815800D01*
Y4847550D01*
X883180Y4863430D01*
X891120Y4871370D01*
X906990Y4879300D01*
X922870D01*
X938740Y4871370D01*
X946680Y4863430D01*
X954620Y4847550D01*
X1002240Y4784050D02*
X1065740Y4879300D01*
X1002240D01*
X930800Y5573740D02*
X954620D01*
Y5565800D01*
X946680Y5549930D01*
X938740Y5541990D01*
X922870Y5534050D01*
X906990D01*
X891120Y5541990D01*
X883180Y5549930D01*
X875240Y5565800D01*
Y5597550D01*
X883180Y5613430D01*
X891120Y5621370D01*
X906990Y5629300D01*
X922870D01*
X938740Y5621370D01*
X946680Y5613430D01*
X954620Y5597550D01*
X1018120Y5534050D02*
X1049870D01*
X1033990D02*
Y5629300D01*
X1018120Y5613430D01*
X1129240Y5534050D02*
X1208620Y5629300D01*
X1256240Y5534050D02*
Y5629300D01*
X1311800D01*
X1327680Y5621370D01*
X1335620Y5605490D01*
X1327680Y5589620D01*
X1311800Y5581680D01*
X1256240D01*
X1311800D02*
X1335620Y5534050D01*
X1383240D02*
X1446740Y5597550D01*
Y5534050D02*
X1383240Y5597550D01*
X1510240Y5534050D02*
Y5629300D01*
X1557870D01*
X1573740Y5621370D01*
X1581680Y5613430D01*
X1589620Y5597550D01*
Y5565800D01*
X1581680Y5549930D01*
X1573740Y5541990D01*
X1557870Y5534050D01*
X1510240D01*
X1653120D02*
X1684870D01*
X1668990D02*
Y5629300D01*
X1653120Y5613430D01*
X935800Y4313740D02*
X959620D01*
Y4305800D01*
X951680Y4289930D01*
X943740Y4281990D01*
X927870Y4274050D01*
X911990D01*
X896120Y4281990D01*
X888180Y4289930D01*
X880240Y4305800D01*
Y4337550D01*
X888180Y4353430D01*
X896120Y4361370D01*
X911990Y4369300D01*
X927870D01*
X943740Y4361370D01*
X951680Y4353430D01*
X959620Y4337550D01*
X1007240Y4274050D02*
Y4369300D01*
X1086620Y4274050D01*
Y4369300D01*
X1134240Y4274050D02*
Y4369300D01*
X1181870D01*
X1197740Y4361370D01*
X1205680Y4353430D01*
X1213620Y4337550D01*
Y4305800D01*
X1205680Y4289930D01*
X1197740Y4281990D01*
X1181870Y4274050D01*
X1134240D01*
X935800Y4558740D02*
X959620D01*
Y4550800D01*
X951680Y4534930D01*
X943740Y4526990D01*
X927870Y4519050D01*
X911990D01*
X896120Y4526990D01*
X888180Y4534930D01*
X880240Y4550800D01*
Y4582550D01*
X888180Y4598430D01*
X896120Y4606370D01*
X911990Y4614300D01*
X927870D01*
X943740Y4606370D01*
X951680Y4598430D01*
X959620Y4582550D01*
X1031050Y4519050D02*
X1046930Y4526990D01*
X1062800Y4542870D01*
X1070740Y4566680D01*
Y4590490D01*
X1062800Y4606370D01*
X1046930Y4614300D01*
X1031050D01*
X1015180Y4606370D01*
X1007240Y4590490D01*
X1015180Y4574620D01*
X1031050Y4566680D01*
X1046930D01*
X1062800Y4574620D01*
X1070740Y4590490D01*
X898180Y2901990D02*
X914050Y2894050D01*
X929930D01*
X945800Y2901990D01*
X953740Y2917870D01*
X945800Y2933740D01*
X929930Y2941680D01*
X914050D01*
X929930D02*
X945800Y2949620D01*
X953740Y2965490D01*
X945800Y2981370D01*
X929930Y2989300D01*
X914050D01*
X898180Y2981370D01*
X1025180Y2894050D02*
X1033120Y2901990D01*
X1025180Y2909930D01*
X1017240Y2901990D01*
X1025180Y2894050D01*
X1152180Y2901990D02*
X1168050Y2894050D01*
X1183930D01*
X1199800Y2901990D01*
X1207740Y2917870D01*
X1199800Y2933740D01*
X1183930Y2941680D01*
X1168050D01*
X1183930D02*
X1199800Y2949620D01*
X1207740Y2965490D01*
X1199800Y2981370D01*
X1183930Y2989300D01*
X1168050D01*
X1152180Y2981370D01*
X1271240Y2989300D02*
X1310930Y2894050D01*
X1350620Y2989300D01*
X945800Y3293740D02*
X969620D01*
Y3285800D01*
X961680Y3269930D01*
X953740Y3261990D01*
X937870Y3254050D01*
X921990D01*
X906120Y3261990D01*
X898180Y3269930D01*
X890240Y3285800D01*
Y3317550D01*
X898180Y3333430D01*
X906120Y3341370D01*
X921990Y3349300D01*
X937870D01*
X953740Y3341370D01*
X961680Y3333430D01*
X969620Y3317550D01*
X1017240Y3254050D02*
Y3349300D01*
X1096620Y3254050D01*
Y3349300D01*
X1144240Y3254050D02*
Y3349300D01*
X1191870D01*
X1207740Y3341370D01*
X1215680Y3333430D01*
X1223620Y3317550D01*
Y3285800D01*
X1215680Y3269930D01*
X1207740Y3261990D01*
X1191870Y3254050D01*
X1144240D01*
X945800Y3538740D02*
X969620D01*
Y3530800D01*
X961680Y3514930D01*
X953740Y3506990D01*
X937870Y3499050D01*
X921990D01*
X906120Y3506990D01*
X898180Y3514930D01*
X890240Y3530800D01*
Y3562550D01*
X898180Y3578430D01*
X906120Y3586370D01*
X921990Y3594300D01*
X937870D01*
X953740Y3586370D01*
X961680Y3578430D01*
X969620Y3562550D01*
X1033120Y3499050D02*
X1064870D01*
X1048990D02*
Y3594300D01*
X1033120Y3578430D01*
X1144240Y3506990D02*
X1160120Y3499050D01*
X1183930D01*
X1199800Y3506990D01*
X1207740Y3522870D01*
Y3530800D01*
X1199800Y3546680D01*
X1183930Y3554620D01*
X1144240D01*
Y3594300D01*
X1207740D01*
X1271240Y3499050D02*
X1350620Y3594300D01*
X1398240Y3522870D02*
X1406180Y3506990D01*
X1422050Y3499050D01*
X1453800D01*
X1469680Y3506990D01*
X1477620Y3522870D01*
X1469680Y3538740D01*
X1453800Y3546680D01*
X1422050D01*
X1406180Y3554620D01*
X1398240Y3570490D01*
X1406180Y3586370D01*
X1422050Y3594300D01*
X1453800D01*
X1469680Y3586370D01*
X1477620Y3570490D01*
X1604620Y3514930D02*
X1596680Y3506990D01*
X1580800Y3499050D01*
X1556990D01*
X1541120Y3506990D01*
X1533180Y3514930D01*
X1525240Y3530800D01*
Y3562550D01*
X1533180Y3578430D01*
X1541120Y3586370D01*
X1556990Y3594300D01*
X1580800D01*
X1596680Y3586370D01*
X1604620Y3578430D01*
X1652240Y3594300D02*
Y3499050D01*
X1731620D01*
X945800Y3798740D02*
X969620D01*
Y3790800D01*
X961680Y3774930D01*
X953740Y3766990D01*
X937870Y3759050D01*
X921990D01*
X906120Y3766990D01*
X898180Y3774930D01*
X890240Y3790800D01*
Y3822550D01*
X898180Y3838430D01*
X906120Y3846370D01*
X921990Y3854300D01*
X937870D01*
X953740Y3846370D01*
X961680Y3838430D01*
X969620Y3822550D01*
X1033120Y3759050D02*
X1064870D01*
X1048990D02*
Y3854300D01*
X1033120Y3838430D01*
X1152180Y3766990D02*
X1168050Y3759050D01*
X1183930D01*
X1199800Y3766990D01*
X1207740Y3782870D01*
X1199800Y3798740D01*
X1183930Y3806680D01*
X1168050D01*
X1183930D02*
X1199800Y3814620D01*
X1207740Y3830490D01*
X1199800Y3846370D01*
X1183930Y3854300D01*
X1168050D01*
X1152180Y3846370D01*
X1271240Y3759050D02*
X1350620Y3854300D01*
X1398240Y3782870D02*
X1406180Y3766990D01*
X1422050Y3759050D01*
X1453800D01*
X1469680Y3766990D01*
X1477620Y3782870D01*
X1469680Y3798740D01*
X1453800Y3806680D01*
X1422050D01*
X1406180Y3814620D01*
X1398240Y3830490D01*
X1406180Y3846370D01*
X1422050Y3854300D01*
X1453800D01*
X1469680Y3846370D01*
X1477620Y3830490D01*
X1525240Y3759050D02*
Y3854300D01*
X1572870D01*
X1588740Y3846370D01*
X1596680Y3838430D01*
X1604620Y3822550D01*
Y3790800D01*
X1596680Y3774930D01*
X1588740Y3766990D01*
X1572870Y3759050D01*
X1525240D01*
X1652240D02*
X1691930Y3854300D01*
X1731620Y3759050D01*
X1668120Y3798740D02*
X1715740D01*
X900240Y4016990D02*
X916120Y4009050D01*
X939930D01*
X955800Y4016990D01*
X963740Y4032870D01*
Y4040800D01*
X955800Y4056680D01*
X939930Y4064620D01*
X900240D01*
Y4104300D01*
X963740D01*
X1027240D02*
X1066930Y4009050D01*
X1106620Y4104300D01*
X1430240Y2450240D02*
X1070240D01*
Y1390240D01*
X1530240D01*
Y2350240D01*
X1430240Y2450240D01*
X1599050Y2271430D02*
Y2239680D01*
Y2255550D02*
X1694300D01*
Y2271430D02*
Y2239680D01*
X1599050Y2168240D02*
X1694300D01*
X1646680Y2128550D01*
X1694300Y2088860D01*
X1599050D01*
X1694300Y2041240D02*
X1622870D01*
X1606990Y2033300D01*
X1599050Y2017430D01*
Y1985680D01*
X1606990Y1969800D01*
X1622870Y1961860D01*
X1694300D01*
X1599050Y1763430D02*
Y1731680D01*
Y1747550D02*
X1694300D01*
Y1763430D02*
Y1731680D01*
X1599050Y1596740D02*
Y1660240D01*
X1654620Y1604680D01*
X1670490Y1596740D01*
X1686370Y1604680D01*
X1694300Y1620550D01*
Y1644360D01*
X1686370Y1660240D01*
X1614930Y1453860D02*
X1606990Y1461800D01*
X1599050Y1477680D01*
Y1501490D01*
X1606990Y1517360D01*
X1614930Y1525300D01*
X1630800Y1533240D01*
X1662550D01*
X1678430Y1525300D01*
X1686370Y1517360D01*
X1694300Y1501490D01*
Y1477680D01*
X1686370Y1461800D01*
X1678430Y1453860D01*
X1705240Y6490240D02*
Y7265240D01*
X1775240D01*
Y6490240D01*
X1705240D01*
X1810240Y5935240D02*
Y6235240D01*
X1945240D01*
Y5935240D01*
X1810240D01*
Y6370240D02*
Y6705240D01*
X1945240D01*
Y6370240D01*
X1810240D01*
X1995240Y6070800D02*
Y6102550D01*
X2003180Y6118430D01*
X2011120Y6126370D01*
X2026990Y6134300D01*
X2042870D01*
X2058740Y6126370D01*
X2066680Y6118430D01*
X2074620Y6102550D01*
Y6070800D01*
X2066680Y6054930D01*
X2058740Y6046990D01*
X2042870Y6039050D01*
X2026990D01*
X2011120Y6046990D01*
X2003180Y6054930D01*
X1995240Y6070800D01*
X2122240Y6102550D02*
Y6015240D01*
Y6062870D02*
X2130180Y6046990D01*
X2146050Y6039050D01*
X2161930D01*
X2177800Y6046990D01*
X2185740Y6062870D01*
Y6078740D01*
X2177800Y6094620D01*
X2161930Y6102550D01*
X2146050D01*
X2130180Y6094620D01*
X2122240Y6078740D01*
Y6062870D01*
X2312740Y6046990D02*
X2304800Y6039050D01*
X2288930D01*
X2273050D01*
X2257180Y6046990D01*
X2249240Y6062870D01*
Y6086680D01*
X2257180Y6094620D01*
X2273050Y6102550D01*
X2288930D01*
X2304800Y6094620D01*
X2312740Y6086680D01*
Y6078740D01*
X2304800Y6070800D01*
X2288930Y6062870D01*
X2273050D01*
X2257180Y6070800D01*
X2249240Y6078740D01*
X2376240Y6039050D02*
Y6102550D01*
Y6078740D02*
X2384180Y6094620D01*
X2400050Y6102550D01*
X2415930D01*
X2431800Y6094620D01*
X2439740Y6078740D01*
Y6039050D01*
X2503240Y6134300D02*
Y6039050D01*
X2582620D01*
X2630240Y6062870D02*
X2638180Y6046990D01*
X2654050Y6039050D01*
X2669930D01*
X2685800Y6046990D01*
X2693740Y6062870D01*
Y6078740D01*
X2685800Y6094620D01*
X2669930Y6102550D01*
X2654050D01*
X2638180Y6094620D01*
X2630240Y6078740D01*
Y6062870D01*
X2820740Y6078740D02*
X2812800Y6094620D01*
X2796930Y6102550D01*
X2781050D01*
X2765180Y6094620D01*
X2757240Y6078740D01*
Y6070800D01*
X2765180Y6054930D01*
X2781050Y6046990D01*
X2796930D01*
X2812800Y6054930D01*
X2820740Y6070800D01*
Y6102550D02*
Y6039050D01*
X2812800Y6023180D01*
X2796930Y6015240D01*
X2773120D01*
X2757240Y6023180D01*
X3011240Y6134300D02*
X3050930Y6039050D01*
X3090620Y6134300D01*
X3154120Y6039050D02*
X3185870D01*
X3169990D02*
Y6134300D01*
X3154120Y6118430D01*
X3265240Y6046990D02*
X3281120Y6039050D01*
X3304930D01*
X3320800Y6046990D01*
X3328740Y6062870D01*
Y6070800D01*
X3320800Y6086680D01*
X3304930Y6094620D01*
X3265240D01*
Y6134300D01*
X3328740D01*
X2020240Y3535240D02*
Y3175240D01*
X3080240D01*
Y3635240D01*
X2120240D01*
X2020240Y3535240D01*
Y4300240D02*
Y3940240D01*
X3080240D01*
Y4400240D01*
X2120240D01*
X2020240Y4300240D01*
Y5065240D02*
Y4705240D01*
X3080240D01*
Y5165240D01*
X2120240D01*
X2020240Y5065240D01*
Y6685240D02*
Y6325240D01*
X3080240D01*
Y6785240D01*
X2120240D01*
X2020240Y6685240D01*
X2025240Y5865240D02*
Y5505240D01*
X3085240D01*
Y5965240D01*
X2125240D01*
X2025240Y5865240D01*
X2085240Y3679050D02*
Y3774300D01*
X2164620D01*
X2148740Y3726680D02*
X2085240D01*
Y3679050D02*
X2164620D01*
X2212240D02*
Y3774300D01*
X2291620Y3679050D01*
Y3774300D01*
X2339240D02*
X2378930Y3679050D01*
X2418620Y3774300D01*
X2474180Y3686990D02*
X2490050Y3679050D01*
X2505930D01*
X2521800Y3686990D01*
X2529740Y3702870D01*
X2521800Y3718740D01*
X2505930Y3726680D01*
X2490050D01*
X2505930D02*
X2521800Y3734620D01*
X2529740Y3750490D01*
X2521800Y3766370D01*
X2505930Y3774300D01*
X2490050D01*
X2474180Y3766370D01*
X2744050Y3679050D02*
X2775800D01*
X2759930D02*
Y3774300D01*
X2744050D02*
X2775800D01*
X2910740Y3679050D02*
X2847240D01*
X2902800Y3734620D01*
X2910740Y3750490D01*
X2902800Y3766370D01*
X2886930Y3774300D01*
X2863120D01*
X2847240Y3766370D01*
X3053620Y3694930D02*
X3045680Y3686990D01*
X3029800Y3679050D01*
X3005990D01*
X2990120Y3686990D01*
X2982180Y3694930D01*
X2974240Y3710800D01*
Y3742550D01*
X2982180Y3758430D01*
X2990120Y3766370D01*
X3005990Y3774300D01*
X3029800D01*
X3045680Y3766370D01*
X3053620Y3758430D01*
X2140800Y5238740D02*
X2164620D01*
Y5230800D01*
X2156680Y5214930D01*
X2148740Y5206990D01*
X2132870Y5199050D01*
X2116990D01*
X2101120Y5206990D01*
X2093180Y5214930D01*
X2085240Y5230800D01*
Y5262550D01*
X2093180Y5278430D01*
X2101120Y5286370D01*
X2116990Y5294300D01*
X2132870D01*
X2148740Y5286370D01*
X2156680Y5278430D01*
X2164620Y5262550D01*
X2212240Y5199050D02*
Y5294300D01*
X2267800D01*
X2283680Y5286370D01*
X2291620Y5270490D01*
X2283680Y5254620D01*
X2267800Y5246680D01*
X2212240D01*
X2339240Y5222870D02*
X2347180Y5206990D01*
X2363050Y5199050D01*
X2394800D01*
X2410680Y5206990D01*
X2418620Y5222870D01*
X2410680Y5238740D01*
X2394800Y5246680D01*
X2363050D01*
X2347180Y5254620D01*
X2339240Y5270490D01*
X2347180Y5286370D01*
X2363050Y5294300D01*
X2394800D01*
X2410680Y5286370D01*
X2418620Y5270490D01*
X2593240Y5294300D02*
X2632930Y5199050D01*
X2672620Y5294300D01*
X2736120Y5199050D02*
X2767870D01*
X2751990D02*
Y5294300D01*
X2736120Y5278430D01*
X2855180Y5199050D02*
X2863120Y5206990D01*
X2855180Y5214930D01*
X2847240Y5206990D01*
X2855180Y5199050D01*
X2990120D02*
X3021870D01*
X3005990D02*
Y5294300D01*
X2990120Y5278430D01*
X2145240Y7424050D02*
Y7519300D01*
X2200800D01*
X2216680Y7511370D01*
X2224620Y7495490D01*
X2216680Y7479620D01*
X2200800Y7471680D01*
X2145240D01*
X2200800D02*
X2224620Y7424050D01*
X2335740D02*
X2272240D01*
X2327800Y7479620D01*
X2335740Y7495490D01*
X2327800Y7511370D01*
X2311930Y7519300D01*
X2288120D01*
X2272240Y7511370D01*
X2255240Y539050D02*
Y634300D01*
X2294930Y586680D01*
X2334620Y634300D01*
Y539050D01*
X2382240Y546990D02*
X2398120Y539050D01*
X2421930D01*
X2437800Y546990D01*
X2445740Y562870D01*
Y570800D01*
X2437800Y586680D01*
X2421930Y594620D01*
X2382240D01*
Y634300D01*
X2445740D01*
X2636240Y562870D02*
X2644180Y546990D01*
X2660050Y539050D01*
X2691800D01*
X2707680Y546990D01*
X2715620Y562870D01*
X2707680Y578740D01*
X2691800Y586680D01*
X2660050D01*
X2644180Y594620D01*
X2636240Y610490D01*
X2644180Y626370D01*
X2660050Y634300D01*
X2691800D01*
X2707680Y626370D01*
X2715620Y610490D01*
X2776470Y602550D02*
X2813510D01*
X2794990Y618430D02*
Y546990D01*
X2802930Y539050D01*
X2810870D01*
X2818800Y546990D01*
X2890240Y594620D02*
X2906120Y602550D01*
X2929930D01*
X2945800Y594620D01*
X2953740Y578740D01*
Y554930D01*
X2945800Y546990D01*
X2929930Y539050D01*
X2914050D01*
X2898180Y546990D01*
X2890240Y554930D01*
Y562870D01*
X2898180Y570800D01*
X2914050Y578740D01*
X2929930D01*
X2945800Y570800D01*
X2953740Y562870D01*
Y554930D02*
Y539050D01*
X3017240D02*
Y602550D01*
Y594620D02*
X3025180Y602550D01*
X3041050D01*
X3048990Y594620D01*
Y570800D01*
Y594620D02*
X3056930Y602550D01*
X3072800D01*
X3080740Y594620D01*
Y539050D01*
X3144240Y602550D02*
Y515240D01*
Y562870D02*
X3152180Y546990D01*
X3168050Y539050D01*
X3183930D01*
X3199800Y546990D01*
X3207740Y562870D01*
Y578740D01*
X3199800Y594620D01*
X3183930Y602550D01*
X3168050D01*
X3152180Y594620D01*
X3144240Y578740D01*
Y562870D01*
X3398240D02*
X3406180Y546990D01*
X3422050Y539050D01*
X3453800D01*
X3469680Y546990D01*
X3477620Y562870D01*
X3469680Y578740D01*
X3453800Y586680D01*
X3422050D01*
X3406180Y594620D01*
X3398240Y610490D01*
X3406180Y626370D01*
X3422050Y634300D01*
X3453800D01*
X3469680Y626370D01*
X3477620Y610490D01*
X3533180Y546990D02*
X3549050Y539050D01*
X3564930D01*
X3580800Y546990D01*
X3588740Y562870D01*
X3580800Y578740D01*
X3564930Y586680D01*
X3549050D01*
X3564930D02*
X3580800Y594620D01*
X3588740Y610490D01*
X3580800Y626370D01*
X3564930Y634300D01*
X3549050D01*
X3533180Y626370D01*
X2260240Y7009050D02*
Y7104300D01*
X2315800D01*
X2331680Y7096370D01*
X2339620Y7080490D01*
X2331680Y7064620D01*
X2315800Y7056680D01*
X2260240D01*
X2315800D02*
X2339620Y7009050D01*
X2403120D02*
X2434870D01*
X2418990D02*
Y7104300D01*
X2403120Y7088430D01*
X2270240Y4534300D02*
Y4439050D01*
X2349620D01*
X2421050D02*
X2452800D01*
X2436930D02*
Y4534300D01*
X2421050D02*
X2452800D01*
X2579800Y4478740D02*
X2603620D01*
Y4470800D01*
X2595680Y4454930D01*
X2587740Y4446990D01*
X2571870Y4439050D01*
X2555990D01*
X2540120Y4446990D01*
X2532180Y4454930D01*
X2524240Y4470800D01*
Y4502550D01*
X2532180Y4518430D01*
X2540120Y4526370D01*
X2555990Y4534300D01*
X2571870D01*
X2587740Y4526370D01*
X2595680Y4518430D01*
X2603620Y4502550D01*
X2651240Y4439050D02*
Y4534300D01*
Y4486680D02*
X2730620D01*
Y4439050D02*
Y4534300D01*
X2817930Y4439050D02*
Y4534300D01*
X2778240D02*
X2857620D01*
X2275240Y6909300D02*
Y6837870D01*
X2283180Y6821990D01*
X2299050Y6814050D01*
X2330800D01*
X2346680Y6821990D01*
X2354620Y6837870D01*
Y6909300D01*
X2402240Y6814050D02*
Y6877550D01*
Y6853740D02*
X2410180Y6869620D01*
X2426050Y6877550D01*
X2441930D01*
X2457800Y6869620D01*
X2465740Y6853740D01*
Y6814050D01*
X2560990D02*
Y6877550D01*
Y6901370D02*
X2669470Y6877550D02*
X2706510D01*
X2687990Y6893430D02*
Y6821990D01*
X2695930Y6814050D01*
X2703870D01*
X2711800Y6821990D01*
X2862620Y6829930D02*
X2854680Y6821990D01*
X2838800Y6814050D01*
X2814990D01*
X2799120Y6821990D01*
X2791180Y6829930D01*
X2783240Y6845800D01*
Y6877550D01*
X2791180Y6893430D01*
X2799120Y6901370D01*
X2814990Y6909300D01*
X2838800D01*
X2854680Y6901370D01*
X2862620Y6893430D01*
X2910240Y6814050D02*
X2949930Y6909300D01*
X2989620Y6814050D01*
X2926120Y6853740D02*
X2973740D01*
X3037240Y6814050D02*
Y6909300D01*
X3076930Y6861680D01*
X3116620Y6909300D01*
Y6814050D01*
X3164240Y6837870D02*
X3172180Y6821990D01*
X3188050Y6814050D01*
X3219800D01*
X3235680Y6821990D01*
X3243620Y6837870D01*
X3235680Y6853740D01*
X3219800Y6861680D01*
X3188050D01*
X3172180Y6869620D01*
X3164240Y6885490D01*
X3172180Y6901370D01*
X3188050Y6909300D01*
X3219800D01*
X3235680Y6901370D01*
X3243620Y6885490D01*
X3299180Y6821990D02*
X3315050Y6814050D01*
X3330930D01*
X3346800Y6821990D01*
X3354740Y6837870D01*
X3346800Y6853740D01*
X3330930Y6861680D01*
X3315050D01*
X3330930D02*
X3346800Y6869620D01*
X3354740Y6885490D01*
X3346800Y6901370D01*
X3330930Y6909300D01*
X3315050D01*
X3299180Y6901370D01*
X2371040Y7221040D02*
X2104340D01*
Y7119440D01*
X2371040D01*
Y7221040D01*
Y7386040D02*
X2104340D01*
Y7284440D01*
X2371040D01*
Y7386040D01*
X2390240Y2800300D02*
Y2728870D01*
X2398180Y2712990D01*
X2414050Y2705050D01*
X2445800D01*
X2461680Y2712990D01*
X2469620Y2728870D01*
Y2800300D01*
X2533120Y2705050D02*
X2564870D01*
X2548990D02*
Y2800300D01*
X2533120Y2784430D01*
X2695240Y7570240D02*
X2540240Y7415240D01*
Y7115240D01*
X2695240Y6960240D01*
X2995240D01*
X3150240Y7115240D01*
Y7415240D01*
X2995240Y7570240D01*
X2695240D01*
X3426240Y1523240D02*
G75*
G03*
Y1363240I0J-80000D01*
G01*
G75*
G03*
Y1523240I0J80000D01*
G01*
X3565240Y6337610D02*
X3557300Y6353490D01*
X3541430Y6361430D01*
X3509680D01*
X3493800Y6353490D01*
X3485860Y6337610D01*
X3493800Y6321740D01*
X3509680Y6313800D01*
X3541430D01*
X3557300Y6305860D01*
X3565240Y6289990D01*
X3557300Y6274110D01*
X3541430Y6266180D01*
X3509680D01*
X3493800Y6274110D01*
X3485860Y6289990D01*
X3438240Y6297930D02*
Y6337610D01*
X3430300Y6353490D01*
X3414430Y6361430D01*
X3398550D01*
X3382680Y6353490D01*
X3374740Y6337610D01*
Y6297930D02*
Y6361430D01*
X3311240Y6337610D02*
X3303300Y6353490D01*
X3287430Y6361430D01*
X3271550D01*
X3255680Y6353490D01*
X3247740Y6337610D01*
Y6321740D01*
X3255680Y6305860D01*
X3271550Y6297930D01*
X3287430D01*
X3303300Y6305860D01*
X3311240Y6321740D01*
Y6361430D02*
Y6266180D01*
X3545550Y4229620D02*
X3553490Y4221680D01*
X3561430Y4205800D01*
Y4181990D01*
X3553490Y4166120D01*
X3545550Y4158180D01*
X3529680Y4150240D01*
X3497930D01*
X3482050Y4158180D01*
X3474110Y4166120D01*
X3466180Y4181990D01*
Y4205800D01*
X3474110Y4221680D01*
X3482050Y4229620D01*
X3505860Y4277240D02*
X3497930Y4293120D01*
Y4316930D01*
X3505860Y4332800D01*
X3521740Y4340740D01*
X3545550D01*
X3553490Y4332800D01*
X3561430Y4316930D01*
Y4301050D01*
X3553490Y4285180D01*
X3545550Y4277240D01*
X3537610D01*
X3529680Y4285180D01*
X3521740Y4301050D01*
Y4316930D01*
X3529680Y4332800D01*
X3537610Y4340740D01*
X3545550D02*
X3561430D01*
Y4404240D02*
X3497930D01*
X3521740D02*
X3505860Y4412180D01*
X3497930Y4428050D01*
Y4443930D01*
X3505860Y4459800D01*
X3521740Y4467740D01*
X3561430D01*
X3537610Y4531240D02*
X3553490Y4539180D01*
X3561430Y4555050D01*
Y4586800D01*
X3553490Y4602680D01*
X3537610Y4610620D01*
X3521740Y4602680D01*
X3513800Y4586800D01*
Y4555050D01*
X3505860Y4539180D01*
X3489990Y4531240D01*
X3474110Y4539180D01*
X3466180Y4555050D01*
Y4586800D01*
X3474110Y4602680D01*
X3489990Y4610620D01*
X3505860Y4658240D02*
X3497930Y4674120D01*
Y4697930D01*
X3505860Y4713800D01*
X3521740Y4721740D01*
X3545550D01*
X3553490Y4713800D01*
X3561430Y4697930D01*
Y4682050D01*
X3553490Y4666180D01*
X3545550Y4658240D01*
X3537610D01*
X3529680Y4666180D01*
X3521740Y4682050D01*
Y4697930D01*
X3529680Y4713800D01*
X3537610Y4721740D01*
X3545550D02*
X3561430D01*
X3497930Y4798470D02*
Y4835510D01*
X3482050Y4816990D02*
X3553490D01*
X3561430Y4824930D01*
Y4832870D01*
X3553490Y4840800D01*
X3561430Y5102740D02*
Y5039240D01*
X3505860Y5094800D01*
X3489990Y5102740D01*
X3474110Y5094800D01*
X3466180Y5078930D01*
Y5055120D01*
X3474110Y5039240D01*
X3553490Y5174180D02*
X3561430Y5190050D01*
Y5205930D01*
X3553490Y5221800D01*
X3537610Y5229740D01*
X3489990D01*
X3474110Y5221800D01*
X3466180Y5205930D01*
Y5190050D01*
X3474110Y5174180D01*
X3489990Y5166240D01*
X3537610D01*
X3553490Y5174180D01*
X3474110Y5221800D01*
X3561430Y5356740D02*
Y5293240D01*
X3505860Y5348800D01*
X3489990Y5356740D01*
X3474110Y5348800D01*
X3466180Y5332930D01*
Y5309120D01*
X3474110Y5293240D01*
X3537610Y5420240D02*
X3521740Y5428180D01*
X3513800Y5444050D01*
Y5459930D01*
X3521740Y5475800D01*
X3537610Y5483740D01*
X3553490Y5475800D01*
X3561430Y5459930D01*
Y5444050D01*
X3553490Y5428180D01*
X3537610Y5420240D01*
X3513800D01*
X3489990Y5428180D01*
X3474110Y5444050D01*
X3466180Y5459930D01*
X3585240Y5684930D02*
X3593180Y5676990D01*
X3609050Y5669050D01*
X3624930Y5676990D01*
X3632870Y5684930D01*
Y5764300D01*
X3648740D01*
X3632870D02*
X3601120D01*
X3751930Y5669050D02*
Y5764300D01*
X3712240Y5700800D01*
X3775740D01*
X3601990Y6403240D02*
X3220990D01*
Y6657240D01*
X3665490D01*
Y6466740D01*
X3601990Y6403240D01*
X3640240Y3980240D02*
X3485240Y3825240D01*
Y3525240D01*
X3640240Y3370240D01*
X3940240D01*
X4095240Y3525240D01*
Y3825240D01*
X3940240Y3980240D01*
X3640240D01*
X3650240Y2831240D02*
Y2281240D01*
X2350240D01*
Y2831240D01*
X3650240D01*
X3730240Y7384680D02*
X3666740D01*
X3698490Y7416430D02*
Y7352930D01*
X3603240Y7408490D02*
X3587360Y7416430D01*
X3563550D01*
X3547680Y7408490D01*
X3539740Y7392610D01*
Y7384680D01*
X3547680Y7368800D01*
X3563550Y7360860D01*
X3603240D01*
Y7321180D01*
X3539740D01*
X3476240D02*
X3436550Y7416430D01*
X3396860Y7321180D01*
X3790800Y2528740D02*
X3814620D01*
Y2520800D01*
X3806680Y2504930D01*
X3798740Y2496990D01*
X3782870Y2489050D01*
X3766990D01*
X3751120Y2496990D01*
X3743180Y2504930D01*
X3735240Y2520800D01*
Y2552550D01*
X3743180Y2568430D01*
X3751120Y2576370D01*
X3766990Y2584300D01*
X3782870D01*
X3798740Y2576370D01*
X3806680Y2568430D01*
X3814620Y2552550D01*
X3901930Y2489050D02*
Y2584300D01*
X3862240Y2520800D01*
X3925740D01*
X3989240Y2512870D02*
X3997180Y2528740D01*
X4013050Y2536680D01*
X4028930D01*
X4044800Y2528740D01*
X4052740Y2512870D01*
X4044800Y2496990D01*
X4028930Y2489050D01*
X4013050D01*
X3997180Y2496990D01*
X3989240Y2512870D01*
Y2536680D01*
X3997180Y2560490D01*
X4013050Y2576370D01*
X4028930Y2584300D01*
X3795800Y1498740D02*
X3819620D01*
Y1490800D01*
X3811680Y1474930D01*
X3803740Y1466990D01*
X3787870Y1459050D01*
X3771990D01*
X3756120Y1466990D01*
X3748180Y1474930D01*
X3740240Y1490800D01*
Y1522550D01*
X3748180Y1538430D01*
X3756120Y1546370D01*
X3771990Y1554300D01*
X3787870D01*
X3803740Y1546370D01*
X3811680Y1538430D01*
X3819620Y1522550D01*
X3875180Y1466990D02*
X3891050Y1459050D01*
X3906930D01*
X3922800Y1466990D01*
X3930740Y1482870D01*
X3922800Y1498740D01*
X3906930Y1506680D01*
X3891050D01*
X3906930D02*
X3922800Y1514620D01*
X3930740Y1530490D01*
X3922800Y1546370D01*
X3906930Y1554300D01*
X3891050D01*
X3875180Y1546370D01*
X4018050Y1459050D02*
X4033930Y1466990D01*
X4049800Y1482870D01*
X4057740Y1506680D01*
Y1530490D01*
X4049800Y1546370D01*
X4033930Y1554300D01*
X4018050D01*
X4002180Y1546370D01*
X3994240Y1530490D01*
X4002180Y1514620D01*
X4018050Y1506680D01*
X4033930D01*
X4049800Y1514620D01*
X4057740Y1530490D01*
X3795800Y1758740D02*
X3819620D01*
Y1750800D01*
X3811680Y1734930D01*
X3803740Y1726990D01*
X3787870Y1719050D01*
X3771990D01*
X3756120Y1726990D01*
X3748180Y1734930D01*
X3740240Y1750800D01*
Y1782550D01*
X3748180Y1798430D01*
X3756120Y1806370D01*
X3771990Y1814300D01*
X3787870D01*
X3803740Y1806370D01*
X3811680Y1798430D01*
X3819620Y1782550D01*
X3906930Y1719050D02*
Y1814300D01*
X3867240Y1750800D01*
X3930740D01*
X4002180Y1726990D02*
X4018050Y1719050D01*
X4033930D01*
X4049800Y1726990D01*
X4057740Y1742870D01*
Y1790490D01*
X4049800Y1806370D01*
X4033930Y1814300D01*
X4018050D01*
X4002180Y1806370D01*
X3994240Y1790490D01*
Y1742870D01*
X4002180Y1726990D01*
X4049800Y1806370D01*
X3800800Y2278740D02*
X3824620D01*
Y2270800D01*
X3816680Y2254930D01*
X3808740Y2246990D01*
X3792870Y2239050D01*
X3776990D01*
X3761120Y2246990D01*
X3753180Y2254930D01*
X3745240Y2270800D01*
Y2302550D01*
X3753180Y2318430D01*
X3761120Y2326370D01*
X3776990Y2334300D01*
X3792870D01*
X3808740Y2326370D01*
X3816680Y2318430D01*
X3824620Y2302550D01*
X3911930Y2239050D02*
Y2334300D01*
X3872240Y2270800D01*
X3935740D01*
X4062740Y2239050D02*
X3999240D01*
X4054800Y2294620D01*
X4062740Y2310490D01*
X4054800Y2326370D01*
X4038930Y2334300D01*
X4015120D01*
X3999240Y2326370D01*
X3805800Y998740D02*
X3829620D01*
Y990800D01*
X3821680Y974930D01*
X3813740Y966990D01*
X3797870Y959050D01*
X3781990D01*
X3766120Y966990D01*
X3758180Y974930D01*
X3750240Y990800D01*
Y1022550D01*
X3758180Y1038430D01*
X3766120Y1046370D01*
X3781990Y1054300D01*
X3797870D01*
X3813740Y1046370D01*
X3821680Y1038430D01*
X3829620Y1022550D01*
X3893120Y959050D02*
X3924870D01*
X3908990D02*
Y1054300D01*
X3893120Y1038430D01*
X4067740Y959050D02*
X4004240D01*
X4059800Y1014620D01*
X4067740Y1030490D01*
X4059800Y1046370D01*
X4043930Y1054300D01*
X4020120D01*
X4004240Y1046370D01*
X3805800Y1253740D02*
X3829620D01*
Y1245800D01*
X3821680Y1229930D01*
X3813740Y1221990D01*
X3797870Y1214050D01*
X3781990D01*
X3766120Y1221990D01*
X3758180Y1229930D01*
X3750240Y1245800D01*
Y1277550D01*
X3758180Y1293430D01*
X3766120Y1301370D01*
X3781990Y1309300D01*
X3797870D01*
X3813740Y1301370D01*
X3821680Y1293430D01*
X3829620Y1277550D01*
X3893120Y1214050D02*
X3924870D01*
X3908990D02*
Y1309300D01*
X3893120Y1293430D01*
X4020120Y1214050D02*
X4051870D01*
X4035990D02*
Y1309300D01*
X4020120Y1293430D01*
X3810800Y748740D02*
X3834620D01*
Y740800D01*
X3826680Y724930D01*
X3818740Y716990D01*
X3802870Y709050D01*
X3786990D01*
X3771120Y716990D01*
X3763180Y724930D01*
X3755240Y740800D01*
Y772550D01*
X3763180Y788430D01*
X3771120Y796370D01*
X3786990Y804300D01*
X3802870D01*
X3818740Y796370D01*
X3826680Y788430D01*
X3834620Y772550D01*
X3898120Y709050D02*
X3929870D01*
X3913990D02*
Y804300D01*
X3898120Y788430D01*
X4048930Y709050D02*
Y804300D01*
X4009240Y740800D01*
X4072740D01*
X3810800Y2018740D02*
X3834620D01*
Y2010800D01*
X3826680Y1994930D01*
X3818740Y1986990D01*
X3802870Y1979050D01*
X3786990D01*
X3771120Y1986990D01*
X3763180Y1994930D01*
X3755240Y2010800D01*
Y2042550D01*
X3763180Y2058430D01*
X3771120Y2066370D01*
X3786990Y2074300D01*
X3802870D01*
X3818740Y2066370D01*
X3826680Y2058430D01*
X3834620Y2042550D01*
X3921930Y1979050D02*
Y2074300D01*
X3882240Y2010800D01*
X3945740D01*
X4025120Y1979050D02*
X4056870D01*
X4040990D02*
Y2074300D01*
X4025120Y2058430D01*
X3765660Y5945280D02*
X3600660D01*
Y5825280D01*
X3765660D01*
Y5945280D01*
X3746430Y4194930D02*
X3651180D01*
Y4155240D02*
Y4234620D01*
X3746430Y4282240D02*
X3651180D01*
Y4361620D01*
X3698800Y4345740D02*
Y4282240D01*
X3746430D02*
Y4361620D01*
X3722610Y4409240D02*
X3738490Y4417180D01*
X3746430Y4433050D01*
Y4464800D01*
X3738490Y4480680D01*
X3722610Y4488620D01*
X3706740Y4480680D01*
X3698800Y4464800D01*
Y4433050D01*
X3690860Y4417180D01*
X3674990Y4409240D01*
X3659110Y4417180D01*
X3651180Y4433050D01*
Y4464800D01*
X3659110Y4480680D01*
X3674990Y4488620D01*
X3746430Y4575930D02*
X3651180D01*
Y4536240D02*
Y4615620D01*
X3698800Y4845800D02*
X3706740Y4861680D01*
X3722610Y4869620D01*
X3738490Y4861680D01*
X3746430Y4845800D01*
Y4790240D01*
X3651180D01*
Y4845800D01*
X3659110Y4861680D01*
X3674990Y4869620D01*
X3690860Y4861680D01*
X3698800Y4845800D01*
Y4790240D01*
X3722610Y4917240D02*
X3738490Y4925180D01*
X3746430Y4941050D01*
Y4956930D01*
X3738490Y4972800D01*
X3722610Y4980740D01*
X3706740D01*
X3690860Y4972800D01*
X3682930Y4956930D01*
Y4941050D01*
X3690860Y4925180D01*
X3706740Y4917240D01*
X3722610D01*
X3690860Y5044240D02*
X3682930Y5060120D01*
Y5083930D01*
X3690860Y5099800D01*
X3706740Y5107740D01*
X3730550D01*
X3738490Y5099800D01*
X3746430Y5083930D01*
Y5068050D01*
X3738490Y5052180D01*
X3730550Y5044240D01*
X3722610D01*
X3714680Y5052180D01*
X3706740Y5068050D01*
Y5083930D01*
X3714680Y5099800D01*
X3722610Y5107740D01*
X3730550D02*
X3746430D01*
Y5171240D02*
X3682930D01*
X3706740D02*
X3690860Y5179180D01*
X3682930Y5195050D01*
Y5210930D01*
X3690860Y5226800D01*
X3706740Y5361740D02*
X3690860Y5353800D01*
X3682930Y5337930D01*
Y5322050D01*
X3690860Y5306180D01*
X3706740Y5298240D01*
X3722610D01*
X3738490Y5306180D01*
X3746430Y5322050D01*
Y5337930D01*
X3738490Y5353800D01*
X3722610Y5361740D01*
X3746430D02*
X3651180D01*
X3880740Y2993740D02*
Y517240D01*
X1975740D01*
Y2866740D01*
X2102740Y2993740D01*
X3880740D01*
X3976430Y4293740D02*
Y4230240D01*
X3920860Y4285800D01*
X3904990Y4293740D01*
X3889110Y4285800D01*
X3881180Y4269930D01*
Y4246120D01*
X3889110Y4230240D01*
X3968490Y4365180D02*
X3976430Y4381050D01*
Y4396930D01*
X3968490Y4412800D01*
X3952610Y4420740D01*
X3904990D01*
X3889110Y4412800D01*
X3881180Y4396930D01*
Y4381050D01*
X3889110Y4365180D01*
X3904990Y4357240D01*
X3952610D01*
X3968490Y4365180D01*
X3889110Y4412800D01*
X3976430Y4547740D02*
Y4484240D01*
X3920860Y4539800D01*
X3904990Y4547740D01*
X3889110Y4539800D01*
X3881180Y4523930D01*
Y4500120D01*
X3889110Y4484240D01*
X3952610Y4611240D02*
X3936740Y4619180D01*
X3928800Y4635050D01*
Y4650930D01*
X3936740Y4666800D01*
X3952610Y4674740D01*
X3968490Y4666800D01*
X3976430Y4650930D01*
Y4635050D01*
X3968490Y4619180D01*
X3952610Y4611240D01*
X3928800D01*
X3904990Y4619180D01*
X3889110Y4635050D01*
X3881180Y4650930D01*
X3976430Y4738240D02*
X3881180Y4817620D01*
X3968490Y4873180D02*
X3976430Y4889050D01*
Y4904930D01*
X3968490Y4920800D01*
X3952610Y4928740D01*
X3904990D01*
X3889110Y4920800D01*
X3881180Y4904930D01*
Y4889050D01*
X3889110Y4873180D01*
X3904990Y4865240D01*
X3952610D01*
X3968490Y4873180D01*
X3889110Y4920800D01*
X3968490Y5000180D02*
X3976430Y5016050D01*
Y5031930D01*
X3968490Y5047800D01*
X3952610Y5055740D01*
X3936740Y5047800D01*
X3928800Y5031930D01*
Y5016050D01*
Y5031930D02*
X3920860Y5047800D01*
X3904990Y5055740D01*
X3889110Y5047800D01*
X3881180Y5031930D01*
Y5016050D01*
X3889110Y5000180D01*
X3976430Y5119240D02*
X3881180Y5198620D01*
X3976430Y5309740D02*
Y5246240D01*
X3920860Y5301800D01*
X3904990Y5309740D01*
X3889110Y5301800D01*
X3881180Y5285930D01*
Y5262120D01*
X3889110Y5246240D01*
X3976430Y5397050D02*
X3968490Y5412930D01*
X3952610Y5428800D01*
X3928800Y5436740D01*
X3904990D01*
X3889110Y5428800D01*
X3881180Y5412930D01*
Y5397050D01*
X3889110Y5381180D01*
X3904990Y5373240D01*
X3920860Y5381180D01*
X3928800Y5397050D01*
Y5412930D01*
X3920860Y5428800D01*
X3904990Y5436740D01*
X4003490Y2858180D02*
X4011430Y2874050D01*
Y2889930D01*
X4003490Y2905800D01*
X3987610Y2913740D01*
X3971740Y2905800D01*
X3963800Y2889930D01*
Y2874050D01*
Y2889930D02*
X3955860Y2905800D01*
X3939990Y2913740D01*
X3924110Y2905800D01*
X3916180Y2889930D01*
Y2874050D01*
X3924110Y2858180D01*
X3916180Y2977240D02*
X4011430Y3016930D01*
X3916180Y3056620D01*
X4003490Y3112180D02*
X4011430Y3128050D01*
Y3143930D01*
X4003490Y3159800D01*
X3987610Y3167740D01*
X3971740Y3159800D01*
X3963800Y3143930D01*
Y3128050D01*
Y3143930D02*
X3955860Y3159800D01*
X3939990Y3167740D01*
X3924110Y3159800D01*
X3916180Y3143930D01*
Y3128050D01*
X3924110Y3112180D01*
X4101990Y6403240D02*
X3720990D01*
Y6657240D01*
X4165490D01*
Y6466740D01*
X4101990Y6403240D01*
X4150240Y6346430D02*
Y6251180D01*
X4110550Y6298800D01*
X4070860Y6251180D01*
Y6346430D01*
X4023240Y6290860D02*
X4007360Y6282930D01*
X3983550D01*
X3967680Y6290860D01*
X3959740Y6306740D01*
Y6330550D01*
X3967680Y6338490D01*
X3983550Y6346430D01*
X3999430D01*
X4015300Y6338490D01*
X4023240Y6330550D01*
Y6322610D01*
X4015300Y6314680D01*
X3999430Y6306740D01*
X3983550D01*
X3967680Y6314680D01*
X3959740Y6322610D01*
Y6330550D02*
Y6346430D01*
X3864490D02*
Y6282930D01*
Y6259110D02*
X3769240Y6346430D02*
Y6282930D01*
Y6306740D02*
X3761300Y6290860D01*
X3745430Y6282930D01*
X3729550D01*
X3713680Y6290860D01*
X3705740Y6306740D01*
Y6346430D01*
X4220240Y7394680D02*
X4156740D01*
X4188490Y7426430D02*
Y7362930D01*
X4093240Y7418490D02*
X4077360Y7426430D01*
X4053550D01*
X4037680Y7418490D01*
X4029740Y7402610D01*
Y7394680D01*
X4037680Y7378800D01*
X4053550Y7370860D01*
X4093240D01*
Y7331180D01*
X4029740D01*
X3966240D02*
X3926550Y7426430D01*
X3886860Y7331180D01*
X4261840Y2595740D02*
Y639940D01*
X4058640D01*
Y2659240D01*
X4198340D01*
X4261840Y2595740D01*
X4287240Y3325990D02*
Y2944990D01*
X4033240D01*
Y3389490D01*
X4223740D01*
X4287240Y3325990D01*
X0Y0D02*
M02*
