G04 DesignSpark PCB Gerber Version 13.0 Build *
%FSLAX35Y35*%
%MOMM*%
%ADD21O,1.60000X2.00000*%
%ADD18R,1.40000X1.42000*%
%ADD12C,0.25400*%
%ADD11C,0.30480*%
%ADD14C,0.80000*%
%ADD25C,0.90000*%
%ADD17C,1.01600*%
%ADD19C,1.40000*%
%ADD70C,1.52400*%
%ADD20C,1.80000*%
%ADD15C,2.20000*%
%ADD93R,1.27000X0.90000*%
%ADD71R,1.42000X1.40000*%
%ADD73C,5.25000*%
X0Y0D02*
D02*
D11*
X386120Y7579360D02*
Y391120D01*
X1788920D01*
X1632520Y547520D01*
G75*
G02*
X1616900Y585240I37720J37720D01*
G01*
G75*
G02*
X1616940Y587410I53350J100D01*
G01*
Y610530D01*
G75*
G02*
X1376640Y625240I-119700J14710D01*
G01*
Y665240D01*
G75*
G02*
X1616940Y679950I120600J0D01*
G01*
Y1373100D01*
X1598100Y1391940D01*
X1132410D01*
G75*
G02*
X1112440Y1394950I-2180J53300D01*
G01*
G75*
G02*
X1113950Y1300080I-142220J-49710D01*
G01*
G75*
G02*
X1127730Y1300840I11320J-79860D01*
G01*
X1317980D01*
G75*
G02*
X1595880Y1220240I127260J-80600D01*
G01*
G75*
G02*
X1349540Y1103900I-150640J0D01*
G01*
G75*
G02*
X1375880Y1025240I-104300J-78670D01*
G01*
G75*
G02*
X1114600I-130640J0D01*
G01*
G75*
G02*
X1182160Y1139640I130640J0D01*
G01*
X1158680D01*
X1011770Y992730D01*
G75*
G02*
X754600Y1025240I-126530J32510D01*
G01*
G75*
G02*
X936400Y1145440I130640J0D01*
G01*
X986430Y1195470D01*
G75*
G02*
X819600Y1345240I-16190J149770D01*
G01*
G75*
G02*
X1009320Y1490720I150640J0D01*
G01*
X977520Y1522520D01*
G75*
G02*
X961900Y1560240I37720J37720D01*
G01*
G75*
G02*
X961940Y1562410I53350J100D01*
G01*
Y1887100D01*
X878100Y1970940D01*
X804210D01*
G75*
G02*
X583400Y2024240I-103970J53300D01*
G01*
G75*
G02*
X804210Y2077540I116840J0D01*
G01*
X898070D01*
G75*
G02*
X937960Y2061960I2170J-53300D01*
G01*
X1052960Y1946960D01*
G75*
G02*
X1068580Y1909240I-37720J-37720D01*
G01*
G75*
G02*
X1068540Y1907070I-53370J-100D01*
G01*
Y1582380D01*
X1152380Y1498540D01*
X1618070D01*
G75*
G02*
X1657960Y1482960I2170J-53300D01*
G01*
X1686940Y1453980D01*
Y1493100D01*
X1613100Y1566940D01*
X1357200D01*
G75*
G02*
X1149600Y1620240I-96960J53300D01*
G01*
G75*
G02*
X1212900Y1720240I110640J0D01*
G01*
G75*
G02*
Y1920240I47340J100000D01*
G01*
G75*
G02*
X1195060Y2109640I47340J100000D01*
G01*
X1148640D01*
Y2281940D01*
X1039540D01*
G75*
G02*
X873800Y2335240I-74300J53300D01*
G01*
G75*
G02*
X1004270Y2417930I91440J0D01*
G01*
G75*
G02*
X970130Y2474690I55980J72320D01*
G01*
X810970Y2315530D01*
G75*
G02*
X817080Y2278240I-110730J-37290D01*
G01*
G75*
G02*
X583400I-116840J0D01*
G01*
G75*
G02*
X734500Y2389940I116840J0D01*
G01*
X826500Y2481940D01*
X805700D01*
G75*
G02*
X583400Y2532240I-105460J50300D01*
G01*
G75*
G02*
X802620Y2588540I116840J0D01*
G01*
X823100D01*
X967520Y2732960D01*
G75*
G02*
X1007410Y2748540I37720J-37720D01*
G01*
X1428100D01*
X1480000Y2800440D01*
G75*
G02*
X1478800Y2815240I90260J14770D01*
G01*
G75*
G02*
X1479910Y2829470I91410J30D01*
G01*
X1477960Y2827520D01*
G75*
G02*
X1438070Y2811940I-37720J37720D01*
G01*
X1369540D01*
G75*
G02*
X1216250Y2819190I-74300J53300D01*
G01*
G75*
G02*
X1038800Y2850240I-86010J31050D01*
G01*
G75*
G02*
X1040000Y2865040I91460J30D01*
G01*
X1038100Y2866940D01*
X909540D01*
G75*
G02*
X807230Y2833200I-74300J53300D01*
G01*
G75*
G02*
X596250Y2732980I-106990J-46960D01*
G01*
G75*
G02*
X561520Y2748520I2990J53270D01*
G01*
X527520Y2782520D01*
G75*
G02*
X511900Y2820240I37720J37720D01*
G01*
G75*
G02*
X511940Y2822410I53350J100D01*
G01*
Y3863070D01*
G75*
G02*
X511900Y3865240I53310J2070D01*
G01*
G75*
G02*
X527520Y3902960I53340J0D01*
G01*
X592520Y3967960D01*
G75*
G02*
X611530Y3980200I37730J-37710D01*
G01*
G75*
G02*
X784830Y4136840I88710J76040D01*
G01*
X886800D01*
X910350Y4160390D01*
G75*
G02*
X923250Y4177230I69900J-40180D01*
G01*
G75*
G02*
X980240Y4200840I56990J-56990D01*
G01*
X1396750D01*
G75*
G02*
X1456260Y4177260I2490J-80600D01*
G01*
X1647680Y3985840D01*
X2261800D01*
X2294600Y4018640D01*
X2139640D01*
Y4221940D01*
X1747410D01*
G75*
G02*
X1707520Y4237520I-2170J53300D01*
G01*
X1533100Y4411940D01*
X1082410D01*
G75*
G02*
X1042520Y4427520I-2170J53300D01*
G01*
X877520Y4592520D01*
G75*
G02*
X861900Y4630240I37720J37720D01*
G01*
G75*
G02*
X861940Y4632410I53350J100D01*
G01*
Y4716100D01*
X813100Y4764940D01*
X804210D01*
G75*
G02*
X583400Y4818240I-103970J53300D01*
G01*
G75*
G02*
X804210Y4871540I116840J0D01*
G01*
X833070D01*
G75*
G02*
X872960Y4855960I2170J-53300D01*
G01*
X952960Y4775960D01*
G75*
G02*
X968580Y4738240I-37720J-37720D01*
G01*
G75*
G02*
X968540Y4736070I-53370J-100D01*
G01*
Y4652380D01*
X976940Y4643980D01*
Y4860100D01*
X818100Y5018940D01*
X804210D01*
G75*
G02*
X583400Y5072240I-103970J53300D01*
G01*
G75*
G02*
X804210Y5125540I116840J0D01*
G01*
X838070D01*
G75*
G02*
X877960Y5109960I2170J-53300D01*
G01*
X1067960Y4919960D01*
G75*
G02*
X1083580Y4882240I-37720J-37720D01*
G01*
G75*
G02*
X1083540Y4880070I-53370J-100D01*
G01*
Y4652380D01*
X1137380Y4598540D01*
X1546500D01*
X1473100Y4671940D01*
X1384540D01*
G75*
G02*
X1218800Y4725240I-74300J53300D01*
G01*
G75*
G02*
X1384540Y4778540I91440J0D01*
G01*
X1493070D01*
G75*
G02*
X1532960Y4762960I2170J-53300D01*
G01*
X1677380Y4618540D01*
X2573100D01*
X2596940Y4642380D01*
Y4713070D01*
G75*
G02*
X2596900Y4715240I53310J2070D01*
G01*
G75*
G02*
X2596940Y4717410I53350J100D01*
G01*
Y4798280D01*
G75*
G02*
X2550240Y4847900I53310J96960D01*
G01*
G75*
G02*
X2360840Y4830060I-100000J47340D01*
G01*
Y4783640D01*
X2139640D01*
Y5006840D01*
X2360840D01*
Y4960420D01*
G75*
G02*
X2550240Y4942580I89400J-65180D01*
G01*
G75*
G02*
X2750240I100000J-47340D01*
G01*
G75*
G02*
X2960880Y4895240I100000J-47340D01*
G01*
G75*
G02*
X2934500Y4823540I-110640J10D01*
G01*
X2958070D01*
G75*
G02*
X2997960Y4807960I2170J-53300D01*
G01*
X3046910Y4759010D01*
G75*
G02*
X3046900Y4760240I53300J1050D01*
G01*
G75*
G02*
X3046940Y4762410I53350J100D01*
G01*
Y5968100D01*
X2812520Y6202520D01*
G75*
G02*
X2796900Y6240240I37720J37720D01*
G01*
G75*
G02*
X2796940Y6242410I53350J100D01*
G01*
Y6418280D01*
G75*
G02*
X2750240Y6467900I53310J96960D01*
G01*
G75*
G02*
X2703540Y6418280I-100010J47340D01*
G01*
Y6042410D01*
G75*
G02*
X2703580Y6040240I-53330J-2070D01*
G01*
G75*
G02*
X2687960Y6002520I-53340J0D01*
G01*
X2653980Y5968540D01*
X2808070D01*
G75*
G02*
X2847960Y5952960I2170J-53300D01*
G01*
X2892960Y5907960D01*
G75*
G02*
X2908580Y5870240I-37720J-37720D01*
G01*
G75*
G02*
X2908540Y5868070I-53370J-100D01*
G01*
Y5792200D01*
G75*
G02*
X2965880Y5695240I-53310J-96960D01*
G01*
G75*
G02*
X2755240Y5647900I-110640J0D01*
G01*
G75*
G02*
X2555240I-100000J47340D01*
G01*
G75*
G02*
X2365840Y5630060I-100000J47340D01*
G01*
Y5583640D01*
X2144640D01*
Y5781940D01*
X2142380D01*
X2088540Y5728100D01*
Y5147410D01*
G75*
G02*
X2088580Y5145240I-53330J-2070D01*
G01*
G75*
G02*
X2072960Y5107520I-53340J0D01*
G01*
X1970480Y5005040D01*
G75*
G02*
X1971680Y4990240I-90270J-14770D01*
G01*
G75*
G02*
X1788800I-91440J0D01*
G01*
G75*
G02*
X1790000Y5005040I91460J30D01*
G01*
X1753100Y5041940D01*
X1587410D01*
G75*
G02*
X1547520Y5057520I-2170J53300D01*
G01*
X1492520Y5112520D01*
G75*
G02*
X1476960Y5147710I37730J37720D01*
G01*
G75*
G02*
X1463540Y5135940I-66730J62550D01*
G01*
Y5097410D01*
G75*
G02*
X1463580Y5095240I-53330J-2070D01*
G01*
G75*
G02*
X1447960Y5057520I-53340J0D01*
G01*
X1295480Y4905040D01*
G75*
G02*
X1296680Y4890240I-90270J-14770D01*
G01*
G75*
G02*
X1113800I-91440J0D01*
G01*
G75*
G02*
X1220040Y4980480I91440J0D01*
G01*
X1356940Y5117380D01*
Y5135940D01*
G75*
G02*
X1342750Y5271940I53300J74300D01*
G01*
X803700D01*
G75*
G02*
X583400Y5326240I-103460J54300D01*
G01*
G75*
G02*
X804720Y5378540I116840J0D01*
G01*
X997100D01*
G75*
G02*
X972520Y5392520I13140J51700D01*
G01*
X838100Y5526940D01*
X804210D01*
G75*
G02*
X583400Y5580240I-103970J53300D01*
G01*
G75*
G02*
X642720Y5681940I116840J0D01*
G01*
X617380D01*
X533540Y5598100D01*
Y4646380D01*
X562380Y4617540D01*
X596270D01*
G75*
G02*
X817080Y4564240I103970J-53300D01*
G01*
G75*
G02*
X596270Y4510940I-116840J0D01*
G01*
X542410D01*
G75*
G02*
X502520Y4526520I-2170J53300D01*
G01*
X442520Y4586520D01*
G75*
G02*
X426900Y4624240I37720J37720D01*
G01*
G75*
G02*
X426940Y4626410I53350J100D01*
G01*
Y5618070D01*
G75*
G02*
X426900Y5620240I53310J2070D01*
G01*
G75*
G02*
X442520Y5657960I53340J0D01*
G01*
X557520Y5772960D01*
G75*
G02*
X597410Y5788540I37720J-37720D01*
G01*
X1783100D01*
X2007520Y6012960D01*
G75*
G02*
X2047410Y6028540I37720J-37720D01*
G01*
X2563100D01*
X2596940Y6062380D01*
Y6418280D01*
G75*
G02*
X2550240Y6467900I53310J96960D01*
G01*
G75*
G02*
X2360840Y6450060I-100000J47340D01*
G01*
Y6403640D01*
X2139640D01*
Y6584200D01*
X2078540Y6523100D01*
Y6239540D01*
G75*
G02*
X2116680Y6165240I-53300J-74300D01*
G01*
G75*
G02*
X1933800I-91440J0D01*
G01*
G75*
G02*
X1971940Y6239540I91440J0D01*
G01*
Y6527900D01*
X1877260Y6433220D01*
G75*
G02*
X1817750Y6409640I-57020J57020D01*
G01*
X1638680D01*
X1357230Y6128190D01*
G75*
G02*
X1360880Y6095240I-146990J-32960D01*
G01*
G75*
G02*
X1059600I-150640J0D01*
G01*
G75*
G02*
X1243190Y6242230I150640J0D01*
G01*
X1548220Y6547260D01*
G75*
G02*
X1607730Y6570840I57020J-57020D01*
G01*
X1786800D01*
X2051740Y6835780D01*
G75*
G02*
X2004600Y6945240I103500J109450D01*
G01*
G75*
G02*
X2305880I150640J0D01*
G01*
G75*
G02*
X2261490Y6838450I-150640J0D01*
G01*
G75*
G02*
X2267410Y6838540I3770J-53210D01*
G01*
X2278100D01*
X2355360Y6915800D01*
G75*
G02*
X2328800Y6980240I64880J64430D01*
G01*
G75*
G02*
X2511680I91440J0D01*
G01*
G75*
G02*
X2473580Y6905970I-91440J0D01*
G01*
G75*
G02*
Y6905240I-53480J-360D01*
G01*
G75*
G02*
X2457960Y6867520I-53340J0D01*
G01*
X2337960Y6747520D01*
G75*
G02*
X2298070Y6731940I-37720J37720D01*
G01*
X2287380D01*
X2182280Y6626840D01*
X2360840D01*
Y6580420D01*
G75*
G02*
X2550240Y6562580I89400J-65180D01*
G01*
G75*
G02*
X2750240I100000J-47340D01*
G01*
G75*
G02*
X2960880Y6515240I100000J-47340D01*
G01*
G75*
G02*
X2903540Y6418280I-110650J0D01*
G01*
Y6262380D01*
X3137960Y6027960D01*
G75*
G02*
X3153580Y5990240I-37720J-37720D01*
G01*
G75*
G02*
X3153540Y5988070I-53370J-100D01*
G01*
Y4782380D01*
X3397960Y4537960D01*
G75*
G02*
X3413580Y4500240I-37720J-37720D01*
G01*
G75*
G02*
X3413540Y4498070I-53370J-100D01*
G01*
Y3367380D01*
X3512960Y3267960D01*
G75*
G02*
X3528580Y3230240I-37720J-37720D01*
G01*
G75*
G02*
X3528540Y3228070I-53370J-100D01*
G01*
Y2850240D01*
X3690240D01*
Y2128840D01*
X3726840D01*
Y2118640D01*
G75*
G02*
X3743700Y1979740I-40600J-75400D01*
G01*
G75*
G02*
Y1852740I-57460J-63500D01*
G01*
G75*
G02*
Y1725740I-57460J-63500D01*
G01*
G75*
G02*
Y1598740I-57460J-63500D01*
G01*
G75*
G02*
Y1471740I-57460J-63500D01*
G01*
G75*
G02*
Y1344740I-57460J-63500D01*
G01*
G75*
G02*
Y1217740I-57460J-63500D01*
G01*
G75*
G02*
Y1090740I-57460J-63500D01*
G01*
G75*
G02*
Y963740I-57460J-63500D01*
G01*
G75*
G02*
Y836740I-57460J-63500D01*
G01*
G75*
G02*
X3726840Y697840I-57460J-63500D01*
G01*
Y687640D01*
X3690240D01*
Y391120D01*
X4274360D01*
Y729180D01*
G75*
G02*
X4043400Y754240I-114120J25060D01*
G01*
G75*
G02*
X4274360Y779300I116840J0D01*
G01*
Y983180D01*
G75*
G02*
X4043400Y1008240I-114120J25060D01*
G01*
G75*
G02*
X4274360Y1033300I116840J0D01*
G01*
Y1237180D01*
G75*
G02*
X4043400Y1262240I-114120J25060D01*
G01*
G75*
G02*
X4274360Y1287300I116840J0D01*
G01*
Y1491180D01*
G75*
G02*
X4043400Y1516240I-114120J25060D01*
G01*
G75*
G02*
X4274360Y1541300I116840J0D01*
G01*
Y1745180D01*
G75*
G02*
X4043400Y1770240I-114120J25060D01*
G01*
G75*
G02*
X4274360Y1795300I116840J0D01*
G01*
Y1999180D01*
G75*
G02*
X4043400Y2024240I-114120J25060D01*
G01*
G75*
G02*
X4274360Y2049300I116840J0D01*
G01*
Y2253180D01*
G75*
G02*
X4043400Y2278240I-114120J25060D01*
G01*
G75*
G02*
X4274360Y2303300I116840J0D01*
G01*
Y2507180D01*
G75*
G02*
X4043400Y2532240I-114120J25060D01*
G01*
G75*
G02*
X4274360Y2557300I116840J0D01*
G01*
Y3015180D01*
G75*
G02*
X4043400Y3040240I-114120J25060D01*
G01*
G75*
G02*
X4274360Y3065300I116840J0D01*
G01*
Y3269180D01*
G75*
G02*
X4043400Y3294240I-114120J25060D01*
G01*
G75*
G02*
X4274360Y3319300I116840J0D01*
G01*
Y7579360D01*
X386120D01*
X1448800Y6665240D02*
G75*
G02*
X1486940Y6739540I91440J0D01*
G01*
Y6878070D01*
G75*
G02*
X1486900Y6880240I53310J2070D01*
G01*
G75*
G02*
X1502520Y6917960I53340J0D01*
G01*
X1757520Y7172960D01*
G75*
G02*
X1797410Y7188540I37720J-37720D01*
G01*
X1888100D01*
X1926940Y7227380D01*
Y7350940D01*
G75*
G02*
X1888800Y7425240I53300J74300D01*
G01*
G75*
G02*
X2071680I91440J0D01*
G01*
G75*
G02*
X2033540Y7350940I-91440J0D01*
G01*
Y7207410D01*
G75*
G02*
X2033580Y7205240I-53330J-2070D01*
G01*
G75*
G02*
X2017960Y7167520I-53340J0D01*
G01*
X1947960Y7097520D01*
G75*
G02*
X1908070Y7081940I-37720J37720D01*
G01*
X1817380D01*
X1593540Y6858100D01*
Y6739540D01*
G75*
G02*
X1631680Y6665240I-53300J-74300D01*
G01*
G75*
G02*
X1448800I-91440J0D01*
G01*
X2845240Y7568380D02*
G75*
G02*
X3148380Y7265240I0J-303140D01*
G01*
G75*
G02*
X2845240Y6962100I-303140J0D01*
G01*
G75*
G02*
X2542100Y7265240I0J303140D01*
G01*
G75*
G02*
X2845240Y7568380I303140J0D01*
G01*
X3316240Y6647080D02*
G75*
G02*
X3433080Y6530240I0J-116840D01*
G01*
G75*
G02*
X3316240Y6413400I-116840J0D01*
G01*
G75*
G02*
X3199400Y6530240I0J116840D01*
G01*
G75*
G02*
X3316240Y6647080I116840J0D01*
G01*
X3570240D02*
G75*
G02*
X3687080Y6530240I0J-116840D01*
G01*
G75*
G02*
X3570240Y6413400I-116840J0D01*
G01*
G75*
G02*
X3453400Y6530240I0J116840D01*
G01*
G75*
G02*
X3570240Y6647080I116840J0D01*
G01*
X3790240Y3978380D02*
G75*
G02*
X4093380Y3675240I0J-303140D01*
G01*
G75*
G02*
X3790240Y3372100I-303140J0D01*
G01*
G75*
G02*
X3487100Y3675240I0J303140D01*
G01*
G75*
G02*
X3790240Y3978380I303140J0D01*
G01*
X3816240Y6647080D02*
G75*
G02*
X3933080Y6530240I0J-116840D01*
G01*
G75*
G02*
X3816240Y6413400I-116840J0D01*
G01*
G75*
G02*
X3699400Y6530240I0J116840D01*
G01*
G75*
G02*
X3816240Y6647080I116840J0D01*
G01*
X4070240D02*
G75*
G02*
X4187080Y6530240I0J-116840D01*
G01*
G75*
G02*
X4070240Y6413400I-116840J0D01*
G01*
G75*
G02*
X3953400Y6530240I0J116840D01*
G01*
G75*
G02*
X4070240Y6647080I116840J0D01*
G01*
X583400Y1770240D02*
G75*
G02*
X817080I116840J0D01*
G01*
G75*
G02*
X583400I-116840J0D01*
G01*
X512640Y625240D02*
Y665240D01*
G75*
G02*
X753840I120600J0D01*
G01*
Y625240D01*
G75*
G02*
X512640I-120600J0D01*
G01*
X583400Y4310240D02*
G75*
G02*
X817080I116840J0D01*
G01*
G75*
G02*
X583400I-116840J0D01*
G01*
X401360Y645240D02*
G36*
X401360Y645240D02*
Y406360D01*
X1773680D01*
X1632520Y547520D01*
G75*
G02*
X1616900Y585180I37590J37660D01*
G01*
G75*
G02*
Y585240I56360J30D01*
G01*
G75*
G02*
Y585780I29610J270D01*
G01*
G75*
G02*
X1616940Y587410I29600J90D01*
G01*
Y610530D01*
G75*
G02*
X1376640Y625230I-119700J14700D01*
G01*
G75*
G02*
Y625240I286480J10D01*
G01*
Y645240D01*
X753840D01*
Y625240D01*
G75*
G02*
X512640I-120600J0D01*
G01*
Y645240D01*
X401360D01*
G37*
X3690240D02*
G36*
X3690240Y645240D02*
Y406360D01*
X4259120D01*
Y645240D01*
X4202320D01*
G75*
G02*
X4118150I-42080J109000D01*
G01*
X3690240D01*
G37*
X401360Y1770240D02*
G36*
X401360Y1770240D02*
Y645240D01*
X512640D01*
Y665240D01*
G75*
G02*
X753840I120600J0D01*
G01*
Y645240D01*
X1376640D01*
Y665240D01*
G75*
G02*
X1616940Y679950I120600J-10D01*
G01*
Y1373100D01*
X1598100Y1391940D01*
X1132410D01*
G75*
G02*
X1112440Y1394950I-2190J53220D01*
G01*
G75*
G02*
X1120870Y1345240I-142380J-49710D01*
G01*
G75*
G02*
X1113950Y1300080I-150830J0D01*
G01*
G75*
G02*
X1127730Y1300840I11390J-81270D01*
G01*
X1317980D01*
G75*
G02*
X1595880Y1220240I127260J-80610D01*
G01*
G75*
G02*
X1349540Y1103900I-150640J0D01*
G01*
G75*
G02*
X1375880Y1025240I-104500J-78730D01*
G01*
G75*
G02*
X1114600I-130640J0D01*
G01*
G75*
G02*
X1182160Y1139640I130660J-20D01*
G01*
X1158680D01*
X1011770Y992730D01*
G75*
G02*
X754600Y1025240I-126530J32510D01*
G01*
G75*
G02*
Y1025250I286480J10D01*
G01*
G75*
G02*
X936400Y1145440I130630J0D01*
G01*
X986430Y1195470D01*
G75*
G02*
X819600Y1345220I-16200J149750D01*
G01*
G75*
G02*
Y1345240I190990J10D01*
G01*
G75*
G02*
X1009320Y1490720I150650J-10D01*
G01*
X977520Y1522520D01*
G75*
G02*
X961900Y1560180I37590J37660D01*
G01*
G75*
G02*
Y1560240I56360J30D01*
G01*
G75*
G02*
Y1560780I29610J270D01*
G01*
G75*
G02*
X961940Y1562410I29600J90D01*
G01*
Y1770240D01*
X817080D01*
G75*
G02*
X583400I-116840J0D01*
G01*
X401360D01*
G37*
X1068540D02*
G36*
X1068540Y1770240D02*
Y1582380D01*
X1152380Y1498540D01*
X1618070D01*
G75*
G02*
X1657960Y1482960I2120J-53420D01*
G01*
X1686940Y1453980D01*
Y1493100D01*
X1613100Y1566940D01*
X1357200D01*
G75*
G02*
X1149600Y1620230I-96960J53290D01*
G01*
G75*
G02*
Y1620240I190990J10D01*
G01*
G75*
G02*
X1212900Y1720240I110640J0D01*
G01*
G75*
G02*
X1161530Y1770240I47320J100010D01*
G01*
X1068540D01*
G37*
X3690240Y687640D02*
G36*
X3690240Y687640D02*
Y645240D01*
X4118150D01*
G75*
G02*
X4043400Y754240I42090J108990D01*
G01*
G75*
G02*
X4259120Y816480I116840J-10D01*
G01*
Y946000D01*
G75*
G02*
X4043400Y1008240I-98880J62240D01*
G01*
G75*
G02*
X4259120Y1070480I116840J-10D01*
G01*
Y1200000D01*
G75*
G02*
X4043400Y1262240I-98880J62240D01*
G01*
G75*
G02*
X4259120Y1324480I116840J-10D01*
G01*
Y1454000D01*
G75*
G02*
X4043400Y1516240I-98880J62240D01*
G01*
G75*
G02*
X4259120Y1578480I116840J-10D01*
G01*
Y1708000D01*
G75*
G02*
X4043400Y1770240I-98880J62240D01*
G01*
X3769740D01*
G75*
G02*
X3743700Y1725740I-83520J19010D01*
G01*
G75*
G02*
X3771870Y1662240I-57490J-63500D01*
G01*
G75*
G02*
X3743700Y1598740I-85660J0D01*
G01*
G75*
G02*
X3771870Y1535240I-57490J-63500D01*
G01*
G75*
G02*
X3743700Y1471740I-85660J0D01*
G01*
G75*
G02*
X3771870Y1408240I-57490J-63500D01*
G01*
G75*
G02*
X3743700Y1344740I-85660J0D01*
G01*
G75*
G02*
X3771870Y1281240I-57490J-63500D01*
G01*
G75*
G02*
X3743700Y1217740I-85660J0D01*
G01*
G75*
G02*
X3771870Y1154240I-57490J-63500D01*
G01*
G75*
G02*
X3743700Y1090740I-85660J0D01*
G01*
G75*
G02*
X3771870Y1027240I-57490J-63500D01*
G01*
G75*
G02*
X3743700Y963740I-85660J0D01*
G01*
G75*
G02*
X3771870Y900240I-57490J-63500D01*
G01*
G75*
G02*
X3743700Y836740I-85660J0D01*
G01*
G75*
G02*
X3771870Y773240I-57470J-63490D01*
G01*
G75*
G02*
X3726840Y697840I-85640J0D01*
G01*
Y687640D01*
X3690240D01*
G37*
X4202320Y645240D02*
G36*
X4202320Y645240D02*
X4259120D01*
Y692000D01*
G75*
G02*
X4202320Y645240I-98890J62250D01*
G01*
G37*
X401360Y3675240D02*
G36*
X401360Y3675240D02*
Y1770240D01*
X583400D01*
G75*
G02*
X817080I116840J0D01*
G01*
X961940D01*
Y1887100D01*
X878100Y1970940D01*
X804210D01*
G75*
G02*
X583400Y2024230I-103970J53290D01*
G01*
G75*
G02*
Y2024240I286480J10D01*
G01*
G75*
G02*
X804210Y2077540I116840J-10D01*
G01*
X898070D01*
G75*
G02*
X937960Y2061960I2120J-53420D01*
G01*
X1052960Y1946960D01*
G75*
G02*
X1068580Y1909240I-37760J-37730D01*
G01*
G75*
G02*
Y1909230I-63660J0D01*
G01*
G75*
G02*
X1068540Y1907070I-58360J0D01*
G01*
Y1770240D01*
X1161530D01*
G75*
G02*
X1149590Y1820240I98690J49990D01*
G01*
G75*
G02*
X1212900Y1920240I110630J0D01*
G01*
G75*
G02*
X1149590Y2020240I47320J100000D01*
G01*
G75*
G02*
X1195060Y2109640I110630J0D01*
G01*
X1148640D01*
Y2281940D01*
X1039540D01*
G75*
G02*
X873800Y2335240I-74300J53300D01*
G01*
G75*
G02*
X1004270Y2417930I91440J0D01*
G01*
G75*
G02*
X970130Y2474690I55900J72270D01*
G01*
X810970Y2315530D01*
G75*
G02*
X817080Y2278240I-110960J-37330D01*
G01*
G75*
G02*
X583400I-116840J0D01*
G01*
G75*
G02*
X734500Y2389940I116840J0D01*
G01*
X826500Y2481940D01*
X805700D01*
G75*
G02*
X583400Y2532230I-105460J50290D01*
G01*
G75*
G02*
Y2532240I95490J10D01*
G01*
G75*
G02*
X802620Y2588540I116840J-10D01*
G01*
X823100D01*
X967520Y2732960D01*
G75*
G02*
X1007410Y2748540I37750J-37800D01*
G01*
X1428100D01*
X1480000Y2800440D01*
G75*
G02*
X1478800Y2814980I87460J14540D01*
G01*
G75*
G02*
Y2815240I88670J130D01*
G01*
G75*
G02*
Y2815420I87400J90D01*
G01*
G75*
G02*
X1479910Y2829470I89440J0D01*
G01*
X1477960Y2827520D01*
G75*
G02*
X1438070Y2811940I-37730J37740D01*
G01*
X1369540D01*
G75*
G02*
X1216250Y2819190I-74300J53290D01*
G01*
G75*
G02*
X1038800Y2850230I-86010J31040D01*
G01*
G75*
G02*
Y2850240I114590J10D01*
G01*
G75*
G02*
Y2850480I88720J120D01*
G01*
G75*
G02*
X1040000Y2865040I88900J0D01*
G01*
X1038100Y2866940D01*
X909540D01*
G75*
G02*
X807230Y2833200I-74290J53290D01*
G01*
G75*
G02*
X817080Y2786240I-106990J-46950D01*
G01*
G75*
G02*
X596250Y2732980I-116840J0D01*
G01*
G75*
G02*
X561520Y2748520I2940J53140D01*
G01*
X527520Y2782520D01*
G75*
G02*
X511900Y2820180I37590J37660D01*
G01*
G75*
G02*
Y2820240I56360J30D01*
G01*
G75*
G02*
Y2820780I29610J270D01*
G01*
G75*
G02*
X511940Y2822410I29600J90D01*
G01*
Y3675240D01*
X401360D01*
G37*
X3413540D02*
G36*
X3413540Y3675240D02*
Y3367380D01*
X3512960Y3267960D01*
G75*
G02*
X3528580Y3230240I-37760J-37730D01*
G01*
G75*
G02*
Y3230230I-63660J0D01*
G01*
G75*
G02*
X3528540Y3228070I-58360J0D01*
G01*
Y2850240D01*
X3690240D01*
Y2128840D01*
X3726840D01*
Y2118640D01*
G75*
G02*
X3771870Y2043240I-40610J-75400D01*
G01*
G75*
G02*
X3743700Y1979740I-85650J0D01*
G01*
G75*
G02*
X3771870Y1916240I-57490J-63500D01*
G01*
G75*
G02*
X3743700Y1852740I-85660J0D01*
G01*
G75*
G02*
X3771870Y1789240I-57490J-63500D01*
G01*
G75*
G02*
X3769740Y1770240I-85660J-20D01*
G01*
X4043400D01*
G75*
G02*
X4259120Y1832480I116840J-10D01*
G01*
Y1962000D01*
G75*
G02*
X4043400Y2024240I-98880J62240D01*
G01*
G75*
G02*
X4259120Y2086480I116840J-10D01*
G01*
Y2216000D01*
G75*
G02*
X4043400Y2278240I-98880J62240D01*
G01*
G75*
G02*
X4259120Y2340480I116840J-10D01*
G01*
Y2470000D01*
G75*
G02*
X4043400Y2532240I-98880J62240D01*
G01*
G75*
G02*
X4259120Y2594480I116840J-10D01*
G01*
Y2978000D01*
G75*
G02*
X4043400Y3040240I-98880J62240D01*
G01*
G75*
G02*
X4259120Y3102480I116840J-10D01*
G01*
Y3232000D01*
G75*
G02*
X4043400Y3294240I-98880J62240D01*
G01*
G75*
G02*
X4259120Y3356480I116840J-10D01*
G01*
Y3675240D01*
X4093380D01*
G75*
G02*
Y3675230I-572960J0D01*
G01*
G75*
G02*
X3790240Y3372100I-303140J0D01*
G01*
G75*
G02*
X3487100Y3675210I-30J303110D01*
G01*
G75*
G02*
Y3675240I429720J20D01*
G01*
X3413540D01*
G37*
X401360Y4310240D02*
G36*
X401360Y4310240D02*
Y3675240D01*
X511940D01*
Y3863070D01*
G75*
G02*
X511890Y3864700I29360J1720D01*
G01*
G75*
G02*
X511900Y3865240I29060J-270D01*
G01*
G75*
G02*
Y3865280I57300J20D01*
G01*
G75*
G02*
X527520Y3902960I53260J0D01*
G01*
X592520Y3967960D01*
G75*
G02*
X611530Y3980200I37790J-37800D01*
G01*
G75*
G02*
X583400Y4056240I88710J76040D01*
G01*
G75*
G02*
X784830Y4136840I116840J0D01*
G01*
X886800D01*
X910350Y4160390D01*
G75*
G02*
X923250Y4177230I69970J-40240D01*
G01*
G75*
G02*
X980240Y4200840I57000J-56990D01*
G01*
X1396750D01*
G75*
G02*
X1456260Y4177260I2450J-80700D01*
G01*
X1647680Y3985840D01*
X2261800D01*
X2294600Y4018640D01*
X2139640D01*
Y4221940D01*
X1747410D01*
G75*
G02*
X1707520Y4237520I-2180J53270D01*
G01*
X1634800Y4310240D01*
X817080D01*
G75*
G02*
X583400I-116840J0D01*
G01*
X401360D01*
G37*
X3413540D02*
G36*
X3413540Y4310240D02*
Y3675240D01*
X3487100D01*
G75*
G02*
Y3675250I572960J10D01*
G01*
G75*
G02*
X3790240Y3978380I303140J0D01*
G01*
G75*
G02*
X4093380Y3675240I0J-303140D01*
G01*
X4259120D01*
Y4310240D01*
X3413540D01*
G37*
X401360Y6530240D02*
G36*
X401360Y6530240D02*
Y4310240D01*
X583400D01*
G75*
G02*
X817080I116840J0D01*
G01*
X1634800D01*
X1533100Y4411940D01*
X1082410D01*
G75*
G02*
X1042520Y4427520I-2180J53270D01*
G01*
X877520Y4592520D01*
G75*
G02*
X861900Y4630180I37590J37660D01*
G01*
G75*
G02*
Y4630240I56360J30D01*
G01*
G75*
G02*
Y4630780I29610J270D01*
G01*
G75*
G02*
X861940Y4632410I29600J90D01*
G01*
Y4716100D01*
X813100Y4764940D01*
X804210D01*
G75*
G02*
X583400Y4818230I-103970J53290D01*
G01*
G75*
G02*
Y4818240I286480J10D01*
G01*
G75*
G02*
X804210Y4871540I116840J-10D01*
G01*
X833070D01*
G75*
G02*
X872960Y4855960I2120J-53420D01*
G01*
X952960Y4775960D01*
G75*
G02*
X968580Y4738240I-37760J-37730D01*
G01*
G75*
G02*
Y4738230I-63660J0D01*
G01*
G75*
G02*
X968540Y4736070I-58360J0D01*
G01*
Y4652380D01*
X976940Y4643980D01*
Y4860100D01*
X818100Y5018940D01*
X804210D01*
G75*
G02*
X583400Y5072230I-103970J53290D01*
G01*
G75*
G02*
Y5072240I286480J10D01*
G01*
G75*
G02*
X804210Y5125540I116840J-10D01*
G01*
X838070D01*
G75*
G02*
X877960Y5109960I2120J-53420D01*
G01*
X1067960Y4919960D01*
G75*
G02*
X1083580Y4882240I-37760J-37730D01*
G01*
G75*
G02*
Y4882230I-63660J0D01*
G01*
G75*
G02*
X1083540Y4880070I-58360J0D01*
G01*
Y4652380D01*
X1137380Y4598540D01*
X1546500D01*
X1473100Y4671940D01*
X1384540D01*
G75*
G02*
X1218800Y4725240I-74300J53300D01*
G01*
G75*
G02*
X1384540Y4778540I91440J-10D01*
G01*
X1493070D01*
G75*
G02*
X1532960Y4762960I2120J-53420D01*
G01*
X1677380Y4618540D01*
X2573100D01*
X2596940Y4642380D01*
Y4713070D01*
G75*
G02*
X2596890Y4714700I29360J1720D01*
G01*
G75*
G02*
X2596900Y4715240I29060J-270D01*
G01*
G75*
G02*
Y4715780I29610J270D01*
G01*
G75*
G02*
X2596940Y4717410I29600J90D01*
G01*
Y4798280D01*
G75*
G02*
X2550240Y4847900I53200J96850D01*
G01*
G75*
G02*
X2360840Y4830060I-100000J47320D01*
G01*
Y4783640D01*
X2139640D01*
Y5006840D01*
X2360840D01*
Y4960420D01*
G75*
G02*
X2550240Y4942580I89400J-65180D01*
G01*
G75*
G02*
X2750240I100000J-47360D01*
G01*
G75*
G02*
X2960880Y4895240I100000J-47350D01*
G01*
G75*
G02*
X2934500Y4823540I-110710J30D01*
G01*
X2958070D01*
G75*
G02*
X2997960Y4807960I2120J-53420D01*
G01*
X3046910Y4759010D01*
G75*
G02*
X3046900Y4759930I37510J870D01*
G01*
G75*
G02*
Y4760240I37550J160D01*
G01*
G75*
G02*
Y4760780I29610J270D01*
G01*
G75*
G02*
X3046940Y4762410I29600J90D01*
G01*
Y5968100D01*
X2812520Y6202520D01*
G75*
G02*
X2796900Y6240180I37590J37660D01*
G01*
G75*
G02*
Y6240240I56360J30D01*
G01*
G75*
G02*
Y6240780I29610J270D01*
G01*
G75*
G02*
X2796940Y6242410I29600J90D01*
G01*
Y6418280D01*
G75*
G02*
X2750240Y6467900I53200J96850D01*
G01*
G75*
G02*
X2703540Y6418280I-100010J47330D01*
G01*
Y6042410D01*
G75*
G02*
X2703580Y6040240I-59410J-2180D01*
G01*
G75*
G02*
Y6040230I-52090J0D01*
G01*
G75*
G02*
X2687960Y6002520I-53330J0D01*
G01*
X2653980Y5968540D01*
X2808070D01*
G75*
G02*
X2847960Y5952960I2120J-53420D01*
G01*
X2892960Y5907960D01*
G75*
G02*
X2908580Y5870240I-37760J-37730D01*
G01*
G75*
G02*
Y5870230I-63660J0D01*
G01*
G75*
G02*
X2908540Y5868070I-58360J0D01*
G01*
Y5792200D01*
G75*
G02*
X2965880Y5695240I-53330J-96970D01*
G01*
G75*
G02*
X2755240Y5647900I-110640J0D01*
G01*
G75*
G02*
X2555240I-100000J47340D01*
G01*
G75*
G02*
X2365840Y5630060I-100000J47320D01*
G01*
Y5583640D01*
X2144640D01*
Y5781940D01*
X2142380D01*
X2088540Y5728100D01*
Y5147410D01*
G75*
G02*
X2088580Y5145240I-59410J-2180D01*
G01*
G75*
G02*
Y5145230I-52090J0D01*
G01*
G75*
G02*
X2072960Y5107520I-53330J0D01*
G01*
X1970480Y5005040D01*
G75*
G02*
X1971680Y4990240I-90650J-14800D01*
G01*
G75*
G02*
X1788800I-91440J0D01*
G01*
G75*
G02*
Y4990480I88720J120D01*
G01*
G75*
G02*
X1790000Y5005040I88900J0D01*
G01*
X1753100Y5041940D01*
X1587410D01*
G75*
G02*
X1547520Y5057520I-2180J53270D01*
G01*
X1492520Y5112520D01*
G75*
G02*
X1476960Y5147710I37620J37670D01*
G01*
G75*
G02*
X1463540Y5135940I-66740J62560D01*
G01*
Y5097410D01*
G75*
G02*
X1463580Y5095240I-59410J-2180D01*
G01*
G75*
G02*
Y5095230I-52090J0D01*
G01*
G75*
G02*
X1447960Y5057520I-53330J0D01*
G01*
X1295480Y4905040D01*
G75*
G02*
X1296680Y4890240I-90650J-14800D01*
G01*
G75*
G02*
X1113800I-91440J0D01*
G01*
G75*
G02*
X1220040Y4980480I91450J0D01*
G01*
X1356940Y5117380D01*
Y5135940D01*
G75*
G02*
X1318800Y5210240I53300J74300D01*
G01*
G75*
G02*
X1342750Y5271940I91440J10D01*
G01*
X803700D01*
G75*
G02*
X583400Y5326240I-103460J54300D01*
G01*
G75*
G02*
X804720Y5378540I116840J-10D01*
G01*
X997100D01*
G75*
G02*
X972520Y5392520I13070J51590D01*
G01*
X838100Y5526940D01*
X804210D01*
G75*
G02*
X583400Y5580230I-103970J53290D01*
G01*
G75*
G02*
Y5580240I286480J10D01*
G01*
G75*
G02*
X642720Y5681940I116850J0D01*
G01*
X617380D01*
X533540Y5598100D01*
Y4646380D01*
X562380Y4617540D01*
X596270D01*
G75*
G02*
X817080Y4564240I103970J-53310D01*
G01*
G75*
G02*
X596270Y4510940I-116840J0D01*
G01*
X542410D01*
G75*
G02*
X502520Y4526520I-2180J53270D01*
G01*
X442520Y4586520D01*
G75*
G02*
X426900Y4624180I37590J37660D01*
G01*
G75*
G02*
Y4624240I56360J30D01*
G01*
G75*
G02*
Y4624780I29610J270D01*
G01*
G75*
G02*
X426940Y4626410I29600J90D01*
G01*
Y5618070D01*
G75*
G02*
X426890Y5619700I29360J1720D01*
G01*
G75*
G02*
X426900Y5620240I29060J-270D01*
G01*
G75*
G02*
Y5620280I57300J20D01*
G01*
G75*
G02*
X442520Y5657960I53260J0D01*
G01*
X557520Y5772960D01*
G75*
G02*
X597410Y5788540I37750J-37800D01*
G01*
X1783100D01*
X2007520Y6012960D01*
G75*
G02*
X2047410Y6028540I37750J-37800D01*
G01*
X2563100D01*
X2596940Y6062380D01*
Y6418280D01*
G75*
G02*
X2550240Y6467900I53200J96850D01*
G01*
G75*
G02*
X2360840Y6450060I-100000J47320D01*
G01*
Y6403640D01*
X2139640D01*
Y6530240D01*
X2085680D01*
X2078540Y6523100D01*
Y6239540D01*
G75*
G02*
X2116680Y6165240I-53390J-74350D01*
G01*
G75*
G02*
X1933800I-91440J0D01*
G01*
G75*
G02*
X1971940Y6239540I91460J-10D01*
G01*
Y6527900D01*
X1877260Y6433220D01*
G75*
G02*
X1817750Y6409640I-57020J57020D01*
G01*
X1638680D01*
X1357230Y6128190D01*
G75*
G02*
X1360880Y6095240I-147790J-33050D01*
G01*
G75*
G02*
X1059600I-150640J0D01*
G01*
G75*
G02*
Y6095250I190990J10D01*
G01*
G75*
G02*
X1243190Y6242230I150630J0D01*
G01*
X1531200Y6530240D01*
X401360D01*
G37*
X2903540Y6418280D02*
G36*
X2903540Y6418280D02*
Y6262380D01*
X3137960Y6027960D01*
G75*
G02*
X3153580Y5990240I-37760J-37730D01*
G01*
G75*
G02*
Y5990230I-63660J0D01*
G01*
G75*
G02*
X3153540Y5988070I-58360J0D01*
G01*
Y4782380D01*
X3397960Y4537960D01*
G75*
G02*
X3413580Y4500240I-37760J-37730D01*
G01*
G75*
G02*
Y4500230I-63660J0D01*
G01*
G75*
G02*
X3413540Y4498070I-58360J0D01*
G01*
Y4310240D01*
X4259120D01*
Y6530240D01*
X4187080D01*
G75*
G02*
X4070240Y6413400I-116840J0D01*
G01*
G75*
G02*
X3953400Y6530230I0J116830D01*
G01*
G75*
G02*
Y6530240I286480J10D01*
G01*
X3933080D01*
G75*
G02*
X3816240Y6413400I-116840J0D01*
G01*
G75*
G02*
X3699400Y6530230I0J116830D01*
G01*
G75*
G02*
Y6530240I286480J10D01*
G01*
X3687080D01*
G75*
G02*
X3570240Y6413400I-116840J0D01*
G01*
G75*
G02*
X3453400Y6530230I0J116830D01*
G01*
G75*
G02*
Y6530240I286480J10D01*
G01*
X3433080D01*
G75*
G02*
X3316240Y6413400I-116840J0D01*
G01*
G75*
G02*
X3199400Y6530230I0J116830D01*
G01*
G75*
G02*
Y6530240I286480J10D01*
G01*
X2959860D01*
G75*
G02*
X2960880Y6515240I-109630J-14990D01*
G01*
G75*
G02*
Y6515230I-190990J0D01*
G01*
G75*
G02*
X2903540Y6418280I-110640J0D01*
G01*
G37*
X401360Y7045240D02*
G36*
X401360Y7045240D02*
Y6530240D01*
X1531200D01*
X1548220Y6547260D01*
G75*
G02*
X1607730Y6570840I57040J-57080D01*
G01*
X1786800D01*
X2051740Y6835780D01*
G75*
G02*
X2004600Y6945190I103400J109410D01*
G01*
G75*
G02*
Y6945240I168520J30D01*
G01*
G75*
G02*
X2042580Y7045240I150640J0D01*
G01*
X1780680D01*
X1593540Y6858100D01*
Y6739540D01*
G75*
G02*
X1631680Y6665240I-53390J-74350D01*
G01*
G75*
G02*
X1448800I-91440J0D01*
G01*
G75*
G02*
X1486940Y6739540I91460J-10D01*
G01*
Y6878070D01*
G75*
G02*
X1486890Y6879700I29360J1720D01*
G01*
G75*
G02*
X1486900Y6880240I29060J-270D01*
G01*
G75*
G02*
Y6880280I57300J20D01*
G01*
G75*
G02*
X1502520Y6917960I53260J0D01*
G01*
X1629800Y7045240D01*
X401360D01*
G37*
X2085680Y6530240D02*
G36*
X2085680Y6530240D02*
X2139640D01*
Y6584200D01*
X2085680Y6530240D01*
G37*
X2261490Y6838450D02*
G36*
X2261490Y6838450D02*
G75*
G02*
X2267410Y6838540I3850J-58230D01*
G01*
X2278100D01*
X2355360Y6915800D01*
G75*
G02*
X2328800Y6980190I64770J64390D01*
G01*
G75*
G02*
Y6980240I95490J30D01*
G01*
G75*
G02*
X2355930Y7045240I91440J0D01*
G01*
X2267900D01*
G75*
G02*
X2305880Y6945240I-112660J-100000D01*
G01*
G75*
G02*
Y6945230I-190990J0D01*
G01*
G75*
G02*
X2261490Y6838450I-150630J0D01*
G01*
G37*
X2287380Y6731940D02*
G36*
X2287380Y6731940D02*
X2182280Y6626840D01*
X2360840D01*
Y6580420D01*
G75*
G02*
X2550240Y6562580I89400J-65180D01*
G01*
G75*
G02*
X2750240I100000J-47360D01*
G01*
G75*
G02*
X2959860Y6530240I100000J-47350D01*
G01*
X3199400D01*
G75*
G02*
X3316240Y6647080I116840J0D01*
G01*
G75*
G02*
X3433080Y6530240I-30J-116870D01*
G01*
X3453400D01*
G75*
G02*
X3570240Y6647080I116840J0D01*
G01*
G75*
G02*
X3687080Y6530240I-30J-116870D01*
G01*
X3699400D01*
G75*
G02*
X3816240Y6647080I116840J0D01*
G01*
G75*
G02*
X3933080Y6530240I-30J-116870D01*
G01*
X3953400D01*
G75*
G02*
X4070240Y6647080I116840J0D01*
G01*
G75*
G02*
X4187080Y6530240I-30J-116870D01*
G01*
X4259120D01*
Y7045240D01*
X3053800D01*
G75*
G02*
X2845240Y6962100I-208550J220000D01*
G01*
G75*
G02*
X2636670Y7045240I-30J303120D01*
G01*
X2484550D01*
G75*
G02*
X2511680Y6980240I-64310J-65000D01*
G01*
G75*
G02*
X2473580Y6905970I-91490J30D01*
G01*
Y6905240D01*
G75*
G02*
Y6905230I-52090J0D01*
G01*
G75*
G02*
X2457960Y6867520I-53330J0D01*
G01*
X2337960Y6747520D01*
G75*
G02*
X2298070Y6731940I-37730J37740D01*
G01*
X2287380D01*
G37*
X401360Y7564120D02*
G36*
X401360Y7564120D02*
Y7045240D01*
X1629800D01*
X1757520Y7172960D01*
G75*
G02*
X1797410Y7188540I37750J-37800D01*
G01*
X1888100D01*
X1926940Y7227380D01*
Y7350940D01*
G75*
G02*
X1888800Y7425230I53280J74290D01*
G01*
G75*
G02*
Y7425240I114590J10D01*
G01*
G75*
G02*
X2071680I91440J0D01*
G01*
G75*
G02*
X2033540Y7350940I-91500J30D01*
G01*
Y7207410D01*
G75*
G02*
X2033580Y7205240I-59410J-2180D01*
G01*
G75*
G02*
Y7205230I-52090J0D01*
G01*
G75*
G02*
X2017960Y7167520I-53330J0D01*
G01*
X1947960Y7097520D01*
G75*
G02*
X1908070Y7081940I-37730J37740D01*
G01*
X1817380D01*
X1780680Y7045240D01*
X2042580D01*
G75*
G02*
X2267900I112660J-100000D01*
G01*
X2355930D01*
G75*
G02*
X2484550I64310J-65000D01*
G01*
X2636670D01*
G75*
G02*
X2542100Y7265210I208540J219970D01*
G01*
G75*
G02*
Y7265240I429720J20D01*
G01*
G75*
G02*
Y7265250I572960J10D01*
G01*
G75*
G02*
X2794590Y7564120I303130J0D01*
G01*
X401360D01*
G37*
X2895870D02*
G36*
X2895870Y7564120D02*
G75*
G02*
X3148380Y7265240I-50640J-298890D01*
G01*
G75*
G02*
Y7265230I-572960J0D01*
G01*
G75*
G02*
X3053800Y7045240I-303130J0D01*
G01*
X4259120D01*
Y7564120D01*
X2895870D01*
G37*
X618540Y3464710D02*
Y3377770D01*
G75*
G02*
X817080Y3294240I81700J-83530D01*
G01*
G75*
G02*
X618540Y3210710I-116840J0D01*
G01*
Y3123770D01*
G75*
G02*
X767880Y3135510I81700J-83530D01*
G01*
G75*
G02*
X817730Y3150840I47360J-65270D01*
G01*
X1027980D01*
G75*
G02*
X1282500I127260J-80600D01*
G01*
X1527980D01*
G75*
G02*
X1685480Y3217810I127260J-80600D01*
G01*
G75*
G02*
X1685000Y3250040I89770J17460D01*
G01*
X1593100Y3341940D01*
X1192410D01*
G75*
G02*
X1152520Y3357520I-2170J53300D01*
G01*
X1015100Y3494940D01*
X804210D01*
G75*
G02*
X618540Y3464710I-103970J53300D01*
G01*
G36*
X618540Y3464710D02*
Y3377770D01*
G75*
G02*
X817080Y3294240I81700J-83530D01*
G01*
G75*
G02*
X618540Y3210710I-116840J0D01*
G01*
Y3123770D01*
G75*
G02*
X767880Y3135510I81700J-83530D01*
G01*
G75*
G02*
X817730Y3150840I47360J-65270D01*
G01*
X1027980D01*
G75*
G02*
X1282500I127260J-80600D01*
G01*
X1527980D01*
G75*
G02*
X1685480Y3217810I127260J-80600D01*
G01*
G75*
G02*
X1685000Y3250040I89770J17460D01*
G01*
X1593100Y3341940D01*
X1192410D01*
G75*
G02*
X1152520Y3357520I-2170J53300D01*
G01*
X1015100Y3494940D01*
X804210D01*
G75*
G02*
X618540Y3464710I-103970J53300D01*
G01*
G37*
X1307580Y1920240D02*
G75*
G02*
X1357200Y1873540I-47340J-100010D01*
G01*
X1661500D01*
X1557520Y1977520D01*
G75*
G02*
X1544100Y2000070I37710J37710D01*
G01*
G75*
G02*
X1383800Y2060240I-68860J60170D01*
G01*
G75*
G02*
X1421940Y2134540I91440J0D01*
G01*
Y2233100D01*
X1373100Y2281940D01*
X1371840D01*
Y2109640D01*
X1325420D01*
G75*
G02*
X1307580Y1920240I-65180J-89400D01*
G01*
G36*
X1307580Y1920240D02*
G75*
G02*
X1357200Y1873540I-47340J-100010D01*
G01*
X1661500D01*
X1557520Y1977520D01*
G75*
G02*
X1544100Y2000070I37710J37710D01*
G01*
G75*
G02*
X1383800Y2060240I-68860J60170D01*
G01*
G75*
G02*
X1421940Y2134540I91440J0D01*
G01*
Y2233100D01*
X1373100Y2281940D01*
X1371840D01*
Y2109640D01*
X1325420D01*
G75*
G02*
X1307580Y1920240I-65180J-89400D01*
G01*
G37*
X1946310Y3701940D02*
G75*
G02*
X1958540Y3545940I-41070J-81700D01*
G01*
Y3537380D01*
X2012960Y3482960D01*
G75*
G02*
X2017440Y3477880I-37680J-37750D01*
G01*
X2031940Y3492380D01*
Y3495940D01*
G75*
G02*
X1993800Y3570240I53300J74300D01*
G01*
G75*
G02*
X2176680I91440J0D01*
G01*
G75*
G02*
X2138540Y3495940I-91440J0D01*
G01*
Y3472410D01*
G75*
G02*
X2138580Y3470240I-53330J-2070D01*
G01*
G75*
G02*
X2122960Y3432520I-53340J0D01*
G01*
X2088540Y3398100D01*
Y2890840D01*
X2159620D01*
G75*
G02*
X2162240Y2890880I2620J-85700D01*
G01*
G75*
G02*
X2164860Y2890840I0J-85700D01*
G01*
X2202840D01*
Y2880640D01*
G75*
G02*
X2219700Y2741740I-40600J-75400D01*
G01*
G75*
G02*
Y2614740I-57460J-63500D01*
G01*
G75*
G02*
Y2487740I-57460J-63500D01*
G01*
G75*
G02*
X2242820Y2453260I-57450J-63510D01*
G01*
X2317520Y2527960D01*
G75*
G02*
X2325240Y2534350I37720J-37720D01*
G01*
Y2850240D01*
X2511010D01*
G75*
G02*
X2546940Y2944540I89230J20000D01*
G01*
Y2958110D01*
G75*
G02*
X2531900Y2995240I38300J37120D01*
G01*
G75*
G02*
X2531940Y2997410I53350J100D01*
G01*
Y3155940D01*
G75*
G02*
X2501630Y3267260I53300J74300D01*
G01*
G75*
G02*
X2360840Y3300060I-51390J97980D01*
G01*
Y3253640D01*
X2139640D01*
Y3476840D01*
X2360840D01*
Y3430420D01*
G75*
G02*
X2550240Y3412580I89400J-65180D01*
G01*
G75*
G02*
X2596940Y3462200I100010J-47340D01*
G01*
Y3563100D01*
X2458100Y3701940D01*
X1946310D01*
G36*
X1946310Y3701940D02*
G75*
G02*
X1958540Y3545940I-41070J-81700D01*
G01*
Y3537380D01*
X2012960Y3482960D01*
G75*
G02*
X2017440Y3477880I-37680J-37750D01*
G01*
X2031940Y3492380D01*
Y3495940D01*
G75*
G02*
X1993800Y3570240I53300J74300D01*
G01*
G75*
G02*
X2176680I91440J0D01*
G01*
G75*
G02*
X2138540Y3495940I-91440J0D01*
G01*
Y3472410D01*
G75*
G02*
X2138580Y3470240I-53330J-2070D01*
G01*
G75*
G02*
X2122960Y3432520I-53340J0D01*
G01*
X2088540Y3398100D01*
Y2890840D01*
X2159620D01*
G75*
G02*
X2162240Y2890880I2620J-85700D01*
G01*
G75*
G02*
X2164860Y2890840I0J-85700D01*
G01*
X2202840D01*
Y2880640D01*
G75*
G02*
X2219700Y2741740I-40600J-75400D01*
G01*
G75*
G02*
Y2614740I-57460J-63500D01*
G01*
G75*
G02*
Y2487740I-57460J-63500D01*
G01*
G75*
G02*
X2242820Y2453260I-57450J-63510D01*
G01*
X2317520Y2527960D01*
G75*
G02*
X2325240Y2534350I37720J-37720D01*
G01*
Y2850240D01*
X2511010D01*
G75*
G02*
X2546940Y2944540I89230J20000D01*
G01*
Y2958110D01*
G75*
G02*
X2531900Y2995240I38300J37120D01*
G01*
G75*
G02*
X2531940Y2997410I53350J100D01*
G01*
Y3155940D01*
G75*
G02*
X2501630Y3267260I53300J74300D01*
G01*
G75*
G02*
X2360840Y3300060I-51390J97980D01*
G01*
Y3253640D01*
X2139640D01*
Y3476840D01*
X2360840D01*
Y3430420D01*
G75*
G02*
X2550240Y3412580I89400J-65180D01*
G01*
G75*
G02*
X2596940Y3462200I100010J-47340D01*
G01*
Y3563100D01*
X2458100Y3701940D01*
X1946310D01*
G37*
D02*
D12*
X636740Y1770240D02*
X583400D01*
X636740Y4310240D02*
X583400D01*
X700240Y1706740D02*
Y1653400D01*
Y1833740D02*
Y1887080D01*
Y2024240D02*
X900240D01*
X1015240Y1909240D01*
Y1560240D01*
X1130240Y1445240D01*
X1620240D01*
X1670240Y1395240D01*
Y585240D01*
X1834240Y421240D01*
X3401240D01*
X3420240Y440240D01*
Y942240D01*
X3505240Y1027240D01*
X3559240D01*
X700240Y2278240D02*
Y2280240D01*
X1052240Y2632240D01*
X1522240D01*
X1575240Y2685240D01*
X700240Y2532240D02*
Y2535240D01*
X845240D01*
X1005240Y2695240D01*
X1450240D01*
X1570240Y2815240D01*
X700240Y2786240D02*
X599240D01*
X565240Y2820240D01*
Y3865240D01*
X630240Y3930240D01*
X1310240D01*
X700240Y3230740D02*
Y3177400D01*
Y3357740D02*
Y3411080D01*
Y3548240D02*
X1037240D01*
X1190240Y3395240D01*
X1615240D01*
X1775240Y3235240D01*
X700240Y3802240D02*
X754240D01*
X757240Y3805240D01*
X1485240D01*
X1535240Y3755240D01*
X2480240D01*
X2650240Y3585240D01*
Y3365240D01*
X700240Y4246740D02*
Y4193400D01*
Y4373740D02*
Y4427080D01*
Y5072240D02*
X840240D01*
X1030240Y4882240D01*
Y4630240D01*
X1115240Y4545240D01*
X1590240D01*
X1760240Y4375240D01*
X2605240D01*
X700240Y5326240D02*
X701240Y5325240D01*
X1490240D01*
X1530240Y5285240D01*
Y5150240D01*
X1585240Y5095240D01*
X1775240D01*
X1880240Y4990240D01*
X763740Y1770240D02*
X817080D01*
X763740Y3294240D02*
X817080D01*
X763740Y4310240D02*
X817080D01*
X835240Y2920240D02*
X1060240D01*
X1130240Y2850240D01*
X872940Y1345240D02*
X819600D01*
X970240Y1247940D02*
Y1194600D01*
Y1442540D02*
Y1495880D01*
X1060240Y2490240D02*
X1110240Y2540240D01*
X1590240D01*
X1067540Y1345240D02*
X1120880D01*
X1167940Y1025240D02*
X1114600D01*
X1201940Y2220240D02*
X1148640D01*
X1245240Y947940D02*
Y894600D01*
X1260240Y1820240D02*
X1685240D01*
X1810240Y1695240D01*
Y1077240D01*
X1860240Y1027240D01*
X2035240D01*
X1265240Y2440240D02*
X1385240D01*
X1595240Y2230240D01*
Y2015240D01*
X1820240Y1790240D01*
X1915240D01*
X1916240Y1789240D01*
X2035240D01*
X1280240Y3665240D02*
X1585240D01*
X1860240Y3390240D01*
Y3315240D01*
X1900240Y3275240D01*
Y3185240D01*
X1860240Y3145240D01*
Y2235240D01*
X1925240Y2170240D01*
X2035240D01*
X1318540Y2220240D02*
X1371840D01*
X1322540Y1025240D02*
X1375880D01*
X1410240Y5210240D02*
Y5095240D01*
X1205240Y4890240D01*
X1475240Y2060240D02*
Y2255240D01*
X1395240Y2335240D01*
X965240D01*
X1610240Y5635240D02*
X1690240D01*
X1720240Y5605240D01*
Y5365240D01*
X1705240Y2385240D02*
Y2885240D01*
X1675240Y2915240D01*
X1490240D01*
X1440240Y2865240D01*
X1295240D01*
X1880240Y4990240D02*
X2035240Y5145240D01*
Y5750240D01*
X2120240Y5835240D01*
X2610240D01*
X2655240Y5790240D01*
Y5695240D01*
X1905240Y3620240D02*
Y3515240D01*
X1975240Y3445240D01*
Y3140240D01*
X1925240Y3090240D01*
Y2571240D01*
X1945240Y2551240D01*
X2035240D01*
X1920240Y5375240D02*
X1805240Y5260240D01*
X1645240D01*
X1475240Y5430240D01*
X1010240D01*
X860240Y5580240D01*
X700240D01*
X1980240Y7425240D02*
Y7205240D01*
X1910240Y7135240D01*
X1795240D01*
X1540240Y6880240D01*
Y6665240D01*
X2025240Y6165240D02*
Y6545240D01*
X2265240Y6785240D01*
X2300240D01*
X2420240Y6905240D01*
Y6980240D01*
X2035240Y773240D02*
X1822240D01*
X1740240Y855240D01*
Y1515240D01*
X1635240Y1620240D01*
X1260240D01*
X2035240Y900240D02*
X2680240D01*
X2750240Y830240D01*
Y635240D01*
X2755240Y630240D01*
X2035240Y1154240D02*
X2826240D01*
X2885240Y1095240D01*
Y735240D01*
X2035240Y1408240D02*
X2992240D01*
X3050240Y1350240D01*
Y720240D01*
X2085240Y3570240D02*
Y3470240D01*
X2035240Y3420240D01*
Y2805240D01*
X2192940Y3365240D02*
X2139640D01*
X2192940Y4130240D02*
X2139640D01*
X2192940Y4895240D02*
X2139640D01*
X2192940Y6515240D02*
X2139640D01*
X2197940Y5695240D02*
X2144640D01*
X2250240Y3306940D02*
Y3253640D01*
Y3423540D02*
Y3476840D01*
Y4071940D02*
Y4018640D01*
Y4836940D02*
Y4783640D01*
Y4953540D02*
Y5006840D01*
Y6456940D02*
Y6403640D01*
Y6573540D02*
Y6626840D01*
X2255240Y5636940D02*
Y5583640D01*
X2335240Y2325240D02*
Y2060240D01*
X2450240Y1945240D01*
X2735240D01*
X3399240Y1281240D01*
X3559240D01*
X2455240Y2160240D02*
X3210240D01*
X2555240Y2375240D02*
X2960240D01*
X3085240Y2500240D01*
Y4130240D01*
X2875240Y4340240D01*
X2730240D01*
X2665240Y4275240D01*
X2585240D01*
Y3230240D02*
Y2995240D01*
X2600240Y2980240D01*
Y2870240D01*
X2585240Y4275240D02*
X1745240D01*
X1555240Y4465240D01*
X1080240D01*
X915240Y4630240D01*
Y4738240D01*
X835240Y4818240D01*
X700240D01*
X2650240Y4130240D02*
Y4210240D01*
X2585240Y4275240D01*
X2650240Y4715240D02*
Y4620240D01*
X2595240Y4565240D01*
X1655240D01*
X1495240Y4725240D01*
X1310240D01*
X2650240Y4895240D02*
Y4715240D01*
Y6515240D02*
Y6040240D01*
X2585240Y5975240D01*
X2045240D01*
X1805240Y5735240D01*
X595240D01*
X480240Y5620240D01*
Y4624240D01*
X540240Y4564240D01*
X700240D01*
X2850240Y4130240D02*
X2935240D01*
X3000240Y4065240D01*
Y3305240D01*
X2940240Y3245240D01*
X2770240D01*
X2700240Y3175240D01*
Y2665240D01*
X2525240Y2490240D01*
X2355240D01*
X2162240Y2297240D01*
X2850240Y4895240D02*
Y4795240D01*
X2875240Y4770240D01*
X2960240D01*
X3275240Y4455240D01*
Y3325240D01*
X3375240Y3225240D01*
Y2935240D01*
X2850240Y6515240D02*
Y6240240D01*
X3100240Y5990240D01*
Y4760240D01*
X3360240Y4500240D01*
Y3345240D01*
X3475240Y3230240D01*
Y2160240D01*
X3400240Y2085240D01*
Y1635240D01*
X2855240Y5695240D02*
Y5870240D01*
X2810240Y5915240D01*
X2100240D01*
X1920240Y5735240D01*
Y5375240D01*
X2940240Y3155240D02*
Y3050240D01*
X2850240Y2960240D01*
Y2870240D01*
X2985240Y1500240D02*
X2617240D01*
X2455240Y1662240D01*
X2035240D01*
X3210240Y2160240D02*
Y1635240D01*
X3310240Y1535240D01*
X3559240D01*
X3230240Y2935240D02*
Y3275240D01*
X3170240Y3335240D01*
Y4420240D01*
X2935240Y4655240D01*
X2710240D01*
X2650240Y4715240D01*
X3252740Y6530240D02*
X3199400D01*
X3316240Y6466740D02*
Y6413400D01*
Y6593740D02*
Y6647080D01*
X3379740Y6530240D02*
X3433080D01*
X3752740D02*
X3699400D01*
X3816240Y6466740D02*
Y6413400D01*
Y6593740D02*
Y6647080D01*
X3879740Y6530240D02*
X3933080D01*
X4096740Y3294240D02*
X4043400D01*
X4160240Y3230740D02*
Y3177400D01*
Y3357740D02*
Y3411080D01*
D02*
D14*
X700240Y1770240D02*
Y1615240D01*
X970240Y1345240D01*
X700240Y3040240D02*
X785240D01*
X815240Y3070240D01*
X1155240D01*
X700240Y4310240D02*
X880240D01*
X935240Y4365240D01*
X1480240D01*
X1715240Y4130240D01*
X2250240D01*
X1210240Y6095240D02*
X1605240Y6490240D01*
X1820240D01*
X2155240Y6825240D01*
Y6945240D01*
X1445240Y1220240D02*
X1125240D01*
X930240Y1025240D01*
X885240D01*
X1655240Y3070240D02*
X1155240D01*
X2162240Y1408240D02*
X2035240D01*
X2450240Y4130240D02*
Y4060240D01*
X2295240Y3905240D01*
X1614240D01*
X1399240Y4120240D01*
X980240D01*
Y4116240D01*
X920240Y4056240D01*
X700240D01*
X4160240Y3294240D02*
Y3415240D01*
X4190240Y3445240D01*
Y3820240D01*
X3915240Y4095240D01*
Y6431240D01*
X3816240Y6530240D01*
D02*
D15*
X970240Y1345240D03*
X1155240Y3070240D03*
X1210240Y6095240D03*
X1445240Y1220240D03*
X1655240Y3070240D03*
X2155240Y6945240D03*
D02*
D17*
X835240Y2920240D03*
X965240Y2335240D03*
X1060240Y2490240D03*
X1130240Y2850240D03*
X1205240Y4890240D03*
X1265240Y2440240D03*
X1280240Y3665240D03*
X1295240Y2865240D03*
X1310240Y3930240D03*
Y4725240D03*
X1410240Y5210240D03*
X1475240Y2060240D03*
X1540240Y6665240D03*
X1570240Y2815240D03*
X1575240Y2685240D03*
X1590240Y2540240D03*
X1610240Y5635240D03*
X1705240Y2385240D03*
X1720240Y5365240D03*
X1775240Y3235240D03*
X1880240Y4990240D03*
X1905240Y3620240D03*
X1920240Y5375240D03*
X1980240Y7425240D03*
X2025240Y6165240D03*
X2085240Y3570240D03*
X2335240Y2325240D03*
X2420240Y6980240D03*
X2455240Y2160240D03*
X2555240Y2375240D03*
X2585240Y3230240D03*
X2600240Y2870240D03*
X2605240Y4375240D03*
X2755240Y630240D03*
X2850240Y2870240D03*
X2885240Y735240D03*
X2940240Y3155240D03*
X2985240Y1500240D03*
X3050240Y720240D03*
X3210240Y2160240D03*
X3230240Y2935240D03*
X3375240D03*
X3400240Y1635240D03*
D02*
D18*
X2250240Y3365240D03*
Y4130240D03*
Y4895240D03*
Y6515240D03*
X2255240Y5695240D03*
D02*
D19*
X1260240Y1620240D03*
Y1820240D03*
Y2020240D03*
X2450240Y3365240D03*
Y4130240D03*
Y4895240D03*
Y6515240D03*
X2455240Y5695240D03*
X2650240Y3365240D03*
Y4130240D03*
Y4895240D03*
Y6515240D03*
X2655240Y5695240D03*
X2850240Y3365240D03*
Y4130240D03*
Y4895240D03*
Y6515240D03*
X2855240Y5695240D03*
D02*
D70*
X700240Y1770240D03*
Y2024240D03*
Y2278240D03*
Y2532240D03*
Y2786240D03*
Y3040240D03*
Y3294240D03*
Y3548240D03*
Y3802240D03*
Y4056240D03*
Y4310240D03*
Y4564240D03*
Y4818240D03*
Y5072240D03*
Y5326240D03*
Y5580240D03*
X3316240Y6530240D03*
X3570240D03*
X3816240D03*
X4070240D03*
X4160240Y754240D03*
Y1008240D03*
Y1262240D03*
Y1516240D03*
Y1770240D03*
Y2024240D03*
Y2278240D03*
Y2532240D03*
Y3040240D03*
Y3294240D03*
D02*
D71*
X1260240Y2220240D03*
D02*
D20*
X885240Y1025240D03*
X1245240D03*
D02*
D21*
X633240Y645240D03*
X1497240D03*
D02*
D25*
X2035240Y773240D03*
Y900240D03*
Y1027240D03*
Y1154240D03*
Y1281240D03*
Y1408240D03*
Y1535240D03*
Y1662240D03*
Y1789240D03*
Y1916240D03*
Y2043240D03*
Y2170240D03*
Y2297240D03*
Y2424240D03*
Y2551240D03*
Y2678240D03*
Y2805240D03*
X2162240Y773240D03*
Y900240D03*
Y1027240D03*
Y1154240D03*
Y1281240D03*
Y1408240D03*
Y1535240D03*
Y1662240D03*
Y1789240D03*
Y1916240D03*
Y2043240D03*
Y2170240D03*
Y2297240D03*
Y2424240D03*
Y2551240D03*
Y2678240D03*
Y2805240D03*
X3559240Y773240D03*
Y900240D03*
Y1027240D03*
Y1154240D03*
Y1281240D03*
Y1408240D03*
Y1535240D03*
Y1662240D03*
Y1789240D03*
Y1916240D03*
Y2043240D03*
X3686240Y773240D03*
Y900240D03*
Y1027240D03*
Y1154240D03*
Y1281240D03*
Y1408240D03*
Y1535240D03*
Y1662240D03*
Y1789240D03*
Y1916240D03*
Y2043240D03*
D02*
D73*
X2845240Y7265240D03*
X3790240Y3675240D03*
D02*
D93*
X2098740Y773240D03*
Y900240D03*
Y1027240D03*
Y1154240D03*
Y1281240D03*
Y1408240D03*
Y1535240D03*
Y1662240D03*
Y1789240D03*
Y1916240D03*
Y2043240D03*
Y2170240D03*
Y2297240D03*
Y2424240D03*
Y2551240D03*
Y2678240D03*
Y2805240D03*
X3622740Y773240D03*
Y900240D03*
Y1027240D03*
Y1154240D03*
Y1281240D03*
Y1408240D03*
Y1535240D03*
Y1662240D03*
Y1789240D03*
Y1916240D03*
Y2043240D03*
X0Y0D02*
M02*
