G04 DesignSpark PCB Gerber Version 13.0 Build *
%FSLAX35Y35*%
%MOMM*%
%ADD80O,1.75240X2.15240*%
%ADD88R,0.85240X1.35240*%
%ADD92R,0.95240X0.95240*%
%ADD87R,1.15240X1.35240*%
%ADD90R,1.15240X2.95240*%
%ADD86R,1.45240X2.05240*%
%ADD75R,1.55240X1.57240*%
%ADD82C,0.95240*%
%ADD85C,1.05240*%
%ADD76C,1.55240*%
%ADD77C,1.67640*%
%ADD79C,1.95240*%
%AMT81*0 Bullet Pad at angle 90*4,1,28,0.37620,-0.47620,0.37620,0.47620,0.10000,0.47620,0.04030,0.47240,-0.01840,0.46110,-0.07520,0.44260,-0.12920,0.41710,-0.17960,0.38500,-0.22560,0.34690,-0.26650,0.30330,-0.30160,0.25490,-0.33030,0.20250,-0.35220,0.14690,-0.36700,0.08900,-0.37440,0.02970,-0.37430,-0.02990,-0.36680,-0.08910,-0.35190,-0.14690,-0.32990,-0.20230,-0.30110,-0.25450,-0.26600,-0.30270,-0.22510,-0.34610,-0.17910,-0.38410,-0.12870,-0.41600,-0.07470,-0.44130,-0.01800,-0.45970,0.04050,-0.47080,0.10000,-0.47620,0.37620,-0.47620,0*%
%ADD81T81*%
%ADD84R,0.45240X0.27240*%
%ADD89R,1.15240X0.95240*%
%ADD78R,1.57240X1.55240*%
%AMT83*0 Bullet Pad at angle 270*4,1,28,-0.37620,0.47620,-0.37620,-0.47620,-0.10000,-0.47620,-0.04030,-0.47240,0.01840,-0.46110,0.07520,-0.44260,0.12920,-0.41710,0.17960,-0.38500,0.22560,-0.34690,0.26650,-0.30330,0.30160,-0.25490,0.33030,-0.20250,0.35220,-0.14690,0.36700,-0.08900,0.37440,-0.02970,0.37430,0.02990,0.36680,0.08910,0.35190,0.14690,0.32990,0.20230,0.30110,0.25450,0.26600,0.30270,0.22510,0.34610,0.17910,0.38410,0.12870,0.41600,0.07470,0.44130,0.01800,0.45970,-0.04050,0.47080,-0.10000,0.47620,-0.37620,0.47620,0*%
%ADD83T83*%
%ADD91C,5.40240*%
X0Y0D02*
D02*
D75*
X2250240Y3365240D03*
Y4130240D03*
Y4895240D03*
Y6515240D03*
X2255240Y5695240D03*
D02*
D76*
X1260240Y1620240D03*
Y1820240D03*
Y2020240D03*
X2450240Y3365240D03*
Y4130240D03*
Y4895240D03*
Y6515240D03*
X2455240Y5695240D03*
X2650240Y3365240D03*
Y4130240D03*
Y4895240D03*
Y6515240D03*
X2655240Y5695240D03*
X2850240Y3365240D03*
Y4130240D03*
Y4895240D03*
Y6515240D03*
X2855240Y5695240D03*
D02*
D77*
X700240Y1770240D03*
Y2024240D03*
Y2278240D03*
Y2532240D03*
Y2786240D03*
Y3040240D03*
Y3294240D03*
Y3548240D03*
Y3802240D03*
Y4056240D03*
Y4310240D03*
Y4564240D03*
Y4818240D03*
Y5072240D03*
Y5326240D03*
Y5580240D03*
X3316240Y6530240D03*
X3570240D03*
X3816240D03*
X4070240D03*
X4160240Y754240D03*
Y1008240D03*
Y1262240D03*
Y1516240D03*
Y1770240D03*
Y2024240D03*
Y2278240D03*
Y2532240D03*
Y3040240D03*
Y3294240D03*
D02*
D78*
X1260240Y2220240D03*
D02*
D79*
X885240Y1025240D03*
X1245240D03*
D02*
D80*
X633240Y645240D03*
X1497240D03*
D02*
D81*
X3645240Y5885240D03*
D02*
D83*
X3721440D03*
D02*
D84*
X3683340D03*
D02*
D85*
X2035240Y773240D03*
Y900240D03*
Y1027240D03*
Y1154240D03*
Y1281240D03*
Y1408240D03*
Y1535240D03*
Y1662240D03*
Y1789240D03*
Y1916240D03*
Y2043240D03*
Y2170240D03*
Y2297240D03*
Y2424240D03*
Y2551240D03*
Y2678240D03*
Y2805240D03*
X2162240Y773240D03*
Y900240D03*
Y1027240D03*
Y1154240D03*
Y1281240D03*
Y1408240D03*
Y1535240D03*
Y1662240D03*
Y1789240D03*
Y1916240D03*
Y2043240D03*
Y2170240D03*
Y2297240D03*
Y2424240D03*
Y2551240D03*
Y2678240D03*
Y2805240D03*
X3559240Y773240D03*
Y900240D03*
Y1027240D03*
Y1154240D03*
Y1281240D03*
Y1408240D03*
Y1535240D03*
Y1662240D03*
Y1789240D03*
Y1916240D03*
Y2043240D03*
X3686240Y773240D03*
Y900240D03*
Y1027240D03*
Y1154240D03*
Y1281240D03*
Y1408240D03*
Y1535240D03*
Y1662240D03*
Y1789240D03*
Y1916240D03*
Y2043240D03*
D02*
D86*
X490240Y7380240D03*
D02*
D87*
X725240Y5870240D03*
X1840240Y6300240D03*
D02*
D88*
X880240Y5870240D03*
X990240D03*
X1100240D03*
X1210240D03*
X1320240D03*
X1430240D03*
X1540240D03*
X1650240D03*
X1745240D03*
D02*
D89*
X1840240Y6920240D03*
D02*
D90*
Y7335240D03*
D02*
D91*
X2845240Y7265240D03*
X3790240Y3675240D03*
D02*
D92*
X2155140Y7170240D03*
Y7335240D03*
X2320240Y7170240D03*
Y7335240D03*
X0Y0D02*
M02*
