G04 DesignSpark PCB Gerber Version 13.0 Build *
%FSLAX35Y35*%
%MOMM*%
%ADD10C,0.12700*%
X0Y0D02*
D02*
D10*
X994680Y2013740D02*
X970860D01*
Y2005800D01*
X978800Y1989930D01*
X986740Y1981990D01*
X1002610Y1974050D01*
X1018490D01*
X1034360Y1981990D01*
X1042300Y1989930D01*
X1050240Y2005800D01*
Y2037550D01*
X1042300Y2053430D01*
X1034360Y2061370D01*
X1018490Y2069300D01*
X1002610D01*
X986740Y2061370D01*
X978800Y2053430D01*
X970860Y2037550D01*
X915300Y1981990D02*
X899430Y1974050D01*
X883550D01*
X867680Y1981990D01*
X859740Y1997870D01*
Y2045490D01*
X867680Y2061370D01*
X883550Y2069300D01*
X899430D01*
X915300Y2061370D01*
X923240Y2045490D01*
Y1997870D01*
X915300Y1981990D01*
X867680Y2061370D01*
X1050240Y2194050D02*
Y2289300D01*
X970860D01*
X986740Y2241680D02*
X1050240D01*
Y2194050D02*
X970860D01*
X923240D02*
Y2289300D01*
X843860Y2194050D01*
Y2289300D01*
X1004680Y4813740D02*
X980860D01*
Y4805800D01*
X988800Y4789930D01*
X996740Y4781990D01*
X1012610Y4774050D01*
X1028490D01*
X1044360Y4781990D01*
X1052300Y4789930D01*
X1060240Y4805800D01*
Y4837550D01*
X1052300Y4853430D01*
X1044360Y4861370D01*
X1028490Y4869300D01*
X1012610D01*
X996740Y4861370D01*
X988800Y4853430D01*
X980860Y4837550D01*
X933240Y4774050D02*
X869740Y4869300D01*
X933240D01*
X1065240Y4016990D02*
X1049360Y4009050D01*
X1025550D01*
X1009680Y4016990D01*
X1001740Y4032870D01*
Y4040800D01*
X1009680Y4056680D01*
X1025550Y4064620D01*
X1065240D01*
Y4104300D01*
X1001740D01*
X938240D02*
X898550Y4009050D01*
X858860Y4104300D01*
X1009680Y4563740D02*
X985860D01*
Y4555800D01*
X993800Y4539930D01*
X1001740Y4531990D01*
X1017610Y4524050D01*
X1033490D01*
X1049360Y4531990D01*
X1057300Y4539930D01*
X1065240Y4555800D01*
Y4587550D01*
X1057300Y4603430D01*
X1049360Y4611370D01*
X1033490Y4619300D01*
X1017610D01*
X1001740Y4611370D01*
X993800Y4603430D01*
X985860Y4587550D01*
X914430Y4524050D02*
X898550Y4531990D01*
X882680Y4547870D01*
X874740Y4571680D01*
Y4595490D01*
X882680Y4611370D01*
X898550Y4619300D01*
X914430D01*
X930300Y4611370D01*
X938240Y4595490D01*
X930300Y4579620D01*
X914430Y4571680D01*
X898550D01*
X882680Y4579620D01*
X874740Y4595490D01*
X1109680Y1768740D02*
X1085860D01*
Y1760800D01*
X1093800Y1744930D01*
X1101740Y1736990D01*
X1117610Y1729050D01*
X1133490D01*
X1149360Y1736990D01*
X1157300Y1744930D01*
X1165240Y1760800D01*
Y1792550D01*
X1157300Y1808430D01*
X1149360Y1816370D01*
X1133490Y1824300D01*
X1117610D01*
X1101740Y1816370D01*
X1093800Y1808430D01*
X1085860Y1792550D01*
X1038240Y1729050D02*
Y1824300D01*
X958860Y1729050D01*
Y1824300D01*
X911240Y1729050D02*
Y1824300D01*
X863610D01*
X847740Y1816370D01*
X839800Y1808430D01*
X831860Y1792550D01*
Y1760800D01*
X839800Y1744930D01*
X847740Y1736990D01*
X863610Y1729050D01*
X911240D01*
X1129680Y3288740D02*
X1105860D01*
Y3280800D01*
X1113800Y3264930D01*
X1121740Y3256990D01*
X1137610Y3249050D01*
X1153490D01*
X1169360Y3256990D01*
X1177300Y3264930D01*
X1185240Y3280800D01*
Y3312550D01*
X1177300Y3328430D01*
X1169360Y3336370D01*
X1153490Y3344300D01*
X1137610D01*
X1121740Y3336370D01*
X1113800Y3328430D01*
X1105860Y3312550D01*
X1058240Y3249050D02*
Y3344300D01*
X978860Y3249050D01*
Y3344300D01*
X931240Y3249050D02*
Y3344300D01*
X883610D01*
X867740Y3336370D01*
X859800Y3328430D01*
X851860Y3312550D01*
Y3280800D01*
X859800Y3264930D01*
X867740Y3256990D01*
X883610Y3249050D01*
X931240D01*
X1139680Y4308740D02*
X1115860D01*
Y4300800D01*
X1123800Y4284930D01*
X1131740Y4276990D01*
X1147610Y4269050D01*
X1163490D01*
X1179360Y4276990D01*
X1187300Y4284930D01*
X1195240Y4300800D01*
Y4332550D01*
X1187300Y4348430D01*
X1179360Y4356370D01*
X1163490Y4364300D01*
X1147610D01*
X1131740Y4356370D01*
X1123800Y4348430D01*
X1115860Y4332550D01*
X1068240Y4269050D02*
Y4364300D01*
X988860Y4269050D01*
Y4364300D01*
X941240Y4269050D02*
Y4364300D01*
X893610D01*
X877740Y4356370D01*
X869800Y4348430D01*
X861860Y4332550D01*
Y4300800D01*
X869800Y4284930D01*
X877740Y4276990D01*
X893610Y4269050D01*
X941240D01*
X1297300Y2926990D02*
X1281430Y2919050D01*
X1265550D01*
X1249680Y2926990D01*
X1241740Y2942870D01*
X1249680Y2958740D01*
X1265550Y2966680D01*
X1281430D01*
X1265550D02*
X1249680Y2974620D01*
X1241740Y2990490D01*
X1249680Y3006370D01*
X1265550Y3014300D01*
X1281430D01*
X1297300Y3006370D01*
X1170300Y2919050D02*
X1162360Y2926990D01*
X1170300Y2934930D01*
X1178240Y2926990D01*
X1170300Y2919050D01*
X1043300Y2926990D02*
X1027430Y2919050D01*
X1011550D01*
X995680Y2926990D01*
X987740Y2942870D01*
X995680Y2958740D01*
X1011550Y2966680D01*
X1027430D01*
X1011550D02*
X995680Y2974620D01*
X987740Y2990490D01*
X995680Y3006370D01*
X1011550Y3014300D01*
X1027430D01*
X1043300Y3006370D01*
X924240Y3014300D02*
X884550Y2919050D01*
X844860Y3014300D01*
X1655240Y5489050D02*
Y5584300D01*
X1599680D01*
X1583800Y5576370D01*
X1575860Y5560490D01*
X1583800Y5544620D01*
X1599680Y5536680D01*
X1655240D01*
X1599680D02*
X1575860Y5489050D01*
X1528240D02*
X1464740Y5552550D01*
Y5489050D02*
X1528240Y5552550D01*
X1401240Y5489050D02*
Y5584300D01*
X1353610D01*
X1337740Y5576370D01*
X1329800Y5568430D01*
X1321860Y5552550D01*
Y5520800D01*
X1329800Y5504930D01*
X1337740Y5496990D01*
X1353610Y5489050D01*
X1401240D01*
X1258360D02*
X1226610D01*
X1242490D02*
Y5584300D01*
X1258360Y5568430D01*
X1147240Y5489050D02*
X1067860Y5584300D01*
X964680Y5528740D02*
X940860D01*
Y5520800D01*
X948800Y5504930D01*
X956740Y5496990D01*
X972610Y5489050D01*
X988490D01*
X1004360Y5496990D01*
X1012300Y5504930D01*
X1020240Y5520800D01*
Y5552550D01*
X1012300Y5568430D01*
X1004360Y5576370D01*
X988490Y5584300D01*
X972610D01*
X956740Y5576370D01*
X948800Y5568430D01*
X940860Y5552550D01*
X877360Y5489050D02*
X845610D01*
X861490D02*
Y5584300D01*
X877360Y5568430D01*
X1680240Y3517870D02*
X1672300Y3501990D01*
X1656430Y3494050D01*
X1624680D01*
X1608800Y3501990D01*
X1600860Y3517870D01*
X1608800Y3533740D01*
X1624680Y3541680D01*
X1656430D01*
X1672300Y3549620D01*
X1680240Y3565490D01*
X1672300Y3581370D01*
X1656430Y3589300D01*
X1624680D01*
X1608800Y3581370D01*
X1600860Y3565490D01*
X1473860Y3509930D02*
X1481800Y3501990D01*
X1497680Y3494050D01*
X1521490D01*
X1537360Y3501990D01*
X1545300Y3509930D01*
X1553240Y3525800D01*
Y3557550D01*
X1545300Y3573430D01*
X1537360Y3581370D01*
X1521490Y3589300D01*
X1497680D01*
X1481800Y3581370D01*
X1473860Y3573430D01*
X1426240Y3589300D02*
Y3494050D01*
X1346860D01*
X1299240D02*
X1219860Y3589300D01*
X1116680Y3533740D02*
X1092860D01*
Y3525800D01*
X1100800Y3509930D01*
X1108740Y3501990D01*
X1124610Y3494050D01*
X1140490D01*
X1156360Y3501990D01*
X1164300Y3509930D01*
X1172240Y3525800D01*
Y3557550D01*
X1164300Y3573430D01*
X1156360Y3581370D01*
X1140490Y3589300D01*
X1124610D01*
X1108740Y3581370D01*
X1100800Y3573430D01*
X1092860Y3557550D01*
X1029360Y3494050D02*
X997610D01*
X1013490D02*
Y3589300D01*
X1029360Y3573430D01*
X918240Y3501990D02*
X902360Y3494050D01*
X878550D01*
X862680Y3501990D01*
X854740Y3517870D01*
Y3525800D01*
X862680Y3541680D01*
X878550Y3549620D01*
X918240D01*
Y3589300D01*
X854740D01*
X1690240Y3787870D02*
X1682300Y3771990D01*
X1666430Y3764050D01*
X1634680D01*
X1618800Y3771990D01*
X1610860Y3787870D01*
X1618800Y3803740D01*
X1634680Y3811680D01*
X1666430D01*
X1682300Y3819620D01*
X1690240Y3835490D01*
X1682300Y3851370D01*
X1666430Y3859300D01*
X1634680D01*
X1618800Y3851370D01*
X1610860Y3835490D01*
X1563240Y3764050D02*
Y3859300D01*
X1515610D01*
X1499740Y3851370D01*
X1491800Y3843430D01*
X1483860Y3827550D01*
Y3795800D01*
X1491800Y3779930D01*
X1499740Y3771990D01*
X1515610Y3764050D01*
X1563240D01*
X1436240D02*
X1396550Y3859300D01*
X1356860Y3764050D01*
X1420360Y3803740D02*
X1372740D01*
X1309240Y3764050D02*
X1229860Y3859300D01*
X1126680Y3803740D02*
X1102860D01*
Y3795800D01*
X1110800Y3779930D01*
X1118740Y3771990D01*
X1134610Y3764050D01*
X1150490D01*
X1166360Y3771990D01*
X1174300Y3779930D01*
X1182240Y3795800D01*
Y3827550D01*
X1174300Y3843430D01*
X1166360Y3851370D01*
X1150490Y3859300D01*
X1134610D01*
X1118740Y3851370D01*
X1110800Y3843430D01*
X1102860Y3827550D01*
X1039360Y3764050D02*
X1007610D01*
X1023490D02*
Y3859300D01*
X1039360Y3843430D01*
X920300Y3771990D02*
X904430Y3764050D01*
X888550D01*
X872680Y3771990D01*
X864740Y3787870D01*
X872680Y3803740D01*
X888550Y3811680D01*
X904430D01*
X888550D02*
X872680Y3819620D01*
X864740Y3835490D01*
X872680Y3851370D01*
X888550Y3859300D01*
X904430D01*
X920300Y3851370D01*
X1650550Y5279050D02*
Y5374300D01*
X1690240D02*
X1610860D01*
X1563240Y5279050D02*
X1499740Y5342550D01*
Y5279050D02*
X1563240Y5342550D01*
X1436240Y5279050D02*
Y5374300D01*
X1388610D01*
X1372740Y5366370D01*
X1364800Y5358430D01*
X1356860Y5342550D01*
Y5310800D01*
X1364800Y5294930D01*
X1372740Y5286990D01*
X1388610Y5279050D01*
X1436240D01*
X1293360D02*
X1261610D01*
X1277490D02*
Y5374300D01*
X1293360Y5358430D01*
X1182240Y5279050D02*
X1102860Y5374300D01*
X999680Y5318740D02*
X975860D01*
Y5310800D01*
X983800Y5294930D01*
X991740Y5286990D01*
X1007610Y5279050D01*
X1023490D01*
X1039360Y5286990D01*
X1047300Y5294930D01*
X1055240Y5310800D01*
Y5342550D01*
X1047300Y5358430D01*
X1039360Y5366370D01*
X1023490Y5374300D01*
X1007610D01*
X991740Y5366370D01*
X983800Y5358430D01*
X975860Y5342550D01*
X920300Y5286990D02*
X904430Y5279050D01*
X888550D01*
X872680Y5286990D01*
X864740Y5302870D01*
X872680Y5318740D01*
X888550Y5326680D01*
X904430D01*
X888550D02*
X872680Y5334620D01*
X864740Y5350490D01*
X872680Y5366370D01*
X888550Y5374300D01*
X904430D01*
X920300Y5366370D01*
X1740550Y2714050D02*
Y2809300D01*
X1780240D02*
X1700860D01*
X1653240Y2714050D02*
X1589740Y2777550D01*
Y2714050D02*
X1653240Y2777550D01*
X1526240Y2714050D02*
Y2809300D01*
X1478610D01*
X1462740Y2801370D01*
X1454800Y2793430D01*
X1446860Y2777550D01*
Y2745800D01*
X1454800Y2729930D01*
X1462740Y2721990D01*
X1478610Y2714050D01*
X1526240D01*
X1335740D02*
X1399240D01*
X1343680Y2769620D01*
X1335740Y2785490D01*
X1343680Y2801370D01*
X1359550Y2809300D01*
X1383360D01*
X1399240Y2801370D01*
X1272240Y2714050D02*
X1192860Y2809300D01*
X1089680Y2753740D02*
X1065860D01*
Y2745800D01*
X1073800Y2729930D01*
X1081740Y2721990D01*
X1097610Y2714050D01*
X1113490D01*
X1129360Y2721990D01*
X1137300Y2729930D01*
X1145240Y2745800D01*
Y2777550D01*
X1137300Y2793430D01*
X1129360Y2801370D01*
X1113490Y2809300D01*
X1097610D01*
X1081740Y2801370D01*
X1073800Y2793430D01*
X1065860Y2777550D01*
X978550Y2714050D02*
Y2809300D01*
X1018240Y2745800D01*
X954740D01*
X883300Y2721990D02*
X867430Y2714050D01*
X851550D01*
X835680Y2721990D01*
X827740Y2737870D01*
X835680Y2753740D01*
X851550Y2761680D01*
X867430D01*
X851550D02*
X835680Y2769620D01*
X827740Y2785490D01*
X835680Y2801370D01*
X851550Y2809300D01*
X867430D01*
X883300Y2801370D01*
X1795240Y2544050D02*
Y2639300D01*
X1739680D01*
X1723800Y2631370D01*
X1715860Y2615490D01*
X1723800Y2599620D01*
X1739680Y2591680D01*
X1795240D01*
X1739680D02*
X1715860Y2544050D01*
X1668240D02*
X1604740Y2607550D01*
Y2544050D02*
X1668240Y2607550D01*
X1541240Y2544050D02*
Y2639300D01*
X1493610D01*
X1477740Y2631370D01*
X1469800Y2623430D01*
X1461860Y2607550D01*
Y2575800D01*
X1469800Y2559930D01*
X1477740Y2551990D01*
X1493610Y2544050D01*
X1541240D01*
X1350740D02*
X1414240D01*
X1358680Y2599620D01*
X1350740Y2615490D01*
X1358680Y2631370D01*
X1374550Y2639300D01*
X1398360D01*
X1414240Y2631370D01*
X1287240Y2544050D02*
X1207860Y2639300D01*
X1104680Y2583740D02*
X1080860D01*
Y2575800D01*
X1088800Y2559930D01*
X1096740Y2551990D01*
X1112610Y2544050D01*
X1128490D01*
X1144360Y2551990D01*
X1152300Y2559930D01*
X1160240Y2575800D01*
Y2607550D01*
X1152300Y2623430D01*
X1144360Y2631370D01*
X1128490Y2639300D01*
X1112610D01*
X1096740Y2631370D01*
X1088800Y2623430D01*
X1080860Y2607550D01*
X993550Y2544050D02*
Y2639300D01*
X1033240Y2575800D01*
X969740D01*
X866550Y2544050D02*
Y2639300D01*
X906240Y2575800D01*
X842740D01*
X1815240Y5014050D02*
X1775550Y5109300D01*
X1735860Y5014050D01*
X1799360Y5053740D02*
X1751740D01*
X1688240Y5014050D02*
Y5109300D01*
X1640610D01*
X1624740Y5101370D01*
X1616800Y5093430D01*
X1608860Y5077550D01*
Y5045800D01*
X1616800Y5029930D01*
X1624740Y5021990D01*
X1640610Y5014050D01*
X1688240D01*
X1545360D02*
X1513610D01*
X1529490D02*
Y5109300D01*
X1545360Y5093430D01*
X1434240Y5045800D02*
X1370740D01*
X1267550Y5014050D02*
Y5109300D01*
X1307240Y5045800D01*
X1243740D01*
X1180240Y5014050D02*
X1100860Y5109300D01*
X997680Y5053740D02*
X973860D01*
Y5045800D01*
X981800Y5029930D01*
X989740Y5021990D01*
X1005610Y5014050D01*
X1021490D01*
X1037360Y5021990D01*
X1045300Y5029930D01*
X1053240Y5045800D01*
Y5077550D01*
X1045300Y5093430D01*
X1037360Y5101370D01*
X1021490Y5109300D01*
X1005610D01*
X989740Y5101370D01*
X981800Y5093430D01*
X973860Y5077550D01*
X926240Y5021990D02*
X910360Y5014050D01*
X886550D01*
X870680Y5021990D01*
X862740Y5037870D01*
Y5045800D01*
X870680Y5061680D01*
X886550Y5069620D01*
X926240D01*
Y5109300D01*
X862740D01*
X1835550Y7004050D02*
Y7099300D01*
X1875240D02*
X1795860D01*
X1748240Y7004050D02*
Y7099300D01*
X1668860D01*
X1684740Y7051680D02*
X1748240D01*
Y7004050D02*
X1668860D01*
X1621240Y7027870D02*
X1613300Y7011990D01*
X1597430Y7004050D01*
X1565680D01*
X1549800Y7011990D01*
X1541860Y7027870D01*
X1549800Y7043740D01*
X1565680Y7051680D01*
X1597430D01*
X1613300Y7059620D01*
X1621240Y7075490D01*
X1613300Y7091370D01*
X1597430Y7099300D01*
X1565680D01*
X1549800Y7091370D01*
X1541860Y7075490D01*
X1454550Y7004050D02*
Y7099300D01*
X1494240D02*
X1414860D01*
X1184680Y7051680D02*
X1168800Y7043740D01*
X1160860Y7027870D01*
X1168800Y7011990D01*
X1184680Y7004050D01*
X1240240D01*
Y7099300D01*
X1184680D01*
X1168800Y7091370D01*
X1160860Y7075490D01*
X1168800Y7059620D01*
X1184680Y7051680D01*
X1240240D01*
X1113240Y7027870D02*
X1105300Y7011990D01*
X1089430Y7004050D01*
X1073550D01*
X1057680Y7011990D01*
X1049740Y7027870D01*
Y7043740D01*
X1057680Y7059620D01*
X1073550Y7067550D01*
X1089430D01*
X1105300Y7059620D01*
X1113240Y7043740D01*
Y7027870D01*
X986240Y7059620D02*
X970360Y7067550D01*
X946550D01*
X930680Y7059620D01*
X922740Y7043740D01*
Y7019930D01*
X930680Y7011990D01*
X946550Y7004050D01*
X962430D01*
X978300Y7011990D01*
X986240Y7019930D01*
Y7027870D01*
X978300Y7035800D01*
X962430Y7043740D01*
X946550D01*
X930680Y7035800D01*
X922740Y7027870D01*
Y7019930D02*
Y7004050D01*
X859240D02*
Y7067550D01*
Y7043740D02*
X851300Y7059620D01*
X835430Y7067550D01*
X819550D01*
X803680Y7059620D01*
X668740Y7043740D02*
X676680Y7059620D01*
X692550Y7067550D01*
X708430D01*
X724300Y7059620D01*
X732240Y7043740D01*
Y7027870D01*
X724300Y7011990D01*
X708430Y7004050D01*
X692550D01*
X676680Y7011990D01*
X668740Y7027870D01*
Y7004050D02*
Y7099300D01*
X1836740Y6799050D02*
X1900240D01*
X1844680Y6854620D01*
X1836740Y6870490D01*
X1844680Y6886370D01*
X1860550Y6894300D01*
X1884360D01*
X1900240Y6886370D01*
X1765300Y6806990D02*
X1749430Y6799050D01*
X1733550D01*
X1717680Y6806990D01*
X1709740Y6822870D01*
Y6870490D01*
X1717680Y6886370D01*
X1733550Y6894300D01*
X1749430D01*
X1765300Y6886370D01*
X1773240Y6870490D01*
Y6822870D01*
X1765300Y6806990D01*
X1717680Y6886370D01*
X1582740Y6799050D02*
X1646240D01*
X1590680Y6854620D01*
X1582740Y6870490D01*
X1590680Y6886370D01*
X1606550Y6894300D01*
X1630360D01*
X1646240Y6886370D01*
X1519240Y6822870D02*
X1511300Y6838740D01*
X1495430Y6846680D01*
X1479550D01*
X1463680Y6838740D01*
X1455740Y6822870D01*
X1463680Y6806990D01*
X1479550Y6799050D01*
X1495430D01*
X1511300Y6806990D01*
X1519240Y6822870D01*
Y6846680D01*
X1511300Y6870490D01*
X1495430Y6886370D01*
X1479550Y6894300D01*
X1392240Y6799050D02*
X1312860Y6894300D01*
X1257300Y6806990D02*
X1241430Y6799050D01*
X1225550D01*
X1209680Y6806990D01*
X1201740Y6822870D01*
Y6870490D01*
X1209680Y6886370D01*
X1225550Y6894300D01*
X1241430D01*
X1257300Y6886370D01*
X1265240Y6870490D01*
Y6822870D01*
X1257300Y6806990D01*
X1209680Y6886370D01*
X1130300Y6806990D02*
X1114430Y6799050D01*
X1098550D01*
X1082680Y6806990D01*
X1074740Y6822870D01*
X1082680Y6838740D01*
X1098550Y6846680D01*
X1114430D01*
X1098550D02*
X1082680Y6854620D01*
X1074740Y6870490D01*
X1082680Y6886370D01*
X1098550Y6894300D01*
X1114430D01*
X1130300Y6886370D01*
X1011240Y6799050D02*
X931860Y6894300D01*
X820740Y6799050D02*
X884240D01*
X828680Y6854620D01*
X820740Y6870490D01*
X828680Y6886370D01*
X844550Y6894300D01*
X868360D01*
X884240Y6886370D01*
X733430Y6799050D02*
X717550Y6806990D01*
X701680Y6822870D01*
X693740Y6846680D01*
Y6870490D01*
X701680Y6886370D01*
X717550Y6894300D01*
X733430D01*
X749300Y6886370D01*
X757240Y6870490D01*
X749300Y6854620D01*
X733430Y6846680D01*
X717550D01*
X701680Y6854620D01*
X693740Y6870490D01*
X1825860Y7214930D02*
X1833800Y7206990D01*
X1849680Y7199050D01*
X1873490D01*
X1889360Y7206990D01*
X1897300Y7214930D01*
X1905240Y7230800D01*
Y7262550D01*
X1897300Y7278430D01*
X1889360Y7286370D01*
X1873490Y7294300D01*
X1849680D01*
X1833800Y7286370D01*
X1825860Y7278430D01*
X1778240Y7254620D02*
X1762360Y7262550D01*
X1738550D01*
X1722680Y7254620D01*
X1714740Y7238740D01*
Y7214930D01*
X1722680Y7206990D01*
X1738550Y7199050D01*
X1754430D01*
X1770300Y7206990D01*
X1778240Y7214930D01*
Y7222870D01*
X1770300Y7230800D01*
X1754430Y7238740D01*
X1738550D01*
X1722680Y7230800D01*
X1714740Y7222870D01*
Y7214930D02*
Y7199050D01*
X1651240D02*
Y7262550D01*
Y7238740D02*
X1643300Y7254620D01*
X1627430Y7262550D01*
X1611550D01*
X1595680Y7254620D01*
X1587740Y7238740D01*
Y7199050D01*
X1524240Y7222870D02*
X1516300Y7206990D01*
X1500430Y7199050D01*
X1468680D01*
X1452800Y7206990D01*
X1444860Y7222870D01*
X1452800Y7238740D01*
X1468680Y7246680D01*
X1500430D01*
X1516300Y7254620D01*
X1524240Y7270490D01*
X1516300Y7286370D01*
X1500430Y7294300D01*
X1468680D01*
X1452800Y7286370D01*
X1444860Y7270490D01*
X1397240Y7254620D02*
X1381360Y7262550D01*
X1357550D01*
X1341680Y7254620D01*
X1333740Y7238740D01*
Y7214930D01*
X1341680Y7206990D01*
X1357550Y7199050D01*
X1373430D01*
X1389300Y7206990D01*
X1397240Y7214930D01*
Y7222870D01*
X1389300Y7230800D01*
X1373430Y7238740D01*
X1357550D01*
X1341680Y7230800D01*
X1333740Y7222870D01*
Y7214930D02*
Y7199050D01*
X1257010Y7262550D02*
X1219970D01*
X1238490Y7278430D02*
Y7206990D01*
X1230550Y7199050D01*
X1222610D01*
X1214680Y7206990D01*
X952740Y7199050D02*
X1016240D01*
X960680Y7254620D01*
X952740Y7270490D01*
X960680Y7286370D01*
X976550Y7294300D01*
X1000360D01*
X1016240Y7286370D01*
X881300Y7206990D02*
X865430Y7199050D01*
X849550D01*
X833680Y7206990D01*
X825740Y7222870D01*
Y7270490D01*
X833680Y7286370D01*
X849550Y7294300D01*
X865430D01*
X881300Y7286370D01*
X889240Y7270490D01*
Y7222870D01*
X881300Y7206990D01*
X833680Y7286370D01*
X698740Y7199050D02*
X762240D01*
X706680Y7254620D01*
X698740Y7270490D01*
X706680Y7286370D01*
X722550Y7294300D01*
X746360D01*
X762240Y7286370D01*
X635240Y7222870D02*
X627300Y7238740D01*
X611430Y7246680D01*
X595550D01*
X579680Y7238740D01*
X571740Y7222870D01*
X579680Y7206990D01*
X595550Y7199050D01*
X611430D01*
X627300Y7206990D01*
X635240Y7222870D01*
Y7246680D01*
X627300Y7270490D01*
X611430Y7286370D01*
X595550Y7294300D01*
X3405240Y7384680D02*
X3468740D01*
X3436990Y7416430D02*
Y7352930D01*
X3532240Y7408490D02*
X3548120Y7416430D01*
X3571930D01*
X3587800Y7408490D01*
X3595740Y7392610D01*
Y7384680D01*
X3587800Y7368800D01*
X3571930Y7360860D01*
X3532240D01*
Y7321180D01*
X3595740D01*
X3659240D02*
X3698930Y7416430D01*
X3738620Y7321180D01*
X3895240Y7399680D02*
X3958740D01*
X3926990Y7431430D02*
Y7367930D01*
X4022240Y7423490D02*
X4038120Y7431430D01*
X4061930D01*
X4077800Y7423490D01*
X4085740Y7407610D01*
Y7399680D01*
X4077800Y7383800D01*
X4061930Y7375860D01*
X4022240D01*
Y7336180D01*
X4085740D01*
X4149240D02*
X4188930Y7431430D01*
X4228620Y7336180D01*
X3998490Y3177300D02*
X4006430Y3161430D01*
Y3145550D01*
X3998490Y3129680D01*
X3982610Y3121740D01*
X3966740Y3129680D01*
X3958800Y3145550D01*
Y3161430D01*
Y3145550D02*
X3950860Y3129680D01*
X3934990Y3121740D01*
X3919110Y3129680D01*
X3911180Y3145550D01*
Y3161430D01*
X3919110Y3177300D01*
X3911180Y3058240D02*
X4006430Y3018550D01*
X3911180Y2978860D01*
X3998490Y2923300D02*
X4006430Y2907430D01*
Y2891550D01*
X3998490Y2875680D01*
X3982610Y2867740D01*
X3966740Y2875680D01*
X3958800Y2891550D01*
Y2907430D01*
Y2891550D02*
X3950860Y2875680D01*
X3934990Y2867740D01*
X3919110Y2875680D01*
X3911180Y2891550D01*
Y2907430D01*
X3919110Y2923300D01*
X3999680Y2523740D02*
X3975860D01*
Y2515800D01*
X3983800Y2499930D01*
X3991740Y2491990D01*
X4007610Y2484050D01*
X4023490D01*
X4039360Y2491990D01*
X4047300Y2499930D01*
X4055240Y2515800D01*
Y2547550D01*
X4047300Y2563430D01*
X4039360Y2571370D01*
X4023490Y2579300D01*
X4007610D01*
X3991740Y2571370D01*
X3983800Y2563430D01*
X3975860Y2547550D01*
X3888550Y2484050D02*
Y2579300D01*
X3928240Y2515800D01*
X3864740D01*
X3801240Y2507870D02*
X3793300Y2523740D01*
X3777430Y2531680D01*
X3761550D01*
X3745680Y2523740D01*
X3737740Y2507870D01*
X3745680Y2491990D01*
X3761550Y2484050D01*
X3777430D01*
X3793300Y2491990D01*
X3801240Y2507870D01*
Y2531680D01*
X3793300Y2555490D01*
X3777430Y2571370D01*
X3761550Y2579300D01*
X4004680Y2023740D02*
X3980860D01*
Y2015800D01*
X3988800Y1999930D01*
X3996740Y1991990D01*
X4012610Y1984050D01*
X4028490D01*
X4044360Y1991990D01*
X4052300Y1999930D01*
X4060240Y2015800D01*
Y2047550D01*
X4052300Y2063430D01*
X4044360Y2071370D01*
X4028490Y2079300D01*
X4012610D01*
X3996740Y2071370D01*
X3988800Y2063430D01*
X3980860Y2047550D01*
X3893550Y1984050D02*
Y2079300D01*
X3933240Y2015800D01*
X3869740D01*
X3790360Y1984050D02*
X3758610D01*
X3774490D02*
Y2079300D01*
X3790360Y2063430D01*
X4004680Y2268740D02*
X3980860D01*
Y2260800D01*
X3988800Y2244930D01*
X3996740Y2236990D01*
X4012610Y2229050D01*
X4028490D01*
X4044360Y2236990D01*
X4052300Y2244930D01*
X4060240Y2260800D01*
Y2292550D01*
X4052300Y2308430D01*
X4044360Y2316370D01*
X4028490Y2324300D01*
X4012610D01*
X3996740Y2316370D01*
X3988800Y2308430D01*
X3980860Y2292550D01*
X3893550Y2229050D02*
Y2324300D01*
X3933240Y2260800D01*
X3869740D01*
X3742740Y2229050D02*
X3806240D01*
X3750680Y2284620D01*
X3742740Y2300490D01*
X3750680Y2316370D01*
X3766550Y2324300D01*
X3790360D01*
X3806240Y2316370D01*
X4009680Y1258740D02*
X3985860D01*
Y1250800D01*
X3993800Y1234930D01*
X4001740Y1226990D01*
X4017610Y1219050D01*
X4033490D01*
X4049360Y1226990D01*
X4057300Y1234930D01*
X4065240Y1250800D01*
Y1282550D01*
X4057300Y1298430D01*
X4049360Y1306370D01*
X4033490Y1314300D01*
X4017610D01*
X4001740Y1306370D01*
X3993800Y1298430D01*
X3985860Y1282550D01*
X3922360Y1219050D02*
X3890610D01*
X3906490D02*
Y1314300D01*
X3922360Y1298430D01*
X3795360Y1219050D02*
X3763610D01*
X3779490D02*
Y1314300D01*
X3795360Y1298430D01*
X4009680Y1508740D02*
X3985860D01*
Y1500800D01*
X3993800Y1484930D01*
X4001740Y1476990D01*
X4017610Y1469050D01*
X4033490D01*
X4049360Y1476990D01*
X4057300Y1484930D01*
X4065240Y1500800D01*
Y1532550D01*
X4057300Y1548430D01*
X4049360Y1556370D01*
X4033490Y1564300D01*
X4017610D01*
X4001740Y1556370D01*
X3993800Y1548430D01*
X3985860Y1532550D01*
X3930300Y1476990D02*
X3914430Y1469050D01*
X3898550D01*
X3882680Y1476990D01*
X3874740Y1492870D01*
X3882680Y1508740D01*
X3898550Y1516680D01*
X3914430D01*
X3898550D02*
X3882680Y1524620D01*
X3874740Y1540490D01*
X3882680Y1556370D01*
X3898550Y1564300D01*
X3914430D01*
X3930300Y1556370D01*
X3787430Y1469050D02*
X3771550Y1476990D01*
X3755680Y1492870D01*
X3747740Y1516680D01*
Y1540490D01*
X3755680Y1556370D01*
X3771550Y1564300D01*
X3787430D01*
X3803300Y1556370D01*
X3811240Y1540490D01*
X3803300Y1524620D01*
X3787430Y1516680D01*
X3771550D01*
X3755680Y1524620D01*
X3747740Y1540490D01*
X4009680Y1763740D02*
X3985860D01*
Y1755800D01*
X3993800Y1739930D01*
X4001740Y1731990D01*
X4017610Y1724050D01*
X4033490D01*
X4049360Y1731990D01*
X4057300Y1739930D01*
X4065240Y1755800D01*
Y1787550D01*
X4057300Y1803430D01*
X4049360Y1811370D01*
X4033490Y1819300D01*
X4017610D01*
X4001740Y1811370D01*
X3993800Y1803430D01*
X3985860Y1787550D01*
X3898550Y1724050D02*
Y1819300D01*
X3938240Y1755800D01*
X3874740D01*
X3803300Y1731990D02*
X3787430Y1724050D01*
X3771550D01*
X3755680Y1731990D01*
X3747740Y1747870D01*
Y1795490D01*
X3755680Y1811370D01*
X3771550Y1819300D01*
X3787430D01*
X3803300Y1811370D01*
X3811240Y1795490D01*
Y1747870D01*
X3803300Y1731990D01*
X3755680Y1811370D01*
X4014680Y748740D02*
X3990860D01*
Y740800D01*
X3998800Y724930D01*
X4006740Y716990D01*
X4022610Y709050D01*
X4038490D01*
X4054360Y716990D01*
X4062300Y724930D01*
X4070240Y740800D01*
Y772550D01*
X4062300Y788430D01*
X4054360Y796370D01*
X4038490Y804300D01*
X4022610D01*
X4006740Y796370D01*
X3998800Y788430D01*
X3990860Y772550D01*
X3927360Y709050D02*
X3895610D01*
X3911490D02*
Y804300D01*
X3927360Y788430D01*
X3776550Y709050D02*
Y804300D01*
X3816240Y740800D01*
X3752740D01*
X4014680Y998740D02*
X3990860D01*
Y990800D01*
X3998800Y974930D01*
X4006740Y966990D01*
X4022610Y959050D01*
X4038490D01*
X4054360Y966990D01*
X4062300Y974930D01*
X4070240Y990800D01*
Y1022550D01*
X4062300Y1038430D01*
X4054360Y1046370D01*
X4038490Y1054300D01*
X4022610D01*
X4006740Y1046370D01*
X3998800Y1038430D01*
X3990860Y1022550D01*
X3927360Y959050D02*
X3895610D01*
X3911490D02*
Y1054300D01*
X3927360Y1038430D01*
X3752740Y959050D02*
X3816240D01*
X3760680Y1014620D01*
X3752740Y1030490D01*
X3760680Y1046370D01*
X3776550Y1054300D01*
X3800360D01*
X3816240Y1046370D01*
X0Y0D02*
M02*
