G04 DesignSpark PCB Gerber Version 13.0 Build *
%FSLAX35Y35*%
%MOMM*%
%ADD10C,0.12700*%
%ADD103C,2.54000*%
X0Y0D02*
D02*
D10*
X887240Y796050D02*
Y891300D01*
X966620D01*
X950740Y843680D02*
X887240D01*
X954240Y1921050D02*
Y2016300D01*
X1001870D01*
X1017740Y2008370D01*
X1025680Y2000430D01*
X1033620Y1984550D01*
Y1952800D01*
X1025680Y1936930D01*
X1017740Y1928990D01*
X1001870Y1921050D01*
X954240D01*
Y2175050D02*
Y2270300D01*
X1001870D01*
X1017740Y2262370D01*
X1025680Y2254430D01*
X1033620Y2238550D01*
Y2206800D01*
X1025680Y2190930D01*
X1017740Y2182990D01*
X1001870Y2175050D01*
X954240D01*
Y2429050D02*
Y2524300D01*
X1001870D01*
X1017740Y2516370D01*
X1025680Y2508430D01*
X1033620Y2492550D01*
Y2460800D01*
X1025680Y2444930D01*
X1017740Y2436990D01*
X1001870Y2429050D01*
X954240D01*
Y2683050D02*
Y2778300D01*
X1001870D01*
X1017740Y2770370D01*
X1025680Y2762430D01*
X1033620Y2746550D01*
Y2714800D01*
X1025680Y2698930D01*
X1017740Y2690990D01*
X1001870Y2683050D01*
X954240D01*
Y2937050D02*
Y3032300D01*
X1001870D01*
X1017740Y3024370D01*
X1025680Y3016430D01*
X1033620Y3000550D01*
Y2968800D01*
X1025680Y2952930D01*
X1017740Y2944990D01*
X1001870Y2937050D01*
X954240D01*
Y3191050D02*
Y3286300D01*
X1001870D01*
X1017740Y3278370D01*
X1025680Y3270430D01*
X1033620Y3254550D01*
Y3222800D01*
X1025680Y3206930D01*
X1017740Y3198990D01*
X1001870Y3191050D01*
X954240D01*
Y3445050D02*
Y3540300D01*
X1001870D01*
X1017740Y3532370D01*
X1025680Y3524430D01*
X1033620Y3508550D01*
Y3476800D01*
X1025680Y3460930D01*
X1017740Y3452990D01*
X1001870Y3445050D01*
X954240D01*
Y3699050D02*
Y3794300D01*
X1001870D01*
X1017740Y3786370D01*
X1025680Y3778430D01*
X1033620Y3762550D01*
Y3730800D01*
X1025680Y3714930D01*
X1017740Y3706990D01*
X1001870Y3699050D01*
X954240D01*
Y3953050D02*
Y4048300D01*
X1001870D01*
X1017740Y4040370D01*
X1025680Y4032430D01*
X1033620Y4016550D01*
Y3984800D01*
X1025680Y3968930D01*
X1017740Y3960990D01*
X1001870Y3953050D01*
X954240D01*
Y4207050D02*
Y4302300D01*
X1001870D01*
X1017740Y4294370D01*
X1025680Y4286430D01*
X1033620Y4270550D01*
Y4238800D01*
X1025680Y4222930D01*
X1017740Y4214990D01*
X1001870Y4207050D01*
X954240D01*
Y4461050D02*
Y4556300D01*
X1001870D01*
X1017740Y4548370D01*
X1025680Y4540430D01*
X1033620Y4524550D01*
Y4492800D01*
X1025680Y4476930D01*
X1017740Y4468990D01*
X1001870Y4461050D01*
X954240D01*
Y4715050D02*
Y4810300D01*
X1001870D01*
X1017740Y4802370D01*
X1025680Y4794430D01*
X1033620Y4778550D01*
Y4746800D01*
X1025680Y4730930D01*
X1017740Y4722990D01*
X1001870Y4715050D01*
X954240D01*
Y4969050D02*
Y5064300D01*
X1001870D01*
X1017740Y5056370D01*
X1025680Y5048430D01*
X1033620Y5032550D01*
Y5000800D01*
X1025680Y4984930D01*
X1017740Y4976990D01*
X1001870Y4969050D01*
X954240D01*
Y5223050D02*
Y5318300D01*
X1001870D01*
X1017740Y5310370D01*
X1025680Y5302430D01*
X1033620Y5286550D01*
Y5254800D01*
X1025680Y5238930D01*
X1017740Y5230990D01*
X1001870Y5223050D01*
X954240D01*
Y5477050D02*
Y5572300D01*
X1001870D01*
X1017740Y5564370D01*
X1025680Y5556430D01*
X1033620Y5540550D01*
Y5508800D01*
X1025680Y5492930D01*
X1017740Y5484990D01*
X1001870Y5477050D01*
X954240D01*
Y5731050D02*
Y5826300D01*
X1001870D01*
X1017740Y5818370D01*
X1025680Y5810430D01*
X1033620Y5794550D01*
Y5762800D01*
X1025680Y5746930D01*
X1017740Y5738990D01*
X1001870Y5731050D01*
X954240D01*
X1144800Y3118680D02*
X1160680Y3110740D01*
X1168620Y3094870D01*
X1160680Y3078990D01*
X1144800Y3071050D01*
X1089240D01*
Y3166300D01*
X1144800D01*
X1160680Y3158370D01*
X1168620Y3142490D01*
X1160680Y3126620D01*
X1144800Y3118680D01*
X1089240D01*
X1139240Y1176050D02*
Y1271300D01*
X1218620D01*
X1202740Y1223680D02*
X1139240D01*
Y1176050D02*
X1218620D01*
X1274800Y2533680D02*
X1290680Y2525740D01*
X1298620Y2509870D01*
X1290680Y2493990D01*
X1274800Y2486050D01*
X1219240D01*
Y2581300D01*
X1274800D01*
X1290680Y2573370D01*
X1298620Y2557490D01*
X1290680Y2541620D01*
X1274800Y2533680D01*
X1219240D01*
X1224240Y1496050D02*
X1263930Y1591300D01*
X1303620Y1496050D01*
X1240120Y1535740D02*
X1287740D01*
X1369800Y2688680D02*
X1385680Y2680740D01*
X1393620Y2664870D01*
X1385680Y2648990D01*
X1369800Y2641050D01*
X1314240D01*
Y2736300D01*
X1369800D01*
X1385680Y2728370D01*
X1393620Y2712490D01*
X1385680Y2696620D01*
X1369800Y2688680D01*
X1314240D01*
X1439800Y3048680D02*
X1455680Y3040740D01*
X1463620Y3024870D01*
X1455680Y3008990D01*
X1439800Y3001050D01*
X1384240D01*
Y3096300D01*
X1439800D01*
X1455680Y3088370D01*
X1463620Y3072490D01*
X1455680Y3056620D01*
X1439800Y3048680D01*
X1384240D01*
X1409240Y3221050D02*
X1448930Y3316300D01*
X1488620Y3221050D01*
X1425120Y3260740D02*
X1472740D01*
X1514800Y5088680D02*
X1530680Y5080740D01*
X1538620Y5064870D01*
X1530680Y5048990D01*
X1514800Y5041050D01*
X1459240D01*
Y5136300D01*
X1514800D01*
X1530680Y5128370D01*
X1538620Y5112490D01*
X1530680Y5096620D01*
X1514800Y5088680D01*
X1459240D01*
X1464240Y6246050D02*
X1503930Y6341300D01*
X1543620Y6246050D01*
X1480120Y6285740D02*
X1527740D01*
X1499240Y1176050D02*
Y1271300D01*
X1578620D01*
X1562740Y1223680D02*
X1499240D01*
Y1176050D02*
X1578620D01*
X1593620Y1786930D02*
X1585680Y1778990D01*
X1569800Y1771050D01*
X1545990D01*
X1530120Y1778990D01*
X1522180Y1786930D01*
X1514240Y1802800D01*
Y1834550D01*
X1522180Y1850430D01*
X1530120Y1858370D01*
X1545990Y1866300D01*
X1569800D01*
X1585680Y1858370D01*
X1593620Y1850430D01*
Y1986930D02*
X1585680Y1978990D01*
X1569800Y1971050D01*
X1545990D01*
X1530120Y1978990D01*
X1522180Y1986930D01*
X1514240Y2002800D01*
Y2034550D01*
X1522180Y2050430D01*
X1530120Y2058370D01*
X1545990Y2066300D01*
X1569800D01*
X1585680Y2058370D01*
X1593620Y2050430D01*
Y2186930D02*
X1585680Y2178990D01*
X1569800Y2171050D01*
X1545990D01*
X1530120Y2178990D01*
X1522180Y2186930D01*
X1514240Y2202800D01*
Y2234550D01*
X1522180Y2250430D01*
X1530120Y2258370D01*
X1545990Y2266300D01*
X1569800D01*
X1585680Y2258370D01*
X1593620Y2250430D01*
Y2386930D02*
X1585680Y2378990D01*
X1569800Y2371050D01*
X1545990D01*
X1530120Y2378990D01*
X1522180Y2386930D01*
X1514240Y2402800D01*
Y2434550D01*
X1522180Y2450430D01*
X1530120Y2458370D01*
X1545990Y2466300D01*
X1569800D01*
X1585680Y2458370D01*
X1593620Y2450430D01*
X1574800Y2638680D02*
X1590680Y2630740D01*
X1598620Y2614870D01*
X1590680Y2598990D01*
X1574800Y2591050D01*
X1519240D01*
Y2686300D01*
X1574800D01*
X1590680Y2678370D01*
X1598620Y2662490D01*
X1590680Y2646620D01*
X1574800Y2638680D01*
X1519240D01*
X1589800Y3863680D02*
X1605680Y3855740D01*
X1613620Y3839870D01*
X1605680Y3823990D01*
X1589800Y3816050D01*
X1534240D01*
Y3911300D01*
X1589800D01*
X1605680Y3903370D01*
X1613620Y3887490D01*
X1605680Y3871620D01*
X1589800Y3863680D01*
X1534240D01*
X1604800Y3063680D02*
X1620680Y3055740D01*
X1628620Y3039870D01*
X1620680Y3023990D01*
X1604800Y3016050D01*
X1549240D01*
Y3111300D01*
X1604800D01*
X1620680Y3103370D01*
X1628620Y3087490D01*
X1620680Y3071620D01*
X1604800Y3063680D01*
X1549240D01*
X1619800Y4128680D02*
X1635680Y4120740D01*
X1643620Y4104870D01*
X1635680Y4088990D01*
X1619800Y4081050D01*
X1564240D01*
Y4176300D01*
X1619800D01*
X1635680Y4168370D01*
X1643620Y4152490D01*
X1635680Y4136620D01*
X1619800Y4128680D01*
X1564240D01*
X1619800Y4923680D02*
X1635680Y4915740D01*
X1643620Y4899870D01*
X1635680Y4883990D01*
X1619800Y4876050D01*
X1564240D01*
Y4971300D01*
X1619800D01*
X1635680Y4963370D01*
X1643620Y4947490D01*
X1635680Y4931620D01*
X1619800Y4923680D01*
X1564240D01*
X1719800Y5408680D02*
X1735680Y5400740D01*
X1743620Y5384870D01*
X1735680Y5368990D01*
X1719800Y5361050D01*
X1664240D01*
Y5456300D01*
X1719800D01*
X1735680Y5448370D01*
X1743620Y5432490D01*
X1735680Y5416620D01*
X1719800Y5408680D01*
X1664240D01*
X1699240Y1371050D02*
X1738930Y1466300D01*
X1778620Y1371050D01*
X1715120Y1410740D02*
X1762740D01*
X1784800Y2258680D02*
X1800680Y2250740D01*
X1808620Y2234870D01*
X1800680Y2218990D01*
X1784800Y2211050D01*
X1729240D01*
Y2306300D01*
X1784800D01*
X1800680Y2298370D01*
X1808620Y2282490D01*
X1800680Y2266620D01*
X1784800Y2258680D01*
X1729240D01*
X1751240Y796050D02*
Y891300D01*
X1830620D01*
X1814740Y843680D02*
X1751240D01*
X1849800Y6863680D02*
X1865680Y6855740D01*
X1873620Y6839870D01*
X1865680Y6823990D01*
X1849800Y6816050D01*
X1794240D01*
Y6911300D01*
X1849800D01*
X1865680Y6903370D01*
X1873620Y6887490D01*
X1865680Y6871620D01*
X1849800Y6863680D01*
X1794240D01*
X1879800Y3013680D02*
X1895680Y3005740D01*
X1903620Y2989870D01*
X1895680Y2973990D01*
X1879800Y2966050D01*
X1824240D01*
Y3061300D01*
X1879800D01*
X1895680Y3053370D01*
X1903620Y3037490D01*
X1895680Y3021620D01*
X1879800Y3013680D01*
X1824240D01*
X1884800Y2883680D02*
X1900680Y2875740D01*
X1908620Y2859870D01*
X1900680Y2843990D01*
X1884800Y2836050D01*
X1829240D01*
Y2931300D01*
X1884800D01*
X1900680Y2923370D01*
X1908620Y2907490D01*
X1900680Y2891620D01*
X1884800Y2883680D01*
X1829240D01*
X1899800Y2738680D02*
X1915680Y2730740D01*
X1923620Y2714870D01*
X1915680Y2698990D01*
X1899800Y2691050D01*
X1844240D01*
Y2786300D01*
X1899800D01*
X1915680Y2778370D01*
X1923620Y2762490D01*
X1915680Y2746620D01*
X1899800Y2738680D01*
X1844240D01*
X1919800Y5833680D02*
X1935680Y5825740D01*
X1943620Y5809870D01*
X1935680Y5793990D01*
X1919800Y5786050D01*
X1864240D01*
Y5881300D01*
X1919800D01*
X1935680Y5873370D01*
X1943620Y5857490D01*
X1935680Y5841620D01*
X1919800Y5833680D01*
X1864240D01*
X1909240Y3221050D02*
X1948930Y3316300D01*
X1988620Y3221050D01*
X1925120Y3260740D02*
X1972740D01*
X2014800Y2583680D02*
X2030680Y2575740D01*
X2038620Y2559870D01*
X2030680Y2543990D01*
X2014800Y2536050D01*
X1959240D01*
Y2631300D01*
X2014800D01*
X2030680Y2623370D01*
X2038620Y2607490D01*
X2030680Y2591620D01*
X2014800Y2583680D01*
X1959240D01*
X2029800Y5563680D02*
X2045680Y5555740D01*
X2053620Y5539870D01*
X2045680Y5523990D01*
X2029800Y5516050D01*
X1974240D01*
Y5611300D01*
X2029800D01*
X2045680Y5603370D01*
X2053620Y5587490D01*
X2045680Y5571620D01*
X2029800Y5563680D01*
X1974240D01*
X2084800Y3433680D02*
X2100680Y3425740D01*
X2108620Y3409870D01*
X2100680Y3393990D01*
X2084800Y3386050D01*
X2029240D01*
Y3481300D01*
X2084800D01*
X2100680Y3473370D01*
X2108620Y3457490D01*
X2100680Y3441620D01*
X2084800Y3433680D01*
X2029240D01*
X2189800Y5188680D02*
X2205680Y5180740D01*
X2213620Y5164870D01*
X2205680Y5148990D01*
X2189800Y5141050D01*
X2134240D01*
Y5236300D01*
X2189800D01*
X2205680Y5228370D01*
X2213620Y5212490D01*
X2205680Y5196620D01*
X2189800Y5188680D01*
X2134240D01*
X2214800Y3818680D02*
X2230680Y3810740D01*
X2238620Y3794870D01*
X2230680Y3778990D01*
X2214800Y3771050D01*
X2159240D01*
Y3866300D01*
X2214800D01*
X2230680Y3858370D01*
X2238620Y3842490D01*
X2230680Y3826620D01*
X2214800Y3818680D01*
X2159240D01*
X2229800Y5573680D02*
X2245680Y5565740D01*
X2253620Y5549870D01*
X2245680Y5533990D01*
X2229800Y5526050D01*
X2174240D01*
Y5621300D01*
X2229800D01*
X2245680Y5613370D01*
X2253620Y5597490D01*
X2245680Y5581620D01*
X2229800Y5573680D01*
X2174240D01*
X2289800Y7623680D02*
X2305680Y7615740D01*
X2313620Y7599870D01*
X2305680Y7583990D01*
X2289800Y7576050D01*
X2234240D01*
Y7671300D01*
X2289800D01*
X2305680Y7663370D01*
X2313620Y7647490D01*
X2305680Y7631620D01*
X2289800Y7623680D01*
X2234240D01*
X2334800Y6363680D02*
X2350680Y6355740D01*
X2358620Y6339870D01*
X2350680Y6323990D01*
X2334800Y6316050D01*
X2279240D01*
Y6411300D01*
X2334800D01*
X2350680Y6403370D01*
X2358620Y6387490D01*
X2350680Y6371620D01*
X2334800Y6363680D01*
X2279240D01*
X2344800Y963740D02*
X2368620D01*
Y955800D01*
X2360680Y939930D01*
X2352740Y931990D01*
X2336870Y924050D01*
X2320990D01*
X2305120Y931990D01*
X2297180Y939930D01*
X2289240Y955800D01*
Y987550D01*
X2297180Y1003430D01*
X2305120Y1011370D01*
X2320990Y1019300D01*
X2336870D01*
X2352740Y1011370D01*
X2360680Y1003430D01*
X2368620Y987550D01*
X2344800Y1090740D02*
X2368620D01*
Y1082800D01*
X2360680Y1066930D01*
X2352740Y1058990D01*
X2336870Y1051050D01*
X2320990D01*
X2305120Y1058990D01*
X2297180Y1066930D01*
X2289240Y1082800D01*
Y1114550D01*
X2297180Y1130430D01*
X2305120Y1138370D01*
X2320990Y1146300D01*
X2336870D01*
X2352740Y1138370D01*
X2360680Y1130430D01*
X2368620Y1114550D01*
X2344800Y1217740D02*
X2368620D01*
Y1209800D01*
X2360680Y1193930D01*
X2352740Y1185990D01*
X2336870Y1178050D01*
X2320990D01*
X2305120Y1185990D01*
X2297180Y1193930D01*
X2289240Y1209800D01*
Y1241550D01*
X2297180Y1257430D01*
X2305120Y1265370D01*
X2320990Y1273300D01*
X2336870D01*
X2352740Y1265370D01*
X2360680Y1257430D01*
X2368620Y1241550D01*
X2344800Y1344740D02*
X2368620D01*
Y1336800D01*
X2360680Y1320930D01*
X2352740Y1312990D01*
X2336870Y1305050D01*
X2320990D01*
X2305120Y1312990D01*
X2297180Y1320930D01*
X2289240Y1336800D01*
Y1368550D01*
X2297180Y1384430D01*
X2305120Y1392370D01*
X2320990Y1400300D01*
X2336870D01*
X2352740Y1392370D01*
X2360680Y1384430D01*
X2368620Y1368550D01*
X2344800Y1471740D02*
X2368620D01*
Y1463800D01*
X2360680Y1447930D01*
X2352740Y1439990D01*
X2336870Y1432050D01*
X2320990D01*
X2305120Y1439990D01*
X2297180Y1447930D01*
X2289240Y1463800D01*
Y1495550D01*
X2297180Y1511430D01*
X2305120Y1519370D01*
X2320990Y1527300D01*
X2336870D01*
X2352740Y1519370D01*
X2360680Y1511430D01*
X2368620Y1495550D01*
X2344800Y1598740D02*
X2368620D01*
Y1590800D01*
X2360680Y1574930D01*
X2352740Y1566990D01*
X2336870Y1559050D01*
X2320990D01*
X2305120Y1566990D01*
X2297180Y1574930D01*
X2289240Y1590800D01*
Y1622550D01*
X2297180Y1638430D01*
X2305120Y1646370D01*
X2320990Y1654300D01*
X2336870D01*
X2352740Y1646370D01*
X2360680Y1638430D01*
X2368620Y1622550D01*
X2344800Y1725740D02*
X2368620D01*
Y1717800D01*
X2360680Y1701930D01*
X2352740Y1693990D01*
X2336870Y1686050D01*
X2320990D01*
X2305120Y1693990D01*
X2297180Y1701930D01*
X2289240Y1717800D01*
Y1749550D01*
X2297180Y1765430D01*
X2305120Y1773370D01*
X2320990Y1781300D01*
X2336870D01*
X2352740Y1773370D01*
X2360680Y1765430D01*
X2368620Y1749550D01*
X2344800Y1852740D02*
X2368620D01*
Y1844800D01*
X2360680Y1828930D01*
X2352740Y1820990D01*
X2336870Y1813050D01*
X2320990D01*
X2305120Y1820990D01*
X2297180Y1828930D01*
X2289240Y1844800D01*
Y1876550D01*
X2297180Y1892430D01*
X2305120Y1900370D01*
X2320990Y1908300D01*
X2336870D01*
X2352740Y1900370D01*
X2360680Y1892430D01*
X2368620Y1876550D01*
X2344800Y1979740D02*
X2368620D01*
Y1971800D01*
X2360680Y1955930D01*
X2352740Y1947990D01*
X2336870Y1940050D01*
X2320990D01*
X2305120Y1947990D01*
X2297180Y1955930D01*
X2289240Y1971800D01*
Y2003550D01*
X2297180Y2019430D01*
X2305120Y2027370D01*
X2320990Y2035300D01*
X2336870D01*
X2352740Y2027370D01*
X2360680Y2019430D01*
X2368620Y2003550D01*
X2344800Y2106740D02*
X2368620D01*
Y2098800D01*
X2360680Y2082930D01*
X2352740Y2074990D01*
X2336870Y2067050D01*
X2320990D01*
X2305120Y2074990D01*
X2297180Y2082930D01*
X2289240Y2098800D01*
Y2130550D01*
X2297180Y2146430D01*
X2305120Y2154370D01*
X2320990Y2162300D01*
X2336870D01*
X2352740Y2154370D01*
X2360680Y2146430D01*
X2368620Y2130550D01*
X2344800Y2233740D02*
X2368620D01*
Y2225800D01*
X2360680Y2209930D01*
X2352740Y2201990D01*
X2336870Y2194050D01*
X2320990D01*
X2305120Y2201990D01*
X2297180Y2209930D01*
X2289240Y2225800D01*
Y2257550D01*
X2297180Y2273430D01*
X2305120Y2281370D01*
X2320990Y2289300D01*
X2336870D01*
X2352740Y2281370D01*
X2360680Y2273430D01*
X2368620Y2257550D01*
X2344800Y2360740D02*
X2368620D01*
Y2352800D01*
X2360680Y2336930D01*
X2352740Y2328990D01*
X2336870Y2321050D01*
X2320990D01*
X2305120Y2328990D01*
X2297180Y2336930D01*
X2289240Y2352800D01*
Y2384550D01*
X2297180Y2400430D01*
X2305120Y2408370D01*
X2320990Y2416300D01*
X2336870D01*
X2352740Y2408370D01*
X2360680Y2400430D01*
X2368620Y2384550D01*
X2344800Y2487740D02*
X2368620D01*
Y2479800D01*
X2360680Y2463930D01*
X2352740Y2455990D01*
X2336870Y2448050D01*
X2320990D01*
X2305120Y2455990D01*
X2297180Y2463930D01*
X2289240Y2479800D01*
Y2511550D01*
X2297180Y2527430D01*
X2305120Y2535370D01*
X2320990Y2543300D01*
X2336870D01*
X2352740Y2535370D01*
X2360680Y2527430D01*
X2368620Y2511550D01*
X2344800Y2614740D02*
X2368620D01*
Y2606800D01*
X2360680Y2590930D01*
X2352740Y2582990D01*
X2336870Y2575050D01*
X2320990D01*
X2305120Y2582990D01*
X2297180Y2590930D01*
X2289240Y2606800D01*
Y2638550D01*
X2297180Y2654430D01*
X2305120Y2662370D01*
X2320990Y2670300D01*
X2336870D01*
X2352740Y2662370D01*
X2360680Y2654430D01*
X2368620Y2638550D01*
X2344800Y2741740D02*
X2368620D01*
Y2733800D01*
X2360680Y2717930D01*
X2352740Y2709990D01*
X2336870Y2702050D01*
X2320990D01*
X2305120Y2709990D01*
X2297180Y2717930D01*
X2289240Y2733800D01*
Y2765550D01*
X2297180Y2781430D01*
X2305120Y2789370D01*
X2320990Y2797300D01*
X2336870D01*
X2352740Y2789370D01*
X2360680Y2781430D01*
X2368620Y2765550D01*
X2344800Y2868740D02*
X2368620D01*
Y2860800D01*
X2360680Y2844930D01*
X2352740Y2836990D01*
X2336870Y2829050D01*
X2320990D01*
X2305120Y2836990D01*
X2297180Y2844930D01*
X2289240Y2860800D01*
Y2892550D01*
X2297180Y2908430D01*
X2305120Y2916370D01*
X2320990Y2924300D01*
X2336870D01*
X2352740Y2916370D01*
X2360680Y2908430D01*
X2368620Y2892550D01*
X2344800Y2995740D02*
X2368620D01*
Y2987800D01*
X2360680Y2971930D01*
X2352740Y2963990D01*
X2336870Y2956050D01*
X2320990D01*
X2305120Y2963990D01*
X2297180Y2971930D01*
X2289240Y2987800D01*
Y3019550D01*
X2297180Y3035430D01*
X2305120Y3043370D01*
X2320990Y3051300D01*
X2336870D01*
X2352740Y3043370D01*
X2360680Y3035430D01*
X2368620Y3019550D01*
X2394800Y3768680D02*
X2410680Y3760740D01*
X2418620Y3744870D01*
X2410680Y3728990D01*
X2394800Y3721050D01*
X2339240D01*
Y3816300D01*
X2394800D01*
X2410680Y3808370D01*
X2418620Y3792490D01*
X2410680Y3776620D01*
X2394800Y3768680D01*
X2339240D01*
X2409240Y7096050D02*
X2448930Y7191300D01*
X2488620Y7096050D01*
X2425120Y7135740D02*
X2472740D01*
X2471800Y963740D02*
X2495620D01*
Y955800D01*
X2487680Y939930D01*
X2479740Y931990D01*
X2463870Y924050D01*
X2447990D01*
X2432120Y931990D01*
X2424180Y939930D01*
X2416240Y955800D01*
Y987550D01*
X2424180Y1003430D01*
X2432120Y1011370D01*
X2447990Y1019300D01*
X2463870D01*
X2479740Y1011370D01*
X2487680Y1003430D01*
X2495620Y987550D01*
X2471800Y1090740D02*
X2495620D01*
Y1082800D01*
X2487680Y1066930D01*
X2479740Y1058990D01*
X2463870Y1051050D01*
X2447990D01*
X2432120Y1058990D01*
X2424180Y1066930D01*
X2416240Y1082800D01*
Y1114550D01*
X2424180Y1130430D01*
X2432120Y1138370D01*
X2447990Y1146300D01*
X2463870D01*
X2479740Y1138370D01*
X2487680Y1130430D01*
X2495620Y1114550D01*
X2471800Y1217740D02*
X2495620D01*
Y1209800D01*
X2487680Y1193930D01*
X2479740Y1185990D01*
X2463870Y1178050D01*
X2447990D01*
X2432120Y1185990D01*
X2424180Y1193930D01*
X2416240Y1209800D01*
Y1241550D01*
X2424180Y1257430D01*
X2432120Y1265370D01*
X2447990Y1273300D01*
X2463870D01*
X2479740Y1265370D01*
X2487680Y1257430D01*
X2495620Y1241550D01*
X2471800Y1344740D02*
X2495620D01*
Y1336800D01*
X2487680Y1320930D01*
X2479740Y1312990D01*
X2463870Y1305050D01*
X2447990D01*
X2432120Y1312990D01*
X2424180Y1320930D01*
X2416240Y1336800D01*
Y1368550D01*
X2424180Y1384430D01*
X2432120Y1392370D01*
X2447990Y1400300D01*
X2463870D01*
X2479740Y1392370D01*
X2487680Y1384430D01*
X2495620Y1368550D01*
X2471800Y1471740D02*
X2495620D01*
Y1463800D01*
X2487680Y1447930D01*
X2479740Y1439990D01*
X2463870Y1432050D01*
X2447990D01*
X2432120Y1439990D01*
X2424180Y1447930D01*
X2416240Y1463800D01*
Y1495550D01*
X2424180Y1511430D01*
X2432120Y1519370D01*
X2447990Y1527300D01*
X2463870D01*
X2479740Y1519370D01*
X2487680Y1511430D01*
X2495620Y1495550D01*
X2471800Y1598740D02*
X2495620D01*
Y1590800D01*
X2487680Y1574930D01*
X2479740Y1566990D01*
X2463870Y1559050D01*
X2447990D01*
X2432120Y1566990D01*
X2424180Y1574930D01*
X2416240Y1590800D01*
Y1622550D01*
X2424180Y1638430D01*
X2432120Y1646370D01*
X2447990Y1654300D01*
X2463870D01*
X2479740Y1646370D01*
X2487680Y1638430D01*
X2495620Y1622550D01*
X2471800Y1725740D02*
X2495620D01*
Y1717800D01*
X2487680Y1701930D01*
X2479740Y1693990D01*
X2463870Y1686050D01*
X2447990D01*
X2432120Y1693990D01*
X2424180Y1701930D01*
X2416240Y1717800D01*
Y1749550D01*
X2424180Y1765430D01*
X2432120Y1773370D01*
X2447990Y1781300D01*
X2463870D01*
X2479740Y1773370D01*
X2487680Y1765430D01*
X2495620Y1749550D01*
X2471800Y1852740D02*
X2495620D01*
Y1844800D01*
X2487680Y1828930D01*
X2479740Y1820990D01*
X2463870Y1813050D01*
X2447990D01*
X2432120Y1820990D01*
X2424180Y1828930D01*
X2416240Y1844800D01*
Y1876550D01*
X2424180Y1892430D01*
X2432120Y1900370D01*
X2447990Y1908300D01*
X2463870D01*
X2479740Y1900370D01*
X2487680Y1892430D01*
X2495620Y1876550D01*
X2471800Y1979740D02*
X2495620D01*
Y1971800D01*
X2487680Y1955930D01*
X2479740Y1947990D01*
X2463870Y1940050D01*
X2447990D01*
X2432120Y1947990D01*
X2424180Y1955930D01*
X2416240Y1971800D01*
Y2003550D01*
X2424180Y2019430D01*
X2432120Y2027370D01*
X2447990Y2035300D01*
X2463870D01*
X2479740Y2027370D01*
X2487680Y2019430D01*
X2495620Y2003550D01*
X2471800Y2106740D02*
X2495620D01*
Y2098800D01*
X2487680Y2082930D01*
X2479740Y2074990D01*
X2463870Y2067050D01*
X2447990D01*
X2432120Y2074990D01*
X2424180Y2082930D01*
X2416240Y2098800D01*
Y2130550D01*
X2424180Y2146430D01*
X2432120Y2154370D01*
X2447990Y2162300D01*
X2463870D01*
X2479740Y2154370D01*
X2487680Y2146430D01*
X2495620Y2130550D01*
X2471800Y2233740D02*
X2495620D01*
Y2225800D01*
X2487680Y2209930D01*
X2479740Y2201990D01*
X2463870Y2194050D01*
X2447990D01*
X2432120Y2201990D01*
X2424180Y2209930D01*
X2416240Y2225800D01*
Y2257550D01*
X2424180Y2273430D01*
X2432120Y2281370D01*
X2447990Y2289300D01*
X2463870D01*
X2479740Y2281370D01*
X2487680Y2273430D01*
X2495620Y2257550D01*
X2471800Y2360740D02*
X2495620D01*
Y2352800D01*
X2487680Y2336930D01*
X2479740Y2328990D01*
X2463870Y2321050D01*
X2447990D01*
X2432120Y2328990D01*
X2424180Y2336930D01*
X2416240Y2352800D01*
Y2384550D01*
X2424180Y2400430D01*
X2432120Y2408370D01*
X2447990Y2416300D01*
X2463870D01*
X2479740Y2408370D01*
X2487680Y2400430D01*
X2495620Y2384550D01*
X2471800Y2487740D02*
X2495620D01*
Y2479800D01*
X2487680Y2463930D01*
X2479740Y2455990D01*
X2463870Y2448050D01*
X2447990D01*
X2432120Y2455990D01*
X2424180Y2463930D01*
X2416240Y2479800D01*
Y2511550D01*
X2424180Y2527430D01*
X2432120Y2535370D01*
X2447990Y2543300D01*
X2463870D01*
X2479740Y2535370D01*
X2487680Y2527430D01*
X2495620Y2511550D01*
X2471800Y2614740D02*
X2495620D01*
Y2606800D01*
X2487680Y2590930D01*
X2479740Y2582990D01*
X2463870Y2575050D01*
X2447990D01*
X2432120Y2582990D01*
X2424180Y2590930D01*
X2416240Y2606800D01*
Y2638550D01*
X2424180Y2654430D01*
X2432120Y2662370D01*
X2447990Y2670300D01*
X2463870D01*
X2479740Y2662370D01*
X2487680Y2654430D01*
X2495620Y2638550D01*
X2471800Y2741740D02*
X2495620D01*
Y2733800D01*
X2487680Y2717930D01*
X2479740Y2709990D01*
X2463870Y2702050D01*
X2447990D01*
X2432120Y2709990D01*
X2424180Y2717930D01*
X2416240Y2733800D01*
Y2765550D01*
X2424180Y2781430D01*
X2432120Y2789370D01*
X2447990Y2797300D01*
X2463870D01*
X2479740Y2789370D01*
X2487680Y2781430D01*
X2495620Y2765550D01*
X2471800Y2868740D02*
X2495620D01*
Y2860800D01*
X2487680Y2844930D01*
X2479740Y2836990D01*
X2463870Y2829050D01*
X2447990D01*
X2432120Y2836990D01*
X2424180Y2844930D01*
X2416240Y2860800D01*
Y2892550D01*
X2424180Y2908430D01*
X2432120Y2916370D01*
X2447990Y2924300D01*
X2463870D01*
X2479740Y2916370D01*
X2487680Y2908430D01*
X2495620Y2892550D01*
X2471800Y2995740D02*
X2495620D01*
Y2987800D01*
X2487680Y2971930D01*
X2479740Y2963990D01*
X2463870Y2956050D01*
X2447990D01*
X2432120Y2963990D01*
X2424180Y2971930D01*
X2416240Y2987800D01*
Y3019550D01*
X2424180Y3035430D01*
X2432120Y3043370D01*
X2447990Y3051300D01*
X2463870D01*
X2479740Y3043370D01*
X2487680Y3035430D01*
X2495620Y3019550D01*
X2583620Y3531930D02*
X2575680Y3523990D01*
X2559800Y3516050D01*
X2535990D01*
X2520120Y3523990D01*
X2512180Y3531930D01*
X2504240Y3547800D01*
Y3579550D01*
X2512180Y3595430D01*
X2520120Y3603370D01*
X2535990Y3611300D01*
X2559800D01*
X2575680Y3603370D01*
X2583620Y3595430D01*
Y4296930D02*
X2575680Y4288990D01*
X2559800Y4281050D01*
X2535990D01*
X2520120Y4288990D01*
X2512180Y4296930D01*
X2504240Y4312800D01*
Y4344550D01*
X2512180Y4360430D01*
X2520120Y4368370D01*
X2535990Y4376300D01*
X2559800D01*
X2575680Y4368370D01*
X2583620Y4360430D01*
Y5061930D02*
X2575680Y5053990D01*
X2559800Y5046050D01*
X2535990D01*
X2520120Y5053990D01*
X2512180Y5061930D01*
X2504240Y5077800D01*
Y5109550D01*
X2512180Y5125430D01*
X2520120Y5133370D01*
X2535990Y5141300D01*
X2559800D01*
X2575680Y5133370D01*
X2583620Y5125430D01*
Y6681930D02*
X2575680Y6673990D01*
X2559800Y6666050D01*
X2535990D01*
X2520120Y6673990D01*
X2512180Y6681930D01*
X2504240Y6697800D01*
Y6729550D01*
X2512180Y6745430D01*
X2520120Y6753370D01*
X2535990Y6761300D01*
X2559800D01*
X2575680Y6753370D01*
X2583620Y6745430D01*
X2588620Y5861930D02*
X2580680Y5853990D01*
X2564800Y5846050D01*
X2540990D01*
X2525120Y5853990D01*
X2517180Y5861930D01*
X2509240Y5877800D01*
Y5909550D01*
X2517180Y5925430D01*
X2525120Y5933370D01*
X2540990Y5941300D01*
X2564800D01*
X2580680Y5933370D01*
X2588620Y5925430D01*
X2644800Y2523680D02*
X2660680Y2515740D01*
X2668620Y2499870D01*
X2660680Y2483990D01*
X2644800Y2476050D01*
X2589240D01*
Y2571300D01*
X2644800D01*
X2660680Y2563370D01*
X2668620Y2547490D01*
X2660680Y2531620D01*
X2644800Y2523680D01*
X2589240D01*
X2729800Y7178680D02*
X2745680Y7170740D01*
X2753620Y7154870D01*
X2745680Y7138990D01*
X2729800Y7131050D01*
X2674240D01*
Y7226300D01*
X2729800D01*
X2745680Y7218370D01*
X2753620Y7202490D01*
X2745680Y7186620D01*
X2729800Y7178680D01*
X2674240D01*
X2783620Y3531930D02*
X2775680Y3523990D01*
X2759800Y3516050D01*
X2735990D01*
X2720120Y3523990D01*
X2712180Y3531930D01*
X2704240Y3547800D01*
Y3579550D01*
X2712180Y3595430D01*
X2720120Y3603370D01*
X2735990Y3611300D01*
X2759800D01*
X2775680Y3603370D01*
X2783620Y3595430D01*
Y4296930D02*
X2775680Y4288990D01*
X2759800Y4281050D01*
X2735990D01*
X2720120Y4288990D01*
X2712180Y4296930D01*
X2704240Y4312800D01*
Y4344550D01*
X2712180Y4360430D01*
X2720120Y4368370D01*
X2735990Y4376300D01*
X2759800D01*
X2775680Y4368370D01*
X2783620Y4360430D01*
Y5061930D02*
X2775680Y5053990D01*
X2759800Y5046050D01*
X2735990D01*
X2720120Y5053990D01*
X2712180Y5061930D01*
X2704240Y5077800D01*
Y5109550D01*
X2712180Y5125430D01*
X2720120Y5133370D01*
X2735990Y5141300D01*
X2759800D01*
X2775680Y5133370D01*
X2783620Y5125430D01*
Y6681930D02*
X2775680Y6673990D01*
X2759800Y6666050D01*
X2735990D01*
X2720120Y6673990D01*
X2712180Y6681930D01*
X2704240Y6697800D01*
Y6729550D01*
X2712180Y6745430D01*
X2720120Y6753370D01*
X2735990Y6761300D01*
X2759800D01*
X2775680Y6753370D01*
X2783620Y6745430D01*
X2764800Y2358680D02*
X2780680Y2350740D01*
X2788620Y2334870D01*
X2780680Y2318990D01*
X2764800Y2311050D01*
X2709240D01*
Y2406300D01*
X2764800D01*
X2780680Y2398370D01*
X2788620Y2382490D01*
X2780680Y2366620D01*
X2764800Y2358680D01*
X2709240D01*
X2788620Y5861930D02*
X2780680Y5853990D01*
X2764800Y5846050D01*
X2740990D01*
X2725120Y5853990D01*
X2717180Y5861930D01*
X2709240Y5877800D01*
Y5909550D01*
X2717180Y5925430D01*
X2725120Y5933370D01*
X2740990Y5941300D01*
X2764800D01*
X2780680Y5933370D01*
X2788620Y5925430D01*
X2864800Y2573680D02*
X2880680Y2565740D01*
X2888620Y2549870D01*
X2880680Y2533990D01*
X2864800Y2526050D01*
X2809240D01*
Y2621300D01*
X2864800D01*
X2880680Y2613370D01*
X2888620Y2597490D01*
X2880680Y2581620D01*
X2864800Y2573680D01*
X2809240D01*
X2894800Y3428680D02*
X2910680Y3420740D01*
X2918620Y3404870D01*
X2910680Y3388990D01*
X2894800Y3381050D01*
X2839240D01*
Y3476300D01*
X2894800D01*
X2910680Y3468370D01*
X2918620Y3452490D01*
X2910680Y3436620D01*
X2894800Y3428680D01*
X2839240D01*
X2909800Y3068680D02*
X2925680Y3060740D01*
X2933620Y3044870D01*
X2925680Y3028990D01*
X2909800Y3021050D01*
X2854240D01*
Y3116300D01*
X2909800D01*
X2925680Y3108370D01*
X2933620Y3092490D01*
X2925680Y3076620D01*
X2909800Y3068680D01*
X2854240D01*
X2914800Y4573680D02*
X2930680Y4565740D01*
X2938620Y4549870D01*
X2930680Y4533990D01*
X2914800Y4526050D01*
X2859240D01*
Y4621300D01*
X2914800D01*
X2930680Y4613370D01*
X2938620Y4597490D01*
X2930680Y4581620D01*
X2914800Y4573680D01*
X2859240D01*
X2983620Y3531930D02*
X2975680Y3523990D01*
X2959800Y3516050D01*
X2935990D01*
X2920120Y3523990D01*
X2912180Y3531930D01*
X2904240Y3547800D01*
Y3579550D01*
X2912180Y3595430D01*
X2920120Y3603370D01*
X2935990Y3611300D01*
X2959800D01*
X2975680Y3603370D01*
X2983620Y3595430D01*
Y4296930D02*
X2975680Y4288990D01*
X2959800Y4281050D01*
X2935990D01*
X2920120Y4288990D01*
X2912180Y4296930D01*
X2904240Y4312800D01*
Y4344550D01*
X2912180Y4360430D01*
X2920120Y4368370D01*
X2935990Y4376300D01*
X2959800D01*
X2975680Y4368370D01*
X2983620Y4360430D01*
Y5061930D02*
X2975680Y5053990D01*
X2959800Y5046050D01*
X2935990D01*
X2920120Y5053990D01*
X2912180Y5061930D01*
X2904240Y5077800D01*
Y5109550D01*
X2912180Y5125430D01*
X2920120Y5133370D01*
X2935990Y5141300D01*
X2959800D01*
X2975680Y5133370D01*
X2983620Y5125430D01*
Y6681930D02*
X2975680Y6673990D01*
X2959800Y6666050D01*
X2935990D01*
X2920120Y6673990D01*
X2912180Y6681930D01*
X2904240Y6697800D01*
Y6729550D01*
X2912180Y6745430D01*
X2920120Y6753370D01*
X2935990Y6761300D01*
X2959800D01*
X2975680Y6753370D01*
X2983620Y6745430D01*
X2988620Y5861930D02*
X2980680Y5853990D01*
X2964800Y5846050D01*
X2940990D01*
X2925120Y5853990D01*
X2917180Y5861930D01*
X2909240Y5877800D01*
Y5909550D01*
X2917180Y5925430D01*
X2925120Y5933370D01*
X2940990Y5941300D01*
X2964800D01*
X2980680Y5933370D01*
X2988620Y5925430D01*
X3064800Y828680D02*
X3080680Y820740D01*
X3088620Y804870D01*
X3080680Y788990D01*
X3064800Y781050D01*
X3009240D01*
Y876300D01*
X3064800D01*
X3080680Y868370D01*
X3088620Y852490D01*
X3080680Y836620D01*
X3064800Y828680D01*
X3009240D01*
X3099240Y7416050D02*
Y7511300D01*
Y7463680D02*
X3178620D01*
Y7416050D02*
Y7511300D01*
X3159800Y3068680D02*
X3175680Y3060740D01*
X3183620Y3044870D01*
X3175680Y3028990D01*
X3159800Y3021050D01*
X3104240D01*
Y3116300D01*
X3159800D01*
X3175680Y3108370D01*
X3183620Y3092490D01*
X3175680Y3076620D01*
X3159800Y3068680D01*
X3104240D01*
X3183620Y3531930D02*
X3175680Y3523990D01*
X3159800Y3516050D01*
X3135990D01*
X3120120Y3523990D01*
X3112180Y3531930D01*
X3104240Y3547800D01*
Y3579550D01*
X3112180Y3595430D01*
X3120120Y3603370D01*
X3135990Y3611300D01*
X3159800D01*
X3175680Y3603370D01*
X3183620Y3595430D01*
Y4296930D02*
X3175680Y4288990D01*
X3159800Y4281050D01*
X3135990D01*
X3120120Y4288990D01*
X3112180Y4296930D01*
X3104240Y4312800D01*
Y4344550D01*
X3112180Y4360430D01*
X3120120Y4368370D01*
X3135990Y4376300D01*
X3159800D01*
X3175680Y4368370D01*
X3183620Y4360430D01*
Y5061930D02*
X3175680Y5053990D01*
X3159800Y5046050D01*
X3135990D01*
X3120120Y5053990D01*
X3112180Y5061930D01*
X3104240Y5077800D01*
Y5109550D01*
X3112180Y5125430D01*
X3120120Y5133370D01*
X3135990Y5141300D01*
X3159800D01*
X3175680Y5133370D01*
X3183620Y5125430D01*
Y6681930D02*
X3175680Y6673990D01*
X3159800Y6666050D01*
X3135990D01*
X3120120Y6673990D01*
X3112180Y6681930D01*
X3104240Y6697800D01*
Y6729550D01*
X3112180Y6745430D01*
X3120120Y6753370D01*
X3135990Y6761300D01*
X3159800D01*
X3175680Y6753370D01*
X3183620Y6745430D01*
X3188620Y5861930D02*
X3180680Y5853990D01*
X3164800Y5846050D01*
X3140990D01*
X3125120Y5853990D01*
X3117180Y5861930D01*
X3109240Y5877800D01*
Y5909550D01*
X3117180Y5925430D01*
X3125120Y5933370D01*
X3140990Y5941300D01*
X3164800D01*
X3180680Y5933370D01*
X3188620Y5925430D01*
X3194800Y933680D02*
X3210680Y925740D01*
X3218620Y909870D01*
X3210680Y893990D01*
X3194800Y886050D01*
X3139240D01*
Y981300D01*
X3194800D01*
X3210680Y973370D01*
X3218620Y957490D01*
X3210680Y941620D01*
X3194800Y933680D01*
X3139240D01*
X3249800Y3353680D02*
X3265680Y3345740D01*
X3273620Y3329870D01*
X3265680Y3313990D01*
X3249800Y3306050D01*
X3194240D01*
Y3401300D01*
X3249800D01*
X3265680Y3393370D01*
X3273620Y3377490D01*
X3265680Y3361620D01*
X3249800Y3353680D01*
X3194240D01*
X3294800Y1698680D02*
X3310680Y1690740D01*
X3318620Y1674870D01*
X3310680Y1658990D01*
X3294800Y1651050D01*
X3239240D01*
Y1746300D01*
X3294800D01*
X3310680Y1738370D01*
X3318620Y1722490D01*
X3310680Y1706620D01*
X3294800Y1698680D01*
X3239240D01*
X3359800Y918680D02*
X3375680Y910740D01*
X3383620Y894870D01*
X3375680Y878990D01*
X3359800Y871050D01*
X3304240D01*
Y966300D01*
X3359800D01*
X3375680Y958370D01*
X3383620Y942490D01*
X3375680Y926620D01*
X3359800Y918680D01*
X3304240D01*
X3519800Y2358680D02*
X3535680Y2350740D01*
X3543620Y2334870D01*
X3535680Y2318990D01*
X3519800Y2311050D01*
X3464240D01*
Y2406300D01*
X3519800D01*
X3535680Y2398370D01*
X3543620Y2382490D01*
X3535680Y2366620D01*
X3519800Y2358680D01*
X3464240D01*
X3539800Y3133680D02*
X3555680Y3125740D01*
X3563620Y3109870D01*
X3555680Y3093990D01*
X3539800Y3086050D01*
X3484240D01*
Y3181300D01*
X3539800D01*
X3555680Y3173370D01*
X3563620Y3157490D01*
X3555680Y3141620D01*
X3539800Y3133680D01*
X3484240D01*
X3649620Y6696930D02*
X3641680Y6688990D01*
X3625800Y6681050D01*
X3601990D01*
X3586120Y6688990D01*
X3578180Y6696930D01*
X3570240Y6712800D01*
Y6744550D01*
X3578180Y6760430D01*
X3586120Y6768370D01*
X3601990Y6776300D01*
X3625800D01*
X3641680Y6768370D01*
X3649620Y6760430D01*
X3684800Y3133680D02*
X3700680Y3125740D01*
X3708620Y3109870D01*
X3700680Y3093990D01*
X3684800Y3086050D01*
X3629240D01*
Y3181300D01*
X3684800D01*
X3700680Y3173370D01*
X3708620Y3157490D01*
X3700680Y3141620D01*
X3684800Y3133680D01*
X3629240D01*
X3709800Y1833680D02*
X3725680Y1825740D01*
X3733620Y1809870D01*
X3725680Y1793990D01*
X3709800Y1786050D01*
X3654240D01*
Y1881300D01*
X3709800D01*
X3725680Y1873370D01*
X3733620Y1857490D01*
X3725680Y1841620D01*
X3709800Y1833680D01*
X3654240D01*
X3868800Y963740D02*
X3892620D01*
Y955800D01*
X3884680Y939930D01*
X3876740Y931990D01*
X3860870Y924050D01*
X3844990D01*
X3829120Y931990D01*
X3821180Y939930D01*
X3813240Y955800D01*
Y987550D01*
X3821180Y1003430D01*
X3829120Y1011370D01*
X3844990Y1019300D01*
X3860870D01*
X3876740Y1011370D01*
X3884680Y1003430D01*
X3892620Y987550D01*
X3868800Y1090740D02*
X3892620D01*
Y1082800D01*
X3884680Y1066930D01*
X3876740Y1058990D01*
X3860870Y1051050D01*
X3844990D01*
X3829120Y1058990D01*
X3821180Y1066930D01*
X3813240Y1082800D01*
Y1114550D01*
X3821180Y1130430D01*
X3829120Y1138370D01*
X3844990Y1146300D01*
X3860870D01*
X3876740Y1138370D01*
X3884680Y1130430D01*
X3892620Y1114550D01*
X3868800Y1217740D02*
X3892620D01*
Y1209800D01*
X3884680Y1193930D01*
X3876740Y1185990D01*
X3860870Y1178050D01*
X3844990D01*
X3829120Y1185990D01*
X3821180Y1193930D01*
X3813240Y1209800D01*
Y1241550D01*
X3821180Y1257430D01*
X3829120Y1265370D01*
X3844990Y1273300D01*
X3860870D01*
X3876740Y1265370D01*
X3884680Y1257430D01*
X3892620Y1241550D01*
X3868800Y1344740D02*
X3892620D01*
Y1336800D01*
X3884680Y1320930D01*
X3876740Y1312990D01*
X3860870Y1305050D01*
X3844990D01*
X3829120Y1312990D01*
X3821180Y1320930D01*
X3813240Y1336800D01*
Y1368550D01*
X3821180Y1384430D01*
X3829120Y1392370D01*
X3844990Y1400300D01*
X3860870D01*
X3876740Y1392370D01*
X3884680Y1384430D01*
X3892620Y1368550D01*
X3868800Y1471740D02*
X3892620D01*
Y1463800D01*
X3884680Y1447930D01*
X3876740Y1439990D01*
X3860870Y1432050D01*
X3844990D01*
X3829120Y1439990D01*
X3821180Y1447930D01*
X3813240Y1463800D01*
Y1495550D01*
X3821180Y1511430D01*
X3829120Y1519370D01*
X3844990Y1527300D01*
X3860870D01*
X3876740Y1519370D01*
X3884680Y1511430D01*
X3892620Y1495550D01*
X3868800Y1598740D02*
X3892620D01*
Y1590800D01*
X3884680Y1574930D01*
X3876740Y1566990D01*
X3860870Y1559050D01*
X3844990D01*
X3829120Y1566990D01*
X3821180Y1574930D01*
X3813240Y1590800D01*
Y1622550D01*
X3821180Y1638430D01*
X3829120Y1646370D01*
X3844990Y1654300D01*
X3860870D01*
X3876740Y1646370D01*
X3884680Y1638430D01*
X3892620Y1622550D01*
X3868800Y1725740D02*
X3892620D01*
Y1717800D01*
X3884680Y1701930D01*
X3876740Y1693990D01*
X3860870Y1686050D01*
X3844990D01*
X3829120Y1693990D01*
X3821180Y1701930D01*
X3813240Y1717800D01*
Y1749550D01*
X3821180Y1765430D01*
X3829120Y1773370D01*
X3844990Y1781300D01*
X3860870D01*
X3876740Y1773370D01*
X3884680Y1765430D01*
X3892620Y1749550D01*
X3868800Y1852740D02*
X3892620D01*
Y1844800D01*
X3884680Y1828930D01*
X3876740Y1820990D01*
X3860870Y1813050D01*
X3844990D01*
X3829120Y1820990D01*
X3821180Y1828930D01*
X3813240Y1844800D01*
Y1876550D01*
X3821180Y1892430D01*
X3829120Y1900370D01*
X3844990Y1908300D01*
X3860870D01*
X3876740Y1900370D01*
X3884680Y1892430D01*
X3892620Y1876550D01*
X3868800Y1979740D02*
X3892620D01*
Y1971800D01*
X3884680Y1955930D01*
X3876740Y1947990D01*
X3860870Y1940050D01*
X3844990D01*
X3829120Y1947990D01*
X3821180Y1955930D01*
X3813240Y1971800D01*
Y2003550D01*
X3821180Y2019430D01*
X3829120Y2027370D01*
X3844990Y2035300D01*
X3860870D01*
X3876740Y2027370D01*
X3884680Y2019430D01*
X3892620Y2003550D01*
X3868800Y2106740D02*
X3892620D01*
Y2098800D01*
X3884680Y2082930D01*
X3876740Y2074990D01*
X3860870Y2067050D01*
X3844990D01*
X3829120Y2074990D01*
X3821180Y2082930D01*
X3813240Y2098800D01*
Y2130550D01*
X3821180Y2146430D01*
X3829120Y2154370D01*
X3844990Y2162300D01*
X3860870D01*
X3876740Y2154370D01*
X3884680Y2146430D01*
X3892620Y2130550D01*
X3868800Y2233740D02*
X3892620D01*
Y2225800D01*
X3884680Y2209930D01*
X3876740Y2201990D01*
X3860870Y2194050D01*
X3844990D01*
X3829120Y2201990D01*
X3821180Y2209930D01*
X3813240Y2225800D01*
Y2257550D01*
X3821180Y2273430D01*
X3829120Y2281370D01*
X3844990Y2289300D01*
X3860870D01*
X3876740Y2281370D01*
X3884680Y2273430D01*
X3892620Y2257550D01*
X3903620Y6696930D02*
X3895680Y6688990D01*
X3879800Y6681050D01*
X3855990D01*
X3840120Y6688990D01*
X3832180Y6696930D01*
X3824240Y6712800D01*
Y6744550D01*
X3832180Y6760430D01*
X3840120Y6768370D01*
X3855990Y6776300D01*
X3879800D01*
X3895680Y6768370D01*
X3903620Y6760430D01*
X3995800Y963740D02*
X4019620D01*
Y955800D01*
X4011680Y939930D01*
X4003740Y931990D01*
X3987870Y924050D01*
X3971990D01*
X3956120Y931990D01*
X3948180Y939930D01*
X3940240Y955800D01*
Y987550D01*
X3948180Y1003430D01*
X3956120Y1011370D01*
X3971990Y1019300D01*
X3987870D01*
X4003740Y1011370D01*
X4011680Y1003430D01*
X4019620Y987550D01*
X3995800Y1090740D02*
X4019620D01*
Y1082800D01*
X4011680Y1066930D01*
X4003740Y1058990D01*
X3987870Y1051050D01*
X3971990D01*
X3956120Y1058990D01*
X3948180Y1066930D01*
X3940240Y1082800D01*
Y1114550D01*
X3948180Y1130430D01*
X3956120Y1138370D01*
X3971990Y1146300D01*
X3987870D01*
X4003740Y1138370D01*
X4011680Y1130430D01*
X4019620Y1114550D01*
X3995800Y1217740D02*
X4019620D01*
Y1209800D01*
X4011680Y1193930D01*
X4003740Y1185990D01*
X3987870Y1178050D01*
X3971990D01*
X3956120Y1185990D01*
X3948180Y1193930D01*
X3940240Y1209800D01*
Y1241550D01*
X3948180Y1257430D01*
X3956120Y1265370D01*
X3971990Y1273300D01*
X3987870D01*
X4003740Y1265370D01*
X4011680Y1257430D01*
X4019620Y1241550D01*
X3995800Y1344740D02*
X4019620D01*
Y1336800D01*
X4011680Y1320930D01*
X4003740Y1312990D01*
X3987870Y1305050D01*
X3971990D01*
X3956120Y1312990D01*
X3948180Y1320930D01*
X3940240Y1336800D01*
Y1368550D01*
X3948180Y1384430D01*
X3956120Y1392370D01*
X3971990Y1400300D01*
X3987870D01*
X4003740Y1392370D01*
X4011680Y1384430D01*
X4019620Y1368550D01*
X3995800Y1471740D02*
X4019620D01*
Y1463800D01*
X4011680Y1447930D01*
X4003740Y1439990D01*
X3987870Y1432050D01*
X3971990D01*
X3956120Y1439990D01*
X3948180Y1447930D01*
X3940240Y1463800D01*
Y1495550D01*
X3948180Y1511430D01*
X3956120Y1519370D01*
X3971990Y1527300D01*
X3987870D01*
X4003740Y1519370D01*
X4011680Y1511430D01*
X4019620Y1495550D01*
X3995800Y1598740D02*
X4019620D01*
Y1590800D01*
X4011680Y1574930D01*
X4003740Y1566990D01*
X3987870Y1559050D01*
X3971990D01*
X3956120Y1566990D01*
X3948180Y1574930D01*
X3940240Y1590800D01*
Y1622550D01*
X3948180Y1638430D01*
X3956120Y1646370D01*
X3971990Y1654300D01*
X3987870D01*
X4003740Y1646370D01*
X4011680Y1638430D01*
X4019620Y1622550D01*
X3995800Y1725740D02*
X4019620D01*
Y1717800D01*
X4011680Y1701930D01*
X4003740Y1693990D01*
X3987870Y1686050D01*
X3971990D01*
X3956120Y1693990D01*
X3948180Y1701930D01*
X3940240Y1717800D01*
Y1749550D01*
X3948180Y1765430D01*
X3956120Y1773370D01*
X3971990Y1781300D01*
X3987870D01*
X4003740Y1773370D01*
X4011680Y1765430D01*
X4019620Y1749550D01*
X3995800Y1852740D02*
X4019620D01*
Y1844800D01*
X4011680Y1828930D01*
X4003740Y1820990D01*
X3987870Y1813050D01*
X3971990D01*
X3956120Y1820990D01*
X3948180Y1828930D01*
X3940240Y1844800D01*
Y1876550D01*
X3948180Y1892430D01*
X3956120Y1900370D01*
X3971990Y1908300D01*
X3987870D01*
X4003740Y1900370D01*
X4011680Y1892430D01*
X4019620Y1876550D01*
X3995800Y1979740D02*
X4019620D01*
Y1971800D01*
X4011680Y1955930D01*
X4003740Y1947990D01*
X3987870Y1940050D01*
X3971990D01*
X3956120Y1947990D01*
X3948180Y1955930D01*
X3940240Y1971800D01*
Y2003550D01*
X3948180Y2019430D01*
X3956120Y2027370D01*
X3971990Y2035300D01*
X3987870D01*
X4003740Y2027370D01*
X4011680Y2019430D01*
X4019620Y2003550D01*
X3995800Y2106740D02*
X4019620D01*
Y2098800D01*
X4011680Y2082930D01*
X4003740Y2074990D01*
X3987870Y2067050D01*
X3971990D01*
X3956120Y2074990D01*
X3948180Y2082930D01*
X3940240Y2098800D01*
Y2130550D01*
X3948180Y2146430D01*
X3956120Y2154370D01*
X3971990Y2162300D01*
X3987870D01*
X4003740Y2154370D01*
X4011680Y2146430D01*
X4019620Y2130550D01*
X3995800Y2233740D02*
X4019620D01*
Y2225800D01*
X4011680Y2209930D01*
X4003740Y2201990D01*
X3987870Y2194050D01*
X3971990D01*
X3956120Y2201990D01*
X3948180Y2209930D01*
X3940240Y2225800D01*
Y2257550D01*
X3948180Y2273430D01*
X3956120Y2281370D01*
X3971990Y2289300D01*
X3987870D01*
X4003740Y2281370D01*
X4011680Y2273430D01*
X4019620Y2257550D01*
X4044240Y3826050D02*
Y3921300D01*
Y3873680D02*
X4123620D01*
Y3826050D02*
Y3921300D01*
X4149620Y6696930D02*
X4141680Y6688990D01*
X4125800Y6681050D01*
X4101990D01*
X4086120Y6688990D01*
X4078180Y6696930D01*
X4070240Y6712800D01*
Y6744550D01*
X4078180Y6760430D01*
X4086120Y6768370D01*
X4101990Y6776300D01*
X4125800D01*
X4141680Y6768370D01*
X4149620Y6760430D01*
X4403620Y6696930D02*
X4395680Y6688990D01*
X4379800Y6681050D01*
X4355990D01*
X4340120Y6688990D01*
X4332180Y6696930D01*
X4324240Y6712800D01*
Y6744550D01*
X4332180Y6760430D01*
X4340120Y6768370D01*
X4355990Y6776300D01*
X4379800D01*
X4395680Y6768370D01*
X4403620Y6760430D01*
X4414240Y905050D02*
Y1000300D01*
X4461870D01*
X4477740Y992370D01*
X4485680Y984430D01*
X4493620Y968550D01*
Y936800D01*
X4485680Y920930D01*
X4477740Y912990D01*
X4461870Y905050D01*
X4414240D01*
Y1159050D02*
Y1254300D01*
X4461870D01*
X4477740Y1246370D01*
X4485680Y1238430D01*
X4493620Y1222550D01*
Y1190800D01*
X4485680Y1174930D01*
X4477740Y1166990D01*
X4461870Y1159050D01*
X4414240D01*
Y1413050D02*
Y1508300D01*
X4461870D01*
X4477740Y1500370D01*
X4485680Y1492430D01*
X4493620Y1476550D01*
Y1444800D01*
X4485680Y1428930D01*
X4477740Y1420990D01*
X4461870Y1413050D01*
X4414240D01*
Y1667050D02*
Y1762300D01*
X4461870D01*
X4477740Y1754370D01*
X4485680Y1746430D01*
X4493620Y1730550D01*
Y1698800D01*
X4485680Y1682930D01*
X4477740Y1674990D01*
X4461870Y1667050D01*
X4414240D01*
Y1921050D02*
Y2016300D01*
X4461870D01*
X4477740Y2008370D01*
X4485680Y2000430D01*
X4493620Y1984550D01*
Y1952800D01*
X4485680Y1936930D01*
X4477740Y1928990D01*
X4461870Y1921050D01*
X4414240D01*
Y2175050D02*
Y2270300D01*
X4461870D01*
X4477740Y2262370D01*
X4485680Y2254430D01*
X4493620Y2238550D01*
Y2206800D01*
X4485680Y2190930D01*
X4477740Y2182990D01*
X4461870Y2175050D01*
X4414240D01*
Y2429050D02*
Y2524300D01*
X4461870D01*
X4477740Y2516370D01*
X4485680Y2508430D01*
X4493620Y2492550D01*
Y2460800D01*
X4485680Y2444930D01*
X4477740Y2436990D01*
X4461870Y2429050D01*
X4414240D01*
Y2683050D02*
Y2778300D01*
X4461870D01*
X4477740Y2770370D01*
X4485680Y2762430D01*
X4493620Y2746550D01*
Y2714800D01*
X4485680Y2698930D01*
X4477740Y2690990D01*
X4461870Y2683050D01*
X4414240D01*
Y3191050D02*
Y3286300D01*
X4461870D01*
X4477740Y3278370D01*
X4485680Y3270430D01*
X4493620Y3254550D01*
Y3222800D01*
X4485680Y3206930D01*
X4477740Y3198990D01*
X4461870Y3191050D01*
X4414240D01*
Y3445050D02*
Y3540300D01*
X4461870D01*
X4477740Y3532370D01*
X4485680Y3524430D01*
X4493620Y3508550D01*
Y3476800D01*
X4485680Y3460930D01*
X4477740Y3452990D01*
X4461870Y3445050D01*
X4414240D01*
D02*
D103*
X633240Y645240D03*
X700240Y1770240D03*
Y2024240D03*
Y2278240D03*
Y2532240D03*
Y2786240D03*
Y3040240D03*
Y3294240D03*
Y3548240D03*
Y3802240D03*
Y4056240D03*
Y4310240D03*
Y4564240D03*
Y4818240D03*
Y5072240D03*
Y5326240D03*
Y5580240D03*
X835240Y2920240D03*
X885240Y1025240D03*
X965240Y2335240D03*
X970240Y1345240D03*
X1060240Y2490240D03*
X1130240Y2850240D03*
X1155240Y3070240D03*
X1205240Y4890240D03*
X1210240Y6095240D03*
X1245240Y1025240D03*
X1260240Y1620240D03*
Y1820240D03*
Y2020240D03*
Y2220240D03*
X1265240Y2440240D03*
X1280240Y3665240D03*
X1295240Y2865240D03*
X1310240Y3930240D03*
Y4725240D03*
X1410240Y5210240D03*
X1445240Y1220240D03*
X1475240Y2060240D03*
X1497240Y645240D03*
X1540240Y6665240D03*
X1570240Y2815240D03*
X1575240Y2685240D03*
X1590240Y2540240D03*
X1610240Y5635240D03*
X1655240Y3070240D03*
X1705240Y2385240D03*
X1720240Y5365240D03*
X1775240Y3235240D03*
X1880240Y4990240D03*
X1905240Y3620240D03*
X1920240Y5375240D03*
X1980240Y7425240D03*
X2025240Y6165240D03*
X2035240Y773240D03*
Y900240D03*
Y1027240D03*
Y1154240D03*
Y1281240D03*
Y1408240D03*
Y1535240D03*
Y1662240D03*
Y1789240D03*
Y1916240D03*
Y2043240D03*
Y2170240D03*
Y2297240D03*
Y2424240D03*
Y2551240D03*
Y2678240D03*
Y2805240D03*
X2085240Y3570240D03*
X2155240Y6945240D03*
X2162240Y773240D03*
Y900240D03*
Y1027240D03*
Y1154240D03*
Y1281240D03*
Y1408240D03*
Y1535240D03*
Y1662240D03*
Y1789240D03*
Y1916240D03*
Y2043240D03*
Y2170240D03*
Y2297240D03*
Y2424240D03*
Y2551240D03*
Y2678240D03*
Y2805240D03*
X2250240Y3365240D03*
Y4130240D03*
Y4895240D03*
Y6515240D03*
X2255240Y5695240D03*
X2335240Y2325240D03*
X2420240Y6980240D03*
X2450240Y3365240D03*
Y4130240D03*
Y4895240D03*
Y6515240D03*
X2455240Y2160240D03*
Y5695240D03*
X2555240Y2375240D03*
X2585240Y3230240D03*
X2600240Y2870240D03*
X2605240Y4375240D03*
X2650240Y3365240D03*
Y4130240D03*
Y4895240D03*
Y6515240D03*
X2655240Y5695240D03*
X2755240Y630240D03*
X2845240Y7265240D03*
X2850240Y2870240D03*
Y3365240D03*
Y4130240D03*
Y4895240D03*
Y6515240D03*
X2855240Y5695240D03*
X2885240Y735240D03*
X2940240Y3155240D03*
X2985240Y1500240D03*
X3050240Y720240D03*
X3210240Y2160240D03*
X3230240Y2935240D03*
X3316240Y6530240D03*
X3375240Y2935240D03*
X3400240Y1635240D03*
X3559240Y773240D03*
Y900240D03*
Y1027240D03*
Y1154240D03*
Y1281240D03*
Y1408240D03*
Y1535240D03*
Y1662240D03*
Y1789240D03*
Y1916240D03*
Y2043240D03*
X3570240Y6530240D03*
X3686240Y773240D03*
Y900240D03*
Y1027240D03*
Y1154240D03*
Y1281240D03*
Y1408240D03*
Y1535240D03*
Y1662240D03*
Y1789240D03*
Y1916240D03*
Y2043240D03*
X3790240Y3675240D03*
X3816240Y6530240D03*
X4070240D03*
X4160240Y754240D03*
Y1008240D03*
Y1262240D03*
Y1516240D03*
Y1770240D03*
Y2024240D03*
Y2278240D03*
Y2532240D03*
Y3040240D03*
Y3294240D03*
X0Y0D02*
M02*
