G04 DesignSpark PCB Gerber Version 13.0 Build *
%FSLAX35Y35*%
%MOMM*%
%ADD101C,0.60000*%
%ADD96C,0.60960*%
%ADD97C,0.90000*%
%ADD98C,1.00000*%
%ADD99C,1.12000*%
%ADD100C,1.30000*%
%ADD95C,1.50000*%
%ADD102C,3.15000*%
X0Y0D02*
D02*
D95*
X970240Y1345240D03*
X1155240Y3070240D03*
X1210240Y6095240D03*
X1445240Y1220240D03*
X1655240Y3070240D03*
X2155240Y6945240D03*
D02*
D96*
X835240Y2920240D03*
X965240Y2335240D03*
X1060240Y2490240D03*
X1130240Y2850240D03*
X1205240Y4890240D03*
X1265240Y2440240D03*
X1280240Y3665240D03*
X1295240Y2865240D03*
X1310240Y3930240D03*
Y4725240D03*
X1410240Y5210240D03*
X1475240Y2060240D03*
X1540240Y6665240D03*
X1570240Y2815240D03*
X1575240Y2685240D03*
X1590240Y2540240D03*
X1610240Y5635240D03*
X1705240Y2385240D03*
X1720240Y5365240D03*
X1775240Y3235240D03*
X1880240Y4990240D03*
X1905240Y3620240D03*
X1920240Y5375240D03*
X1980240Y7425240D03*
X2025240Y6165240D03*
X2085240Y3570240D03*
X2335240Y2325240D03*
X2420240Y6980240D03*
X2455240Y2160240D03*
X2555240Y2375240D03*
X2585240Y3230240D03*
X2600240Y2870240D03*
X2605240Y4375240D03*
X2755240Y630240D03*
X2850240Y2870240D03*
X2885240Y735240D03*
X2940240Y3155240D03*
X2985240Y1500240D03*
X3050240Y720240D03*
X3210240Y2160240D03*
X3230240Y2935240D03*
X3375240D03*
X3400240Y1635240D03*
D02*
D97*
X1260240Y1620240D03*
Y1820240D03*
Y2020240D03*
Y2220240D03*
X2250240Y3365240D03*
Y4130240D03*
Y4895240D03*
Y6515240D03*
X2255240Y5695240D03*
X2450240Y3365240D03*
Y4130240D03*
Y4895240D03*
Y6515240D03*
X2455240Y5695240D03*
X2650240Y3365240D03*
Y4130240D03*
Y4895240D03*
Y6515240D03*
X2655240Y5695240D03*
X2850240Y3365240D03*
Y4130240D03*
Y4895240D03*
Y6515240D03*
X2855240Y5695240D03*
X3316240Y6530240D03*
X3570240D03*
X3816240D03*
X4070240D03*
D02*
D98*
X700240Y1770240D03*
Y2024240D03*
Y2278240D03*
Y2532240D03*
Y2786240D03*
Y3040240D03*
Y3294240D03*
Y3548240D03*
Y3802240D03*
Y4056240D03*
Y4310240D03*
Y4564240D03*
Y4818240D03*
Y5072240D03*
Y5326240D03*
Y5580240D03*
X4160240Y754240D03*
Y1008240D03*
Y1262240D03*
Y1516240D03*
Y1770240D03*
Y2024240D03*
Y2278240D03*
Y2532240D03*
Y3040240D03*
Y3294240D03*
D02*
D99*
X885240Y1025240D03*
X1245240D03*
D02*
D100*
X633240Y645240D03*
X1497240D03*
D02*
D101*
X2035240Y773240D03*
Y900240D03*
Y1027240D03*
Y1154240D03*
Y1281240D03*
Y1408240D03*
Y1535240D03*
Y1662240D03*
Y1789240D03*
Y1916240D03*
Y2043240D03*
Y2170240D03*
Y2297240D03*
Y2424240D03*
Y2551240D03*
Y2678240D03*
Y2805240D03*
X2162240Y773240D03*
Y900240D03*
Y1027240D03*
Y1154240D03*
Y1281240D03*
Y1408240D03*
Y1535240D03*
Y1662240D03*
Y1789240D03*
Y1916240D03*
Y2043240D03*
Y2170240D03*
Y2297240D03*
Y2424240D03*
Y2551240D03*
Y2678240D03*
Y2805240D03*
X3559240Y773240D03*
Y900240D03*
Y1027240D03*
Y1154240D03*
Y1281240D03*
Y1408240D03*
Y1535240D03*
Y1662240D03*
Y1789240D03*
Y1916240D03*
Y2043240D03*
X3686240Y773240D03*
Y900240D03*
Y1027240D03*
Y1154240D03*
Y1281240D03*
Y1408240D03*
Y1535240D03*
Y1662240D03*
Y1789240D03*
Y1916240D03*
Y2043240D03*
D02*
D102*
X2845240Y7265240D03*
X3790240Y3675240D03*
X0Y0D02*
M02*
