G04 DesignSpark PCB Gerber Version 13.0 Build *
%FSLAX35Y35*%
%MOMM*%
%ADD11C,0.20000*%
%ADD12C,0.25400*%
%ADD13C,0.80000*%
%ADD15C,1.01600*%
%ADD18C,1.40000*%
%ADD14C,2.20000*%
%ADD17R,1.42000X1.40000*%
%ADD16R,1.80000X1.45000*%
X0Y0D02*
D02*
D11*
X450640Y3246100D02*
Y3207900D01*
X643600D01*
Y3154970D01*
G75*
G02*
X796200Y3100000I66400J-54970D01*
G01*
G75*
G02*
X643600Y3045030I-86200J0D01*
G01*
Y2992100D01*
X450640D01*
Y2953900D01*
X643600D01*
Y2894100D01*
X768470D01*
G75*
G02*
X924590Y2829430I71530J-48090D01*
G01*
X1413660Y2340360D01*
G75*
G02*
X1428100Y2306000I-33650J-34360D01*
G01*
Y1571530D01*
G75*
G02*
X1466200Y1500000I-48100J-71530D01*
G01*
G75*
G02*
X1293800I-86200J0D01*
G01*
G75*
G02*
X1331900Y1571530I86200J0D01*
G01*
Y2286080D01*
X932280Y2685700D01*
G75*
G02*
X833430Y2575410I-82280J-25700D01*
G01*
X816360Y2558340D01*
G75*
G02*
X782000Y2543900I-34360J33650D01*
G01*
X643600D01*
Y2484100D01*
X450640D01*
Y2445900D01*
X643600D01*
Y2230100D01*
X450640D01*
Y2191900D01*
X643600D01*
Y1976100D01*
X450640D01*
Y1937900D01*
X643600D01*
Y1878100D01*
X680080D01*
X801900Y1999920D01*
Y2258470D01*
G75*
G02*
X763800Y2330000I48100J71530D01*
G01*
G75*
G02*
X936200I86200J0D01*
G01*
G75*
G02*
X898100Y2258470I-86200J0D01*
G01*
Y1980000D01*
G75*
G02*
X883660Y1945640I-48090J0D01*
G01*
X734360Y1796340D01*
G75*
G02*
X700000Y1781900I-34360J33650D01*
G01*
X643600D01*
Y1722100D01*
X450640D01*
Y1696600D01*
X643600D01*
Y1480800D01*
X450640D01*
Y1429900D01*
X643600D01*
Y1397400D01*
X725680D01*
G75*
G02*
X995400Y1322000I124320J-75400D01*
G01*
G75*
G02*
X725680Y1246600I-145400J0D01*
G01*
X643600D01*
Y1214100D01*
X450640D01*
Y1175900D01*
X643600D01*
Y960100D01*
X450640D01*
Y921900D01*
X643600D01*
Y706100D01*
X450640D01*
Y667900D01*
X643600D01*
Y452100D01*
X450640D01*
Y200640D01*
X870000D01*
Y890000D01*
X1850000D01*
Y200640D01*
X2799360D01*
Y3449360D01*
X2345400D01*
Y3246100D01*
X2094600D01*
Y3449360D01*
X643600D01*
Y3246100D01*
X450640D01*
X2414600Y1480000D02*
G75*
G02*
X2705400I145400J0D01*
G01*
G75*
G02*
X2414600I-145400J0D01*
G01*
X794600Y3320000D02*
G75*
G02*
X945400I75400J0D01*
G01*
G75*
G02*
X794600I-75400J0D01*
G01*
X1223800Y3085000D02*
G75*
G02*
X1396200I86200J0D01*
G01*
G75*
G02*
X1394590Y3068430I-86190J10D01*
G01*
X1563660Y2899360D01*
G75*
G02*
X1578100Y2865000I-33650J-34360D01*
G01*
Y1351530D01*
G75*
G02*
X1616200Y1280000I-48100J-71530D01*
G01*
G75*
G02*
X1443800I-86200J0D01*
G01*
G75*
G02*
X1481900Y1351530I86200J0D01*
G01*
Y2845080D01*
X1326570Y3000410D01*
G75*
G02*
X1223800Y3085000I-16570J84590D01*
G01*
X1634600Y1880000D02*
G75*
G02*
X1785400I75400J0D01*
G01*
G75*
G02*
X1634600I-75400J0D01*
G01*
X2094600Y667900D02*
X2341900D01*
Y706100D01*
X2094600D01*
Y921900D01*
X2331900D01*
Y960100D01*
X2094600D01*
Y1175900D01*
X2345400D01*
Y1123410D01*
G75*
G02*
X2346340Y1124360I34590J-33290D01*
G01*
X2415640Y1193660D01*
G75*
G02*
X2450000Y1208100I34360J-33650D01*
G01*
X2466220D01*
G75*
G02*
X2665400Y1160000I93780J-48100D01*
G01*
G75*
G02*
X2593300Y1060000I-105400J0D01*
G01*
G75*
G02*
Y860000I-33300J-100000D01*
G01*
G75*
G02*
X2606480Y665400I-33300J-100000D01*
G01*
X2666400D01*
Y454600D01*
X2453600D01*
Y665400D01*
X2513520D01*
G75*
G02*
X2454600Y760000I46480J94600D01*
G01*
G75*
G02*
X2456180Y778160I105430J-20D01*
G01*
X2438100Y760080D01*
Y600000D01*
G75*
G02*
X2423660Y565640I-48090J0D01*
G01*
X2384360Y526340D01*
G75*
G02*
X2350000Y511900I-34360J33650D01*
G01*
X2345400D01*
Y452100D01*
X2094600D01*
Y667900D01*
Y1429900D02*
X2345400D01*
Y1214100D01*
X2094600D01*
Y1429900D01*
Y1683900D02*
X2345400D01*
Y1468100D01*
X2094600D01*
Y1683900D01*
Y1937900D02*
X2345400D01*
Y1722100D01*
X2094600D01*
Y1937900D01*
Y2191900D02*
X2345400D01*
Y1976100D01*
X2094600D01*
Y2191900D01*
Y2433200D02*
X2345400D01*
Y2217400D01*
X2094600D01*
Y2433200D01*
Y2699900D02*
X2345400D01*
Y2484100D01*
X2094600D01*
Y2699900D01*
Y2953900D02*
X2345400D01*
Y2738100D01*
X2094600D01*
Y2953900D01*
Y3207900D02*
X2345400D01*
Y2992100D01*
X2094600D01*
Y3207900D01*
X854600Y1880000D02*
G75*
G02*
X1005400I75400J0D01*
G01*
G75*
G02*
X854600I-75400J0D01*
G01*
X460640Y452100D02*
G36*
X460640Y452100D02*
Y210640D01*
X870000D01*
Y858750D01*
X643600D01*
Y706100D01*
X460640D01*
Y667900D01*
X643600D01*
Y452100D01*
X460640D01*
G37*
X1850000Y858750D02*
G36*
X1850000Y858750D02*
Y210640D01*
X2789360D01*
Y858750D01*
X2596840D01*
G75*
G02*
X2665390Y760000I-36860J-98750D01*
G01*
G75*
G02*
X2606480Y665400I-105410J0D01*
G01*
X2666400D01*
Y454600D01*
X2453600D01*
Y665400D01*
X2513520D01*
G75*
G02*
X2454600Y759980I46450J94580D01*
G01*
G75*
G02*
Y760000I88150J10D01*
G01*
G75*
G02*
Y760120I102620J60D01*
G01*
G75*
G02*
X2456180Y778160I103760J0D01*
G01*
X2438100Y760080D01*
Y600000D01*
G75*
G02*
X2423660Y565640I-48120J10D01*
G01*
X2384360Y526340D01*
G75*
G02*
X2350000Y511900I-34340J33610D01*
G01*
X2345400D01*
Y452100D01*
X2094600D01*
Y667900D01*
X2341900D01*
Y706100D01*
X2094600D01*
Y858750D01*
X1850000D01*
G37*
X460640Y960100D02*
G36*
X460640Y960100D02*
Y921900D01*
X643600D01*
Y858750D01*
X870000D01*
Y890000D01*
X1850000D01*
Y858750D01*
X2094600D01*
Y921900D01*
X2331900D01*
Y960100D01*
X2094600D01*
Y1175900D01*
X2345400D01*
Y1123410D01*
G75*
G02*
X2346340Y1124360I44650J-43240D01*
G01*
X2415640Y1193660D01*
G75*
G02*
X2450000Y1208100I34370J-33680D01*
G01*
X2466220D01*
G75*
G02*
X2665400Y1160000I93780J-48100D01*
G01*
G75*
G02*
X2593300Y1060000I-105400J0D01*
G01*
G75*
G02*
X2665390Y960000I-33310J-100000D01*
G01*
G75*
G02*
X2593300Y860000I-105400J0D01*
G01*
G75*
G02*
X2596840Y858750I-33320J-99990D01*
G01*
X2789360D01*
Y1322000D01*
X2345400D01*
Y1214100D01*
X2094600D01*
Y1322000D01*
X1605270D01*
G75*
G02*
X1616200Y1280000I-75280J-42010D01*
G01*
G75*
G02*
X1443800I-86200J0D01*
G01*
G75*
G02*
Y1280030I95490J20D01*
G01*
G75*
G02*
X1454720Y1322000I86140J-10D01*
G01*
X995400D01*
G75*
G02*
X725680Y1246600I-145400J0D01*
G01*
X643600D01*
Y1214100D01*
X460640D01*
Y1175900D01*
X643600D01*
Y960100D01*
X460640D01*
G37*
Y1480000D02*
G36*
X460640Y1480000D02*
Y1429900D01*
X643600D01*
Y1397400D01*
X725680D01*
G75*
G02*
X995400Y1322000I124320J-75400D01*
G01*
X1454720D01*
G75*
G02*
X1481900Y1351530I75230J-41970D01*
G01*
Y1480000D01*
X1463850D01*
G75*
G02*
X1296150I-83850J20000D01*
G01*
X460640D01*
G37*
X1578100D02*
G36*
X1578100Y1480000D02*
Y1351530D01*
G75*
G02*
X1605270Y1322000I-48110J-71530D01*
G01*
X2094600D01*
Y1429900D01*
X2345400D01*
Y1322000D01*
X2789360D01*
Y1480000D01*
X2705400D01*
G75*
G02*
X2414600I-145400J0D01*
G01*
X2345400D01*
Y1468100D01*
X2094600D01*
Y1480000D01*
X1578100D01*
G37*
X460640Y1480800D02*
G36*
X460640Y1480800D02*
Y1480000D01*
X1296150D01*
G75*
G02*
X1293800Y1500000I83850J19990D01*
G01*
G75*
G02*
Y1500030I95490J20D01*
G01*
G75*
G02*
X1331900Y1571530I86140J0D01*
G01*
Y1880000D01*
X1005400D01*
G75*
G02*
X854600I-75400J0D01*
G01*
X818020D01*
X734360Y1796340D01*
G75*
G02*
X700000Y1781900I-34340J33610D01*
G01*
X643600D01*
Y1722100D01*
X460640D01*
Y1696600D01*
X643600D01*
Y1480800D01*
X460640D01*
G37*
X643600Y1880000D02*
G36*
X643600Y1880000D02*
Y1878100D01*
X680080D01*
X681980Y1880000D01*
X643600D01*
G37*
X1428100D02*
G36*
X1428100Y1880000D02*
Y1571530D01*
G75*
G02*
X1466200Y1500000I-48110J-71540D01*
G01*
G75*
G02*
X1463850Y1480000I-86200J-10D01*
G01*
X1481900D01*
Y1880000D01*
X1428100D01*
G37*
X1578100D02*
G36*
X1578100Y1880000D02*
Y1480000D01*
X2094600D01*
Y1683900D01*
X2345400D01*
Y1480000D01*
X2414600D01*
G75*
G02*
X2705400I145400J0D01*
G01*
X2789360D01*
Y1880000D01*
X2345400D01*
Y1722100D01*
X2094600D01*
Y1880000D01*
X1785400D01*
G75*
G02*
X1634600I-75400J0D01*
G01*
X1578100D01*
G37*
X460640Y1976100D02*
G36*
X460640Y1976100D02*
Y1937900D01*
X643600D01*
Y1880000D01*
X681980D01*
X801900Y1999920D01*
Y2084000D01*
X643600D01*
Y1976100D01*
X460640D01*
G37*
X818020Y1880000D02*
G36*
X818020Y1880000D02*
X854600D01*
G75*
G02*
X1005400I75400J0D01*
G01*
X1331900D01*
Y2084000D01*
X898100D01*
Y1980000D01*
G75*
G02*
X883660Y1945640I-48120J10D01*
G01*
X818020Y1880000D01*
G37*
X1428100Y2084000D02*
G36*
X1428100Y2084000D02*
Y1880000D01*
X1481900D01*
Y2084000D01*
X1428100D01*
G37*
X1578100D02*
G36*
X1578100Y2084000D02*
Y1880000D01*
X1634600D01*
G75*
G02*
X1785400I75400J0D01*
G01*
X2094600D01*
Y1937900D01*
X2345400D01*
Y1880000D01*
X2789360D01*
Y2084000D01*
X2345400D01*
Y1976100D01*
X2094600D01*
Y2084000D01*
X1578100D01*
G37*
X460640Y2230100D02*
G36*
X460640Y2230100D02*
Y2191900D01*
X643600D01*
Y2084000D01*
X801900D01*
Y2258470D01*
G75*
G02*
X763930Y2325300I48010J71480D01*
G01*
X643600D01*
Y2230100D01*
X460640D01*
G37*
X898100Y2258470D02*
G36*
X898100Y2258470D02*
Y2084000D01*
X1331900D01*
Y2286080D01*
X1292680Y2325300D01*
X936070D01*
G75*
G02*
X898100Y2258470I-86050J4690D01*
G01*
G37*
X1428100Y2306000D02*
G36*
X1428100Y2306000D02*
Y2084000D01*
X1481900D01*
Y2325300D01*
X1424050D01*
G75*
G02*
X1428100Y2306000I-44110J-19330D01*
G01*
G37*
X1578100Y2325300D02*
G36*
X1578100Y2325300D02*
Y2084000D01*
X2094600D01*
Y2191900D01*
X2345400D01*
Y2084000D01*
X2789360D01*
Y2325300D01*
X2345400D01*
Y2217400D01*
X2094600D01*
Y2325300D01*
X1578100D01*
G37*
X460640Y2484100D02*
G36*
X460640Y2484100D02*
Y2445900D01*
X643600D01*
Y2325300D01*
X763930D01*
G75*
G02*
X763800Y2329950I85940J4730D01*
G01*
G75*
G02*
Y2330000I95490J30D01*
G01*
G75*
G02*
X936200I86200J0D01*
G01*
G75*
G02*
Y2329990I-81850J0D01*
G01*
G75*
G02*
X936070Y2325300I-86230J40D01*
G01*
X1292680D01*
X1025980Y2592000D01*
X902980D01*
G75*
G02*
X833430Y2575410I-52970J67990D01*
G01*
X816360Y2558340D01*
G75*
G02*
X782000Y2543900I-34340J33610D01*
G01*
X643600D01*
Y2484100D01*
X460640D01*
G37*
X1162020Y2592000D02*
G36*
X1162020Y2592000D02*
X1413660Y2340360D01*
G75*
G02*
X1424050Y2325300I-33720J-34380D01*
G01*
X1481900D01*
Y2592000D01*
X1162020D01*
G37*
X1578100D02*
G36*
X1578100Y2592000D02*
Y2325300D01*
X2094600D01*
Y2433200D01*
X2345400D01*
Y2325300D01*
X2789360D01*
Y2592000D01*
X2345400D01*
Y2484100D01*
X2094600D01*
Y2592000D01*
X1578100D01*
G37*
X926200Y2846000D02*
G36*
X926200Y2846000D02*
G75*
G02*
X924590Y2829430I-86200J10D01*
G01*
X1162020Y2592000D01*
X1481900D01*
Y2845080D01*
X1480980Y2846000D01*
X926200D01*
G37*
X936200Y2659990D02*
G36*
X936200Y2659990D02*
G75*
G02*
X902980Y2592000I-86190J0D01*
G01*
X1025980D01*
X932280Y2685700D01*
G75*
G02*
X936200Y2659990I-82290J-25700D01*
G01*
G37*
X1578100Y2846000D02*
G36*
X1578100Y2846000D02*
Y2592000D01*
X2094600D01*
Y2699900D01*
X2345400D01*
Y2592000D01*
X2789360D01*
Y2846000D01*
X2345400D01*
Y2738100D01*
X2094600D01*
Y2846000D01*
X1578100D01*
G37*
X460640Y2992100D02*
G36*
X460640Y2992100D02*
Y2953900D01*
X643600D01*
Y2894100D01*
X768470D01*
G75*
G02*
X926200Y2846010I71530J-48090D01*
G01*
G75*
G02*
Y2846000I-190990J0D01*
G01*
X1480980D01*
X1326570Y3000410D01*
G75*
G02*
X1223800Y3084980I-16590J84570D01*
G01*
G75*
G02*
Y3085000I76390J10D01*
G01*
G75*
G02*
X1225120Y3100000I86200J-30D01*
G01*
X796200D01*
G75*
G02*
X643600Y3045030I-86200J0D01*
G01*
Y2992100D01*
X460640D01*
G37*
X1396200Y3085000D02*
G36*
X1396200Y3085000D02*
G75*
G02*
X1394590Y3068430I-87360J130D01*
G01*
X1563660Y2899360D01*
G75*
G02*
X1578100Y2865000I-33720J-34390D01*
G01*
Y2846000D01*
X2094600D01*
Y2953900D01*
X2345400D01*
Y2846000D01*
X2789360D01*
Y3100000D01*
X2345400D01*
Y2992100D01*
X2094600D01*
Y3100000D01*
X1394880D01*
G75*
G02*
X1396200Y3085000I-84880J-15030D01*
G01*
G37*
X460640Y3246100D02*
G36*
X460640Y3246100D02*
Y3207900D01*
X643600D01*
Y3154970D01*
G75*
G02*
X796200Y3100000I66390J-54980D01*
G01*
X1225120D01*
G75*
G02*
X1394880I84880J-15000D01*
G01*
X2094600D01*
Y3207900D01*
X2345400D01*
Y3100000D01*
X2789360D01*
Y3320000D01*
X2345400D01*
Y3246100D01*
X2094600D01*
Y3320000D01*
X945400D01*
G75*
G02*
X794600I-75400J0D01*
G01*
X643600D01*
Y3246100D01*
X460640D01*
G37*
X643600Y3439360D02*
G36*
X643600Y3439360D02*
Y3320000D01*
X794600D01*
G75*
G02*
X945400I75400J0D01*
G01*
X2094600D01*
Y3439360D01*
X643600D01*
G37*
X2345400D02*
G36*
X2345400Y3439360D02*
Y3320000D01*
X2789360D01*
Y3439360D01*
X2345400D01*
G37*
D02*
D12*
X518200Y754200D02*
Y703400D01*
Y873800D02*
Y924600D01*
Y1830000D02*
X700000D01*
X850000Y1980000D01*
Y2330000D01*
X518200Y2592000D02*
X782000D01*
X850000Y2660000D01*
X518200Y2846000D02*
X840000D01*
X518200Y3100000D02*
X710000D01*
X595500Y814000D02*
X646300D01*
X842700Y3320000D02*
X791900D01*
X870000Y3292700D02*
Y3241900D01*
Y3347300D02*
Y3398100D01*
X897300Y3320000D02*
X948100D01*
X902700Y1880000D02*
X851900D01*
X930000Y1852700D02*
Y1801900D01*
Y1907300D02*
Y1958100D01*
X957300Y1880000D02*
X1008100D01*
X1380000Y1500000D02*
Y2306000D01*
X840000Y2846000D01*
X1530000Y1280000D02*
Y2865000D01*
X1310000Y3085000D01*
X1682700Y1880000D02*
X1631900D01*
X1710000Y1852700D02*
Y1801900D01*
Y1907300D02*
Y1958100D01*
X1737300Y1880000D02*
X1788100D01*
X2142700Y1068000D02*
X2091900D01*
X2142700Y1322000D02*
X2091900D01*
X2220000Y560000D02*
X2350000D01*
X2390000Y600000D01*
Y780000D01*
X2440000Y830000D01*
Y930000D01*
X2470000Y960000D01*
X2560000D01*
X2220000Y814000D02*
X2344000D01*
X2380000Y850000D01*
Y1090000D01*
X2450000Y1160000D01*
X2560000D01*
X2220000Y1008200D02*
Y957400D01*
Y1127800D02*
Y1178600D01*
Y1262200D02*
Y1211400D01*
Y1381800D02*
Y1432600D01*
X2297300Y1322000D02*
X2348100D01*
X2462700Y1480000D02*
X2411900D01*
X2501700Y560000D02*
X2450900D01*
X2560000Y502700D02*
Y451900D01*
Y1382700D02*
Y1331900D01*
Y1577300D02*
Y1628100D01*
X2618300Y560000D02*
X2669100D01*
X2657300Y1480000D02*
X2708100D01*
D02*
D13*
X850000Y1322000D02*
X518200D01*
X870000Y3320000D03*
X930000Y1880000D03*
Y1740000D01*
X1180000Y1490000D01*
Y1198000D01*
X1310000Y1068000D01*
X1004000D01*
X750000Y814000D01*
X518200D01*
X1710000Y1880000D03*
X2220000Y1068000D02*
X1310000D01*
X2220000Y1322000D02*
X1968000D01*
X1820000Y1470000D01*
Y1770000D01*
X1710000Y1880000D01*
X2220000Y1322000D02*
X2402000D01*
X2560000Y1480000D01*
X2220000Y1322000D02*
Y1068000D01*
D02*
D14*
X850000Y1322000D03*
X2560000Y1480000D03*
D02*
D15*
X710000Y3100000D03*
X840000Y2846000D03*
X850000Y2330000D03*
Y2660000D03*
X1310000Y3085000D03*
X1380000Y1500000D03*
X1530000Y1280000D03*
D02*
D16*
X518200Y560000D03*
Y814000D03*
Y1068000D03*
Y1322000D03*
Y1588700D03*
Y1830000D03*
Y2084000D03*
Y2338000D03*
Y2592000D03*
Y2846000D03*
Y3100000D03*
Y3354000D03*
X2220000Y560000D03*
Y814000D03*
Y1068000D03*
Y1322000D03*
Y1576000D03*
Y1830000D03*
Y2084000D03*
Y2325300D03*
Y2592000D03*
Y2846000D03*
Y3100000D03*
Y3354000D03*
D02*
D17*
X2560000Y560000D03*
D02*
D18*
Y760000D03*
Y960000D03*
Y1160000D03*
X0Y0D02*
M02*
