G04 DesignSpark PCB Gerber Version 13.0 Build *
%FSLAX35Y35*%
%MOMM*%
%ADD10C,0.12700*%
%ADD78C,2.54000*%
X0Y0D02*
D02*
D10*
X1019560Y3298440D02*
X1035440Y3290500D01*
X1043380Y3274630D01*
X1035440Y3258750D01*
X1019560Y3250810D01*
X964000D01*
Y3346060D01*
X1019560D01*
X1035440Y3338130D01*
X1043380Y3322250D01*
X1035440Y3306380D01*
X1019560Y3298440D01*
X964000D01*
X1149560Y3044440D02*
X1165440Y3036500D01*
X1173380Y3020630D01*
X1165440Y3004750D01*
X1149560Y2996810D01*
X1094000D01*
Y3092060D01*
X1149560D01*
X1165440Y3084130D01*
X1173380Y3068250D01*
X1165440Y3052380D01*
X1149560Y3044440D01*
X1094000D01*
X1104000Y1472810D02*
X1143690Y1568060D01*
X1183380Y1472810D01*
X1119880Y1512500D02*
X1167500D01*
X1159560Y2528440D02*
X1175440Y2520500D01*
X1183380Y2504630D01*
X1175440Y2488750D01*
X1159560Y2480810D01*
X1104000D01*
Y2576060D01*
X1159560D01*
X1175440Y2568130D01*
X1183380Y2552250D01*
X1175440Y2536380D01*
X1159560Y2528440D01*
X1104000D01*
X1159560Y2858440D02*
X1175440Y2850500D01*
X1183380Y2834630D01*
X1175440Y2818750D01*
X1159560Y2810810D01*
X1104000D01*
Y2906060D01*
X1159560D01*
X1175440Y2898130D01*
X1183380Y2882250D01*
X1175440Y2866380D01*
X1159560Y2858440D01*
X1104000D01*
X1147810Y3470810D02*
X1179560D01*
X1163690D02*
Y3566060D01*
X1147810D02*
X1179560D01*
X1207810Y2030810D02*
X1239560D01*
X1223690D02*
Y2126060D01*
X1207810D02*
X1239560D01*
X1619560Y3283440D02*
X1635440Y3275500D01*
X1643380Y3259630D01*
X1635440Y3243750D01*
X1619560Y3235810D01*
X1564000D01*
Y3331060D01*
X1619560D01*
X1635440Y3323130D01*
X1643380Y3307250D01*
X1635440Y3291380D01*
X1619560Y3283440D01*
X1564000D01*
X1689560Y1698440D02*
X1705440Y1690500D01*
X1713380Y1674630D01*
X1705440Y1658750D01*
X1689560Y1650810D01*
X1634000D01*
Y1746060D01*
X1689560D01*
X1705440Y1738130D01*
X1713380Y1722250D01*
X1705440Y1706380D01*
X1689560Y1698440D01*
X1634000D01*
X1839560Y1478440D02*
X1855440Y1470500D01*
X1863380Y1454630D01*
X1855440Y1438750D01*
X1839560Y1430810D01*
X1784000D01*
Y1526060D01*
X1839560D01*
X1855440Y1518130D01*
X1863380Y1502250D01*
X1855440Y1486380D01*
X1839560Y1478440D01*
X1784000D01*
X1987810Y2030810D02*
X2019560D01*
X2003690D02*
Y2126060D01*
X1987810D02*
X2019560D01*
X2893380Y726690D02*
X2885440Y718750D01*
X2869560Y710810D01*
X2845750D01*
X2829880Y718750D01*
X2821940Y726690D01*
X2814000Y742560D01*
Y774310D01*
X2821940Y790190D01*
X2829880Y798130D01*
X2845750Y806060D01*
X2869560D01*
X2885440Y798130D01*
X2893380Y790190D01*
Y926690D02*
X2885440Y918750D01*
X2869560Y910810D01*
X2845750D01*
X2829880Y918750D01*
X2821940Y926690D01*
X2814000Y942560D01*
Y974310D01*
X2821940Y990190D01*
X2829880Y998130D01*
X2845750Y1006060D01*
X2869560D01*
X2885440Y998130D01*
X2893380Y990190D01*
Y1126690D02*
X2885440Y1118750D01*
X2869560Y1110810D01*
X2845750D01*
X2829880Y1118750D01*
X2821940Y1126690D01*
X2814000Y1142560D01*
Y1174310D01*
X2821940Y1190190D01*
X2829880Y1198130D01*
X2845750Y1206060D01*
X2869560D01*
X2885440Y1198130D01*
X2893380Y1190190D01*
Y1326690D02*
X2885440Y1318750D01*
X2869560Y1310810D01*
X2845750D01*
X2829880Y1318750D01*
X2821940Y1326690D01*
X2814000Y1342560D01*
Y1374310D01*
X2821940Y1390190D01*
X2829880Y1398130D01*
X2845750Y1406060D01*
X2869560D01*
X2885440Y1398130D01*
X2893380Y1390190D01*
X2814000Y1630810D02*
X2853690Y1726060D01*
X2893380Y1630810D01*
X2829880Y1670500D02*
X2877500D01*
D02*
D78*
X710000Y3100000D03*
X840000Y2846000D03*
X850000Y1322000D03*
Y2330000D03*
Y2660000D03*
X870000Y3320000D03*
X930000Y1880000D03*
X1310000Y3085000D03*
X1380000Y1500000D03*
X1530000Y1280000D03*
X1710000Y1880000D03*
X2560000Y560000D03*
Y760000D03*
Y960000D03*
Y1160000D03*
Y1480000D03*
X0Y0D02*
M02*
