G04 DesignSpark PCB Gerber Version 13.0 Build *
%FSLAX35Y35*%
%MOMM*%
%ADD10C,0.12700*%
X0Y0D02*
D02*
D10*
X416600Y153600D02*
Y3493700D01*
X2321600D01*
Y280600D01*
X2194600Y153600D01*
X416600D01*
X911900D02*
Y852100D01*
X1826300D01*
Y153600D01*
X911900D01*
X1775500Y352040D02*
Y423470D01*
X1767560Y439350D01*
X1751690Y447290D01*
X1719940D01*
X1704060Y439350D01*
X1696120Y423470D01*
Y352040D01*
X1632620Y447290D02*
X1600870D01*
X1616750D02*
Y352040D01*
X1632620Y367910D01*
X2440940Y1960000D02*
X2512370D01*
X2528250Y1967940D01*
X2536190Y1983810D01*
Y2015560D01*
X2528250Y2031440D01*
X2512370Y2039380D01*
X2440940D01*
X2536190Y2110810D02*
Y2142560D01*
Y2126690D02*
X2440940D01*
Y2110810D02*
Y2142560D01*
X2536190Y2214000D02*
X2440940Y2253690D01*
X2536190Y2293380D01*
X2496500Y2229880D02*
Y2277500D01*
X2536190Y2341000D02*
X2440940D01*
Y2396560D01*
X2448870Y2412440D01*
X2464750Y2420380D01*
X2480620Y2412440D01*
X2488560Y2396560D01*
Y2341000D01*
X2440940Y2595000D02*
X2536190D01*
Y2674380D01*
X2504440Y2722000D02*
X2472690D01*
X2456810Y2729940D01*
X2448870Y2737880D01*
X2440940Y2753750D01*
Y2769630D01*
X2448870Y2785500D01*
X2456810Y2793440D01*
X2472690Y2801380D01*
X2504440D01*
X2520310Y2793440D01*
X2528250Y2785500D01*
X2536190Y2769630D01*
Y2753750D01*
X2528250Y2737880D01*
X2520310Y2729940D01*
X2504440Y2722000D01*
X2496500Y2904560D02*
Y2928380D01*
X2504440D01*
X2520310Y2920440D01*
X2528250Y2912500D01*
X2536190Y2896630D01*
Y2880750D01*
X2528250Y2864880D01*
X2520310Y2856940D01*
X2504440Y2849000D01*
X2472690D01*
X2456810Y2856940D01*
X2448870Y2864880D01*
X2440940Y2880750D01*
Y2896630D01*
X2448870Y2912500D01*
X2456810Y2920440D01*
X2472690Y2928380D01*
X2726190Y2033500D02*
Y1970000D01*
X2670620Y2025560D01*
X2654750Y2033500D01*
X2638870Y2025560D01*
X2630940Y2009690D01*
Y1985880D01*
X2638870Y1970000D01*
X2718250Y2104940D02*
X2726190Y2120810D01*
Y2136690D01*
X2718250Y2152560D01*
X2702370Y2160500D01*
X2654750D01*
X2638870Y2152560D01*
X2630940Y2136690D01*
Y2120810D01*
X2638870Y2104940D01*
X2654750Y2097000D01*
X2702370D01*
X2718250Y2104940D01*
X2638870Y2152560D01*
X2726190Y2287500D02*
Y2224000D01*
X2670620Y2279560D01*
X2654750Y2287500D01*
X2638870Y2279560D01*
X2630940Y2263690D01*
Y2239880D01*
X2638870Y2224000D01*
X2702370Y2351000D02*
X2686500Y2358940D01*
X2678560Y2374810D01*
Y2390690D01*
X2686500Y2406560D01*
X2702370Y2414500D01*
X2718250Y2406560D01*
X2726190Y2390690D01*
Y2374810D01*
X2718250Y2358940D01*
X2702370Y2351000D01*
X2678560D01*
X2654750Y2358940D01*
X2638870Y2374810D01*
X2630940Y2390690D01*
X2726190Y2478000D02*
X2630940Y2557380D01*
X2718250Y2612940D02*
X2726190Y2628810D01*
Y2644690D01*
X2718250Y2660560D01*
X2702370Y2668500D01*
X2654750D01*
X2638870Y2660560D01*
X2630940Y2644690D01*
Y2628810D01*
X2638870Y2612940D01*
X2654750Y2605000D01*
X2702370D01*
X2718250Y2612940D01*
X2638870Y2660560D01*
X2718250Y2732000D02*
X2726190Y2747880D01*
Y2771690D01*
X2718250Y2787560D01*
X2702370Y2795500D01*
X2694440D01*
X2678560Y2787560D01*
X2670620Y2771690D01*
Y2732000D01*
X2630940D01*
Y2795500D01*
X2726190Y2859000D02*
X2630940Y2938380D01*
X2718250Y2993940D02*
X2726190Y3009810D01*
Y3025690D01*
X2718250Y3041560D01*
X2702370Y3049500D01*
X2654750D01*
X2638870Y3041560D01*
X2630940Y3025690D01*
Y3009810D01*
X2638870Y2993940D01*
X2654750Y2986000D01*
X2702370D01*
X2718250Y2993940D01*
X2638870Y3041560D01*
X2726190Y3176500D02*
Y3113000D01*
X2670620Y3168560D01*
X2654750Y3176500D01*
X2638870Y3168560D01*
X2630940Y3152690D01*
Y3128880D01*
X2638870Y3113000D01*
X0Y0D02*
M02*
