G04 DesignSpark PCB Gerber Version 13.0 Build *
%FSLAX35Y35*%
%MOMM*%
%AMT21*0 Bullet Pad at angle 90*21,1,1.45240,1.82620,0,0,90*%
%ADD21T21*%
%ADD71R,1.57240X1.55240*%
%ADD22C,1.45240*%
%ADD20C,1.55240*%
%AMT23*0 Bullet Pad at angle 270*21,1,1.45240,1.82620,0,0,270*%
%ADD23T23*%
%ADD24R,2.55240X1.60240*%
X0Y0D02*
D02*
D71*
X2550000Y560000D03*
D02*
D20*
Y760000D03*
Y960000D03*
Y1160000D03*
D02*
D21*
X2116310Y570000D03*
D02*
D22*
X2025000D03*
D02*
D21*
X2116310Y824000D03*
D02*
D22*
X2025000D03*
D02*
D21*
X2116310Y1078000D03*
D02*
D22*
X2025000D03*
D02*
D21*
X2116310Y1332000D03*
D02*
D22*
X2025000D03*
D02*
D21*
X2116310Y1586000D03*
D02*
D22*
X2025000D03*
D02*
D21*
X2116310Y3364000D03*
D02*
D22*
X2025000D03*
D02*
D23*
X519690Y570000D03*
D02*
D22*
X611000D03*
D02*
D23*
X519690Y824000D03*
D02*
D22*
X611000D03*
D02*
D23*
X519690Y1078000D03*
D02*
D22*
X611000D03*
D02*
D23*
X519690Y1332000D03*
D02*
D22*
X611000D03*
D02*
D23*
X519690Y1586000D03*
D02*
D22*
X611000D03*
D02*
D23*
X519690Y1840000D03*
D02*
D22*
X611000D03*
D02*
D23*
X519690Y2094000D03*
D02*
D22*
X611000D03*
D02*
D23*
X519690Y2348000D03*
D02*
D22*
X611000D03*
D02*
D23*
X519690Y2602000D03*
D02*
D22*
X611000D03*
D02*
D23*
X519690Y2856000D03*
D02*
D22*
X611000D03*
D02*
D23*
X519690Y3110000D03*
D02*
D22*
X611000D03*
D02*
D23*
X519690Y3364000D03*
D02*
D22*
X611000D03*
D02*
D24*
X2080000Y1840000D03*
Y2094000D03*
Y2335300D03*
Y2602000D03*
Y2856000D03*
Y3110000D03*
X0Y0D02*
M02*
