G04 DesignSpark PCB Gerber Version 13.0 Build *
%FSLAX35Y35*%
%MOMM*%
%AMT76*0 Bullet Pad at angle 0*4,1,26,-0.40000,-0.30000,0.40000,-0.30000,0.40000,-0.10000,0.39620,-0.04550,0.38500,0.00790,0.36670,0.05930,0.34150,0.10770,0.31000,0.15220,0.27270,0.19200,0.23030,0.22640,0.18370,0.25470,0.13360,0.27640,0.08110,0.29100,0.02710,0.29840,-0.02740,0.29830,-0.08130,0.29080,-0.13370,0.27600,-0.18360,0.25420,-0.23010,0.22590,-0.27230,0.19150,-0.30940,0.15170,-0.34070,0.10720,-0.36570,0.05880,-0.38390,0.00750,-0.39490,-0.04570,-0.40000,-0.10000,-0.40000,-0.30000,0*%
%ADD76T76*%
%ADD78R,0.30000X0.50000*%
%ADD74R,0.80000X0.80000*%
%ADD72R,0.80000X1.00000*%
%ADD77R,0.80000X0.80000*%
%ADD11C,0.20000*%
%ADD12C,0.25400*%
%ADD26C,0.65000*%
%ADD13C,0.80000*%
%ADD14C,1.01600*%
%AMT80*0 Bullet Pad at angle 90*4,1,26,0.30000,-0.40000,0.30000,0.40000,0.10000,0.40000,0.04550,0.39620,-0.00790,0.38500,-0.05930,0.36670,-0.10770,0.34150,-0.15220,0.31000,-0.19200,0.27270,-0.22640,0.23030,-0.25470,0.18370,-0.27640,0.13360,-0.29100,0.08110,-0.29840,0.02710,-0.29830,-0.02740,-0.29080,-0.08130,-0.27600,-0.13370,-0.25420,-0.18360,-0.22590,-0.23010,-0.19150,-0.27230,-0.15170,-0.30940,-0.10720,-0.34070,-0.05880,-0.36570,-0.00750,-0.38390,0.04570,-0.39490,0.10000,-0.40000,0.30000,-0.40000,0*%
%ADD80T80*%
%AMT17*0 Bullet Pad at angle 90*21,1,1.30000,1.75000,0,0,90*%
%ADD17T17*%
%ADD81R,0.50000X0.30000*%
%ADD29R,1.20000X0.70000*%
%ADD28R,1.20000X1.00000*%
%ADD73R,2.80000X1.00000*%
%ADD27R,1.90000X1.30000*%
%ADD15R,1.42000X1.40000*%
%ADD18C,1.30000*%
%ADD16C,1.40000*%
%AMT75*0 Bullet Pad at angle 180*4,1,26,0.40000,0.30000,-0.40000,0.30000,-0.40000,0.10000,-0.39620,0.04550,-0.38500,-0.00790,-0.36670,-0.05930,-0.34150,-0.10770,-0.31000,-0.15220,-0.27270,-0.19200,-0.23030,-0.22640,-0.18370,-0.25470,-0.13360,-0.27640,-0.08110,-0.29100,-0.02710,-0.29840,0.02740,-0.29830,0.08130,-0.29080,0.13370,-0.27600,0.18360,-0.25420,0.23010,-0.22590,0.27230,-0.19150,0.30940,-0.15170,0.34070,-0.10720,0.36570,-0.05880,0.38390,-0.00750,0.39490,0.04570,0.40000,0.10000,0.40000,0.30000,0*%
%ADD75T75*%
%AMT79*0 Bullet Pad at angle 270*4,1,26,-0.30000,0.40000,-0.30000,-0.40000,-0.10000,-0.40000,-0.04550,-0.39620,0.00790,-0.38500,0.05930,-0.36670,0.10770,-0.34150,0.15220,-0.31000,0.19200,-0.27270,0.22640,-0.23030,0.25470,-0.18370,0.27640,-0.13360,0.29100,-0.08110,0.29840,-0.02710,0.29830,0.02740,0.29080,0.08130,0.27600,0.13370,0.25420,0.18360,0.22590,0.23010,0.19150,0.27230,0.15170,0.30940,0.10720,0.34070,0.05880,0.36570,0.00750,0.38390,-0.04570,0.39490,-0.10000,0.40000,-0.30000,0.40000,0*%
%ADD79T79*%
%AMT19*0 Bullet Pad at angle 270*21,1,1.30000,1.75000,0,0,270*%
%ADD19T19*%
X0Y0D02*
D02*
D11*
X440640Y469600D02*
Y200640D01*
X2789360D01*
Y3020000D01*
X1770000D01*
Y2120000D01*
X1570000D01*
Y3094600D01*
X1404600D01*
Y3120000D01*
X1257990D01*
G75*
G02*
X1259360Y3118660I-32910J-35020D01*
G01*
X1263430Y3114590D01*
G75*
G02*
X1366200Y3030000I16570J-84590D01*
G01*
G75*
G02*
X1193800I-86200J0D01*
G01*
G75*
G02*
X1194080Y3036900I86190J-40D01*
G01*
X1165400D01*
Y2625400D01*
X1209060D01*
G75*
G02*
X1263320Y2603320I940J-75400D01*
G01*
X1323320Y2543320D01*
G75*
G02*
X1345410Y2490000I-53320J-53320D01*
G01*
G75*
G02*
X1345400Y2489060I-75440J330D01*
G01*
Y1766040D01*
G75*
G02*
X1345410Y1765100I-75430J-1270D01*
G01*
G75*
G02*
X1323320Y1711780I-75410J0D01*
G01*
X1160300Y1548760D01*
Y1011220D01*
X1172520Y999000D01*
G75*
G02*
X1195400Y944900I-52520J-54100D01*
G01*
Y800000D01*
G75*
G02*
X1172520Y745900I-75400J0D01*
G01*
X1153490Y726870D01*
G75*
G02*
X1155400Y710400I-73490J-16870D01*
G01*
X1164060D01*
G75*
G02*
X1218320Y688320I940J-75400D01*
G01*
X1461240Y445400D01*
X2208760D01*
X2232960Y469600D01*
X2025000D01*
G75*
G02*
X1936870Y521900I0J100400D01*
G01*
X1840000D01*
G75*
G02*
X1805640Y536340I0J48090D01*
G01*
X1660080Y681900D01*
X1648100D01*
Y660000D01*
G75*
G02*
X1633660Y625640I-48090J0D01*
G01*
X1604360Y596340D01*
G75*
G02*
X1570000Y581900I-34360J33650D01*
G01*
X1400000D01*
G75*
G02*
X1365640Y596340I0J48090D01*
G01*
X1306340Y655640D01*
G75*
G02*
X1291900Y690000I33650J34360D01*
G01*
Y870000D01*
G75*
G02*
X1306340Y904360I48090J0D01*
G01*
X1364930Y962950D01*
G75*
G02*
X1439600Y1045400I75070J7050D01*
G01*
X1467200D01*
G75*
G02*
X1481340Y1074360I47790J-5400D01*
G01*
X1510640Y1103660D01*
G75*
G02*
X1545000Y1118100I34360J-33650D01*
G01*
X1700000D01*
G75*
G02*
X1734360Y1103660I0J-48090D01*
G01*
X1839920Y998100D01*
X1964200D01*
G75*
G02*
X2025000Y1178400I60800J79900D01*
G01*
X2235400D01*
Y998100D01*
X2238470D01*
G75*
G02*
X2361900Y1018820I71530J-48100D01*
G01*
Y1020000D01*
G75*
G02*
X2376340Y1054360I48090J0D01*
G01*
X2449670Y1127690D01*
G75*
G02*
X2550000Y1265400I100330J32310D01*
G01*
G75*
G02*
X2583300Y1060000I0J-105400D01*
G01*
G75*
G02*
Y860000I-33300J-100000D01*
G01*
G75*
G02*
X2596480Y665400I-33300J-100000D01*
G01*
X2656400D01*
Y454600D01*
X2443600D01*
Y646980D01*
X2405400Y608780D01*
Y460940D01*
G75*
G02*
X2405410Y460000I-75430J-1270D01*
G01*
G75*
G02*
X2383320Y406680I-75410J0D01*
G01*
X2293320Y316680D01*
G75*
G02*
X2239060Y294600I-53320J53320D01*
G01*
X1430940D01*
G75*
G02*
X1376680Y316680I-940J75400D01*
G01*
X1152840Y540520D01*
G75*
G02*
X1147900Y527220I-72820J19480D01*
G01*
Y502800D01*
G75*
G02*
X1133320Y416680I-67900J-32800D01*
G01*
X1063320Y346680D01*
G75*
G02*
X1009060Y324600I-53320J53320D01*
G01*
X910940D01*
G75*
G02*
X856680Y346680I-940J75400D01*
G01*
X708760Y494600D01*
X677290D01*
G75*
G02*
X611000Y469600I-66290J75390D01*
G01*
X440640D01*
X2025000Y1432400D02*
X2235400D01*
Y1231600D01*
X2025000D01*
G75*
G02*
X1924600Y1332000I0J100400D01*
G01*
G75*
G02*
X2025000Y1432400I100400J0D01*
G01*
Y1686400D02*
X2235400D01*
Y1485600D01*
X2025000D01*
G75*
G02*
X1924600Y1586000I0J100400D01*
G01*
G75*
G02*
X2025000Y1686400I100400J0D01*
G01*
X2449600Y1930400D02*
X2710400D01*
Y1729600D01*
X2449600D01*
Y1930400D01*
X1174600Y1185400D02*
X1325400D01*
Y1183420D01*
X1385410Y1243430D01*
G75*
G02*
X1383800Y1260000I84570J16580D01*
G01*
G75*
G02*
X1556200I86200J0D01*
G01*
G75*
G02*
X1453430Y1175410I-86200J0D01*
G01*
X1354360Y1076340D01*
G75*
G02*
X1325400Y1062200I-34360J33650D01*
G01*
Y1034600D01*
X1174600D01*
Y1185400D01*
Y1395400D02*
X1201900D01*
Y1440000D01*
G75*
G02*
X1216340Y1474360I48090J0D01*
G01*
X1225410Y1483430D01*
G75*
G02*
X1223800Y1500000I84570J16580D01*
G01*
G75*
G02*
X1396200I86200J0D01*
G01*
G75*
G02*
X1298100Y1414630I-86200J0D01*
G01*
Y1395400D01*
X1325400D01*
Y1244600D01*
X1174600D01*
Y1395400D01*
X450640Y469600D02*
G36*
X450640Y469600D02*
Y210640D01*
X2779360D01*
Y1332000D01*
X2235400D01*
Y1231600D01*
X2025000D01*
G75*
G02*
X1924600Y1331980I0J100380D01*
G01*
G75*
G02*
Y1332000I95490J10D01*
G01*
X1517400D01*
G75*
G02*
X1556200Y1260000I-47400J-72000D01*
G01*
G75*
G02*
Y1259990I-95490J0D01*
G01*
G75*
G02*
X1453430Y1175410I-86190J0D01*
G01*
X1354360Y1076340D01*
G75*
G02*
X1325400Y1062200I-34380J33690D01*
G01*
Y1034600D01*
X1174600D01*
Y1185400D01*
X1325400D01*
Y1183420D01*
X1385410Y1243430D01*
G75*
G02*
X1383800Y1259920I83630J16490D01*
G01*
G75*
G02*
Y1260000I83340J40D01*
G01*
G75*
G02*
X1422600Y1332000I86200J0D01*
G01*
X1325400D01*
Y1244600D01*
X1174600D01*
Y1332000D01*
X1160300D01*
Y1011220D01*
X1172520Y999000D01*
G75*
G02*
X1195400Y944900I-52620J-54140D01*
G01*
Y800000D01*
G75*
G02*
X1172520Y745900I-75450J20D01*
G01*
X1153490Y726870D01*
G75*
G02*
X1155400Y710400I-75150J-17060D01*
G01*
X1164060D01*
G75*
G02*
X1218320Y688320I920J-75460D01*
G01*
X1461240Y445400D01*
X2208760D01*
X2232960Y469600D01*
X2025000D01*
G75*
G02*
X1936870Y521900I-50J100320D01*
G01*
X1840000D01*
G75*
G02*
X1805640Y536340I-40J48010D01*
G01*
X1660080Y681900D01*
X1648100D01*
Y660000D01*
G75*
G02*
X1633660Y625640I-48120J10D01*
G01*
X1604360Y596340D01*
G75*
G02*
X1570000Y581900I-34340J33610D01*
G01*
X1400000D01*
G75*
G02*
X1365640Y596340I-40J48010D01*
G01*
X1306340Y655640D01*
G75*
G02*
X1291900Y689960I33570J34320D01*
G01*
G75*
G02*
Y690000I49820J20D01*
G01*
Y870000D01*
G75*
G02*
Y870020I49820J10D01*
G01*
G75*
G02*
X1306340Y904360I48050J0D01*
G01*
X1364930Y962950D01*
G75*
G02*
X1364600Y970000I75100J7050D01*
G01*
G75*
G02*
X1439600Y1045400I75400J0D01*
G01*
X1467200D01*
G75*
G02*
X1481340Y1074360I47830J-5420D01*
G01*
X1510640Y1103660D01*
G75*
G02*
X1545000Y1118100I34370J-33680D01*
G01*
X1700000D01*
G75*
G02*
X1734360Y1103660I-30J-48160D01*
G01*
X1839920Y998100D01*
X1964200D01*
G75*
G02*
X1924600Y1078000I60800J79900D01*
G01*
G75*
G02*
X2025000Y1178400I100400J0D01*
G01*
X2235400D01*
Y998100D01*
X2238470D01*
G75*
G02*
X2361900Y1018820I71530J-48120D01*
G01*
Y1020000D01*
G75*
G02*
Y1020020I49820J10D01*
G01*
G75*
G02*
X2376340Y1054360I48050J0D01*
G01*
X2449670Y1127690D01*
G75*
G02*
X2444590Y1160000I100310J32330D01*
G01*
G75*
G02*
X2550000Y1265400I105410J0D01*
G01*
G75*
G02*
X2655400Y1160000I0J-105400D01*
G01*
G75*
G02*
X2583300Y1060000I-105400J0D01*
G01*
G75*
G02*
X2655390Y960000I-33310J-100000D01*
G01*
G75*
G02*
X2583300Y860000I-105400J0D01*
G01*
G75*
G02*
X2655390Y760000I-33310J-100000D01*
G01*
G75*
G02*
X2596480Y665400I-105410J0D01*
G01*
X2656400D01*
Y454600D01*
X2443600D01*
Y646980D01*
X2405400Y608780D01*
Y460940D01*
G75*
G03*
Y460710I21640J-110D01*
G01*
G75*
G03*
X2405410Y460000I22260J-40D01*
G01*
G75*
G02*
X2383320Y406680I-75480J40D01*
G01*
X2293320Y316680D01*
G75*
G02*
X2239060Y294600I-53300J53270D01*
G01*
X1430940D01*
G75*
G02*
X1376680Y316680I-980J75300D01*
G01*
X1152840Y540520D01*
G75*
G02*
X1147900Y527220I-73280J19650D01*
G01*
Y502800D01*
G75*
G02*
X1155400Y470010I-67940J-32790D01*
G01*
G75*
G02*
X1133320Y416680I-75450J0D01*
G01*
X1063320Y346680D01*
G75*
G02*
X1009060Y324600I-53300J53270D01*
G01*
X910940D01*
G75*
G02*
X856680Y346680I-980J75300D01*
G01*
X708760Y494600D01*
X677290D01*
G75*
G02*
X611000Y469600I-66260J75300D01*
G01*
X450640D01*
G37*
X1160300Y1548760D02*
G36*
X1160300Y1548760D02*
Y1332000D01*
X1174600D01*
Y1395400D01*
X1201900D01*
Y1440000D01*
G75*
G02*
Y1440020I49820J10D01*
G01*
G75*
G02*
X1216340Y1474360I48050J0D01*
G01*
X1225410Y1483430D01*
G75*
G02*
X1223800Y1499920I83630J16490D01*
G01*
G75*
G02*
Y1500000I83340J40D01*
G01*
G75*
G02*
X1304130Y1586000I86200J0D01*
G01*
X1197540D01*
X1160300Y1548760D01*
G37*
X1298100Y1414630D02*
G36*
X1298100Y1414630D02*
Y1395400D01*
X1325400D01*
Y1332000D01*
X1422600D01*
G75*
G02*
X1517400I47400J-72010D01*
G01*
X1924600D01*
G75*
G02*
Y1332010I286480J10D01*
G01*
G75*
G02*
X2025000Y1432400I100400J0D01*
G01*
X2235400D01*
Y1332000D01*
X2779360D01*
Y1586000D01*
X2235400D01*
Y1485600D01*
X2025000D01*
G75*
G02*
X1924600Y1585980I0J100380D01*
G01*
G75*
G02*
Y1586000I95490J10D01*
G01*
X1315870D01*
G75*
G02*
X1396200Y1500000I-5870J-86000D01*
G01*
G75*
G02*
X1298100Y1414630I-86200J0D01*
G01*
G37*
X1197540Y1586000D02*
G36*
X1197540Y1586000D02*
X1304130D01*
G75*
G02*
X1315870I5870J-86030D01*
G01*
X1924600D01*
G75*
G02*
Y1586010I286480J10D01*
G01*
G75*
G02*
X2025000Y1686400I100400J0D01*
G01*
X2235400D01*
Y1586000D01*
X2779360D01*
Y1830000D01*
X2710400D01*
Y1729600D01*
X2449600D01*
Y1830000D01*
X1345400D01*
Y1766040D01*
G75*
G03*
Y1765810I21640J-110D01*
G01*
G75*
G03*
X1345410Y1765100I22260J-40D01*
G01*
G75*
G02*
X1323320Y1711780I-75480J40D01*
G01*
X1197540Y1586000D01*
G37*
X1165400Y3036900D02*
G36*
X1165400Y3036900D02*
Y2625400D01*
X1209060D01*
G75*
G02*
X1263320Y2603320I920J-75460D01*
G01*
X1323320Y2543320D01*
G75*
G02*
X1345410Y2490000I-53440J-53380D01*
G01*
G75*
G03*
X1345400Y2489290I22570J-670D01*
G01*
G75*
G03*
Y2489060I22600J-110D01*
G01*
Y1830000D01*
X2449600D01*
Y1930400D01*
X2710400D01*
Y1830000D01*
X2779360D01*
Y3020000D01*
X1770000D01*
Y2120000D01*
X1570000D01*
Y3094600D01*
X1404600D01*
Y3110000D01*
X1312090D01*
G75*
G02*
X1366200Y3030000I-32090J-80010D01*
G01*
G75*
G02*
X1193800I-86200J0D01*
G01*
G75*
G02*
X1194080Y3036900I85280J0D01*
G01*
X1165400D01*
G37*
X440640Y1231600D02*
Y1178400D01*
X611000D01*
G75*
G02*
X711400Y1078000I0J-100400D01*
G01*
G75*
G02*
X611000Y977600I-100400J0D01*
G01*
X440640D01*
Y924400D01*
X611000D01*
G75*
G02*
X711400Y824000I0J-100400D01*
G01*
G75*
G02*
X611000Y723600I-100400J0D01*
G01*
X440640D01*
Y670400D01*
X611000D01*
G75*
G02*
X677290Y645400I0J-100390D01*
G01*
X739060D01*
G75*
G02*
X793320Y623320I940J-75400D01*
G01*
X941240Y475400D01*
X978760D01*
X1012100Y508740D01*
Y527220D01*
G75*
G02*
X1004600Y559600I67890J32780D01*
G01*
Y710400D01*
G75*
G02*
X1008870Y735010I75390J-410D01*
G01*
G75*
G02*
X1026690Y813310I71130J24990D01*
G01*
X1044600Y831220D01*
Y913680D01*
X1032380Y925900D01*
G75*
G02*
X1009500Y980000I52520J54100D01*
G01*
Y1244600D01*
X660410D01*
G75*
G02*
X611000Y1231600I-49410J87400D01*
G01*
X440640D01*
G36*
X440640Y1231600D02*
Y1178400D01*
X611000D01*
G75*
G02*
X711400Y1078000I0J-100400D01*
G01*
G75*
G02*
X611000Y977600I-100400J0D01*
G01*
X440640D01*
Y924400D01*
X611000D01*
G75*
G02*
X711400Y824000I0J-100400D01*
G01*
G75*
G02*
X611000Y723600I-100400J0D01*
G01*
X440640D01*
Y670400D01*
X611000D01*
G75*
G02*
X677290Y645400I0J-100390D01*
G01*
X739060D01*
G75*
G02*
X793320Y623320I940J-75400D01*
G01*
X941240Y475400D01*
X978760D01*
X1012100Y508740D01*
Y527220D01*
G75*
G02*
X1004600Y559600I67890J32780D01*
G01*
Y710400D01*
G75*
G02*
X1008870Y735010I75390J-410D01*
G01*
G75*
G02*
X1026690Y813310I71130J24990D01*
G01*
X1044600Y831220D01*
Y913680D01*
X1032380Y925900D01*
G75*
G02*
X1009500Y980000I52520J54100D01*
G01*
Y1244600D01*
X660410D01*
G75*
G02*
X611000Y1231600I-49410J87400D01*
G01*
X440640D01*
G37*
Y2755600D02*
Y2702400D01*
X611000D01*
G75*
G02*
X699130Y2650100I0J-100400D01*
G01*
X720080D01*
X763640Y2693660D01*
G75*
G02*
X798000Y2708100I34360J-33650D01*
G01*
X974600D01*
Y2831900D01*
X759940D01*
X754020Y2825980D01*
G75*
G02*
X718950Y2811900I-34020J34020D01*
G01*
X701200D01*
G75*
G02*
X611000Y2755600I-90200J44100D01*
G01*
X440640D01*
G36*
X440640Y2755600D02*
Y2702400D01*
X611000D01*
G75*
G02*
X699130Y2650100I0J-100400D01*
G01*
X720080D01*
X763640Y2693660D01*
G75*
G02*
X798000Y2708100I34360J-33650D01*
G01*
X974600D01*
Y2831900D01*
X759940D01*
X754020Y2825980D01*
G75*
G02*
X718950Y2811900I-34020J34020D01*
G01*
X701200D01*
G75*
G02*
X611000Y2755600I-90200J44100D01*
G01*
X440640D01*
G37*
Y3263600D02*
Y3210400D01*
X611000D01*
G75*
G02*
X703090Y3070000I0J-100400D01*
G01*
X974600D01*
Y3155400D01*
X1110000D01*
Y3310000D01*
X1930000D01*
Y3140000D01*
X2044600D01*
Y3263600D01*
X2025000D01*
G75*
G02*
X1972140Y3449360I0J100400D01*
G01*
X663860D01*
G75*
G02*
X611000Y3263600I-52860J-85360D01*
G01*
X440640D01*
G36*
X440640Y3263600D02*
Y3210400D01*
X611000D01*
G75*
G02*
X703090Y3070000I0J-100400D01*
G01*
X974600D01*
Y3155400D01*
X1110000D01*
Y3310000D01*
X1930000D01*
Y3140000D01*
X2044600D01*
Y3263600D01*
X2025000D01*
G75*
G02*
X1972140Y3449360I0J100400D01*
G01*
X663860D01*
G75*
G02*
X611000Y3263600I-52860J-85360D01*
G01*
X440640D01*
G37*
X2195400D02*
Y3140000D01*
X2359600D01*
Y3265400D01*
X2710400D01*
Y3140000D01*
X2789360D01*
Y3449360D01*
X2235400D01*
Y3263600D01*
X2195400D01*
G36*
X2195400Y3263600D02*
Y3140000D01*
X2359600D01*
Y3265400D01*
X2710400D01*
Y3140000D01*
X2789360D01*
Y3449360D01*
X2235400D01*
Y3263600D01*
X2195400D01*
G37*
D02*
D12*
X556000Y771700D02*
Y720900D01*
Y876300D02*
Y927100D01*
X663300Y824000D02*
X714100D01*
X880000Y2440000D02*
X1070000D01*
X1022700Y2770000D02*
X971900D01*
X1070000Y2330000D02*
X870000D01*
X830000Y2290000D01*
Y1950000D01*
X720000Y1840000D01*
X556000D01*
X1070000Y2660000D02*
X798000D01*
X740000Y2602000D01*
X556000D01*
X1070000Y2880000D02*
X740000D01*
X720000Y2860000D01*
X572000D01*
X568000Y2856000D01*
X556000D01*
X1117300Y2770000D02*
X1168100D01*
X1250000Y1110000D02*
X1320000D01*
X1470000Y1260000D01*
X1250000Y1320000D02*
Y1440000D01*
X1310000Y1500000D01*
X1280000Y3030000D02*
X1225000Y3085000D01*
X1070000D01*
X1430000Y970000D02*
Y960000D01*
X1340000Y870000D01*
Y690000D01*
X1400000Y630000D01*
X1570000D01*
X1600000Y660000D01*
Y730000D01*
X1500000Y3142700D02*
Y3091900D01*
X1600000Y730000D02*
X1680000D01*
X1840000Y570000D01*
X2080000D01*
X1600000Y970000D02*
Y920000D01*
X1550000Y870000D01*
X1480000D01*
X1430000Y820000D01*
Y730000D01*
X1600000Y970000D02*
X1650000D01*
X1810000Y810000D01*
X2066000D01*
X2080000Y824000D01*
X1972700Y1078000D02*
X1921900D01*
X1972700Y1332000D02*
X1921900D01*
X2080000Y1130300D02*
Y1181100D01*
Y1279700D02*
Y1228900D01*
Y1384300D02*
Y1435100D01*
X2092700Y3180000D02*
X2041900D01*
X2147300D02*
X2198100D01*
X2187300Y1078000D02*
X2238100D01*
X2187300Y1332000D02*
X2238100D01*
X2310000Y950000D02*
X1820000D01*
X1700000Y1070000D01*
X1545000D01*
X1515000Y1040000D01*
Y970000D01*
X2407700Y3180000D02*
X2356900D01*
X2491700Y560000D02*
X2440900D01*
X2497700Y1830000D02*
X2446900D01*
X2535000Y3217300D02*
Y3268100D01*
X2550000Y502700D02*
Y451900D01*
Y1160000D02*
X2410000Y1020000D01*
Y910000D01*
X2200000Y700000D01*
X1810000D01*
X1700000Y810000D01*
X1535000D01*
X1515000Y790000D01*
Y730000D01*
X2580000Y1777700D02*
Y1726900D01*
Y1882300D02*
Y1933100D01*
X2608300Y560000D02*
X2659100D01*
X2662300Y1830000D02*
X2713100D01*
X2662300Y3180000D02*
X2713100D01*
D02*
D13*
X1070000Y2550000D02*
X1210000D01*
X1270000Y2490000D01*
Y1765100D01*
X1084900Y1580000D01*
Y1320000D01*
X1080000Y470000D02*
X1010000Y400000D01*
X910000D01*
X740000Y570000D01*
X556000D01*
X1080000Y760000D02*
X1120000Y800000D01*
Y944900D01*
X1084900Y980000D01*
Y1110000D01*
Y1320000D01*
X568000D01*
X556000Y1332000D01*
X1500000Y3000000D02*
X1270000Y2770000D01*
X1070000D01*
X1500000Y3180000D02*
Y3000000D01*
X2080000Y1332000D02*
X1888000D01*
X1500000Y1720000D01*
Y3000000D01*
X2080000Y1332000D02*
Y1078000D01*
X2535000Y3180000D02*
X2120000D01*
X2550000Y760000D02*
X2450000D01*
X2330000Y640000D01*
Y460000D01*
X2240000Y370000D01*
X1430000D01*
X1165000Y635000D01*
X1080000D01*
X2580000Y1830000D02*
Y1622000D01*
X2290000Y1332000D01*
X2080000D01*
X2580000Y1830000D02*
Y3135000D01*
X2535000Y3180000D01*
D02*
D14*
X880000Y2440000D03*
X1280000Y3030000D03*
X1310000Y1500000D03*
X1470000Y1260000D03*
X2310000Y950000D03*
D02*
D15*
X2550000Y560000D03*
D02*
D16*
Y760000D03*
Y960000D03*
Y1160000D03*
D02*
D17*
X2112500Y570000D03*
D02*
D18*
X2025000D03*
D02*
D17*
X2112500Y824000D03*
D02*
D18*
X2025000D03*
D02*
D17*
X2112500Y1078000D03*
D02*
D18*
X2025000D03*
D02*
D17*
X2112500Y1332000D03*
D02*
D18*
X2025000D03*
D02*
D17*
X2112500Y1586000D03*
D02*
D18*
X2025000D03*
D02*
D17*
X2112500Y3364000D03*
D02*
D18*
X2025000D03*
D02*
D19*
X523500Y570000D03*
D02*
D18*
X611000D03*
D02*
D19*
X523500Y824000D03*
D02*
D18*
X611000D03*
D02*
D19*
X523500Y1078000D03*
D02*
D18*
X611000D03*
D02*
D19*
X523500Y1332000D03*
D02*
D18*
X611000D03*
D02*
D19*
X523500Y1586000D03*
D02*
D18*
X611000D03*
D02*
D19*
X523500Y1840000D03*
D02*
D18*
X611000D03*
D02*
D19*
X523500Y2094000D03*
D02*
D18*
X611000D03*
D02*
D19*
X523500Y2348000D03*
D02*
D18*
X611000D03*
D02*
D19*
X523500Y2602000D03*
D02*
D18*
X611000D03*
D02*
D19*
X523500Y2856000D03*
D02*
D18*
X611000D03*
D02*
D19*
X523500Y3110000D03*
D02*
D18*
X611000D03*
D02*
D19*
X523500Y3364000D03*
D02*
D18*
X611000D03*
D02*
D26*
X1080000Y550000D02*
Y470000D01*
Y720000D02*
Y760000D01*
D02*
D27*
X2580000Y1830000D03*
D02*
D28*
X1070000Y2065000D03*
X1500000Y3180000D03*
D02*
D29*
X1070000Y2220000D03*
Y2330000D03*
Y2440000D03*
Y2550000D03*
Y2660000D03*
Y2770000D03*
Y2880000D03*
Y2990000D03*
Y3085000D03*
D02*
D72*
X2120000Y3180000D03*
D02*
D73*
X2535000D03*
D02*
D74*
X1084900Y1110000D03*
Y1320000D03*
X1250000Y1110000D03*
Y1320000D03*
D02*
D75*
X1080000Y550000D03*
D02*
D76*
Y720000D03*
D02*
D77*
Y635000D03*
X1515000Y730000D03*
Y970000D03*
D02*
D78*
X1080000Y590000D03*
D02*
D79*
X1600000Y730000D03*
Y970000D03*
D02*
D80*
X1430000Y730000D03*
Y970000D03*
D02*
D81*
X1560000Y730000D03*
Y970000D03*
X0Y0D02*
M02*
