G04 DesignSpark PCB Gerber Version 13.0 Build *
%FSLAX35Y35*%
%MOMM*%
%ADD10C,0.12700*%
%ADD99C,2.54000*%
X0Y0D02*
D02*
D10*
X810000Y736690D02*
X817940Y728750D01*
X833810Y720810D01*
X849690Y728750D01*
X857630Y736690D01*
Y816060D01*
X873500D01*
X857630D02*
X825880D01*
X810000Y990690D02*
X817940Y982750D01*
X833810Y974810D01*
X849690Y982750D01*
X857630Y990690D01*
Y1070060D01*
X873500D01*
X857630D02*
X825880D01*
X810000Y1244690D02*
X817940Y1236750D01*
X833810Y1228810D01*
X849690Y1236750D01*
X857630Y1244690D01*
Y1324060D01*
X873500D01*
X857630D02*
X825880D01*
X810000Y1498690D02*
X817940Y1490750D01*
X833810Y1482810D01*
X849690Y1490750D01*
X857630Y1498690D01*
Y1578060D01*
X873500D01*
X857630D02*
X825880D01*
X810000Y1752690D02*
X817940Y1744750D01*
X833810Y1736810D01*
X849690Y1744750D01*
X857630Y1752690D01*
Y1832060D01*
X873500D01*
X857630D02*
X825880D01*
X810000Y2006690D02*
X817940Y1998750D01*
X833810Y1990810D01*
X849690Y1998750D01*
X857630Y2006690D01*
Y2086060D01*
X873500D01*
X857630D02*
X825880D01*
X810000Y2260690D02*
X817940Y2252750D01*
X833810Y2244810D01*
X849690Y2252750D01*
X857630Y2260690D01*
Y2340060D01*
X873500D01*
X857630D02*
X825880D01*
X810000Y2514690D02*
X817940Y2506750D01*
X833810Y2498810D01*
X849690Y2506750D01*
X857630Y2514690D01*
Y2594060D01*
X873500D01*
X857630D02*
X825880D01*
X810000Y2768690D02*
X817940Y2760750D01*
X833810Y2752810D01*
X849690Y2760750D01*
X857630Y2768690D01*
Y2848060D01*
X873500D01*
X857630D02*
X825880D01*
X810000Y3022690D02*
X817940Y3014750D01*
X833810Y3006810D01*
X849690Y3014750D01*
X857630Y3022690D01*
Y3102060D01*
X873500D01*
X857630D02*
X825880D01*
X810000Y3276690D02*
X817940Y3268750D01*
X833810Y3260810D01*
X849690Y3268750D01*
X857630Y3276690D01*
Y3356060D01*
X873500D01*
X857630D02*
X825880D01*
X810000Y3530690D02*
X817940Y3522750D01*
X833810Y3514810D01*
X849690Y3522750D01*
X857630Y3530690D01*
Y3610060D01*
X873500D01*
X857630D02*
X825880D01*
X1189560Y2638440D02*
X1205440Y2630500D01*
X1213380Y2614630D01*
X1205440Y2598750D01*
X1189560Y2590810D01*
X1134000D01*
Y2686060D01*
X1189560D01*
X1205440Y2678130D01*
X1213380Y2662250D01*
X1205440Y2646380D01*
X1189560Y2638440D01*
X1134000D01*
X1589560Y3228440D02*
X1605440Y3220500D01*
X1613380Y3204630D01*
X1605440Y3188750D01*
X1589560Y3180810D01*
X1534000D01*
Y3276060D01*
X1589560D01*
X1605440Y3268130D01*
X1613380Y3252250D01*
X1605440Y3236380D01*
X1589560Y3228440D01*
X1534000D01*
X1619560Y1698440D02*
X1635440Y1690500D01*
X1643380Y1674630D01*
X1635440Y1658750D01*
X1619560Y1650810D01*
X1564000D01*
Y1746060D01*
X1619560D01*
X1635440Y1738130D01*
X1643380Y1722250D01*
X1635440Y1706380D01*
X1619560Y1698440D01*
X1564000D01*
X1779560Y1458440D02*
X1795440Y1450500D01*
X1803380Y1434630D01*
X1795440Y1418750D01*
X1779560Y1410810D01*
X1724000D01*
Y1506060D01*
X1779560D01*
X1795440Y1498130D01*
X1803380Y1482250D01*
X1795440Y1466380D01*
X1779560Y1458440D01*
X1724000D01*
X2334000Y736690D02*
X2341940Y728750D01*
X2357810Y720810D01*
X2373690Y728750D01*
X2381630Y736690D01*
Y816060D01*
X2397500D01*
X2381630D02*
X2349880D01*
X2334000Y990690D02*
X2341940Y982750D01*
X2357810Y974810D01*
X2373690Y982750D01*
X2381630Y990690D01*
Y1070060D01*
X2397500D01*
X2381630D02*
X2349880D01*
X2334000Y1244690D02*
X2341940Y1236750D01*
X2357810Y1228810D01*
X2373690Y1236750D01*
X2381630Y1244690D01*
Y1324060D01*
X2397500D01*
X2381630D02*
X2349880D01*
X2334000Y1498690D02*
X2341940Y1490750D01*
X2357810Y1482810D01*
X2373690Y1490750D01*
X2381630Y1498690D01*
Y1578060D01*
X2397500D01*
X2381630D02*
X2349880D01*
X2334000Y1752690D02*
X2341940Y1744750D01*
X2357810Y1736810D01*
X2373690Y1744750D01*
X2381630Y1752690D01*
Y1832060D01*
X2397500D01*
X2381630D02*
X2349880D01*
X2334000Y3530690D02*
X2341940Y3522750D01*
X2357810Y3514810D01*
X2373690Y3522750D01*
X2381630Y3530690D01*
Y3610060D01*
X2397500D01*
X2381630D02*
X2349880D01*
X2619560Y1148440D02*
X2635440Y1140500D01*
X2643380Y1124630D01*
X2635440Y1108750D01*
X2619560Y1100810D01*
X2564000D01*
Y1196060D01*
X2619560D01*
X2635440Y1188130D01*
X2643380Y1172250D01*
X2635440Y1156380D01*
X2619560Y1148440D01*
X2564000D01*
X2883380Y726690D02*
X2875440Y718750D01*
X2859560Y710810D01*
X2835750D01*
X2819880Y718750D01*
X2811940Y726690D01*
X2804000Y742560D01*
Y774310D01*
X2811940Y790190D01*
X2819880Y798130D01*
X2835750Y806060D01*
X2859560D01*
X2875440Y798130D01*
X2883380Y790190D01*
Y926690D02*
X2875440Y918750D01*
X2859560Y910810D01*
X2835750D01*
X2819880Y918750D01*
X2811940Y926690D01*
X2804000Y942560D01*
Y974310D01*
X2811940Y990190D01*
X2819880Y998130D01*
X2835750Y1006060D01*
X2859560D01*
X2875440Y998130D01*
X2883380Y990190D01*
Y1126690D02*
X2875440Y1118750D01*
X2859560Y1110810D01*
X2835750D01*
X2819880Y1118750D01*
X2811940Y1126690D01*
X2804000Y1142560D01*
Y1174310D01*
X2811940Y1190190D01*
X2819880Y1198130D01*
X2835750Y1206060D01*
X2859560D01*
X2875440Y1198130D01*
X2883380Y1190190D01*
Y1326690D02*
X2875440Y1318750D01*
X2859560Y1310810D01*
X2835750D01*
X2819880Y1318750D01*
X2811940Y1326690D01*
X2804000Y1342560D01*
Y1374310D01*
X2811940Y1390190D01*
X2819880Y1398130D01*
X2835750Y1406060D01*
X2859560D01*
X2875440Y1398130D01*
X2883380Y1390190D01*
D02*
D99*
X556000Y570000D03*
Y824000D03*
Y1078000D03*
Y1332000D03*
Y1586000D03*
Y1840000D03*
Y2094000D03*
Y2348000D03*
Y2602000D03*
Y2856000D03*
Y3110000D03*
Y3364000D03*
X880000Y2440000D03*
X1280000Y3030000D03*
X1310000Y1500000D03*
X1470000Y1260000D03*
X2080000Y570000D03*
Y824000D03*
Y1078000D03*
Y1332000D03*
Y1586000D03*
Y3364000D03*
X2310000Y950000D03*
X2550000Y560000D03*
Y760000D03*
Y960000D03*
Y1160000D03*
X0Y0D02*
M02*
