G04 DesignSpark PCB Gerber Version 13.0 Build *
%FSLAX35Y35*%
%MOMM*%
%ADD10C,0.12700*%
X0Y0D02*
D02*
D10*
X416300Y163600D02*
Y3503700D01*
X2219700D01*
Y290600D01*
X2092700Y163600D01*
X416300D01*
X860800D02*
Y862100D01*
X1775200D01*
Y163600D01*
X860800D01*
X1724400Y362040D02*
Y433470D01*
X1716460Y449350D01*
X1700590Y457290D01*
X1668840D01*
X1652960Y449350D01*
X1645020Y433470D01*
Y362040D01*
X1533900Y457290D02*
X1597400D01*
X1541840Y401720D01*
X1533900Y385850D01*
X1541840Y369970D01*
X1557710Y362040D01*
X1581520D01*
X1597400Y369970D01*
X2370940Y2130000D02*
X2442370D01*
X2458250Y2137940D01*
X2466190Y2153810D01*
Y2185560D01*
X2458250Y2201440D01*
X2442370Y2209380D01*
X2370940D01*
X2466190Y2280810D02*
Y2312560D01*
Y2296690D02*
X2370940D01*
Y2280810D02*
Y2312560D01*
X2466190Y2384000D02*
X2370940Y2423690D01*
X2466190Y2463380D01*
X2426500Y2399880D02*
Y2447500D01*
X2466190Y2511000D02*
X2370940D01*
Y2566560D01*
X2378870Y2582440D01*
X2394750Y2590380D01*
X2410620Y2582440D01*
X2418560Y2566560D01*
Y2511000D01*
X2370940Y2765000D02*
X2466190D01*
Y2844380D01*
X2434440Y2892000D02*
X2402690D01*
X2386810Y2899940D01*
X2378870Y2907880D01*
X2370940Y2923750D01*
Y2939630D01*
X2378870Y2955500D01*
X2386810Y2963440D01*
X2402690Y2971380D01*
X2434440D01*
X2450310Y2963440D01*
X2458250Y2955500D01*
X2466190Y2939630D01*
Y2923750D01*
X2458250Y2907880D01*
X2450310Y2899940D01*
X2434440Y2892000D01*
X2426500Y3074560D02*
Y3098380D01*
X2434440D01*
X2450310Y3090440D01*
X2458250Y3082500D01*
X2466190Y3066630D01*
Y3050750D01*
X2458250Y3034880D01*
X2450310Y3026940D01*
X2434440Y3019000D01*
X2402690D01*
X2386810Y3026940D01*
X2378870Y3034880D01*
X2370940Y3050750D01*
Y3066630D01*
X2378870Y3082500D01*
X2386810Y3090440D01*
X2402690Y3098380D01*
X2678750Y1030000D02*
X2753750D01*
Y986250D01*
X2747500Y973750D01*
X2735000Y967500D01*
X2722500Y973750D01*
X2716250Y986250D01*
Y1030000D01*
Y986250D02*
X2678750Y967500D01*
Y930000D02*
X2753750Y867500D01*
Y930000D02*
X2678750Y867500D01*
Y1228750D02*
X2753750D01*
Y1260000D02*
Y1197500D01*
X2678750Y1160000D02*
X2753750Y1097500D01*
Y1160000D02*
X2678750Y1097500D01*
X2666190Y2203500D02*
Y2140000D01*
X2610620Y2195560D01*
X2594750Y2203500D01*
X2578870Y2195560D01*
X2570940Y2179690D01*
Y2155880D01*
X2578870Y2140000D01*
X2658250Y2274940D02*
X2666190Y2290810D01*
Y2306690D01*
X2658250Y2322560D01*
X2642370Y2330500D01*
X2594750D01*
X2578870Y2322560D01*
X2570940Y2306690D01*
Y2290810D01*
X2578870Y2274940D01*
X2594750Y2267000D01*
X2642370D01*
X2658250Y2274940D01*
X2578870Y2322560D01*
X2666190Y2457500D02*
Y2394000D01*
X2610620Y2449560D01*
X2594750Y2457500D01*
X2578870Y2449560D01*
X2570940Y2433690D01*
Y2409880D01*
X2578870Y2394000D01*
X2642370Y2521000D02*
X2626500Y2528940D01*
X2618560Y2544810D01*
Y2560690D01*
X2626500Y2576560D01*
X2642370Y2584500D01*
X2658250Y2576560D01*
X2666190Y2560690D01*
Y2544810D01*
X2658250Y2528940D01*
X2642370Y2521000D01*
X2618560D01*
X2594750Y2528940D01*
X2578870Y2544810D01*
X2570940Y2560690D01*
X2666190Y2648000D02*
X2570940Y2727380D01*
X2658250Y2782940D02*
X2666190Y2798810D01*
Y2814690D01*
X2658250Y2830560D01*
X2642370Y2838500D01*
X2594750D01*
X2578870Y2830560D01*
X2570940Y2814690D01*
Y2798810D01*
X2578870Y2782940D01*
X2594750Y2775000D01*
X2642370D01*
X2658250Y2782940D01*
X2578870Y2830560D01*
X2658250Y2902000D02*
X2666190Y2917880D01*
Y2941690D01*
X2658250Y2957560D01*
X2642370Y2965500D01*
X2634440D01*
X2618560Y2957560D01*
X2610620Y2941690D01*
Y2902000D01*
X2570940D01*
Y2965500D01*
X2666190Y3029000D02*
X2570940Y3108380D01*
X2666190Y3171880D02*
Y3203630D01*
Y3187750D02*
X2570940D01*
X2586810Y3171880D01*
X2666190Y3346500D02*
Y3283000D01*
X2610620Y3338560D01*
X2594750Y3346500D01*
X2578870Y3338560D01*
X2570940Y3322690D01*
Y3298880D01*
X2578870Y3283000D01*
X0Y0D02*
M02*
