G04 DesignSpark PCB Gerber Version 13.0 Build *
%FSLAX35Y35*%
%MOMM*%
%ADD11C,0.20000*%
%ADD12C,0.25400*%
%ADD13C,0.80000*%
%ADD14C,1.01600*%
%AMT17*0 Bullet Pad at angle 90*21,1,1.30000,1.75000,0,0,90*%
%ADD17T17*%
%ADD15R,1.42000X1.40000*%
%ADD18C,1.30000*%
%ADD16C,1.40000*%
%AMT19*0 Bullet Pad at angle 270*21,1,1.30000,1.75000,0,0,270*%
%ADD19T19*%
%ADD70R,2.40000X1.45000*%
X0Y0D02*
D02*
D11*
X440640Y3263600D02*
Y3210400D01*
X611000D01*
G75*
G02*
X699130Y3158100I0J-100400D01*
G01*
X770000D01*
G75*
G02*
X804360Y3143660I0J-48090D01*
G01*
X913660Y3034360D01*
G75*
G02*
X928100Y3000000I-33650J-34360D01*
G01*
Y2511530D01*
G75*
G02*
X966200Y2440000I-48100J-71530D01*
G01*
G75*
G02*
X808100Y2392450I-86200J0D01*
G01*
Y2219920D01*
X883660Y2144360D01*
G75*
G02*
X898100Y2110000I-33650J-34360D01*
G01*
Y1639920D01*
X989920Y1548100D01*
X1238470D01*
G75*
G02*
X1396200Y1500000I71530J-48100D01*
G01*
G75*
G02*
X1238470Y1451900I-86200J0D01*
G01*
X970000D01*
G75*
G02*
X935640Y1466340I0J48090D01*
G01*
X816340Y1585640D01*
G75*
G02*
X801900Y1620000I33650J34360D01*
G01*
Y2090080D01*
X726340Y2165640D01*
G75*
G02*
X711900Y2200000I33650J34360D01*
G01*
Y2790080D01*
X697300Y2804680D01*
G75*
G02*
X611000Y2755600I-86290J51320D01*
G01*
X440640D01*
Y2702400D01*
X611000D01*
G75*
G02*
X711400Y2602000I0J-100400D01*
G01*
G75*
G02*
X611000Y2501600I-100400J0D01*
G01*
X440640D01*
Y2448400D01*
X611000D01*
G75*
G02*
X711400Y2348000I0J-100400D01*
G01*
G75*
G02*
X611000Y2247600I-100400J0D01*
G01*
X440640D01*
Y2194400D01*
X611000D01*
G75*
G02*
X711400Y2094000I0J-100400D01*
G01*
G75*
G02*
X611000Y1993600I-100400J0D01*
G01*
X440640D01*
Y1940400D01*
X611000D01*
G75*
G02*
X711400Y1840000I0J-100400D01*
G01*
G75*
G02*
X611000Y1739600I-100400J0D01*
G01*
X440640D01*
Y1686400D01*
X611000D01*
G75*
G02*
X711400Y1586000I0J-100400D01*
G01*
G75*
G02*
X611000Y1485600I-100400J0D01*
G01*
X440640D01*
Y1432400D01*
X611000D01*
G75*
G02*
X711400Y1332000I0J-100400D01*
G01*
G75*
G02*
X611000Y1231600I-100400J0D01*
G01*
X440640D01*
Y1178400D01*
X611000D01*
G75*
G02*
X711400Y1078000I0J-100400D01*
G01*
G75*
G02*
X611000Y977600I-100400J0D01*
G01*
X440640D01*
Y924400D01*
X611000D01*
G75*
G02*
X711400Y824000I0J-100400D01*
G01*
G75*
G02*
X611000Y723600I-100400J0D01*
G01*
X440640D01*
Y670400D01*
X611000D01*
G75*
G02*
X711400Y570000I0J-100400D01*
G01*
G75*
G02*
X611000Y469600I-100400J0D01*
G01*
X440640D01*
Y200640D01*
X820000D01*
Y890000D01*
X1800000D01*
Y200640D01*
X2789360D01*
Y3449360D01*
X2235400D01*
Y3263600D01*
X2025000D01*
G75*
G02*
X1972140Y3449360I0J100400D01*
G01*
X663860D01*
G75*
G02*
X611000Y3263600I-52860J-85360D01*
G01*
X440640D01*
X2550000Y1265400D02*
G75*
G02*
X2583300Y1060000I0J-105400D01*
G01*
G75*
G02*
Y860000I-33300J-100000D01*
G01*
G75*
G02*
X2596480Y665400I-33300J-100000D01*
G01*
X2656400D01*
Y454600D01*
X2443600D01*
Y665400D01*
X2503520D01*
G75*
G02*
X2516700Y860000I46480J94600D01*
G01*
G75*
G02*
X2457080Y910250I33300J100010D01*
G01*
G75*
G02*
X2430000Y901900I-27080J39750D01*
G01*
X2381530D01*
G75*
G02*
X2235400Y906810I-71530J48100D01*
G01*
Y723600D01*
X2025000D01*
G75*
G02*
X1924600Y824000I0J100400D01*
G01*
G75*
G02*
X2025000Y924400I100400J0D01*
G01*
X2227690D01*
G75*
G02*
X2228340Y977600I82310J25600D01*
G01*
X2025000D01*
G75*
G02*
X1924600Y1078000I0J100400D01*
G01*
G75*
G02*
X2025000Y1178400I100400J0D01*
G01*
X2235400D01*
Y993190D01*
G75*
G02*
X2381530Y998100I74600J-43190D01*
G01*
X2400640D01*
G75*
G02*
X2430000Y1008100I29360J-38100D01*
G01*
X2456220D01*
G75*
G02*
X2516700Y1060000I93780J-48100D01*
G01*
G75*
G02*
X2550000Y1265400I33300J100000D01*
G01*
X1924600Y1947900D02*
X2235400D01*
Y1732100D01*
X1924600D01*
Y1947900D01*
Y2201900D02*
X2235400D01*
Y1986100D01*
X1924600D01*
Y2201900D01*
Y2443200D02*
X2235400D01*
Y2227400D01*
X1924600D01*
Y2443200D01*
Y2709900D02*
X2235400D01*
Y2494100D01*
X1924600D01*
Y2709900D01*
Y2963900D02*
X2235400D01*
Y2748100D01*
X1924600D01*
Y2963900D01*
Y3217900D02*
X2235400D01*
Y3002100D01*
X1924600D01*
Y3217900D01*
X1193800Y3030000D02*
G75*
G02*
X1366200I86200J0D01*
G01*
G75*
G02*
X1364590Y3013430I-86190J10D01*
G01*
X1503660Y2874360D01*
G75*
G02*
X1518100Y2840000I-33650J-34360D01*
G01*
Y1331530D01*
G75*
G02*
X1556200Y1260000I-48100J-71530D01*
G01*
G75*
G02*
X1383800I-86200J0D01*
G01*
G75*
G02*
X1421900Y1331530I86200J0D01*
G01*
Y2820080D01*
X1296570Y2945410D01*
G75*
G02*
X1193800Y3030000I-16570J84590D01*
G01*
X2025000Y670400D02*
X2235400D01*
Y469600D01*
X2025000D01*
G75*
G02*
X1924600Y570000I0J100400D01*
G01*
G75*
G02*
X2025000Y670400I100400J0D01*
G01*
Y1432400D02*
X2235400D01*
Y1231600D01*
X2025000D01*
G75*
G02*
X1924600Y1332000I0J100400D01*
G01*
G75*
G02*
X2025000Y1432400I100400J0D01*
G01*
Y1686400D02*
X2235400D01*
Y1485600D01*
X2025000D01*
G75*
G02*
X1924600Y1586000I0J100400D01*
G01*
G75*
G02*
X2025000Y1686400I100400J0D01*
G01*
X450640Y469600D02*
G36*
X450640Y469600D02*
Y210640D01*
X820000D01*
Y570000D01*
X711400D01*
G75*
G02*
Y569990I-286480J0D01*
G01*
G75*
G02*
X611000Y469600I-100400J0D01*
G01*
X450640D01*
G37*
X1800000Y570000D02*
G36*
X1800000Y570000D02*
Y210640D01*
X2779360D01*
Y570000D01*
X2656400D01*
Y454600D01*
X2443600D01*
Y570000D01*
X2235400D01*
Y469600D01*
X2025000D01*
G75*
G02*
X1924600Y569980I0J100380D01*
G01*
G75*
G02*
Y570000I95490J10D01*
G01*
X1800000D01*
G37*
X450640Y723600D02*
G36*
X450640Y723600D02*
Y670400D01*
X611000D01*
G75*
G02*
X711400Y570000I0J-100400D01*
G01*
X820000D01*
Y860000D01*
X704720D01*
G75*
G02*
X711400Y824000I-93740J-36010D01*
G01*
G75*
G02*
Y823990I-286480J0D01*
G01*
G75*
G02*
X611000Y723600I-100400J0D01*
G01*
X450640D01*
G37*
X1800000Y860000D02*
G36*
X1800000Y860000D02*
Y570000D01*
X1924600D01*
G75*
G02*
Y570010I286480J10D01*
G01*
G75*
G02*
X2025000Y670400I100400J0D01*
G01*
X2235400D01*
Y570000D01*
X2443600D01*
Y665400D01*
X2503520D01*
G75*
G02*
X2444590Y760000I46470J94600D01*
G01*
G75*
G02*
X2516700Y860000I105390J0D01*
G01*
X2235400D01*
Y723600D01*
X2025000D01*
G75*
G02*
X1924600Y823980I0J100380D01*
G01*
G75*
G02*
Y824000I95490J10D01*
G01*
G75*
G02*
Y824010I286480J10D01*
G01*
G75*
G02*
X1931270Y860000I100380J10D01*
G01*
X1800000D01*
G37*
X2655390Y760000D02*
G36*
X2655390Y760000D02*
G75*
G02*
X2596480Y665400I-105410J0D01*
G01*
X2656400D01*
Y570000D01*
X2779360D01*
Y860000D01*
X2583300D01*
G75*
G02*
X2655390Y760000I-33310J-100000D01*
G01*
G37*
X450640Y977600D02*
G36*
X450640Y977600D02*
Y924400D01*
X611000D01*
G75*
G02*
X704720Y860000I-10J-100410D01*
G01*
X820000D01*
Y890000D01*
X1800000D01*
Y860000D01*
X1931270D01*
G75*
G02*
X2025000Y924400I93720J-36000D01*
G01*
X2227690D01*
G75*
G02*
X2223790Y950000I82150J25610D01*
G01*
G75*
G02*
X2228340Y977600I86050J-10D01*
G01*
X2025000D01*
G75*
G02*
X1924600Y1077980I0J100380D01*
G01*
G75*
G02*
Y1078000I95490J10D01*
G01*
G75*
G02*
Y1078010I286480J10D01*
G01*
G75*
G02*
X2025000Y1178400I100400J0D01*
G01*
X2235400D01*
Y993190D01*
G75*
G02*
X2381530Y998100I74600J-43190D01*
G01*
X2400640D01*
G75*
G02*
X2430000Y1008100I29360J-38110D01*
G01*
X2456220D01*
G75*
G02*
X2516700Y1060000I93800J-48120D01*
G01*
G75*
G02*
X2444590Y1160000I33290J100000D01*
G01*
G75*
G02*
X2550000Y1265400I105410J0D01*
G01*
G75*
G02*
X2655400Y1160000I0J-105400D01*
G01*
G75*
G02*
X2583300Y1060000I-105400J0D01*
G01*
G75*
G02*
X2655390Y960000I-33310J-100000D01*
G01*
G75*
G02*
X2583300Y860000I-105400J0D01*
G01*
X2779360D01*
Y1332000D01*
X2235400D01*
Y1231600D01*
X2025000D01*
G75*
G02*
X1924600Y1331980I0J100380D01*
G01*
G75*
G02*
Y1332000I95490J10D01*
G01*
X1518100D01*
Y1331530D01*
G75*
G02*
X1556200Y1260000I-48110J-71540D01*
G01*
G75*
G02*
X1383800I-86200J0D01*
G01*
G75*
G02*
Y1260030I95490J20D01*
G01*
G75*
G02*
X1421900Y1331530I86140J0D01*
G01*
Y1332000D01*
X711400D01*
G75*
G02*
Y1331990I-286480J0D01*
G01*
G75*
G02*
X611000Y1231600I-100400J0D01*
G01*
X450640D01*
Y1178400D01*
X611000D01*
G75*
G02*
X711400Y1078000I0J-100400D01*
G01*
G75*
G02*
Y1077990I-286480J0D01*
G01*
G75*
G02*
X611000Y977600I-100400J0D01*
G01*
X450640D01*
G37*
X2235400Y906810D02*
G36*
X2235400Y906810D02*
Y860000D01*
X2516700D01*
G75*
G02*
X2457080Y910250I33220J99910D01*
G01*
G75*
G02*
X2430000Y901900I-27070J39690D01*
G01*
X2381530D01*
G75*
G02*
X2235400Y906810I-71530J48080D01*
G01*
G37*
X450640Y1485600D02*
G36*
X450640Y1485600D02*
Y1432400D01*
X611000D01*
G75*
G02*
X711400Y1332000I0J-100400D01*
G01*
X1421900D01*
Y1586000D01*
X1315830D01*
G75*
G02*
X1396200Y1500000I-5830J-86000D01*
G01*
G75*
G02*
Y1499990I-95490J0D01*
G01*
G75*
G02*
X1238470Y1451900I-86200J0D01*
G01*
X970000D01*
G75*
G02*
X935640Y1466340I-40J48010D01*
G01*
X816340Y1585640D01*
G75*
G02*
X815980Y1586000I33580J33940D01*
G01*
X711400D01*
G75*
G02*
Y1585990I-286480J0D01*
G01*
G75*
G02*
X611000Y1485600I-100400J0D01*
G01*
X450640D01*
G37*
X952020Y1586000D02*
G36*
X952020Y1586000D02*
X989920Y1548100D01*
X1238470D01*
G75*
G02*
X1304170Y1586000I71530J-48100D01*
G01*
X952020D01*
G37*
X1518100D02*
G36*
X1518100Y1586000D02*
Y1332000D01*
X1924600D01*
G75*
G02*
Y1332010I286480J10D01*
G01*
G75*
G02*
X2025000Y1432400I100400J0D01*
G01*
X2235400D01*
Y1332000D01*
X2779360D01*
Y1586000D01*
X2235400D01*
Y1485600D01*
X2025000D01*
G75*
G02*
X1924600Y1585980I0J100380D01*
G01*
G75*
G02*
Y1586000I95490J10D01*
G01*
X1518100D01*
G37*
X450640Y1739600D02*
G36*
X450640Y1739600D02*
Y1686400D01*
X611000D01*
G75*
G02*
X711400Y1586000I0J-100400D01*
G01*
X815980D01*
G75*
G02*
X801900Y1619960I33930J33970D01*
G01*
G75*
G02*
Y1620000I49820J20D01*
G01*
Y1840000D01*
X711400D01*
G75*
G02*
Y1839990I-286480J0D01*
G01*
G75*
G02*
X611000Y1739600I-100400J0D01*
G01*
X450640D01*
G37*
X898100Y1840000D02*
G36*
X898100Y1840000D02*
Y1639920D01*
X952020Y1586000D01*
X1304170D01*
G75*
G02*
X1315830I5830J-86000D01*
G01*
X1421900D01*
Y1840000D01*
X898100D01*
G37*
X1518100D02*
G36*
X1518100Y1840000D02*
Y1586000D01*
X1924600D01*
G75*
G02*
Y1586010I286480J10D01*
G01*
G75*
G02*
X2025000Y1686400I100400J0D01*
G01*
X2235400D01*
Y1586000D01*
X2779360D01*
Y1840000D01*
X2235400D01*
Y1732100D01*
X1924600D01*
Y1840000D01*
X1518100D01*
G37*
X450640Y1993600D02*
G36*
X450640Y1993600D02*
Y1940400D01*
X611000D01*
G75*
G02*
X711400Y1840000I0J-100400D01*
G01*
X801900D01*
Y2090080D01*
X797980Y2094000D01*
X711400D01*
G75*
G02*
Y2093990I-286480J0D01*
G01*
G75*
G02*
X611000Y1993600I-100400J0D01*
G01*
X450640D01*
G37*
X898100Y2094000D02*
G36*
X898100Y2094000D02*
Y1840000D01*
X1421900D01*
Y2094000D01*
X898100D01*
G37*
X1518100D02*
G36*
X1518100Y2094000D02*
Y1840000D01*
X1924600D01*
Y1947900D01*
X2235400D01*
Y1840000D01*
X2779360D01*
Y2094000D01*
X2235400D01*
Y1986100D01*
X1924600D01*
Y2094000D01*
X1518100D01*
G37*
X450640Y2247600D02*
G36*
X450640Y2247600D02*
Y2194400D01*
X611000D01*
G75*
G02*
X711400Y2094000I0J-100400D01*
G01*
X797980D01*
X726340Y2165640D01*
G75*
G02*
X711900Y2199960I33570J34320D01*
G01*
G75*
G02*
Y2200000I49820J20D01*
G01*
Y2335300D01*
X710590D01*
G75*
G02*
X611000Y2247600I-99590J12690D01*
G01*
X450640D01*
G37*
X808100Y2335300D02*
G36*
X808100Y2335300D02*
Y2219920D01*
X883660Y2144360D01*
G75*
G02*
X898100Y2110000I-33720J-34390D01*
G01*
Y2094000D01*
X1421900D01*
Y2335300D01*
X808100D01*
G37*
X1518100D02*
G36*
X1518100Y2335300D02*
Y2094000D01*
X1924600D01*
Y2201900D01*
X2235400D01*
Y2094000D01*
X2779360D01*
Y2335300D01*
X2235400D01*
Y2227400D01*
X1924600D01*
Y2335300D01*
X1518100D01*
G37*
X450640Y2501600D02*
G36*
X450640Y2501600D02*
Y2448400D01*
X611000D01*
G75*
G02*
X711400Y2348000I0J-100400D01*
G01*
G75*
G02*
Y2347990I-286480J0D01*
G01*
G75*
G02*
X710590Y2335300I-100360J40D01*
G01*
X711900D01*
Y2602000D01*
X711400D01*
G75*
G02*
Y2601990I-286480J0D01*
G01*
G75*
G02*
X611000Y2501600I-100400J0D01*
G01*
X450640D01*
G37*
X808100Y2392450D02*
G36*
X808100Y2392450D02*
Y2335300D01*
X1421900D01*
Y2602000D01*
X928100D01*
Y2511530D01*
G75*
G02*
X966200Y2440000I-48110J-71540D01*
G01*
G75*
G02*
X808100Y2392450I-86200J0D01*
G01*
G37*
X1518100Y2602000D02*
G36*
X1518100Y2602000D02*
Y2335300D01*
X1924600D01*
Y2443200D01*
X2235400D01*
Y2335300D01*
X2779360D01*
Y2602000D01*
X2235400D01*
Y2494100D01*
X1924600D01*
Y2602000D01*
X1518100D01*
G37*
X450640Y2755600D02*
G36*
X450640Y2755600D02*
Y2702400D01*
X611000D01*
G75*
G02*
X711400Y2602000I0J-100400D01*
G01*
X711900D01*
Y2790080D01*
X697300Y2804680D01*
G75*
G02*
X611000Y2755600I-86270J51290D01*
G01*
X450640D01*
G37*
X928100Y2856000D02*
G36*
X928100Y2856000D02*
Y2602000D01*
X1421900D01*
Y2820080D01*
X1385980Y2856000D01*
X928100D01*
G37*
X1518100Y2840000D02*
G36*
X1518100Y2840000D02*
Y2602000D01*
X1924600D01*
Y2709900D01*
X2235400D01*
Y2602000D01*
X2779360D01*
Y2856000D01*
X2235400D01*
Y2748100D01*
X1924600D01*
Y2856000D01*
X1515360D01*
G75*
G02*
X1518100Y2840000I-45420J-16010D01*
G01*
G37*
X838020Y3110000D02*
G36*
X838020Y3110000D02*
X913660Y3034360D01*
G75*
G02*
X928100Y3000000I-33720J-34390D01*
G01*
Y2856000D01*
X1385980D01*
X1296570Y2945410D01*
G75*
G02*
X1193800Y3029980I-16590J84570D01*
G01*
G75*
G02*
Y3030000I76390J10D01*
G01*
G75*
G02*
X1247900Y3110000I86200J0D01*
G01*
X838020D01*
G37*
X1366200Y3030000D02*
G36*
X1366200Y3030000D02*
G75*
G02*
X1364590Y3013430I-87360J130D01*
G01*
X1503660Y2874360D01*
G75*
G02*
X1515360Y2856000I-33720J-34400D01*
G01*
X1924600D01*
Y2963900D01*
X2235400D01*
Y2856000D01*
X2779360D01*
Y3110000D01*
X2235400D01*
Y3002100D01*
X1924600D01*
Y3110000D01*
X1312100D01*
G75*
G02*
X1366200Y3030000I-32100J-80000D01*
G01*
G37*
X450640Y3263600D02*
G36*
X450640Y3263600D02*
Y3210400D01*
X611000D01*
G75*
G02*
X699130Y3158100I-20J-100440D01*
G01*
X770000D01*
G75*
G02*
X804360Y3143660I-30J-48160D01*
G01*
X838020Y3110000D01*
X1247900D01*
G75*
G02*
X1312100I32100J-80000D01*
G01*
X1924600D01*
Y3217900D01*
X2235400D01*
Y3110000D01*
X2779360D01*
Y3439360D01*
X2235400D01*
Y3263600D01*
X2025000D01*
G75*
G02*
X1924600Y3364000I0J100400D01*
G01*
G75*
G02*
X1958660Y3439360I100400J0D01*
G01*
X677340D01*
G75*
G02*
X711390Y3364000I-66360J-75350D01*
G01*
G75*
G02*
X611000Y3263600I-100390J0D01*
G01*
X450640D01*
G37*
D02*
D12*
X556000Y771700D02*
Y720900D01*
Y876300D02*
Y927100D01*
Y2856000D02*
X716000D01*
Y2854000D01*
X760000Y2810000D01*
Y2200000D01*
X850000Y2110000D01*
Y1620000D01*
X970000Y1500000D01*
X1310000D01*
X556000Y3110000D02*
X770000D01*
X880000Y3000000D01*
Y2440000D01*
X663300Y824000D02*
X714100D01*
X1470000Y1260000D02*
Y2840000D01*
X1280000Y3030000D01*
X1972700Y1078000D02*
X1921900D01*
X1972700Y1332000D02*
X1921900D01*
X2080000Y1025700D02*
Y974900D01*
Y1130300D02*
Y1181100D01*
Y1279700D02*
Y1228900D01*
Y1384300D02*
Y1435100D01*
X2187300Y1078000D02*
X2238100D01*
X2187300Y1332000D02*
X2238100D01*
X2491700Y560000D02*
X2440900D01*
X2550000Y502700D02*
Y451900D01*
Y960000D02*
X2430000D01*
Y950000D01*
X2310000D01*
X2608300Y560000D02*
X2659100D01*
D02*
D13*
X1560000Y1078000D02*
X974000D01*
X720000Y824000D01*
X556000D01*
X2080000Y1078000D02*
X1560000D01*
X2550000Y560000D02*
Y460000D01*
X2350000Y260000D01*
X1880000D01*
X1860000Y280000D01*
Y1000000D01*
X1782000Y1078000D01*
X1560000D01*
D02*
D14*
X880000Y2440000D03*
X1280000Y3030000D03*
X1310000Y1500000D03*
X1470000Y1260000D03*
X2310000Y950000D03*
D02*
D15*
X2550000Y560000D03*
D02*
D16*
Y760000D03*
Y960000D03*
Y1160000D03*
D02*
D17*
X2112500Y570000D03*
D02*
D18*
X2025000D03*
D02*
D17*
X2112500Y824000D03*
D02*
D18*
X2025000D03*
D02*
D17*
X2112500Y1078000D03*
D02*
D18*
X2025000D03*
D02*
D17*
X2112500Y1332000D03*
D02*
D18*
X2025000D03*
D02*
D17*
X2112500Y1586000D03*
D02*
D18*
X2025000D03*
D02*
D17*
X2112500Y3364000D03*
D02*
D18*
X2025000D03*
D02*
D19*
X523500Y570000D03*
D02*
D18*
X611000D03*
D02*
D19*
X523500Y824000D03*
D02*
D18*
X611000D03*
D02*
D19*
X523500Y1078000D03*
D02*
D18*
X611000D03*
D02*
D19*
X523500Y1332000D03*
D02*
D18*
X611000D03*
D02*
D19*
X523500Y1586000D03*
D02*
D18*
X611000D03*
D02*
D19*
X523500Y1840000D03*
D02*
D18*
X611000D03*
D02*
D19*
X523500Y2094000D03*
D02*
D18*
X611000D03*
D02*
D19*
X523500Y2348000D03*
D02*
D18*
X611000D03*
D02*
D19*
X523500Y2602000D03*
D02*
D18*
X611000D03*
D02*
D19*
X523500Y2856000D03*
D02*
D18*
X611000D03*
D02*
D19*
X523500Y3110000D03*
D02*
D18*
X611000D03*
D02*
D19*
X523500Y3364000D03*
D02*
D18*
X611000D03*
D02*
D70*
X2080000Y1840000D03*
Y2094000D03*
Y2335300D03*
Y2602000D03*
Y2856000D03*
Y3110000D03*
X0Y0D02*
M02*
