G04 DesignSpark PCB Gerber Version 13.0 Build *
%FSLAX35Y35*%
%MOMM*%
%ADD10C,0.12700*%
%ADD25C,0.40000*%
X0Y0D02*
D02*
D10*
X905000Y410000D02*
X898750Y422500D01*
Y441250D01*
X905000Y453750D01*
X917500Y460000D01*
X923750D01*
X936250Y453750D01*
X942500Y441250D01*
Y410000D01*
X973750D01*
Y460000D01*
Y510000D02*
X898750Y541250D01*
X973750Y572500D01*
X905000Y686250D02*
X898750Y698750D01*
Y711250D01*
X905000Y723750D01*
X917500Y730000D01*
X930000Y723750D01*
X936250Y711250D01*
Y698750D01*
Y711250D02*
X942500Y723750D01*
X955000Y730000D01*
X967500Y723750D01*
X973750Y711250D01*
Y698750D01*
X967500Y686250D01*
X973750Y780000D02*
X898750Y811250D01*
X973750Y842500D01*
X905000Y886250D02*
X898750Y898750D01*
Y911250D01*
X905000Y923750D01*
X917500Y930000D01*
X930000Y923750D01*
X936250Y911250D01*
Y898750D01*
Y911250D02*
X942500Y923750D01*
X955000Y930000D01*
X967500Y923750D01*
X973750Y911250D01*
Y898750D01*
X967500Y886250D01*
X965000Y1710000D02*
X2445000D01*
X2690000Y1955000D01*
Y3255000D01*
X965000D01*
Y1710000D01*
X980000Y1063810D02*
Y1159060D01*
X924440D01*
X908560Y1151130D01*
X900620Y1135250D01*
X908560Y1119380D01*
X924440Y1111440D01*
X980000D01*
X924440D02*
X900620Y1063810D01*
X837120D02*
X805370D01*
X821250D02*
Y1159060D01*
X837120Y1143190D01*
X990000Y1273810D02*
Y1369060D01*
X934440D01*
X918560Y1361130D01*
X910620Y1345250D01*
X918560Y1329380D01*
X934440Y1321440D01*
X990000D01*
X934440D02*
X910620Y1273810D01*
X799500D02*
X863000D01*
X807440Y1329380D01*
X799500Y1345250D01*
X807440Y1361130D01*
X823310Y1369060D01*
X847120D01*
X863000Y1361130D01*
X1135000Y3150000D02*
X1435000D01*
Y3285000D01*
X1135000D01*
Y3150000D01*
X1140000Y765000D02*
Y505000D01*
X1020000D01*
Y765000D01*
X1140000D01*
X1200000Y399690D02*
X1192060Y391750D01*
X1176190Y383810D01*
X1160310Y391750D01*
X1152370Y399690D01*
Y479060D01*
X1136500D01*
X1152370D02*
X1184120D01*
X1057120Y383810D02*
X1025370D01*
X1041250D02*
Y479060D01*
X1057120Y463190D01*
X1300800Y1059200D02*
X1034100D01*
Y1160800D01*
X1300800D01*
Y1059200D01*
Y1269200D02*
X1034100D01*
Y1370800D01*
X1300800D01*
Y1269200D01*
X1350000Y688750D02*
Y763750D01*
X1306250D01*
X1293750Y757500D01*
X1287500Y745000D01*
X1293750Y732500D01*
X1306250Y726250D01*
X1350000D01*
X1306250D02*
X1287500Y688750D01*
X1250000D02*
X1187500Y763750D01*
X1250000D02*
X1187500Y688750D01*
X1328750Y928750D02*
Y1003750D01*
X1360000D02*
X1297500D01*
X1260000Y928750D02*
X1197500Y1003750D01*
X1260000D02*
X1197500Y928750D01*
X1385000Y790000D02*
X1645000D01*
Y670000D01*
X1385000D01*
Y790000D01*
Y1030000D02*
X1645000D01*
Y910000D01*
X1385000D01*
Y1030000D01*
X1570000Y3150000D02*
X1905000D01*
Y3285000D01*
X1570000D01*
Y3150000D01*
X1580000Y2150000D02*
X1750000D01*
Y3035000D01*
X1580000D01*
Y2150000D01*
X1690000Y3045000D02*
X2465000D01*
Y3115000D01*
X1690000D01*
Y3045000D01*
X1840000Y928750D02*
Y1003750D01*
X1796250D01*
X1783750Y997500D01*
X1777500Y985000D01*
X1783750Y972500D01*
X1796250Y966250D01*
X1840000D01*
X1796250D02*
X1777500Y928750D01*
X1740000D02*
X1677500Y1003750D01*
X1740000D02*
X1677500Y928750D01*
X1818750Y688750D02*
Y763750D01*
X1850000D02*
X1787500D01*
X1750000Y688750D02*
X1687500Y763750D01*
X1750000D02*
X1687500Y688750D01*
X2310000Y536250D02*
Y517500D01*
X2316250D01*
X2328750Y523750D01*
X2335000Y530000D01*
X2341250Y542500D01*
Y555000D01*
X2335000Y567500D01*
X2328750Y573750D01*
X2316250Y580000D01*
X2291250D01*
X2278750Y573750D01*
X2272500Y567500D01*
X2266250Y555000D01*
Y542500D01*
X2272500Y530000D01*
X2278750Y523750D01*
X2291250Y517500D01*
X2341250Y480000D02*
X2266250D01*
X2341250Y417500D01*
X2266250D01*
X2341250Y380000D02*
X2266250D01*
Y342500D01*
X2272500Y330000D01*
X2278750Y323750D01*
X2291250Y317500D01*
X2316250D01*
X2328750Y323750D01*
X2335000Y330000D01*
X2341250Y342500D01*
Y380000D01*
X2720000Y330000D02*
X2360000D01*
Y1390000D01*
X2820000D01*
Y430000D01*
X2720000Y330000D01*
D02*
D25*
X2470000Y1160000D02*
X2280000D01*
X2250000Y1130000D01*
Y950000D01*
X1960000D01*
X1890000Y880000D01*
Y560000D01*
X1820000Y490000D01*
X1510000D01*
Y670000D01*
X2480000Y960000D02*
X2380000D01*
X2320000Y1020000D01*
Y1460000D01*
X1670000D01*
X1520000Y1310000D01*
Y1030000D01*
X0Y0D02*
M02*
