G04 DesignSpark PCB Gerber Version 13.0 Build *
%FSLAX35Y35*%
%MOMM*%
%AMT90*0 Bullet Pad at angle 0*4,1,28,-0.47620,-0.37620,0.47620,-0.37620,0.47620,-0.10000,0.47240,-0.04030,0.46110,0.01840,0.44260,0.07520,0.41710,0.12920,0.38500,0.17960,0.34690,0.22560,0.30330,0.26650,0.25490,0.30160,0.20250,0.33030,0.14690,0.35220,0.08900,0.36700,0.02970,0.37440,-0.02990,0.37430,-0.08910,0.36680,-0.14690,0.35190,-0.20230,0.32990,-0.25450,0.30110,-0.30270,0.26600,-0.34610,0.22510,-0.38410,0.17910,-0.41600,0.12870,-0.44130,0.07470,-0.45970,0.01800,-0.47080,-0.04050,-0.47620,-0.10000,-0.47620,-0.37620,0*%
%ADD90T90*%
%ADD92R,0.45240X0.65240*%
%ADD87R,0.95240X0.95240*%
%ADD85R,0.95240X1.15240*%
%ADD91R,0.95240X0.95240*%
%ADD89C,0.95240*%
%AMT94*0 Bullet Pad at angle 90*4,1,28,0.37620,-0.47620,0.37620,0.47620,0.10000,0.47620,0.04030,0.47240,-0.01840,0.46110,-0.07520,0.44260,-0.12920,0.41710,-0.17960,0.38500,-0.22560,0.34690,-0.26650,0.30330,-0.30160,0.25490,-0.33030,0.20250,-0.35220,0.14690,-0.36700,0.08900,-0.37440,0.02970,-0.37430,-0.02990,-0.36680,-0.08910,-0.35190,-0.14690,-0.32990,-0.20230,-0.30110,-0.25450,-0.26600,-0.30270,-0.22510,-0.34610,-0.17910,-0.38410,-0.12870,-0.41600,-0.07470,-0.44130,-0.01800,-0.45970,0.04050,-0.47080,0.10000,-0.47620,0.37620,-0.47620,0*%
%ADD94T94*%
%AMT21*0 Bullet Pad at angle 90*21,1,1.45240,1.82620,0,0,90*%
%ADD21T21*%
%ADD95R,0.65240X0.45240*%
%ADD84R,1.35240X0.85240*%
%ADD83R,1.35240X1.15240*%
%ADD86R,2.95240X1.15240*%
%AMT88*0 Bullet Pad at angle 180*4,1,28,0.47620,0.37620,-0.47620,0.37620,-0.47620,0.10000,-0.47240,0.04030,-0.46110,-0.01840,-0.44260,-0.07520,-0.41710,-0.12920,-0.38500,-0.17960,-0.34690,-0.22560,-0.30330,-0.26650,-0.25490,-0.30160,-0.20250,-0.33030,-0.14690,-0.35220,-0.08900,-0.36700,-0.02970,-0.37440,0.02990,-0.37430,0.08910,-0.36680,0.14690,-0.35190,0.20230,-0.32990,0.25450,-0.30110,0.30270,-0.26600,0.34610,-0.22510,0.38410,-0.17910,0.41600,-0.12870,0.44130,-0.07470,0.45970,-0.01800,0.47080,0.04050,0.47620,0.10000,0.47620,0.37620,0*%
%ADD88T88*%
%AMT93*0 Bullet Pad at angle 270*4,1,28,-0.37620,0.47620,-0.37620,-0.47620,-0.10000,-0.47620,-0.04030,-0.47240,0.01840,-0.46110,0.07520,-0.44260,0.12920,-0.41710,0.17960,-0.38500,0.22560,-0.34690,0.26650,-0.30330,0.30160,-0.25490,0.33030,-0.20250,0.35220,-0.14690,0.36700,-0.08900,0.37440,-0.02970,0.37430,0.02990,0.36680,0.08910,0.35190,0.14690,0.32990,0.20230,0.30110,0.25450,0.26600,0.30270,0.22510,0.34610,0.17910,0.38410,0.12870,0.41600,0.07470,0.44130,0.01800,0.45970,-0.04050,0.47080,-0.10000,0.47620,-0.37620,0.47620,0*%
%ADD93T93*%
%ADD82R,2.05240X1.45240*%
%ADD71R,1.57240X1.55240*%
%ADD22C,1.45240*%
%ADD20C,1.55240*%
%AMT23*0 Bullet Pad at angle 270*21,1,1.45240,1.82620,0,0,270*%
%ADD23T23*%
X0Y0D02*
D02*
D71*
X2550000Y560000D03*
D02*
D20*
Y760000D03*
Y960000D03*
Y1160000D03*
D02*
D21*
X2116310Y570000D03*
D02*
D22*
X2025000D03*
D02*
D21*
X2116310Y824000D03*
D02*
D22*
X2025000D03*
D02*
D21*
X2116310Y1078000D03*
D02*
D22*
X2025000D03*
D02*
D21*
X2116310Y1332000D03*
D02*
D22*
X2025000D03*
D02*
D21*
X2116310Y1586000D03*
D02*
D22*
X2025000D03*
D02*
D21*
X2116310Y3364000D03*
D02*
D22*
X2025000D03*
D02*
D23*
X519690Y570000D03*
D02*
D22*
X611000D03*
D02*
D23*
X519690Y824000D03*
D02*
D22*
X611000D03*
D02*
D23*
X519690Y1078000D03*
D02*
D22*
X611000D03*
D02*
D23*
X519690Y1332000D03*
D02*
D22*
X611000D03*
D02*
D23*
X519690Y1586000D03*
D02*
D22*
X611000D03*
D02*
D23*
X519690Y1840000D03*
D02*
D22*
X611000D03*
D02*
D23*
X519690Y2094000D03*
D02*
D22*
X611000D03*
D02*
D23*
X519690Y2348000D03*
D02*
D22*
X611000D03*
D02*
D23*
X519690Y2602000D03*
D02*
D22*
X611000D03*
D02*
D23*
X519690Y2856000D03*
D02*
D22*
X611000D03*
D02*
D23*
X519690Y3110000D03*
D02*
D22*
X611000D03*
D02*
D23*
X519690Y3364000D03*
D02*
D22*
X611000D03*
D02*
D82*
X2580000Y1830000D03*
D02*
D83*
X1070000Y2065000D03*
X1500000Y3180000D03*
D02*
D84*
X1070000Y2220000D03*
Y2330000D03*
Y2440000D03*
Y2550000D03*
Y2660000D03*
Y2770000D03*
Y2880000D03*
Y2990000D03*
Y3085000D03*
D02*
D85*
X2120000Y3180000D03*
D02*
D86*
X2535000D03*
D02*
D87*
X1084900Y1110000D03*
Y1320000D03*
X1250000Y1110000D03*
Y1320000D03*
D02*
D88*
X1080000Y550000D03*
D02*
D90*
Y720000D03*
D02*
D91*
Y635000D03*
X1515000Y730000D03*
Y970000D03*
D02*
D92*
X1080000Y590000D03*
D02*
D93*
X1600000Y730000D03*
Y970000D03*
D02*
D94*
X1430000Y730000D03*
Y970000D03*
D02*
D95*
X1560000Y730000D03*
Y970000D03*
X0Y0D02*
M02*
